{
    "header": {
        "keySignatures": [],
        "meta": [],
        "name": "",
        "ppq": 960,
        "tempos": [],
        "timeSignatures": []
    },
    "tracks": [
        {
            "channel": 5,
            "controlChanges": {},
            "pitchBends": [],
            "instrument": {
                "family": "piano",
                "name": "acoustic grand piano",
                "number": 0
            },
            "name": "",
            "notes": [
                {
                    "duration": 1.4494791666666664,
                    "durationTicks": 2783,
                    "midi": 45,
                    "name": "A2",
                    "ticks": 7861,
                    "time": 4.094270833333334,
                    "velocity": 0.7874015748031497
                },
                {
                    "duration": 0.7244791666666668,
                    "durationTicks": 1391,
                    "midi": 40,
                    "name": "E2",
                    "ticks": 10644,
                    "time": 5.54375,
                    "velocity": 0.7874015748031497
                },
                {
                    "duration": 0.7249999999999996,
                    "durationTicks": 1392,
                    "midi": 43,
                    "name": "G2",
                    "ticks": 12035,
                    "time": 6.268229166666667,
                    "velocity": 0.7874015748031497
                },
                {
                    "duration": 1.9927083333333337,
                    "durationTicks": 3826,
                    "midi": 45,
                    "name": "A2",
                    "ticks": 13427,
                    "time": 6.993229166666667,
                    "velocity": 0.7874015748031497
                },
                {
                    "duration": 0.18125000000000036,
                    "durationTicks": 348,
                    "midi": 40,
                    "name": "E2",
                    "ticks": 17253,
                    "time": 8.9859375,
                    "velocity": 0.7874015748031497
                },
                {
                    "duration": 0.3619791666666661,
                    "durationTicks": 695,
                    "midi": 43,
                    "name": "G2",
                    "ticks": 17601,
                    "time": 9.1671875,
                    "velocity": 0.7874015748031497
                },
                {
                    "duration": 0.3625000000000007,
                    "durationTicks": 696,
                    "midi": 44,
                    "name": "G#2",
                    "ticks": 18296,
                    "time": 9.529166666666667,
                    "velocity": 0.7874015748031497
                },
                {
                    "duration": 1.4494791666666664,
                    "durationTicks": 2783,
                    "midi": 45,
                    "name": "A2",
                    "ticks": 18992,
                    "time": 9.891666666666667,
                    "velocity": 0.7874015748031497
                },
                {
                    "duration": 0.7244791666666668,
                    "durationTicks": 1391,
                    "midi": 40,
                    "name": "E2",
                    "ticks": 21775,
                    "time": 11.341145833333334,
                    "velocity": 0.7874015748031497
                },
                {
                    "duration": 0.7244791666666668,
                    "durationTicks": 1391,
                    "midi": 43,
                    "name": "G2",
                    "ticks": 23166,
                    "time": 12.065625,
                    "velocity": 0.7874015748031497
                },
                {
                    "duration": 1.8114583333333325,
                    "durationTicks": 3478,
                    "midi": 45,
                    "name": "A2",
                    "ticks": 24557,
                    "time": 12.790104166666667,
                    "velocity": 0.7874015748031497
                },
                {
                    "duration": 0.3625000000000007,
                    "durationTicks": 696,
                    "midi": 45,
                    "name": "A2",
                    "ticks": 28035,
                    "time": 14.6015625,
                    "velocity": 0.7874015748031497
                },
                {
                    "duration": 0.36249999999999893,
                    "durationTicks": 696,
                    "midi": 48,
                    "name": "C3",
                    "ticks": 28731,
                    "time": 14.9640625,
                    "velocity": 0.7874015748031497
                },
                {
                    "duration": 0.36197916666666785,
                    "durationTicks": 695,
                    "midi": 50,
                    "name": "D3",
                    "ticks": 29427,
                    "time": 15.3265625,
                    "velocity": 0.7874015748031497
                },
                {
                    "duration": 0.7249999999999996,
                    "durationTicks": 1392,
                    "midi": 52,
                    "name": "E3",
                    "ticks": 30122,
                    "time": 15.688541666666667,
                    "velocity": 0.7874015748031497
                },
                {
                    "duration": 0.36197916666666785,
                    "durationTicks": 695,
                    "midi": 52,
                    "name": "E3",
                    "ticks": 31514,
                    "time": 16.413541666666667,
                    "velocity": 0.7874015748031497
                },
                {
                    "duration": 0.36249999999999716,
                    "durationTicks": 696,
                    "midi": 43,
                    "name": "G2",
                    "ticks": 32209,
                    "time": 16.775520833333335,
                    "velocity": 0.7874015748031497
                },
                {
                    "duration": 0.7244791666666686,
                    "durationTicks": 1391,
                    "midi": 52,
                    "name": "E3",
                    "ticks": 32905,
                    "time": 17.138020833333332,
                    "velocity": 0.7874015748031497
                },
                {
                    "duration": 0.5437499999999993,
                    "durationTicks": 1044,
                    "midi": 47,
                    "name": "B2",
                    "ticks": 34296,
                    "time": 17.8625,
                    "velocity": 0.7874015748031497
                },
                {
                    "duration": 0.18124999999999858,
                    "durationTicks": 348,
                    "midi": 40,
                    "name": "E2",
                    "ticks": 35340,
                    "time": 18.40625,
                    "velocity": 0.7874015748031497
                },
                {
                    "duration": 0.7244791666666686,
                    "durationTicks": 1391,
                    "midi": 38,
                    "name": "D2",
                    "ticks": 35688,
                    "time": 18.5875,
                    "velocity": 0.7874015748031497
                },
                {
                    "duration": 0.724479166666665,
                    "durationTicks": 1391,
                    "midi": 38,
                    "name": "D2",
                    "ticks": 37079,
                    "time": 19.311979166666667,
                    "velocity": 0.7874015748031497
                },
                {
                    "duration": 0.7244791666666686,
                    "durationTicks": 1391,
                    "midi": 38,
                    "name": "D2",
                    "ticks": 38470,
                    "time": 20.036458333333332,
                    "velocity": 0.7874015748031497
                },
                {
                    "duration": 0.3625000000000007,
                    "durationTicks": 696,
                    "midi": 43,
                    "name": "G2",
                    "ticks": 39861,
                    "time": 20.7609375,
                    "velocity": 0.7874015748031497
                },
                {
                    "duration": 0.36249999999999716,
                    "durationTicks": 696,
                    "midi": 44,
                    "name": "G#2",
                    "ticks": 40557,
                    "time": 21.1234375,
                    "velocity": 0.7874015748031497
                },
                {
                    "duration": 1.4489583333333336,
                    "durationTicks": 2782,
                    "midi": 45,
                    "name": "A2",
                    "ticks": 41253,
                    "time": 21.4859375,
                    "velocity": 0.7874015748031497
                },
                {
                    "duration": 0.7250000000000014,
                    "durationTicks": 1392,
                    "midi": 40,
                    "name": "E2",
                    "ticks": 44035,
                    "time": 22.934895833333332,
                    "velocity": 0.7874015748031497
                },
                {
                    "duration": 0.724479166666665,
                    "durationTicks": 1391,
                    "midi": 43,
                    "name": "G2",
                    "ticks": 45427,
                    "time": 23.659895833333334,
                    "velocity": 0.7874015748031497
                },
                {
                    "duration": 1.9927083333333364,
                    "durationTicks": 3826,
                    "midi": 45,
                    "name": "A2",
                    "ticks": 46818,
                    "time": 24.384375,
                    "velocity": 0.7874015748031497
                },
                {
                    "duration": 0.18124999999999858,
                    "durationTicks": 348,
                    "midi": 52,
                    "name": "E3",
                    "ticks": 50644,
                    "time": 26.377083333333335,
                    "velocity": 0.7874015748031497
                },
                {
                    "duration": 0.3625000000000007,
                    "durationTicks": 696,
                    "midi": 55,
                    "name": "G3",
                    "ticks": 50992,
                    "time": 26.558333333333334,
                    "velocity": 0.7874015748031497
                },
                {
                    "duration": 0.3619791666666643,
                    "durationTicks": 695,
                    "midi": 56,
                    "name": "G#3",
                    "ticks": 51688,
                    "time": 26.920833333333334,
                    "velocity": 0.7874015748031497
                },
                {
                    "duration": 1.4494791666666664,
                    "durationTicks": 2783,
                    "midi": 57,
                    "name": "A3",
                    "ticks": 52383,
                    "time": 27.2828125,
                    "velocity": 0.7874015748031497
                },
                {
                    "duration": 0.7244791666666686,
                    "durationTicks": 1391,
                    "midi": 52,
                    "name": "E3",
                    "ticks": 55166,
                    "time": 28.732291666666665,
                    "velocity": 0.7874015748031497
                },
                {
                    "duration": 0.724479166666665,
                    "durationTicks": 1391,
                    "midi": 55,
                    "name": "G3",
                    "ticks": 56557,
                    "time": 29.456770833333334,
                    "velocity": 0.7874015748031497
                },
                {
                    "duration": 1.9932291666666657,
                    "durationTicks": 3827,
                    "midi": 57,
                    "name": "A3",
                    "ticks": 57948,
                    "time": 30.18125,
                    "velocity": 0.7874015748031497
                },
                {
                    "duration": 0.18072916666666572,
                    "durationTicks": 347,
                    "midi": 52,
                    "name": "E3",
                    "ticks": 61775,
                    "time": 32.174479166666664,
                    "velocity": 0.7874015748031497
                },
                {
                    "duration": 0.36250000000000426,
                    "durationTicks": 696,
                    "midi": 55,
                    "name": "G3",
                    "ticks": 62122,
                    "time": 32.35520833333333,
                    "velocity": 0.7874015748031497
                },
                {
                    "duration": 0.36249999999999716,
                    "durationTicks": 696,
                    "midi": 56,
                    "name": "G#3",
                    "ticks": 62818,
                    "time": 32.717708333333334,
                    "velocity": 0.7874015748031497
                },
                {
                    "duration": 1.4489583333333371,
                    "durationTicks": 2782,
                    "midi": 57,
                    "name": "A3",
                    "ticks": 63514,
                    "time": 33.08020833333333,
                    "velocity": 0.7874015748031497
                },
                {
                    "duration": 0.7250000000000014,
                    "durationTicks": 1392,
                    "midi": 52,
                    "name": "E3",
                    "ticks": 66296,
                    "time": 34.52916666666667,
                    "velocity": 0.7874015748031497
                },
                {
                    "duration": 0.7244791666666615,
                    "durationTicks": 1391,
                    "midi": 55,
                    "name": "G3",
                    "ticks": 67688,
                    "time": 35.25416666666667,
                    "velocity": 0.7874015748031497
                },
                {
                    "duration": 1.8114583333333343,
                    "durationTicks": 3478,
                    "midi": 57,
                    "name": "A3",
                    "ticks": 69079,
                    "time": 35.97864583333333,
                    "velocity": 0.7874015748031497
                },
                {
                    "duration": 0.36250000000000426,
                    "durationTicks": 696,
                    "midi": 57,
                    "name": "A3",
                    "ticks": 72557,
                    "time": 37.790104166666666,
                    "velocity": 0.7874015748031497
                },
                {
                    "duration": 0.3619791666666643,
                    "durationTicks": 695,
                    "midi": 60,
                    "name": "C4",
                    "ticks": 73253,
                    "time": 38.15260416666667,
                    "velocity": 0.7874015748031497
                },
                {
                    "duration": 0.36249999999999716,
                    "durationTicks": 696,
                    "midi": 62,
                    "name": "D4",
                    "ticks": 73948,
                    "time": 38.514583333333334,
                    "velocity": 0.7874015748031497
                },
                {
                    "duration": 0.7244791666666686,
                    "durationTicks": 1391,
                    "midi": 64,
                    "name": "E4",
                    "ticks": 74644,
                    "time": 38.87708333333333,
                    "velocity": 0.7874015748031497
                },
                {
                    "duration": 0.36249999999999716,
                    "durationTicks": 696,
                    "midi": 64,
                    "name": "E4",
                    "ticks": 76035,
                    "time": 39.6015625,
                    "velocity": 0.7874015748031497
                },
                {
                    "duration": 0.36250000000000426,
                    "durationTicks": 696,
                    "midi": 55,
                    "name": "G3",
                    "ticks": 76731,
                    "time": 39.9640625,
                    "velocity": 0.7874015748031497
                },
                {
                    "duration": 0.3619791666666643,
                    "durationTicks": 695,
                    "midi": 64,
                    "name": "E4",
                    "ticks": 77427,
                    "time": 40.3265625,
                    "velocity": 0.7874015748031497
                },
                {
                    "duration": 0.36250000000000426,
                    "durationTicks": 696,
                    "midi": 59,
                    "name": "B3",
                    "ticks": 78122,
                    "time": 40.688541666666666,
                    "velocity": 0.7874015748031497
                },
                {
                    "duration": 0.36249999999999716,
                    "durationTicks": 696,
                    "midi": 64,
                    "name": "E4",
                    "ticks": 78818,
                    "time": 41.05104166666667,
                    "velocity": 0.7874015748031497
                },
                {
                    "duration": 0.3619791666666643,
                    "durationTicks": 695,
                    "midi": 59,
                    "name": "B3",
                    "ticks": 79514,
                    "time": 41.41354166666667,
                    "velocity": 0.7874015748031497
                },
                {
                    "duration": 1.8119791666666671,
                    "durationTicks": 3479,
                    "midi": 50,
                    "name": "D3",
                    "ticks": 80209,
                    "time": 41.77552083333333,
                    "velocity": 0.7874015748031497
                },
                {
                    "duration": 0.3619791666666714,
                    "durationTicks": 695,
                    "midi": 50,
                    "name": "D3",
                    "ticks": 83688,
                    "time": 43.5875,
                    "velocity": 0.7874015748031497
                },
                {
                    "duration": 0.36249999999999716,
                    "durationTicks": 696,
                    "midi": 55,
                    "name": "G3",
                    "ticks": 84383,
                    "time": 43.94947916666667,
                    "velocity": 0.7874015748031497
                },
                {
                    "duration": 0.36249999999999716,
                    "durationTicks": 696,
                    "midi": 56,
                    "name": "G#3",
                    "ticks": 85079,
                    "time": 44.31197916666667,
                    "velocity": 0.7874015748031497
                },
                {
                    "duration": 1.4489583333333371,
                    "durationTicks": 2782,
                    "midi": 57,
                    "name": "A3",
                    "ticks": 85775,
                    "time": 44.674479166666664,
                    "velocity": 0.7874015748031497
                },
                {
                    "duration": 0.7244791666666686,
                    "durationTicks": 1391,
                    "midi": 52,
                    "name": "E3",
                    "ticks": 88557,
                    "time": 46.1234375,
                    "velocity": 0.7874015748031497
                },
                {
                    "duration": 0.7249999999999943,
                    "durationTicks": 1392,
                    "midi": 55,
                    "name": "G3",
                    "ticks": 89948,
                    "time": 46.84791666666667,
                    "velocity": 0.7874015748031497
                },
                {
                    "duration": 2.8984375,
                    "durationTicks": 5565,
                    "midi": 57,
                    "name": "A3",
                    "ticks": 91340,
                    "time": 47.572916666666664,
                    "velocity": 0.7874015748031497
                },
                {
                    "duration": 0.7244791666666686,
                    "durationTicks": 1391,
                    "midi": 40,
                    "name": "E2",
                    "ticks": 133079,
                    "time": 69.31197916666666,
                    "velocity": 0.7874015748031497
                },
                {
                    "duration": 0.7244791666666686,
                    "durationTicks": 1391,
                    "midi": 43,
                    "name": "G2",
                    "ticks": 134470,
                    "time": 70.03645833333333,
                    "velocity": 0.7874015748031497
                },
                {
                    "duration": 1.9932291666666657,
                    "durationTicks": 3827,
                    "midi": 45,
                    "name": "A2",
                    "ticks": 135861,
                    "time": 70.7609375,
                    "velocity": 0.7874015748031497
                },
                {
                    "duration": 0.18072916666666572,
                    "durationTicks": 347,
                    "midi": 52,
                    "name": "E3",
                    "ticks": 139688,
                    "time": 72.75416666666666,
                    "velocity": 0.7874015748031497
                },
                {
                    "duration": 0.36250000000001137,
                    "durationTicks": 696,
                    "midi": 55,
                    "name": "G3",
                    "ticks": 140035,
                    "time": 72.93489583333333,
                    "velocity": 0.7874015748031497
                },
                {
                    "duration": 0.36249999999999716,
                    "durationTicks": 696,
                    "midi": 56,
                    "name": "G#3",
                    "ticks": 140731,
                    "time": 73.29739583333334,
                    "velocity": 0.7874015748031497
                },
                {
                    "duration": 1.448958333333323,
                    "durationTicks": 2782,
                    "midi": 57,
                    "name": "A3",
                    "ticks": 141427,
                    "time": 73.65989583333334,
                    "velocity": 0.7874015748031497
                },
                {
                    "duration": 0.7250000000000085,
                    "durationTicks": 1392,
                    "midi": 52,
                    "name": "E3",
                    "ticks": 144209,
                    "time": 75.10885416666666,
                    "velocity": 0.7874015748031497
                },
                {
                    "duration": 0.7244791666666686,
                    "durationTicks": 1391,
                    "midi": 55,
                    "name": "G3",
                    "ticks": 145601,
                    "time": 75.83385416666667,
                    "velocity": 0.7874015748031497
                },
                {
                    "duration": 1.941145833333323,
                    "durationTicks": 3727,
                    "midi": 57,
                    "name": "A3",
                    "ticks": 146992,
                    "time": 76.55833333333334,
                    "velocity": 0.7874015748031497
                }
            ]
        }
    ]
}