{
  "header": {
    "keySignatures": [],
    "meta": [],
    "name": "",
    "ppq": 960,
    "tempos": [],
    "timeSignatures": []
  },
  "tracks": [
    {
      "channel": 0,
      "controlChanges": {
        "64": [
          {
            "number": 64,
            "ticks": 317,
            "time": 0.16510416666666666,
            "value": 1
          },
          {
            "number": 64,
            "ticks": 2291,
            "time": 1.1932291666666666,
            "value": 0
          },
          {
            "number": 64,
            "ticks": 2371,
            "time": 1.2348958333333333,
            "value": 1
          },
          {
            "number": 64,
            "ticks": 4038,
            "time": 2.103125,
            "value": 0
          },
          {
            "number": 64,
            "ticks": 4182,
            "time": 2.178125,
            "value": 1
          },
          {
            "number": 64,
            "ticks": 5891,
            "time": 3.068229166666667,
            "value": 0
          },
          {
            "number": 64,
            "ticks": 6025,
            "time": 3.1380208333333335,
            "value": 1
          },
          {
            "number": 64,
            "ticks": 7638,
            "time": 3.978125,
            "value": 0
          },
          {
            "number": 64,
            "ticks": 7720,
            "time": 4.020833333333333,
            "value": 1
          },
          {
            "number": 64,
            "ticks": 9410,
            "time": 4.901041666666667,
            "value": 0
          },
          {
            "number": 64,
            "ticks": 9529,
            "time": 4.963020833333333,
            "value": 1
          },
          {
            "number": 64,
            "ticks": 11301,
            "time": 5.8859375,
            "value": 0
          },
          {
            "number": 64,
            "ticks": 11353,
            "time": 5.913020833333333,
            "value": 1
          },
          {
            "number": 64,
            "ticks": 12985,
            "time": 6.763020833333333,
            "value": 0
          },
          {
            "number": 64,
            "ticks": 13091,
            "time": 6.818229166666667,
            "value": 1
          },
          {
            "number": 64,
            "ticks": 14546,
            "time": 7.576041666666667,
            "value": 0
          },
          {
            "number": 64,
            "ticks": 14604,
            "time": 7.60625,
            "value": 1
          },
          {
            "number": 64,
            "ticks": 16466,
            "time": 8.576041666666667,
            "value": 0
          },
          {
            "number": 64,
            "ticks": 16581,
            "time": 8.6359375,
            "value": 1
          },
          {
            "number": 64,
            "ticks": 33617,
            "time": 17.508854166666666,
            "value": 0
          },
          {
            "number": 64,
            "ticks": 33665,
            "time": 17.533854166666668,
            "value": 1
          },
          {
            "number": 64,
            "ticks": 37265,
            "time": 19.408854166666668,
            "value": 0
          },
          {
            "number": 64,
            "ticks": 37323,
            "time": 19.4390625,
            "value": 1
          },
          {
            "number": 64,
            "ticks": 55609,
            "time": 28.963020833333335,
            "value": 0
          },
          {
            "number": 64,
            "ticks": 55671,
            "time": 28.9953125,
            "value": 1
          },
          {
            "number": 64,
            "ticks": 64297,
            "time": 33.48802083333333,
            "value": 0
          },
          {
            "number": 64,
            "ticks": 64322,
            "time": 33.501041666666666,
            "value": 1
          },
          {
            "number": 64,
            "ticks": 67600,
            "time": 35.208333333333336,
            "value": 0
          },
          {
            "number": 64,
            "ticks": 67648,
            "time": 35.233333333333334,
            "value": 1
          },
          {
            "number": 64,
            "ticks": 77816,
            "time": 40.52916666666667,
            "value": 0
          },
          {
            "number": 64,
            "ticks": 77893,
            "time": 40.569270833333334,
            "value": 1
          },
          {
            "number": 64,
            "ticks": 84521,
            "time": 44.02135416666667,
            "value": 0
          },
          {
            "number": 64,
            "ticks": 84545,
            "time": 44.033854166666664,
            "value": 1
          },
          {
            "number": 64,
            "ticks": 85970,
            "time": 44.776041666666664,
            "value": 0
          },
          {
            "number": 64,
            "ticks": 86005,
            "time": 44.794270833333336,
            "value": 1
          },
          {
            "number": 64,
            "ticks": 155904,
            "time": 81.2,
            "value": 0
          },
          {
            "number": 64,
            "ticks": 155960,
            "time": 81.22916666666667,
            "value": 1
          },
          {
            "number": 64,
            "ticks": 246914,
            "time": 128.60104166666667,
            "value": 0
          },
          {
            "number": 64,
            "ticks": 247202,
            "time": 128.75104166666668,
            "value": 1
          },
          {
            "number": 64,
            "ticks": 248876,
            "time": 129.62291666666667,
            "value": 0
          },
          {
            "number": 64,
            "ticks": 249391,
            "time": 129.89114583333333,
            "value": 1
          },
          {
            "number": 64,
            "ticks": 251733,
            "time": 131.1109375,
            "value": 0
          },
          {
            "number": 64,
            "ticks": 252328,
            "time": 131.42083333333332,
            "value": 1
          },
          {
            "number": 64,
            "ticks": 254821,
            "time": 132.71927083333333,
            "value": 0
          },
          {
            "number": 64,
            "ticks": 255208,
            "time": 132.92083333333332,
            "value": 1
          },
          {
            "number": 64,
            "ticks": 257605,
            "time": 134.16927083333334,
            "value": 0
          },
          {
            "number": 64,
            "ticks": 258108,
            "time": 134.43125,
            "value": 1
          },
          {
            "number": 64,
            "ticks": 260917,
            "time": 135.89427083333334,
            "value": 0
          },
          {
            "number": 64,
            "ticks": 260955,
            "time": 135.9140625,
            "value": 1
          },
          {
            "number": 64,
            "ticks": 263019,
            "time": 136.9890625,
            "value": 0
          },
          {
            "number": 64,
            "ticks": 263701,
            "time": 137.34427083333333,
            "value": 1
          },
          {
            "number": 64,
            "ticks": 266043,
            "time": 138.5640625,
            "value": 0
          },
          {
            "number": 64,
            "ticks": 266590,
            "time": 138.84895833333334,
            "value": 1
          },
          {
            "number": 64,
            "ticks": 270954,
            "time": 141.121875,
            "value": 0
          },
          {
            "number": 64,
            "ticks": 271025,
            "time": 141.15885416666666,
            "value": 1
          },
          {
            "number": 64,
            "ticks": 304470,
            "time": 158.578125,
            "value": 0
          },
          {
            "number": 64,
            "ticks": 304508,
            "time": 158.59791666666666,
            "value": 1
          },
          {
            "number": 64,
            "ticks": 316255,
            "time": 164.71614583333334,
            "value": 0
          },
          {
            "number": 64,
            "ticks": 316308,
            "time": 164.74375,
            "value": 1
          },
          {
            "number": 64,
            "ticks": 353449,
            "time": 184.08802083333333,
            "value": 0
          },
          {
            "number": 64,
            "ticks": 353564,
            "time": 184.14791666666667,
            "value": 1
          },
          {
            "number": 64,
            "ticks": 395856,
            "time": 206.175,
            "value": 0
          }
        ]
      },
      "pitchBends": [],
      "instrument": {
        "family": "piano",
        "name": "acoustic grand piano",
        "number": 0
      },
      "name": "",
      "notes": [
        {
          "duration": 0.6541666666666667,
          "durationTicks": 1256,
          "midi": 67,
          "name": "G4",
          "ticks": 271,
          "time": 0.14114583333333333,
          "velocity": 0.4566929133858268
        },
        {
          "duration": 0.6427083333333333,
          "durationTicks": 1234,
          "midi": 60,
          "name": "C4",
          "ticks": 275,
          "time": 0.14322916666666666,
          "velocity": 0.4566929133858268
        },
        {
          "duration": 0.12760416666666666,
          "durationTicks": 245,
          "midi": 76,
          "name": "E5",
          "ticks": 277,
          "time": 0.14427083333333332,
          "velocity": 0.44881889763779526
        },
        {
          "duration": 0.20312499999999997,
          "durationTicks": 390,
          "midi": 72,
          "name": "C5",
          "ticks": 280,
          "time": 0.14583333333333334,
          "velocity": 0.48031496062992124
        },
        {
          "duration": 0.3619791666666667,
          "durationTicks": 695,
          "midi": 76,
          "name": "E5",
          "ticks": 730,
          "time": 0.3802083333333333,
          "velocity": 0.3779527559055118
        },
        {
          "duration": 0.32291666666666663,
          "durationTicks": 620,
          "midi": 77,
          "name": "F5",
          "ticks": 1256,
          "time": 0.6541666666666667,
          "velocity": 0.44881889763779526
        },
        {
          "duration": 0.2729166666666667,
          "durationTicks": 524,
          "midi": 79,
          "name": "G5",
          "ticks": 1786,
          "time": 0.9302083333333333,
          "velocity": 0.49606299212598426
        },
        {
          "duration": 0.5291666666666666,
          "durationTicks": 1016,
          "midi": 77,
          "name": "F5",
          "ticks": 2277,
          "time": 1.1859375,
          "velocity": 0.48031496062992124
        },
        {
          "duration": 0.575,
          "durationTicks": 1104,
          "midi": 65,
          "name": "F4",
          "ticks": 2300,
          "time": 1.1979166666666667,
          "velocity": 0.44881889763779526
        },
        {
          "duration": 0.5333333333333334,
          "durationTicks": 1024,
          "midi": 69,
          "name": "A4",
          "ticks": 2306,
          "time": 1.2010416666666666,
          "velocity": 0.47244094488188976
        },
        {
          "duration": 0.3999999999999999,
          "durationTicks": 768,
          "midi": 76,
          "name": "E5",
          "ticks": 3258,
          "time": 1.696875,
          "velocity": 0.44881889763779526
        },
        {
          "duration": 0.17499999999999982,
          "durationTicks": 336,
          "midi": 72,
          "name": "C5",
          "ticks": 4122,
          "time": 2.146875,
          "velocity": 0.47244094488188976
        },
        {
          "duration": 0.11406250000000018,
          "durationTicks": 219,
          "midi": 76,
          "name": "E5",
          "ticks": 4130,
          "time": 2.1510416666666665,
          "velocity": 0.3228346456692913
        },
        {
          "duration": 0.1567708333333333,
          "durationTicks": 301,
          "midi": 60,
          "name": "C4",
          "ticks": 4146,
          "time": 2.159375,
          "velocity": 0.47244094488188976
        },
        {
          "duration": 0.1578124999999999,
          "durationTicks": 303,
          "midi": 67,
          "name": "G4",
          "ticks": 4151,
          "time": 2.161979166666667,
          "velocity": 0.48031496062992124
        },
        {
          "duration": 0.2979166666666666,
          "durationTicks": 572,
          "midi": 76,
          "name": "E5",
          "ticks": 4564,
          "time": 2.377083333333333,
          "velocity": 0.36220472440944884
        },
        {
          "duration": 0.2119791666666666,
          "durationTicks": 407,
          "midi": 77,
          "name": "F5",
          "ticks": 5052,
          "time": 2.63125,
          "velocity": 0.4251968503937008
        },
        {
          "duration": 0.1260416666666666,
          "durationTicks": 242,
          "midi": 79,
          "name": "G5",
          "ticks": 5474,
          "time": 2.8510416666666667,
          "velocity": 0.47244094488188976
        },
        {
          "duration": 0.3463541666666665,
          "durationTicks": 665,
          "midi": 71,
          "name": "B4",
          "ticks": 5996,
          "time": 3.122916666666667,
          "velocity": 0.44881889763779526
        },
        {
          "duration": 0.3739583333333334,
          "durationTicks": 718,
          "midi": 67,
          "name": "G4",
          "ticks": 6002,
          "time": 3.1260416666666666,
          "velocity": 0.4251968503937008
        },
        {
          "duration": 0.3588541666666667,
          "durationTicks": 689,
          "midi": 79,
          "name": "G5",
          "ticks": 6014,
          "time": 3.1322916666666667,
          "velocity": 0.5196850393700787
        },
        {
          "duration": 0.09895833333333393,
          "durationTicks": 190,
          "midi": 76,
          "name": "E5",
          "ticks": 7692,
          "time": 4.00625,
          "velocity": 0.4566929133858268
        },
        {
          "duration": 0.32083333333333375,
          "durationTicks": 616,
          "midi": 60,
          "name": "C4",
          "ticks": 7705,
          "time": 4.013020833333333,
          "velocity": 0.4566929133858268
        },
        {
          "duration": 0.1281250000000007,
          "durationTicks": 246,
          "midi": 72,
          "name": "C5",
          "ticks": 7705,
          "time": 4.013020833333333,
          "velocity": 0.44881889763779526
        },
        {
          "duration": 0.3057291666666675,
          "durationTicks": 587,
          "midi": 67,
          "name": "G4",
          "ticks": 7709,
          "time": 4.015104166666666,
          "velocity": 0.4566929133858268
        },
        {
          "duration": 0.15677083333333286,
          "durationTicks": 301,
          "midi": 79,
          "name": "G5",
          "ticks": 7734,
          "time": 4.028125,
          "velocity": 0.3937007874015748
        },
        {
          "duration": 0.35520833333333357,
          "durationTicks": 682,
          "midi": 76,
          "name": "E5",
          "ticks": 8068,
          "time": 4.202083333333333,
          "velocity": 0.3779527559055118
        },
        {
          "duration": 0.18802083333333286,
          "durationTicks": 361,
          "midi": 77,
          "name": "F5",
          "ticks": 8636,
          "time": 4.497916666666667,
          "velocity": 0.3937007874015748
        },
        {
          "duration": 0.1729166666666675,
          "durationTicks": 332,
          "midi": 79,
          "name": "G5",
          "ticks": 8999,
          "time": 4.686979166666666,
          "velocity": 0.48031496062992124
        },
        {
          "duration": 0.17395833333333321,
          "durationTicks": 334,
          "midi": 72,
          "name": "C5",
          "ticks": 9527,
          "time": 4.961979166666667,
          "velocity": 0.5118110236220472
        },
        {
          "duration": 0.5276041666666673,
          "durationTicks": 1013,
          "midi": 57,
          "name": "A3",
          "ticks": 9539,
          "time": 4.968229166666666,
          "velocity": 0.44881889763779526
        },
        {
          "duration": 0.5218750000000005,
          "durationTicks": 1002,
          "midi": 64,
          "name": "E4",
          "ticks": 9550,
          "time": 4.973958333333333,
          "velocity": 0.48031496062992124
        },
        {
          "duration": 0.08124999999999982,
          "durationTicks": 156,
          "midi": 69,
          "name": "A4",
          "ticks": 9556,
          "time": 4.977083333333334,
          "velocity": 0.4566929133858268
        },
        {
          "duration": 0.4630208333333332,
          "durationTicks": 889,
          "midi": 72,
          "name": "C5",
          "ticks": 10414,
          "time": 5.423958333333333,
          "velocity": 0.47244094488188976
        },
        {
          "duration": 0.19843749999999982,
          "durationTicks": 381,
          "midi": 74,
          "name": "D5",
          "ticks": 11272,
          "time": 5.870833333333334,
          "velocity": 0.48031496062992124
        },
        {
          "duration": 0.17604166666666643,
          "durationTicks": 338,
          "midi": 65,
          "name": "F4",
          "ticks": 11284,
          "time": 5.877083333333333,
          "velocity": 0.47244094488188976
        },
        {
          "duration": 0.18437500000000018,
          "durationTicks": 354,
          "midi": 62,
          "name": "D4",
          "ticks": 11295,
          "time": 5.8828125,
          "velocity": 0.44881889763779526
        },
        {
          "duration": 0.26510416666666625,
          "durationTicks": 509,
          "midi": 76,
          "name": "E5",
          "ticks": 11683,
          "time": 6.084895833333333,
          "velocity": 0.44881889763779526
        },
        {
          "duration": 0.3020833333333339,
          "durationTicks": 580,
          "midi": 74,
          "name": "D5",
          "ticks": 12171,
          "time": 6.3390625,
          "velocity": 0.41732283464566927
        },
        {
          "duration": 0.1416666666666666,
          "durationTicks": 272,
          "midi": 72,
          "name": "C5",
          "ticks": 12634,
          "time": 6.580208333333333,
          "velocity": 0.44881889763779526
        },
        {
          "duration": 0.6442708333333336,
          "durationTicks": 1237,
          "midi": 55,
          "name": "G3",
          "ticks": 13075,
          "time": 6.809895833333333,
          "velocity": 0.47244094488188976
        },
        {
          "duration": 0.6671875000000007,
          "durationTicks": 1281,
          "midi": 62,
          "name": "D4",
          "ticks": 13077,
          "time": 6.8109375,
          "velocity": 0.48031496062992124
        },
        {
          "duration": 0.6989583333333327,
          "durationTicks": 1342,
          "midi": 67,
          "name": "G4",
          "ticks": 13087,
          "time": 6.816145833333334,
          "velocity": 0.5433070866141733
        },
        {
          "duration": 0.26822916666666696,
          "durationTicks": 515,
          "midi": 71,
          "name": "B4",
          "ticks": 14429,
          "time": 7.515104166666666,
          "velocity": 0.4566929133858268
        },
        {
          "duration": 0.17135416666666625,
          "durationTicks": 329,
          "midi": 62,
          "name": "D4",
          "ticks": 14872,
          "time": 7.745833333333334,
          "velocity": 0.44881889763779526
        },
        {
          "duration": 0.1640625,
          "durationTicks": 315,
          "midi": 55,
          "name": "G3",
          "ticks": 14880,
          "time": 7.75,
          "velocity": 0.4330708661417323
        },
        {
          "duration": 0.6989583333333327,
          "durationTicks": 1342,
          "midi": 67,
          "name": "G4",
          "ticks": 14901,
          "time": 7.7609375,
          "velocity": 0.5196850393700787
        },
        {
          "duration": 0.22864583333333321,
          "durationTicks": 439,
          "midi": 71,
          "name": "B4",
          "ticks": 16167,
          "time": 8.4203125,
          "velocity": 0.4566929133858268
        },
        {
          "duration": 0.12812499999999893,
          "durationTicks": 246,
          "midi": 62,
          "name": "D4",
          "ticks": 16562,
          "time": 8.626041666666667,
          "velocity": 0.4094488188976378
        },
        {
          "duration": 0.08020833333333321,
          "durationTicks": 154,
          "midi": 55,
          "name": "G3",
          "ticks": 16583,
          "time": 8.636979166666666,
          "velocity": 0.3464566929133858
        },
        {
          "duration": 0.18333333333333357,
          "durationTicks": 352,
          "midi": 67,
          "name": "G4",
          "ticks": 16654,
          "time": 8.673958333333333,
          "velocity": 0.49606299212598426
        },
        {
          "duration": 0.15416666666666679,
          "durationTicks": 296,
          "midi": 71,
          "name": "B4",
          "ticks": 17019,
          "time": 8.8640625,
          "velocity": 0.3937007874015748
        },
        {
          "duration": 0.22708333333333286,
          "durationTicks": 436,
          "midi": 67,
          "name": "G4",
          "ticks": 17411,
          "time": 9.068229166666667,
          "velocity": 0.3543307086614173
        },
        {
          "duration": 0.17916666666666714,
          "durationTicks": 344,
          "midi": 71,
          "name": "B4",
          "ticks": 17827,
          "time": 9.284895833333334,
          "velocity": 0.4094488188976378
        },
        {
          "duration": 0.1828125000000007,
          "durationTicks": 351,
          "midi": 67,
          "name": "G4",
          "ticks": 18248,
          "time": 9.504166666666666,
          "velocity": 0.44881889763779526
        },
        {
          "duration": 0.12083333333333357,
          "durationTicks": 232,
          "midi": 62,
          "name": "D4",
          "ticks": 18294,
          "time": 9.528125,
          "velocity": 0.4409448818897638
        },
        {
          "duration": 0.08229166666666643,
          "durationTicks": 158,
          "midi": 55,
          "name": "G3",
          "ticks": 18311,
          "time": 9.536979166666667,
          "velocity": 0.3937007874015748
        },
        {
          "duration": 0.1687499999999993,
          "durationTicks": 324,
          "midi": 71,
          "name": "B4",
          "ticks": 18607,
          "time": 9.691145833333334,
          "velocity": 0.3464566929133858
        },
        {
          "duration": 0.19427083333333428,
          "durationTicks": 373,
          "midi": 67,
          "name": "G4",
          "ticks": 19054,
          "time": 9.923958333333333,
          "velocity": 0.3937007874015748
        },
        {
          "duration": 0.18020833333333286,
          "durationTicks": 346,
          "midi": 71,
          "name": "B4",
          "ticks": 19425,
          "time": 10.1171875,
          "velocity": 0.4094488188976378
        },
        {
          "duration": 0.18802083333333286,
          "durationTicks": 361,
          "midi": 67,
          "name": "G4",
          "ticks": 19864,
          "time": 10.345833333333333,
          "velocity": 0.41732283464566927
        },
        {
          "duration": 0.07083333333333286,
          "durationTicks": 136,
          "midi": 62,
          "name": "D4",
          "ticks": 19882,
          "time": 10.355208333333334,
          "velocity": 0.4015748031496063
        },
        {
          "duration": 0.07291666666666607,
          "durationTicks": 140,
          "midi": 55,
          "name": "G3",
          "ticks": 19886,
          "time": 10.357291666666667,
          "velocity": 0.3937007874015748
        },
        {
          "duration": 0.140625,
          "durationTicks": 270,
          "midi": 71,
          "name": "B4",
          "ticks": 20243,
          "time": 10.543229166666666,
          "velocity": 0.3858267716535433
        },
        {
          "duration": 0.18593749999999964,
          "durationTicks": 357,
          "midi": 67,
          "name": "G4",
          "ticks": 20627,
          "time": 10.743229166666667,
          "velocity": 0.3937007874015748
        },
        {
          "duration": 0.17395833333333321,
          "durationTicks": 334,
          "midi": 71,
          "name": "B4",
          "ticks": 21024,
          "time": 10.95,
          "velocity": 0.3779527559055118
        },
        {
          "duration": 0.20885416666666679,
          "durationTicks": 401,
          "midi": 67,
          "name": "G4",
          "ticks": 21435,
          "time": 11.1640625,
          "velocity": 0.3858267716535433
        },
        {
          "duration": 0.171875,
          "durationTicks": 330,
          "midi": 71,
          "name": "B4",
          "ticks": 21825,
          "time": 11.3671875,
          "velocity": 0.3858267716535433
        },
        {
          "duration": 0.15989583333333357,
          "durationTicks": 307,
          "midi": 67,
          "name": "G4",
          "ticks": 22242,
          "time": 11.584375,
          "velocity": 0.4251968503937008
        },
        {
          "duration": 0.06718750000000107,
          "durationTicks": 129,
          "midi": 71,
          "name": "B4",
          "ticks": 22568,
          "time": 11.754166666666666,
          "velocity": 0.4566929133858268
        },
        {
          "duration": 0.09895833333333215,
          "durationTicks": 190,
          "midi": 72,
          "name": "C5",
          "ticks": 23009,
          "time": 11.983854166666667,
          "velocity": 0.4566929133858268
        },
        {
          "duration": 0.08906250000000071,
          "durationTicks": 171,
          "midi": 60,
          "name": "C4",
          "ticks": 23011,
          "time": 11.984895833333333,
          "velocity": 0.48031496062992124
        },
        {
          "duration": 0.09322916666666714,
          "durationTicks": 179,
          "midi": 67,
          "name": "G4",
          "ticks": 23011,
          "time": 11.984895833333333,
          "velocity": 0.48031496062992124
        },
        {
          "duration": 0.05572916666666572,
          "durationTicks": 107,
          "midi": 72,
          "name": "C5",
          "ticks": 23451,
          "time": 12.2140625,
          "velocity": 0.41732283464566927
        },
        {
          "duration": 0.10572916666666643,
          "durationTicks": 203,
          "midi": 72,
          "name": "C5",
          "ticks": 23699,
          "time": 12.343229166666667,
          "velocity": 0.47244094488188976
        },
        {
          "duration": 0.05208333333333215,
          "durationTicks": 100,
          "midi": 72,
          "name": "C5",
          "ticks": 24152,
          "time": 12.579166666666667,
          "velocity": 0.41732283464566927
        },
        {
          "duration": 0.125,
          "durationTicks": 240,
          "midi": 72,
          "name": "C5",
          "ticks": 24409,
          "time": 12.713020833333333,
          "velocity": 0.44881889763779526
        },
        {
          "duration": 0.12291666666666679,
          "durationTicks": 236,
          "midi": 76,
          "name": "E5",
          "ticks": 24814,
          "time": 12.923958333333333,
          "velocity": 0.5196850393700787
        },
        {
          "duration": 0.10104166666666714,
          "durationTicks": 194,
          "midi": 60,
          "name": "C4",
          "ticks": 24830,
          "time": 12.932291666666666,
          "velocity": 0.47244094488188976
        },
        {
          "duration": 0.09843749999999929,
          "durationTicks": 189,
          "midi": 67,
          "name": "G4",
          "ticks": 24831,
          "time": 12.9328125,
          "velocity": 0.49606299212598426
        },
        {
          "duration": 0.11510416666666679,
          "durationTicks": 221,
          "midi": 72,
          "name": "C5",
          "ticks": 24837,
          "time": 12.9359375,
          "velocity": 0.4015748031496063
        },
        {
          "duration": 0.12447916666666714,
          "durationTicks": 239,
          "midi": 72,
          "name": "C5",
          "ticks": 25239,
          "time": 13.1453125,
          "velocity": 0.4015748031496063
        },
        {
          "duration": 0.07708333333333428,
          "durationTicks": 148,
          "midi": 72,
          "name": "C5",
          "ticks": 26093,
          "time": 13.590104166666666,
          "velocity": 0.4566929133858268
        },
        {
          "duration": 0.09218749999999964,
          "durationTicks": 177,
          "midi": 69,
          "name": "A4",
          "ticks": 26538,
          "time": 13.821875,
          "velocity": 0.48031496062992124
        },
        {
          "duration": 0.09375,
          "durationTicks": 180,
          "midi": 57,
          "name": "A3",
          "ticks": 26556,
          "time": 13.83125,
          "velocity": 0.44881889763779526
        },
        {
          "duration": 0.08281250000000107,
          "durationTicks": 159,
          "midi": 64,
          "name": "E4",
          "ticks": 26562,
          "time": 13.834375,
          "velocity": 0.49606299212598426
        },
        {
          "duration": 0.11302083333333357,
          "durationTicks": 217,
          "midi": 69,
          "name": "A4",
          "ticks": 26890,
          "time": 14.005208333333334,
          "velocity": 0.4094488188976378
        },
        {
          "duration": 0.07395833333333357,
          "durationTicks": 142,
          "midi": 69,
          "name": "A4",
          "ticks": 27329,
          "time": 14.233854166666667,
          "velocity": 0.4015748031496063
        },
        {
          "duration": 0.05520833333333286,
          "durationTicks": 106,
          "midi": 69,
          "name": "A4",
          "ticks": 27738,
          "time": 14.446875,
          "velocity": 0.4409448818897638
        },
        {
          "duration": 0.125,
          "durationTicks": 240,
          "midi": 69,
          "name": "A4",
          "ticks": 27982,
          "time": 14.573958333333334,
          "velocity": 0.48031496062992124
        },
        {
          "duration": 0.09999999999999964,
          "durationTicks": 192,
          "midi": 72,
          "name": "C5",
          "ticks": 28407,
          "time": 14.7953125,
          "velocity": 0.5118110236220472
        },
        {
          "duration": 0.10781249999999964,
          "durationTicks": 207,
          "midi": 57,
          "name": "A3",
          "ticks": 28426,
          "time": 14.805208333333333,
          "velocity": 0.47244094488188976
        },
        {
          "duration": 0.10364583333333321,
          "durationTicks": 199,
          "midi": 69,
          "name": "A4",
          "ticks": 28428,
          "time": 14.80625,
          "velocity": 0.4251968503937008
        },
        {
          "duration": 0.07291666666666785,
          "durationTicks": 140,
          "midi": 64,
          "name": "E4",
          "ticks": 28437,
          "time": 14.8109375,
          "velocity": 0.49606299212598426
        },
        {
          "duration": 0.10416666666666607,
          "durationTicks": 200,
          "midi": 69,
          "name": "A4",
          "ticks": 28806,
          "time": 15.003125,
          "velocity": 0.44881889763779526
        },
        {
          "duration": 0.10989583333333286,
          "durationTicks": 211,
          "midi": 65,
          "name": "F4",
          "ticks": 29687,
          "time": 15.461979166666667,
          "velocity": 0.44881889763779526
        },
        {
          "duration": 0.10416666666666607,
          "durationTicks": 200,
          "midi": 65,
          "name": "F4",
          "ticks": 30123,
          "time": 15.6890625,
          "velocity": 0.47244094488188976
        },
        {
          "duration": 0.08177083333333357,
          "durationTicks": 157,
          "midi": 53,
          "name": "F3",
          "ticks": 30133,
          "time": 15.694270833333333,
          "velocity": 0.44881889763779526
        },
        {
          "duration": 0.06510416666666785,
          "durationTicks": 125,
          "midi": 60,
          "name": "C4",
          "ticks": 30144,
          "time": 15.7,
          "velocity": 0.44881889763779526
        },
        {
          "duration": 0.07083333333333464,
          "durationTicks": 136,
          "midi": 65,
          "name": "F4",
          "ticks": 30519,
          "time": 15.8953125,
          "velocity": 0.4251968503937008
        },
        {
          "duration": 0.10677083333333215,
          "durationTicks": 205,
          "midi": 65,
          "name": "F4",
          "ticks": 30807,
          "time": 16.0453125,
          "velocity": 0.4409448818897638
        },
        {
          "duration": 0.06197916666666714,
          "durationTicks": 119,
          "midi": 65,
          "name": "F4",
          "ticks": 31233,
          "time": 16.2671875,
          "velocity": 0.3858267716535433
        },
        {
          "duration": 0.14218749999999858,
          "durationTicks": 273,
          "midi": 65,
          "name": "F4",
          "ticks": 31507,
          "time": 16.409895833333334,
          "velocity": 0.4566929133858268
        },
        {
          "duration": 0.12291666666666501,
          "durationTicks": 236,
          "midi": 69,
          "name": "A4",
          "ticks": 31957,
          "time": 16.644270833333334,
          "velocity": 0.5118110236220472
        },
        {
          "duration": 0.07604166666666501,
          "durationTicks": 146,
          "midi": 53,
          "name": "F3",
          "ticks": 31964,
          "time": 16.647916666666667,
          "velocity": 0.4409448818897638
        },
        {
          "duration": 0.06614583333333357,
          "durationTicks": 127,
          "midi": 60,
          "name": "C4",
          "ticks": 31972,
          "time": 16.652083333333334,
          "velocity": 0.4566929133858268
        },
        {
          "duration": 0.12083333333333357,
          "durationTicks": 232,
          "midi": 65,
          "name": "F4",
          "ticks": 32366,
          "time": 16.857291666666665,
          "velocity": 0.4409448818897638
        },
        {
          "duration": 0.10781250000000142,
          "durationTicks": 207,
          "midi": 67,
          "name": "G4",
          "ticks": 33241,
          "time": 17.313020833333333,
          "velocity": 0.4251968503937008
        },
        {
          "duration": 0.11093749999999858,
          "durationTicks": 213,
          "midi": 67,
          "name": "G4",
          "ticks": 33658,
          "time": 17.530208333333334,
          "velocity": 0.44881889763779526
        },
        {
          "duration": 0.10208333333333286,
          "durationTicks": 196,
          "midi": 62,
          "name": "D4",
          "ticks": 33685,
          "time": 17.544270833333332,
          "velocity": 0.48031496062992124
        },
        {
          "duration": 0.08333333333333215,
          "durationTicks": 160,
          "midi": 55,
          "name": "G3",
          "ticks": 33690,
          "time": 17.546875,
          "velocity": 0.44881889763779526
        },
        {
          "duration": 0.05416666666666714,
          "durationTicks": 104,
          "midi": 67,
          "name": "G4",
          "ticks": 34101,
          "time": 17.7609375,
          "velocity": 0.4094488188976378
        },
        {
          "duration": 0.10624999999999929,
          "durationTicks": 204,
          "midi": 67,
          "name": "G4",
          "ticks": 34366,
          "time": 17.898958333333333,
          "velocity": 0.44881889763779526
        },
        {
          "duration": 0.05833333333333357,
          "durationTicks": 112,
          "midi": 67,
          "name": "G4",
          "ticks": 34823,
          "time": 18.136979166666666,
          "velocity": 0.36220472440944884
        },
        {
          "duration": 0.11406249999999929,
          "durationTicks": 219,
          "midi": 67,
          "name": "G4",
          "ticks": 35079,
          "time": 18.2703125,
          "velocity": 0.4566929133858268
        },
        {
          "duration": 0.166145833333335,
          "durationTicks": 319,
          "midi": 67,
          "name": "G4",
          "ticks": 35560,
          "time": 18.520833333333332,
          "velocity": 0.4566929133858268
        },
        {
          "duration": 0.09114583333333215,
          "durationTicks": 175,
          "midi": 55,
          "name": "G3",
          "ticks": 35572,
          "time": 18.527083333333334,
          "velocity": 0.47244094488188976
        },
        {
          "duration": 0.05729166666666785,
          "durationTicks": 110,
          "midi": 62,
          "name": "D4",
          "ticks": 35591,
          "time": 18.536979166666665,
          "velocity": 0.44881889763779526
        },
        {
          "duration": 0.3489583333333357,
          "durationTicks": 670,
          "midi": 69,
          "name": "A4",
          "ticks": 35966,
          "time": 18.732291666666665,
          "velocity": 0.44881889763779526
        },
        {
          "duration": 0.09791666666666643,
          "durationTicks": 188,
          "midi": 72,
          "name": "C5",
          "ticks": 36893,
          "time": 19.215104166666666,
          "velocity": 0.5196850393700787
        },
        {
          "duration": 0.07499999999999929,
          "durationTicks": 144,
          "midi": 67,
          "name": "G4",
          "ticks": 36964,
          "time": 19.252083333333335,
          "velocity": 0.5196850393700787
        },
        {
          "duration": 0.0546875,
          "durationTicks": 105,
          "midi": 60,
          "name": "C4",
          "ticks": 36970,
          "time": 19.255208333333332,
          "velocity": 0.4566929133858268
        },
        {
          "duration": 0.22500000000000142,
          "durationTicks": 432,
          "midi": 76,
          "name": "E5",
          "ticks": 37336,
          "time": 19.445833333333333,
          "velocity": 0.44881889763779526
        },
        {
          "duration": 0.17916666666666714,
          "durationTicks": 344,
          "midi": 77,
          "name": "F5",
          "ticks": 37703,
          "time": 19.636979166666666,
          "velocity": 0.47244094488188976
        },
        {
          "duration": 0.4703124999999986,
          "durationTicks": 903,
          "midi": 79,
          "name": "G5",
          "ticks": 38179,
          "time": 19.884895833333335,
          "velocity": 0.5118110236220472
        },
        {
          "duration": 0.11666666666666714,
          "durationTicks": 224,
          "midi": 67,
          "name": "G4",
          "ticks": 38212,
          "time": 19.902083333333334,
          "velocity": 0.5118110236220472
        },
        {
          "duration": 0.09218750000000142,
          "durationTicks": 177,
          "midi": 60,
          "name": "C4",
          "ticks": 38231,
          "time": 19.911979166666665,
          "velocity": 0.44881889763779526
        },
        {
          "duration": 0.171875,
          "durationTicks": 330,
          "midi": 77,
          "name": "F5",
          "ticks": 39034,
          "time": 20.330208333333335,
          "velocity": 0.5118110236220472
        },
        {
          "duration": 0.11302083333333357,
          "durationTicks": 217,
          "midi": 67,
          "name": "G4",
          "ticks": 39057,
          "time": 20.3421875,
          "velocity": 0.5118110236220472
        },
        {
          "duration": 0.12239583333333215,
          "durationTicks": 235,
          "midi": 60,
          "name": "C4",
          "ticks": 39066,
          "time": 20.346875,
          "velocity": 0.47244094488188976
        },
        {
          "duration": 0.13333333333333286,
          "durationTicks": 256,
          "midi": 69,
          "name": "A4",
          "ticks": 39932,
          "time": 20.797916666666666,
          "velocity": 0.44881889763779526
        },
        {
          "duration": 0.10781250000000142,
          "durationTicks": 207,
          "midi": 57,
          "name": "A3",
          "ticks": 39940,
          "time": 20.802083333333332,
          "velocity": 0.44881889763779526
        },
        {
          "duration": 0.07499999999999929,
          "durationTicks": 144,
          "midi": 64,
          "name": "E4",
          "ticks": 39996,
          "time": 20.83125,
          "velocity": 0.3700787401574803
        },
        {
          "duration": 0.06770833333333215,
          "durationTicks": 130,
          "midi": 65,
          "name": "F4",
          "ticks": 40013,
          "time": 20.840104166666666,
          "velocity": 0.36220472440944884
        },
        {
          "duration": 0.11510416666666856,
          "durationTicks": 221,
          "midi": 64,
          "name": "E4",
          "ticks": 40796,
          "time": 21.247916666666665,
          "velocity": 0.47244094488188976
        },
        {
          "duration": 0.1489583333333364,
          "durationTicks": 286,
          "midi": 72,
          "name": "C5",
          "ticks": 40796,
          "time": 21.247916666666665,
          "velocity": 0.5196850393700787
        },
        {
          "duration": 0.0651041666666643,
          "durationTicks": 125,
          "midi": 57,
          "name": "A3",
          "ticks": 40835,
          "time": 21.268229166666668,
          "velocity": 0.3937007874015748
        },
        {
          "duration": 0.21458333333333357,
          "durationTicks": 412,
          "midi": 74,
          "name": "D5",
          "ticks": 41150,
          "time": 21.432291666666668,
          "velocity": 0.41732283464566927
        },
        {
          "duration": 0.11822916666666572,
          "durationTicks": 227,
          "midi": 64,
          "name": "E4",
          "ticks": 41645,
          "time": 21.690104166666668,
          "velocity": 0.49606299212598426
        },
        {
          "duration": 0.46927083333333286,
          "durationTicks": 901,
          "midi": 76,
          "name": "E5",
          "ticks": 41656,
          "time": 21.695833333333333,
          "velocity": 0.5118110236220472
        },
        {
          "duration": 0.08697916666666572,
          "durationTicks": 167,
          "midi": 57,
          "name": "A3",
          "ticks": 41660,
          "time": 21.697916666666668,
          "velocity": 0.41732283464566927
        },
        {
          "duration": 0.09322916666666714,
          "durationTicks": 179,
          "midi": 74,
          "name": "D5",
          "ticks": 42478,
          "time": 22.123958333333334,
          "velocity": 0.5118110236220472
        },
        {
          "duration": 0.08489583333333073,
          "durationTicks": 163,
          "midi": 64,
          "name": "E4",
          "ticks": 42499,
          "time": 22.134895833333335,
          "velocity": 0.5196850393700787
        },
        {
          "duration": 0.10989583333333286,
          "durationTicks": 211,
          "midi": 57,
          "name": "A3",
          "ticks": 42515,
          "time": 22.143229166666668,
          "velocity": 0.4566929133858268
        },
        {
          "duration": 0.12708333333333144,
          "durationTicks": 244,
          "midi": 65,
          "name": "F4",
          "ticks": 43302,
          "time": 22.553125,
          "velocity": 0.48031496062992124
        },
        {
          "duration": 0.11666666666666714,
          "durationTicks": 224,
          "midi": 60,
          "name": "C4",
          "ticks": 43306,
          "time": 22.555208333333333,
          "velocity": 0.5118110236220472
        },
        {
          "duration": 0.13958333333333073,
          "durationTicks": 268,
          "midi": 53,
          "name": "F3",
          "ticks": 43310,
          "time": 22.557291666666668,
          "velocity": 0.44881889763779526
        },
        {
          "duration": 0.08281249999999929,
          "durationTicks": 159,
          "midi": 69,
          "name": "A4",
          "ticks": 43312,
          "time": 22.558333333333334,
          "velocity": 0.44881889763779526
        },
        {
          "duration": 0.13802083333333215,
          "durationTicks": 265,
          "midi": 60,
          "name": "C4",
          "ticks": 44129,
          "time": 22.983854166666667,
          "velocity": 0.48031496062992124
        },
        {
          "duration": 0.08541666666666714,
          "durationTicks": 164,
          "midi": 53,
          "name": "F3",
          "ticks": 44154,
          "time": 22.996875,
          "velocity": 0.3858267716535433
        },
        {
          "duration": 0.15520833333333428,
          "durationTicks": 298,
          "midi": 69,
          "name": "A4",
          "ticks": 44154,
          "time": 22.996875,
          "velocity": 0.5118110236220472
        },
        {
          "duration": 0.19427083333333428,
          "durationTicks": 373,
          "midi": 71,
          "name": "B4",
          "ticks": 44544,
          "time": 23.2,
          "velocity": 0.44881889763779526
        },
        {
          "duration": 0.11770833333333286,
          "durationTicks": 226,
          "midi": 60,
          "name": "C4",
          "ticks": 45007,
          "time": 23.441145833333334,
          "velocity": 0.48031496062992124
        },
        {
          "duration": 0.17812500000000142,
          "durationTicks": 342,
          "midi": 72,
          "name": "C5",
          "ticks": 45007,
          "time": 23.441145833333334,
          "velocity": 0.48031496062992124
        },
        {
          "duration": 0.07604166666666501,
          "durationTicks": 146,
          "midi": 53,
          "name": "F3",
          "ticks": 45028,
          "time": 23.452083333333334,
          "velocity": 0.41732283464566927
        },
        {
          "duration": 0.2468749999999993,
          "durationTicks": 474,
          "midi": 71,
          "name": "B4",
          "ticks": 45364,
          "time": 23.627083333333335,
          "velocity": 0.41732283464566927
        },
        {
          "duration": 0.15364583333333215,
          "durationTicks": 295,
          "midi": 69,
          "name": "A4",
          "ticks": 45856,
          "time": 23.883333333333333,
          "velocity": 0.44881889763779526
        },
        {
          "duration": 0.17135416666666714,
          "durationTicks": 329,
          "midi": 67,
          "name": "G4",
          "ticks": 46245,
          "time": 24.0859375,
          "velocity": 0.4566929133858268
        },
        {
          "duration": 0.12083333333333357,
          "durationTicks": 232,
          "midi": 62,
          "name": "D4",
          "ticks": 46662,
          "time": 24.303125,
          "velocity": 0.47244094488188976
        },
        {
          "duration": 0.11250000000000071,
          "durationTicks": 216,
          "midi": 55,
          "name": "G3",
          "ticks": 46671,
          "time": 24.3078125,
          "velocity": 0.4330708661417323
        },
        {
          "duration": 0.453125,
          "durationTicks": 870,
          "midi": 69,
          "name": "A4",
          "ticks": 46677,
          "time": 24.3109375,
          "velocity": 0.47244094488188976
        },
        {
          "duration": 0.161979166666665,
          "durationTicks": 311,
          "midi": 71,
          "name": "B4",
          "ticks": 47482,
          "time": 24.730208333333334,
          "velocity": 0.47244094488188976
        },
        {
          "duration": 0.12395833333333428,
          "durationTicks": 238,
          "midi": 62,
          "name": "D4",
          "ticks": 47491,
          "time": 24.734895833333333,
          "velocity": 0.4566929133858268
        },
        {
          "duration": 0.09687500000000071,
          "durationTicks": 186,
          "midi": 55,
          "name": "G3",
          "ticks": 47505,
          "time": 24.7421875,
          "velocity": 0.4330708661417323
        },
        {
          "duration": 0.11874999999999858,
          "durationTicks": 228,
          "midi": 72,
          "name": "C5",
          "ticks": 47870,
          "time": 24.932291666666668,
          "velocity": 0.48031496062992124
        },
        {
          "duration": 0.3526041666666657,
          "durationTicks": 677,
          "midi": 77,
          "name": "F5",
          "ticks": 48304,
          "time": 25.158333333333335,
          "velocity": 0.4251968503937008
        },
        {
          "duration": 0.213020833333335,
          "durationTicks": 409,
          "midi": 79,
          "name": "G5",
          "ticks": 48881,
          "time": 25.458854166666665,
          "velocity": 0.48031496062992124
        },
        {
          "duration": 0.4390624999999986,
          "durationTicks": 843,
          "midi": 81,
          "name": "A5",
          "ticks": 49258,
          "time": 25.655208333333334,
          "velocity": 0.44881889763779526
        },
        {
          "duration": 0.09895833333333215,
          "durationTicks": 190,
          "midi": 83,
          "name": "B5",
          "ticks": 50076,
          "time": 26.08125,
          "velocity": 0.5669291338582677
        },
        {
          "duration": 0.05677083333333144,
          "durationTicks": 109,
          "midi": 60,
          "name": "C4",
          "ticks": 50099,
          "time": 26.093229166666667,
          "velocity": 0.44881889763779526
        },
        {
          "duration": 0.05364583333333428,
          "durationTicks": 103,
          "midi": 67,
          "name": "G4",
          "ticks": 50101,
          "time": 26.094270833333333,
          "velocity": 0.49606299212598426
        },
        {
          "duration": 0.1999999999999993,
          "durationTicks": 384,
          "midi": 72,
          "name": "C5",
          "ticks": 50917,
          "time": 26.519270833333334,
          "velocity": 0.48031496062992124
        },
        {
          "duration": 0.2260416666666636,
          "durationTicks": 434,
          "midi": 76,
          "name": "E5",
          "ticks": 51304,
          "time": 26.720833333333335,
          "velocity": 0.3543307086614173
        },
        {
          "duration": 0.07395833333333357,
          "durationTicks": 142,
          "midi": 74,
          "name": "D5",
          "ticks": 51387,
          "time": 26.7640625,
          "velocity": 0.33070866141732286
        },
        {
          "duration": 0.4578124999999993,
          "durationTicks": 879,
          "midi": 77,
          "name": "F5",
          "ticks": 51735,
          "time": 26.9453125,
          "velocity": 0.5118110236220472
        },
        {
          "duration": 0.12552083333333286,
          "durationTicks": 241,
          "midi": 67,
          "name": "G4",
          "ticks": 51736,
          "time": 26.945833333333333,
          "velocity": 0.5118110236220472
        },
        {
          "duration": 0.08697916666666927,
          "durationTicks": 167,
          "midi": 60,
          "name": "C4",
          "ticks": 51760,
          "time": 26.958333333333332,
          "velocity": 0.4409448818897638
        },
        {
          "duration": 0.11979166666666785,
          "durationTicks": 230,
          "midi": 79,
          "name": "G5",
          "ticks": 52539,
          "time": 27.3640625,
          "velocity": 0.5433070866141733
        },
        {
          "duration": 0.1197916666666643,
          "durationTicks": 230,
          "midi": 67,
          "name": "G4",
          "ticks": 52587,
          "time": 27.3890625,
          "velocity": 0.49606299212598426
        },
        {
          "duration": 0.127083333333335,
          "durationTicks": 244,
          "midi": 60,
          "name": "C4",
          "ticks": 52591,
          "time": 27.391145833333333,
          "velocity": 0.47244094488188976
        },
        {
          "duration": 0.13437500000000213,
          "durationTicks": 258,
          "midi": 72,
          "name": "C5",
          "ticks": 53349,
          "time": 27.7859375,
          "velocity": 0.44881889763779526
        },
        {
          "duration": 0.0963541666666643,
          "durationTicks": 185,
          "midi": 67,
          "name": "G4",
          "ticks": 53376,
          "time": 27.8,
          "velocity": 0.41732283464566927
        },
        {
          "duration": 0.078125,
          "durationTicks": 150,
          "midi": 60,
          "name": "C4",
          "ticks": 53384,
          "time": 27.804166666666667,
          "velocity": 0.4015748031496063
        },
        {
          "duration": 0.23802083333333357,
          "durationTicks": 457,
          "midi": 76,
          "name": "E5",
          "ticks": 53710,
          "time": 27.973958333333332,
          "velocity": 0.4251968503937008
        },
        {
          "duration": 0.4208333333333343,
          "durationTicks": 808,
          "midi": 77,
          "name": "F5",
          "ticks": 54204,
          "time": 28.23125,
          "velocity": 0.5196850393700787
        },
        {
          "duration": 0.125,
          "durationTicks": 240,
          "midi": 67,
          "name": "G4",
          "ticks": 54234,
          "time": 28.246875,
          "velocity": 0.5196850393700787
        },
        {
          "duration": 0.11302083333333002,
          "durationTicks": 217,
          "midi": 60,
          "name": "C4",
          "ticks": 54244,
          "time": 28.252083333333335,
          "velocity": 0.48031496062992124
        },
        {
          "duration": 0.22604166666666714,
          "durationTicks": 434,
          "midi": 79,
          "name": "G5",
          "ticks": 54998,
          "time": 28.644791666666666,
          "velocity": 0.5118110236220472
        },
        {
          "duration": 0.13020833333333215,
          "durationTicks": 250,
          "midi": 67,
          "name": "G4",
          "ticks": 55039,
          "time": 28.666145833333335,
          "velocity": 0.5118110236220472
        },
        {
          "duration": 0.13906249999999787,
          "durationTicks": 267,
          "midi": 60,
          "name": "C4",
          "ticks": 55039,
          "time": 28.666145833333335,
          "velocity": 0.47244094488188976
        },
        {
          "duration": 0.125,
          "durationTicks": 240,
          "midi": 72,
          "name": "C5",
          "ticks": 55838,
          "time": 29.082291666666666,
          "velocity": 0.48031496062992124
        },
        {
          "duration": 0.14218750000000213,
          "durationTicks": 273,
          "midi": 60,
          "name": "C4",
          "ticks": 55841,
          "time": 29.083854166666665,
          "velocity": 0.4409448818897638
        },
        {
          "duration": 0.109375,
          "durationTicks": 210,
          "midi": 76,
          "name": "E5",
          "ticks": 55843,
          "time": 29.084895833333334,
          "velocity": 0.44881889763779526
        },
        {
          "duration": 0.14374999999999716,
          "durationTicks": 276,
          "midi": 67,
          "name": "G4",
          "ticks": 55857,
          "time": 29.0921875,
          "velocity": 0.48031496062992124
        },
        {
          "duration": 0.24583333333333357,
          "durationTicks": 472,
          "midi": 76,
          "name": "E5",
          "ticks": 56212,
          "time": 29.277083333333334,
          "velocity": 0.4251968503937008
        },
        {
          "duration": 0.2421875,
          "durationTicks": 465,
          "midi": 77,
          "name": "F5",
          "ticks": 56638,
          "time": 29.498958333333334,
          "velocity": 0.47244094488188976
        },
        {
          "duration": 0.20208333333333428,
          "durationTicks": 388,
          "midi": 79,
          "name": "G5",
          "ticks": 57076,
          "time": 29.727083333333333,
          "velocity": 0.49606299212598426
        },
        {
          "duration": 0.48177083333333215,
          "durationTicks": 925,
          "midi": 67,
          "name": "G4",
          "ticks": 57518,
          "time": 29.957291666666666,
          "velocity": 0.5118110236220472
        },
        {
          "duration": 0.4421874999999993,
          "durationTicks": 849,
          "midi": 77,
          "name": "F5",
          "ticks": 57523,
          "time": 29.959895833333334,
          "velocity": 0.5118110236220472
        },
        {
          "duration": 0.11197916666666785,
          "durationTicks": 215,
          "midi": 76,
          "name": "E5",
          "ticks": 58291,
          "time": 30.359895833333333,
          "velocity": 0.5118110236220472
        },
        {
          "duration": 0.14479166666666998,
          "durationTicks": 278,
          "midi": 79,
          "name": "G5",
          "ticks": 59171,
          "time": 30.818229166666665,
          "velocity": 0.47244094488188976
        },
        {
          "duration": 0.13125000000000142,
          "durationTicks": 252,
          "midi": 67,
          "name": "G4",
          "ticks": 59178,
          "time": 30.821875,
          "velocity": 0.48031496062992124
        },
        {
          "duration": 0.30885416666667,
          "durationTicks": 593,
          "midi": 81,
          "name": "A5",
          "ticks": 59576,
          "time": 31.029166666666665,
          "velocity": 0.4251968503937008
        },
        {
          "duration": 0.1015625,
          "durationTicks": 195,
          "midi": 83,
          "name": "B5",
          "ticks": 59584,
          "time": 31.033333333333335,
          "velocity": 0.4251968503937008
        },
        {
          "duration": 0.20416666666666572,
          "durationTicks": 392,
          "midi": 83,
          "name": "B5",
          "ticks": 60090,
          "time": 31.296875,
          "velocity": 0.4566929133858268
        },
        {
          "duration": 0.18072916666666927,
          "durationTicks": 347,
          "midi": 84,
          "name": "C6",
          "ticks": 60446,
          "time": 31.482291666666665,
          "velocity": 0.49606299212598426
        },
        {
          "duration": 0.10833333333333428,
          "durationTicks": 208,
          "midi": 84,
          "name": "C6",
          "ticks": 60864,
          "time": 31.7,
          "velocity": 0.3779527559055118
        },
        {
          "duration": 0.7614583333333336,
          "durationTicks": 1462,
          "midi": 67,
          "name": "G4",
          "ticks": 60905,
          "time": 31.721354166666668,
          "velocity": 0.5118110236220472
        },
        {
          "duration": 0.6609374999999993,
          "durationTicks": 1269,
          "midi": 83,
          "name": "B5",
          "ticks": 60941,
          "time": 31.740104166666665,
          "velocity": 0.5433070866141733
        },
        {
          "duration": 0.12395833333333428,
          "durationTicks": 238,
          "midi": 76,
          "name": "E5",
          "ticks": 62598,
          "time": 32.603125,
          "velocity": 0.48031496062992124
        },
        {
          "duration": 0.12083333333333712,
          "durationTicks": 232,
          "midi": 72,
          "name": "C5",
          "ticks": 62600,
          "time": 32.604166666666664,
          "velocity": 0.4566929133858268
        },
        {
          "duration": 0.13958333333333428,
          "durationTicks": 268,
          "midi": 67,
          "name": "G4",
          "ticks": 62608,
          "time": 32.608333333333334,
          "velocity": 0.48031496062992124
        },
        {
          "duration": 0.14010416666666714,
          "durationTicks": 269,
          "midi": 60,
          "name": "C4",
          "ticks": 62646,
          "time": 32.628125,
          "velocity": 0.44881889763779526
        },
        {
          "duration": 0.24947916666666003,
          "durationTicks": 479,
          "midi": 76,
          "name": "E5",
          "ticks": 62993,
          "time": 32.80885416666667,
          "velocity": 0.41732283464566927
        },
        {
          "duration": 0.16458333333333286,
          "durationTicks": 316,
          "midi": 77,
          "name": "F5",
          "ticks": 63445,
          "time": 33.044270833333336,
          "velocity": 0.4251968503937008
        },
        {
          "duration": 0.1666666666666643,
          "durationTicks": 320,
          "midi": 79,
          "name": "G5",
          "ticks": 63825,
          "time": 33.2421875,
          "velocity": 0.4566929133858268
        },
        {
          "duration": 0.41770833333333,
          "durationTicks": 802,
          "midi": 77,
          "name": "F5",
          "ticks": 64332,
          "time": 33.50625,
          "velocity": 0.49606299212598426
        },
        {
          "duration": 0.1354166666666714,
          "durationTicks": 260,
          "midi": 69,
          "name": "A4",
          "ticks": 64341,
          "time": 33.5109375,
          "velocity": 0.49606299212598426
        },
        {
          "duration": 0.1510416666666643,
          "durationTicks": 290,
          "midi": 65,
          "name": "F4",
          "ticks": 64349,
          "time": 33.51510416666667,
          "velocity": 0.4409448818897638
        },
        {
          "duration": 0.3421875000000014,
          "durationTicks": 657,
          "midi": 76,
          "name": "E5",
          "ticks": 65190,
          "time": 33.953125,
          "velocity": 0.41732283464566927
        },
        {
          "duration": 0.15416666666666856,
          "durationTicks": 296,
          "midi": 72,
          "name": "C5",
          "ticks": 66019,
          "time": 34.38489583333333,
          "velocity": 0.48031496062992124
        },
        {
          "duration": 0.10625000000000284,
          "durationTicks": 204,
          "midi": 76,
          "name": "E5",
          "ticks": 66021,
          "time": 34.3859375,
          "velocity": 0.44881889763779526
        },
        {
          "duration": 0.10468750000000426,
          "durationTicks": 201,
          "midi": 67,
          "name": "G4",
          "ticks": 66035,
          "time": 34.393229166666664,
          "velocity": 0.5118110236220472
        },
        {
          "duration": 0.0911458333333286,
          "durationTicks": 175,
          "midi": 60,
          "name": "C4",
          "ticks": 66054,
          "time": 34.403125,
          "velocity": 0.4566929133858268
        },
        {
          "duration": 0.22604166666666714,
          "durationTicks": 434,
          "midi": 76,
          "name": "E5",
          "ticks": 66411,
          "time": 34.5890625,
          "velocity": 0.3858267716535433
        },
        {
          "duration": 0.15416666666666856,
          "durationTicks": 296,
          "midi": 77,
          "name": "F5",
          "ticks": 66862,
          "time": 34.82395833333333,
          "velocity": 0.4409448818897638
        },
        {
          "duration": 0.10104166666666714,
          "durationTicks": 194,
          "midi": 79,
          "name": "G5",
          "ticks": 67237,
          "time": 35.01927083333333,
          "velocity": 0.47244094488188976
        },
        {
          "duration": 0.26979166666667,
          "durationTicks": 518,
          "midi": 79,
          "name": "G5",
          "ticks": 67740,
          "time": 35.28125,
          "velocity": 0.5118110236220472
        },
        {
          "duration": 0.3578125000000014,
          "durationTicks": 687,
          "midi": 71,
          "name": "B4",
          "ticks": 67742,
          "time": 35.282291666666666,
          "velocity": 0.44881889763779526
        },
        {
          "duration": 0.3880208333333357,
          "durationTicks": 745,
          "midi": 67,
          "name": "G4",
          "ticks": 67755,
          "time": 35.2890625,
          "velocity": 0.4409448818897638
        },
        {
          "duration": 0.1640625,
          "durationTicks": 315,
          "midi": 72,
          "name": "C5",
          "ticks": 69368,
          "time": 36.12916666666667,
          "velocity": 0.4566929133858268
        },
        {
          "duration": 0.06927083333332718,
          "durationTicks": 133,
          "midi": 76,
          "name": "E5",
          "ticks": 69383,
          "time": 36.13697916666667,
          "velocity": 0.41732283464566927
        },
        {
          "duration": 0.35364583333333144,
          "durationTicks": 679,
          "midi": 60,
          "name": "C4",
          "ticks": 69399,
          "time": 36.1453125,
          "velocity": 0.4566929133858268
        },
        {
          "duration": 0.32604166666666856,
          "durationTicks": 626,
          "midi": 67,
          "name": "G4",
          "ticks": 69402,
          "time": 36.146875,
          "velocity": 0.48031496062992124
        },
        {
          "duration": 0.10989583333333286,
          "durationTicks": 211,
          "midi": 79,
          "name": "G5",
          "ticks": 69422,
          "time": 36.157291666666666,
          "velocity": 0.3464566929133858
        },
        {
          "duration": 0.23072916666666288,
          "durationTicks": 443,
          "midi": 76,
          "name": "E5",
          "ticks": 69806,
          "time": 36.35729166666667,
          "velocity": 0.44881889763779526
        },
        {
          "duration": 0.14895833333333997,
          "durationTicks": 286,
          "midi": 77,
          "name": "F5",
          "ticks": 70222,
          "time": 36.57395833333333,
          "velocity": 0.44881889763779526
        },
        {
          "duration": 0.14375000000000426,
          "durationTicks": 276,
          "midi": 79,
          "name": "G5",
          "ticks": 70612,
          "time": 36.77708333333333,
          "velocity": 0.44881889763779526
        },
        {
          "duration": 0.1432291666666643,
          "durationTicks": 275,
          "midi": 69,
          "name": "A4",
          "ticks": 71063,
          "time": 37.01197916666667,
          "velocity": 0.48031496062992124
        },
        {
          "duration": 0.16093750000000284,
          "durationTicks": 309,
          "midi": 72,
          "name": "C5",
          "ticks": 71069,
          "time": 37.01510416666667,
          "velocity": 0.49606299212598426
        },
        {
          "duration": 0.4989583333333343,
          "durationTicks": 958,
          "midi": 64,
          "name": "E4",
          "ticks": 71082,
          "time": 37.021875,
          "velocity": 0.48031496062992124
        },
        {
          "duration": 0.5098958333333314,
          "durationTicks": 979,
          "midi": 57,
          "name": "A3",
          "ticks": 71084,
          "time": 37.02291666666667,
          "velocity": 0.4566929133858268
        },
        {
          "duration": 0.47187499999999716,
          "durationTicks": 906,
          "midi": 72,
          "name": "C5",
          "ticks": 71920,
          "time": 37.458333333333336,
          "velocity": 0.5118110236220472
        },
        {
          "duration": 0.234375,
          "durationTicks": 450,
          "midi": 65,
          "name": "F4",
          "ticks": 72766,
          "time": 37.89895833333333,
          "velocity": 0.48031496062992124
        },
        {
          "duration": 0.1770833333333357,
          "durationTicks": 340,
          "midi": 74,
          "name": "D5",
          "ticks": 72770,
          "time": 37.901041666666664,
          "velocity": 0.49606299212598426
        },
        {
          "duration": 0.23229166666666856,
          "durationTicks": 446,
          "midi": 62,
          "name": "D4",
          "ticks": 72795,
          "time": 37.9140625,
          "velocity": 0.44881889763779526
        },
        {
          "duration": 0.24895833333333428,
          "durationTicks": 478,
          "midi": 76,
          "name": "E5",
          "ticks": 73166,
          "time": 38.10729166666667,
          "velocity": 0.44881889763779526
        },
        {
          "duration": 0.20416666666666572,
          "durationTicks": 392,
          "midi": 74,
          "name": "D5",
          "ticks": 73638,
          "time": 38.353125,
          "velocity": 0.4015748031496063
        },
        {
          "duration": 0.12187499999999574,
          "durationTicks": 234,
          "midi": 72,
          "name": "C5",
          "ticks": 74053,
          "time": 38.569270833333334,
          "velocity": 0.4409448818897638
        },
        {
          "duration": 0.5911458333333357,
          "durationTicks": 1135,
          "midi": 67,
          "name": "G4",
          "ticks": 74506,
          "time": 38.80520833333333,
          "velocity": 0.5118110236220472
        },
        {
          "duration": 0.6203124999999972,
          "durationTicks": 1191,
          "midi": 62,
          "name": "D4",
          "ticks": 74515,
          "time": 38.809895833333336,
          "velocity": 0.48031496062992124
        },
        {
          "duration": 0.6031249999999986,
          "durationTicks": 1158,
          "midi": 55,
          "name": "G3",
          "ticks": 74521,
          "time": 38.81302083333333,
          "velocity": 0.47244094488188976
        },
        {
          "duration": 0.12708333333333144,
          "durationTicks": 244,
          "midi": 67,
          "name": "G4",
          "ticks": 75813,
          "time": 39.4859375,
          "velocity": 0.4094488188976378
        },
        {
          "duration": 0.5239583333333329,
          "durationTicks": 1006,
          "midi": 67,
          "name": "G4",
          "ticks": 76270,
          "time": 39.723958333333336,
          "velocity": 0.4566929133858268
        },
        {
          "duration": 0.1640625,
          "durationTicks": 315,
          "midi": 62,
          "name": "D4",
          "ticks": 76316,
          "time": 39.74791666666667,
          "velocity": 0.47244094488188976
        },
        {
          "duration": 0.1666666666666643,
          "durationTicks": 320,
          "midi": 55,
          "name": "G3",
          "ticks": 76330,
          "time": 39.755208333333336,
          "velocity": 0.4566929133858268
        },
        {
          "duration": 0.12812500000000426,
          "durationTicks": 246,
          "midi": 67,
          "name": "G4",
          "ticks": 77572,
          "time": 40.40208333333333,
          "velocity": 0.3937007874015748
        },
        {
          "duration": 0.09791666666666998,
          "durationTicks": 188,
          "midi": 55,
          "name": "G3",
          "ticks": 77962,
          "time": 40.60520833333333,
          "velocity": 0.4015748031496063
        },
        {
          "duration": 0.09322916666666714,
          "durationTicks": 179,
          "midi": 62,
          "name": "D4",
          "ticks": 77967,
          "time": 40.6078125,
          "velocity": 0.44881889763779526
        },
        {
          "duration": 0.10781249999999432,
          "durationTicks": 207,
          "midi": 67,
          "name": "G4",
          "ticks": 78008,
          "time": 40.62916666666667,
          "velocity": 0.44881889763779526
        },
        {
          "duration": 0.11093749999999858,
          "durationTicks": 213,
          "midi": 67,
          "name": "G4",
          "ticks": 78373,
          "time": 40.819270833333334,
          "velocity": 0.4409448818897638
        },
        {
          "duration": 0.10208333333333286,
          "durationTicks": 196,
          "midi": 67,
          "name": "G4",
          "ticks": 78797,
          "time": 41.040104166666666,
          "velocity": 0.36220472440944884
        },
        {
          "duration": 0.11406250000000284,
          "durationTicks": 219,
          "midi": 67,
          "name": "G4",
          "ticks": 79204,
          "time": 41.25208333333333,
          "velocity": 0.36220472440944884
        },
        {
          "duration": 0.07499999999999574,
          "durationTicks": 144,
          "midi": 67,
          "name": "G4",
          "ticks": 79659,
          "time": 41.4890625,
          "velocity": 0.3543307086614173
        },
        {
          "duration": 0.09583333333333144,
          "durationTicks": 184,
          "midi": 67,
          "name": "G4",
          "ticks": 80051,
          "time": 41.69322916666667,
          "velocity": 0.3937007874015748
        },
        {
          "duration": 0.07500000000000284,
          "durationTicks": 144,
          "midi": 67,
          "name": "G4",
          "ticks": 80452,
          "time": 41.90208333333333,
          "velocity": 0.3700787401574803
        },
        {
          "duration": 0.17083333333333428,
          "durationTicks": 328,
          "midi": 67,
          "name": "G4",
          "ticks": 80869,
          "time": 42.11927083333333,
          "velocity": 0.3858267716535433
        },
        {
          "duration": 0.12447916666666714,
          "durationTicks": 239,
          "midi": 62,
          "name": "D4",
          "ticks": 81283,
          "time": 42.334895833333334,
          "velocity": 0.47244094488188976
        },
        {
          "duration": 0.09427083333333286,
          "durationTicks": 181,
          "midi": 55,
          "name": "G3",
          "ticks": 81312,
          "time": 42.35,
          "velocity": 0.44881889763779526
        },
        {
          "duration": 0.3229166666666643,
          "durationTicks": 620,
          "midi": 79,
          "name": "G5",
          "ticks": 81316,
          "time": 42.35208333333333,
          "velocity": 0.5433070866141733
        },
        {
          "duration": 0.46510416666667,
          "durationTicks": 893,
          "midi": 77,
          "name": "F5",
          "ticks": 82099,
          "time": 42.75989583333333,
          "velocity": 0.49606299212598426
        },
        {
          "duration": 0.1510416666666643,
          "durationTicks": 290,
          "midi": 62,
          "name": "D4",
          "ticks": 82124,
          "time": 42.77291666666667,
          "velocity": 0.47244094488188976
        },
        {
          "duration": 0.15937499999999716,
          "durationTicks": 306,
          "midi": 55,
          "name": "G3",
          "ticks": 82126,
          "time": 42.77395833333333,
          "velocity": 0.4566929133858268
        },
        {
          "duration": 0.5098958333333314,
          "durationTicks": 979,
          "midi": 76,
          "name": "E5",
          "ticks": 82931,
          "time": 43.19322916666667,
          "velocity": 0.5118110236220472
        },
        {
          "duration": 0.1666666666666643,
          "durationTicks": 320,
          "midi": 62,
          "name": "D4",
          "ticks": 82935,
          "time": 43.1953125,
          "velocity": 0.44881889763779526
        },
        {
          "duration": 0.16302083333333428,
          "durationTicks": 313,
          "midi": 55,
          "name": "G3",
          "ticks": 82942,
          "time": 43.19895833333333,
          "velocity": 0.41732283464566927
        },
        {
          "duration": 0.09479166666666572,
          "durationTicks": 182,
          "midi": 55,
          "name": "G3",
          "ticks": 83768,
          "time": 43.62916666666667,
          "velocity": 0.4330708661417323
        },
        {
          "duration": 0.12083333333333002,
          "durationTicks": 232,
          "midi": 62,
          "name": "D4",
          "ticks": 83770,
          "time": 43.630208333333336,
          "velocity": 0.47244094488188976
        },
        {
          "duration": 0.14010416666666714,
          "durationTicks": 269,
          "midi": 74,
          "name": "D5",
          "ticks": 83772,
          "time": 43.63125,
          "velocity": 0.5196850393700787
        },
        {
          "duration": 0.30000000000000426,
          "durationTicks": 576,
          "midi": 72,
          "name": "C5",
          "ticks": 84572,
          "time": 44.047916666666666,
          "velocity": 0.5118110236220472
        },
        {
          "duration": 0.16614583333333854,
          "durationTicks": 319,
          "midi": 67,
          "name": "G4",
          "ticks": 84574,
          "time": 44.04895833333333,
          "velocity": 0.47244094488188976
        },
        {
          "duration": 0.14895833333333286,
          "durationTicks": 286,
          "midi": 60,
          "name": "C4",
          "ticks": 84595,
          "time": 44.059895833333336,
          "velocity": 0.4015748031496063
        },
        {
          "duration": 0.14635416666666856,
          "durationTicks": 281,
          "midi": 84,
          "name": "C6",
          "ticks": 85340,
          "time": 44.447916666666664,
          "velocity": 0.5196850393700787
        },
        {
          "duration": 0.10312499999999858,
          "durationTicks": 198,
          "midi": 60,
          "name": "C4",
          "ticks": 85361,
          "time": 44.45885416666667,
          "velocity": 0.4409448818897638
        },
        {
          "duration": 0.11302083333333712,
          "durationTicks": 217,
          "midi": 67,
          "name": "G4",
          "ticks": 85369,
          "time": 44.46302083333333,
          "velocity": 0.4566929133858268
        },
        {
          "duration": 0.13958333333333428,
          "durationTicks": 268,
          "midi": 83,
          "name": "B5",
          "ticks": 85717,
          "time": 44.64427083333333,
          "velocity": 0.44881889763779526
        },
        {
          "duration": 0.2708333333333286,
          "durationTicks": 520,
          "midi": 81,
          "name": "A5",
          "ticks": 86168,
          "time": 44.87916666666667,
          "velocity": 0.47244094488188976
        },
        {
          "duration": 0.13697916666666288,
          "durationTicks": 263,
          "midi": 60,
          "name": "C4",
          "ticks": 86172,
          "time": 44.88125,
          "velocity": 0.44881889763779526
        },
        {
          "duration": 0.12916666666666998,
          "durationTicks": 248,
          "midi": 67,
          "name": "G4",
          "ticks": 86179,
          "time": 44.88489583333333,
          "velocity": 0.4566929133858268
        },
        {
          "duration": 0.12395833333333428,
          "durationTicks": 238,
          "midi": 60,
          "name": "C4",
          "ticks": 87022,
          "time": 45.32395833333333,
          "velocity": 0.47244094488188976
        },
        {
          "duration": 0.12812499999999716,
          "durationTicks": 246,
          "midi": 67,
          "name": "G4",
          "ticks": 87028,
          "time": 45.327083333333334,
          "velocity": 0.5196850393700787
        },
        {
          "duration": 0.13593749999999716,
          "durationTicks": 261,
          "midi": 60,
          "name": "C4",
          "ticks": 87781,
          "time": 45.71927083333333,
          "velocity": 0.47244094488188976
        },
        {
          "duration": 0.13124999999999432,
          "durationTicks": 252,
          "midi": 67,
          "name": "G4",
          "ticks": 87790,
          "time": 45.723958333333336,
          "velocity": 0.48031496062992124
        },
        {
          "duration": 0.2890625,
          "durationTicks": 555,
          "midi": 84,
          "name": "C6",
          "ticks": 87798,
          "time": 45.728125,
          "velocity": 0.5196850393700787
        },
        {
          "duration": 0.1770833333333357,
          "durationTicks": 340,
          "midi": 83,
          "name": "B5",
          "ticks": 88581,
          "time": 46.1359375,
          "velocity": 0.49606299212598426
        },
        {
          "duration": 0.14218749999999858,
          "durationTicks": 273,
          "midi": 67,
          "name": "G4",
          "ticks": 88583,
          "time": 46.13697916666667,
          "velocity": 0.48031496062992124
        },
        {
          "duration": 0.1432291666666643,
          "durationTicks": 275,
          "midi": 60,
          "name": "C4",
          "ticks": 88585,
          "time": 46.138020833333336,
          "velocity": 0.44881889763779526
        },
        {
          "duration": 0.24895833333333428,
          "durationTicks": 478,
          "midi": 81,
          "name": "A5",
          "ticks": 88952,
          "time": 46.329166666666666,
          "velocity": 0.4409448818897638
        },
        {
          "duration": 0.4609375,
          "durationTicks": 885,
          "midi": 79,
          "name": "G5",
          "ticks": 89397,
          "time": 46.5609375,
          "velocity": 0.47244094488188976
        },
        {
          "duration": 0.12812499999999716,
          "durationTicks": 246,
          "midi": 67,
          "name": "G4",
          "ticks": 89414,
          "time": 46.56979166666667,
          "velocity": 0.49606299212598426
        },
        {
          "duration": 0.0989583333333286,
          "durationTicks": 190,
          "midi": 60,
          "name": "C4",
          "ticks": 89426,
          "time": 46.57604166666667,
          "velocity": 0.44881889763779526
        },
        {
          "duration": 0.12291666666666856,
          "durationTicks": 236,
          "midi": 67,
          "name": "G4",
          "ticks": 90213,
          "time": 46.9859375,
          "velocity": 0.4566929133858268
        },
        {
          "duration": 0.06875000000000142,
          "durationTicks": 132,
          "midi": 60,
          "name": "C4",
          "ticks": 90254,
          "time": 47.00729166666667,
          "velocity": 0.4015748031496063
        },
        {
          "duration": 0.14114583333333286,
          "durationTicks": 271,
          "midi": 67,
          "name": "G4",
          "ticks": 91058,
          "time": 47.42604166666667,
          "velocity": 0.5118110236220472
        },
        {
          "duration": 0.23593749999999858,
          "durationTicks": 453,
          "midi": 84,
          "name": "C6",
          "ticks": 91060,
          "time": 47.427083333333336,
          "velocity": 0.5433070866141733
        },
        {
          "duration": 0.14374999999999716,
          "durationTicks": 276,
          "midi": 60,
          "name": "C4",
          "ticks": 91062,
          "time": 47.428125,
          "velocity": 0.48031496062992124
        },
        {
          "duration": 0.16822916666666288,
          "durationTicks": 323,
          "midi": 83,
          "name": "B5",
          "ticks": 91872,
          "time": 47.85,
          "velocity": 0.5118110236220472
        },
        {
          "duration": 0.1197916666666714,
          "durationTicks": 230,
          "midi": 67,
          "name": "G4",
          "ticks": 91880,
          "time": 47.854166666666664,
          "velocity": 0.4566929133858268
        },
        {
          "duration": 0.09479166666667282,
          "durationTicks": 182,
          "midi": 60,
          "name": "C4",
          "ticks": 91882,
          "time": 47.85520833333333,
          "velocity": 0.4409448818897638
        },
        {
          "duration": 0.26510416666666714,
          "durationTicks": 509,
          "midi": 81,
          "name": "A5",
          "ticks": 92239,
          "time": 48.04114583333333,
          "velocity": 0.4566929133858268
        },
        {
          "duration": 0.4140625,
          "durationTicks": 795,
          "midi": 79,
          "name": "G5",
          "ticks": 92707,
          "time": 48.28489583333333,
          "velocity": 0.49606299212598426
        },
        {
          "duration": 0.13489583333333144,
          "durationTicks": 259,
          "midi": 64,
          "name": "E4",
          "ticks": 92715,
          "time": 48.2890625,
          "velocity": 0.48031496062992124
        },
        {
          "duration": 0.13489583333333854,
          "durationTicks": 259,
          "midi": 57,
          "name": "A3",
          "ticks": 92721,
          "time": 48.2921875,
          "velocity": 0.4330708661417323
        },
        {
          "duration": 0.125,
          "durationTicks": 240,
          "midi": 64,
          "name": "E4",
          "ticks": 93548,
          "time": 48.72291666666667,
          "velocity": 0.47244094488188976
        },
        {
          "duration": 0.09791666666666288,
          "durationTicks": 188,
          "midi": 57,
          "name": "A3",
          "ticks": 93554,
          "time": 48.72604166666667,
          "velocity": 0.4094488188976378
        },
        {
          "duration": 0.12812499999999716,
          "durationTicks": 246,
          "midi": 57,
          "name": "A3",
          "ticks": 94351,
          "time": 49.14114583333333,
          "velocity": 0.4330708661417323
        },
        {
          "duration": 0.12187500000000284,
          "durationTicks": 234,
          "midi": 64,
          "name": "E4",
          "ticks": 94357,
          "time": 49.14427083333333,
          "velocity": 0.44881889763779526
        },
        {
          "duration": 0.20208333333333428,
          "durationTicks": 388,
          "midi": 69,
          "name": "A4",
          "ticks": 94360,
          "time": 49.145833333333336,
          "velocity": 0.49606299212598426
        },
        {
          "duration": 0.13072916666666856,
          "durationTicks": 251,
          "midi": 64,
          "name": "E4",
          "ticks": 95152,
          "time": 49.55833333333333,
          "velocity": 0.44881889763779526
        },
        {
          "duration": 0.12031249999999716,
          "durationTicks": 231,
          "midi": 57,
          "name": "A3",
          "ticks": 95155,
          "time": 49.559895833333336,
          "velocity": 0.4015748031496063
        },
        {
          "duration": 0.16979166666666146,
          "durationTicks": 326,
          "midi": 71,
          "name": "B4",
          "ticks": 95171,
          "time": 49.56822916666667,
          "velocity": 0.48031496062992124
        },
        {
          "duration": 0.2395833333333357,
          "durationTicks": 460,
          "midi": 72,
          "name": "C5",
          "ticks": 95534,
          "time": 49.75729166666667,
          "velocity": 0.41732283464566927
        },
        {
          "duration": 0.5697916666666671,
          "durationTicks": 1094,
          "midi": 74,
          "name": "D5",
          "ticks": 95987,
          "time": 49.993229166666666,
          "velocity": 0.49606299212598426
        },
        {
          "duration": 0.1328125,
          "durationTicks": 255,
          "midi": 64,
          "name": "E4",
          "ticks": 96004,
          "time": 50.00208333333333,
          "velocity": 0.49606299212598426
        },
        {
          "duration": 0.14270833333333854,
          "durationTicks": 274,
          "midi": 57,
          "name": "A3",
          "ticks": 96006,
          "time": 50.003125,
          "velocity": 0.4409448818897638
        },
        {
          "duration": 0.20416666666666572,
          "durationTicks": 392,
          "midi": 65,
          "name": "F4",
          "ticks": 97653,
          "time": 50.8609375,
          "velocity": 0.49606299212598426
        },
        {
          "duration": 0.10208333333333997,
          "durationTicks": 196,
          "midi": 60,
          "name": "C4",
          "ticks": 97657,
          "time": 50.86302083333333,
          "velocity": 0.48031496062992124
        },
        {
          "duration": 0.07500000000000284,
          "durationTicks": 144,
          "midi": 53,
          "name": "F3",
          "ticks": 97667,
          "time": 50.868229166666666,
          "velocity": 0.4330708661417323
        },
        {
          "duration": 0.13593750000000426,
          "durationTicks": 261,
          "midi": 60,
          "name": "C4",
          "ticks": 98437,
          "time": 51.26927083333333,
          "velocity": 0.48031496062992124
        },
        {
          "duration": 0.16510416666666572,
          "durationTicks": 317,
          "midi": 53,
          "name": "F3",
          "ticks": 98444,
          "time": 51.27291666666667,
          "velocity": 0.4330708661417323
        },
        {
          "duration": 0.24583333333333712,
          "durationTicks": 472,
          "midi": 69,
          "name": "A4",
          "ticks": 98448,
          "time": 51.275,
          "velocity": 0.4094488188976378
        },
        {
          "duration": 0.10572916666666288,
          "durationTicks": 203,
          "midi": 67,
          "name": "G4",
          "ticks": 98454,
          "time": 51.278125,
          "velocity": 0.4409448818897638
        },
        {
          "duration": 0.17812500000000142,
          "durationTicks": 342,
          "midi": 71,
          "name": "B4",
          "ticks": 98836,
          "time": 51.47708333333333,
          "velocity": 0.5196850393700787
        },
        {
          "duration": 0.4453125,
          "durationTicks": 855,
          "midi": 72,
          "name": "C5",
          "ticks": 99258,
          "time": 51.696875,
          "velocity": 0.48031496062992124
        },
        {
          "duration": 0.13593749999999716,
          "durationTicks": 261,
          "midi": 60,
          "name": "C4",
          "ticks": 99301,
          "time": 51.71927083333333,
          "velocity": 0.4566929133858268
        },
        {
          "duration": 0.14114583333333286,
          "durationTicks": 271,
          "midi": 53,
          "name": "F3",
          "ticks": 99310,
          "time": 51.723958333333336,
          "velocity": 0.4015748031496063
        },
        {
          "duration": 0.09687499999999716,
          "durationTicks": 186,
          "midi": 71,
          "name": "B4",
          "ticks": 100059,
          "time": 52.1140625,
          "velocity": 0.5433070866141733
        },
        {
          "duration": 0.1119791666666714,
          "durationTicks": 215,
          "midi": 60,
          "name": "C4",
          "ticks": 100101,
          "time": 52.1359375,
          "velocity": 0.49606299212598426
        },
        {
          "duration": 0.07604166666666856,
          "durationTicks": 146,
          "midi": 53,
          "name": "F3",
          "ticks": 100107,
          "time": 52.1390625,
          "velocity": 0.4409448818897638
        },
        {
          "duration": 0.12135416666666998,
          "durationTicks": 233,
          "midi": 67,
          "name": "G4",
          "ticks": 100896,
          "time": 52.55,
          "velocity": 0.5118110236220472
        },
        {
          "duration": 0.11770833333333286,
          "durationTicks": 226,
          "midi": 55,
          "name": "G3",
          "ticks": 100906,
          "time": 52.55520833333333,
          "velocity": 0.44881889763779526
        },
        {
          "duration": 0.11927083333333144,
          "durationTicks": 229,
          "midi": 62,
          "name": "D4",
          "ticks": 100913,
          "time": 52.55885416666667,
          "velocity": 0.47244094488188976
        },
        {
          "duration": 0.19322916666666856,
          "durationTicks": 371,
          "midi": 71,
          "name": "B4",
          "ticks": 101687,
          "time": 52.961979166666666,
          "velocity": 0.49606299212598426
        },
        {
          "duration": 0.12604166666666572,
          "durationTicks": 242,
          "midi": 62,
          "name": "D4",
          "ticks": 101695,
          "time": 52.966145833333336,
          "velocity": 0.44881889763779526
        },
        {
          "duration": 0.09010416666666998,
          "durationTicks": 173,
          "midi": 55,
          "name": "G3",
          "ticks": 101704,
          "time": 52.97083333333333,
          "velocity": 0.4094488188976378
        },
        {
          "duration": 0.19895833333333712,
          "durationTicks": 382,
          "midi": 72,
          "name": "C5",
          "ticks": 102035,
          "time": 53.143229166666664,
          "velocity": 0.4409448818897638
        },
        {
          "duration": 0.5020833333333314,
          "durationTicks": 964,
          "midi": 74,
          "name": "D5",
          "ticks": 102513,
          "time": 53.3921875,
          "velocity": 0.48031496062992124
        },
        {
          "duration": 0.14218749999999858,
          "durationTicks": 273,
          "midi": 62,
          "name": "D4",
          "ticks": 102553,
          "time": 53.413020833333334,
          "velocity": 0.47244094488188976
        },
        {
          "duration": 0.15781249999999858,
          "durationTicks": 303,
          "midi": 55,
          "name": "G3",
          "ticks": 102555,
          "time": 53.4140625,
          "velocity": 0.44881889763779526
        },
        {
          "duration": 0.11614583333333428,
          "durationTicks": 223,
          "midi": 72,
          "name": "C5",
          "ticks": 104164,
          "time": 54.25208333333333,
          "velocity": 0.47244094488188976
        },
        {
          "duration": 0.0677083333333286,
          "durationTicks": 130,
          "midi": 76,
          "name": "E5",
          "ticks": 104172,
          "time": 54.25625,
          "velocity": 0.4566929133858268
        },
        {
          "duration": 0.10781250000000142,
          "durationTicks": 207,
          "midi": 67,
          "name": "G4",
          "ticks": 104187,
          "time": 54.2640625,
          "velocity": 0.48031496062992124
        },
        {
          "duration": 0.078125,
          "durationTicks": 150,
          "midi": 60,
          "name": "C4",
          "ticks": 104193,
          "time": 54.2671875,
          "velocity": 0.44881889763779526
        },
        {
          "duration": 0.21666666666666856,
          "durationTicks": 416,
          "midi": 76,
          "name": "E5",
          "ticks": 104508,
          "time": 54.43125,
          "velocity": 0.4251968503937008
        },
        {
          "duration": 0.16197916666666856,
          "durationTicks": 311,
          "midi": 77,
          "name": "F5",
          "ticks": 104944,
          "time": 54.65833333333333,
          "velocity": 0.4566929133858268
        },
        {
          "duration": 0.10572916666666288,
          "durationTicks": 203,
          "midi": 79,
          "name": "G5",
          "ticks": 105297,
          "time": 54.8421875,
          "velocity": 0.49606299212598426
        },
        {
          "duration": 0.17604166666666998,
          "durationTicks": 338,
          "midi": 69,
          "name": "A4",
          "ticks": 105725,
          "time": 55.065104166666664,
          "velocity": 0.49606299212598426
        },
        {
          "duration": 0.4088541666666714,
          "durationTicks": 785,
          "midi": 77,
          "name": "F5",
          "ticks": 105727,
          "time": 55.06614583333333,
          "velocity": 0.49606299212598426
        },
        {
          "duration": 0.18697916666666714,
          "durationTicks": 359,
          "midi": 65,
          "name": "F4",
          "ticks": 105742,
          "time": 55.07395833333333,
          "velocity": 0.44881889763779526
        },
        {
          "duration": 0.33385416666666856,
          "durationTicks": 641,
          "midi": 76,
          "name": "E5",
          "ticks": 106537,
          "time": 55.48802083333333,
          "velocity": 0.44881889763779526
        },
        {
          "duration": 0.1119791666666643,
          "durationTicks": 215,
          "midi": 60,
          "name": "C4",
          "ticks": 107322,
          "time": 55.896875,
          "velocity": 0.44881889763779526
        },
        {
          "duration": 0.11406249999999574,
          "durationTicks": 219,
          "midi": 67,
          "name": "G4",
          "ticks": 107322,
          "time": 55.896875,
          "velocity": 0.48031496062992124
        },
        {
          "duration": 0.09687500000000426,
          "durationTicks": 186,
          "midi": 76,
          "name": "E5",
          "ticks": 107328,
          "time": 55.9,
          "velocity": 0.4251968503937008
        },
        {
          "duration": 0.12864583333333002,
          "durationTicks": 247,
          "midi": 72,
          "name": "C5",
          "ticks": 107336,
          "time": 55.90416666666667,
          "velocity": 0.49606299212598426
        },
        {
          "duration": 0.23489583333333286,
          "durationTicks": 451,
          "midi": 76,
          "name": "E5",
          "ticks": 107666,
          "time": 56.07604166666667,
          "velocity": 0.44881889763779526
        },
        {
          "duration": 0.15625,
          "durationTicks": 300,
          "midi": 77,
          "name": "F5",
          "ticks": 108115,
          "time": 56.309895833333336,
          "velocity": 0.4409448818897638
        },
        {
          "duration": 0.10260416666666572,
          "durationTicks": 197,
          "midi": 79,
          "name": "G5",
          "ticks": 108469,
          "time": 56.49427083333333,
          "velocity": 0.4566929133858268
        },
        {
          "duration": 0.2161458333333286,
          "durationTicks": 415,
          "midi": 71,
          "name": "B4",
          "ticks": 108939,
          "time": 56.7390625,
          "velocity": 0.47244094488188976
        },
        {
          "duration": 0.20781250000000284,
          "durationTicks": 399,
          "midi": 79,
          "name": "G5",
          "ticks": 108945,
          "time": 56.7421875,
          "velocity": 0.5118110236220472
        },
        {
          "duration": 0.22812499999999858,
          "durationTicks": 438,
          "midi": 67,
          "name": "G4",
          "ticks": 108962,
          "time": 56.751041666666666,
          "velocity": 0.4409448818897638
        },
        {
          "duration": 0.15520833333333428,
          "durationTicks": 298,
          "midi": 72,
          "name": "C5",
          "ticks": 110467,
          "time": 57.53489583333333,
          "velocity": 0.5118110236220472
        },
        {
          "duration": 0.07239583333333144,
          "durationTicks": 139,
          "midi": 76,
          "name": "E5",
          "ticks": 110488,
          "time": 57.545833333333334,
          "velocity": 0.44881889763779526
        },
        {
          "duration": 0.10989583333333286,
          "durationTicks": 211,
          "midi": 67,
          "name": "G4",
          "ticks": 110492,
          "time": 57.547916666666666,
          "velocity": 0.49606299212598426
        },
        {
          "duration": 0.12604166666667282,
          "durationTicks": 242,
          "midi": 60,
          "name": "C4",
          "ticks": 110496,
          "time": 57.55,
          "velocity": 0.4566929133858268
        },
        {
          "duration": 0.11875000000000568,
          "durationTicks": 228,
          "midi": 79,
          "name": "G5",
          "ticks": 110510,
          "time": 57.557291666666664,
          "velocity": 0.3937007874015748
        },
        {
          "duration": 0.26093749999999716,
          "durationTicks": 501,
          "midi": 76,
          "name": "E5",
          "ticks": 110851,
          "time": 57.73489583333333,
          "velocity": 0.4409448818897638
        },
        {
          "duration": 0.13906249999999432,
          "durationTicks": 267,
          "midi": 77,
          "name": "F5",
          "ticks": 111293,
          "time": 57.96510416666667,
          "velocity": 0.44881889763779526
        },
        {
          "duration": 0.13593749999999716,
          "durationTicks": 261,
          "midi": 79,
          "name": "G5",
          "ticks": 111639,
          "time": 58.1453125,
          "velocity": 0.4566929133858268
        },
        {
          "duration": 0.16562499999999858,
          "durationTicks": 318,
          "midi": 72,
          "name": "C5",
          "ticks": 112094,
          "time": 58.38229166666667,
          "velocity": 0.49606299212598426
        },
        {
          "duration": 0.14114583333333286,
          "durationTicks": 271,
          "midi": 69,
          "name": "A4",
          "ticks": 112099,
          "time": 58.38489583333333,
          "velocity": 0.48031496062992124
        },
        {
          "duration": 0.15208333333333002,
          "durationTicks": 292,
          "midi": 57,
          "name": "A3",
          "ticks": 112105,
          "time": 58.388020833333336,
          "velocity": 0.4409448818897638
        },
        {
          "duration": 0.14479166666666288,
          "durationTicks": 278,
          "midi": 64,
          "name": "E4",
          "ticks": 112107,
          "time": 58.3890625,
          "velocity": 0.49606299212598426
        },
        {
          "duration": 0.4203125000000014,
          "durationTicks": 807,
          "midi": 72,
          "name": "C5",
          "ticks": 112890,
          "time": 58.796875,
          "velocity": 0.49606299212598426
        },
        {
          "duration": 0.13385416666666572,
          "durationTicks": 257,
          "midi": 65,
          "name": "F4",
          "ticks": 113697,
          "time": 59.2171875,
          "velocity": 0.47244094488188976
        },
        {
          "duration": 0.1770833333333357,
          "durationTicks": 340,
          "midi": 74,
          "name": "D5",
          "ticks": 113699,
          "time": 59.21822916666667,
          "velocity": 0.49606299212598426
        },
        {
          "duration": 0.12812500000000426,
          "durationTicks": 246,
          "midi": 62,
          "name": "D4",
          "ticks": 113720,
          "time": 59.229166666666664,
          "velocity": 0.4330708661417323
        },
        {
          "duration": 0.19218750000000284,
          "durationTicks": 369,
          "midi": 76,
          "name": "E5",
          "ticks": 114050,
          "time": 59.401041666666664,
          "velocity": 0.47244094488188976
        },
        {
          "duration": 0.21927083333333286,
          "durationTicks": 421,
          "midi": 74,
          "name": "D5",
          "ticks": 114522,
          "time": 59.646875,
          "velocity": 0.44881889763779526
        },
        {
          "duration": 0.13229166666666714,
          "durationTicks": 254,
          "midi": 72,
          "name": "C5",
          "ticks": 114889,
          "time": 59.83802083333333,
          "velocity": 0.4251968503937008
        },
        {
          "duration": 0.6317708333333272,
          "durationTicks": 1213,
          "midi": 62,
          "name": "D4",
          "ticks": 115329,
          "time": 60.0671875,
          "velocity": 0.47244094488188976
        },
        {
          "duration": 0.4947916666666643,
          "durationTicks": 950,
          "midi": 67,
          "name": "G4",
          "ticks": 115331,
          "time": 60.06822916666667,
          "velocity": 0.5118110236220472
        },
        {
          "duration": 0.6234375000000014,
          "durationTicks": 1197,
          "midi": 55,
          "name": "G3",
          "ticks": 115338,
          "time": 60.071875,
          "velocity": 0.4566929133858268
        },
        {
          "duration": 0.17812500000000142,
          "durationTicks": 342,
          "midi": 67,
          "name": "G4",
          "ticks": 116471,
          "time": 60.66197916666667,
          "velocity": 0.3858267716535433
        },
        {
          "duration": 0.14791666666666714,
          "durationTicks": 284,
          "midi": 62,
          "name": "D4",
          "ticks": 116961,
          "time": 60.9171875,
          "velocity": 0.4566929133858268
        },
        {
          "duration": 0.6031249999999986,
          "durationTicks": 1158,
          "midi": 79,
          "name": "G5",
          "ticks": 116972,
          "time": 60.922916666666666,
          "velocity": 0.49606299212598426
        },
        {
          "duration": 0.1432291666666714,
          "durationTicks": 275,
          "midi": 55,
          "name": "G3",
          "ticks": 116976,
          "time": 60.925,
          "velocity": 0.3937007874015748
        },
        {
          "duration": 0.15677083333333286,
          "durationTicks": 301,
          "midi": 77,
          "name": "F5",
          "ticks": 118209,
          "time": 61.5671875,
          "velocity": 0.4566929133858268
        },
        {
          "duration": 0.1171875,
          "durationTicks": 225,
          "midi": 62,
          "name": "D4",
          "ticks": 118216,
          "time": 61.57083333333333,
          "velocity": 0.4566929133858268
        },
        {
          "duration": 0.08281250000000284,
          "durationTicks": 159,
          "midi": 55,
          "name": "G3",
          "ticks": 118232,
          "time": 61.579166666666666,
          "velocity": 0.4330708661417323
        },
        {
          "duration": 0.6140625000000028,
          "durationTicks": 1179,
          "midi": 76,
          "name": "E5",
          "ticks": 118635,
          "time": 61.7890625,
          "velocity": 0.4566929133858268
        },
        {
          "duration": 0.14374999999999716,
          "durationTicks": 276,
          "midi": 74,
          "name": "D5",
          "ticks": 119799,
          "time": 62.3953125,
          "velocity": 0.44881889763779526
        },
        {
          "duration": 0.6447916666666629,
          "durationTicks": 1238,
          "midi": 72,
          "name": "C5",
          "ticks": 120219,
          "time": 62.6140625,
          "velocity": 0.49606299212598426
        },
        {
          "duration": 0.12812500000000426,
          "durationTicks": 246,
          "midi": 74,
          "name": "D5",
          "ticks": 121444,
          "time": 63.25208333333333,
          "velocity": 0.48031496062992124
        },
        {
          "duration": 0.6317708333333343,
          "durationTicks": 1213,
          "midi": 72,
          "name": "C5",
          "ticks": 121815,
          "time": 63.4453125,
          "velocity": 0.41732283464566927
        },
        {
          "duration": 0.14791666666666003,
          "durationTicks": 284,
          "midi": 74,
          "name": "D5",
          "ticks": 122990,
          "time": 64.05729166666667,
          "velocity": 0.47244094488188976
        },
        {
          "duration": 0.5588541666666629,
          "durationTicks": 1073,
          "midi": 72,
          "name": "C5",
          "ticks": 123410,
          "time": 64.27604166666667,
          "velocity": 0.44881889763779526
        },
        {
          "duration": 0.16770833333333712,
          "durationTicks": 322,
          "midi": 74,
          "name": "D5",
          "ticks": 124476,
          "time": 64.83125,
          "velocity": 0.44881889763779526
        },
        {
          "duration": 0.5661458333333371,
          "durationTicks": 1087,
          "midi": 72,
          "name": "C5",
          "ticks": 124902,
          "time": 65.053125,
          "velocity": 0.44881889763779526
        },
        {
          "duration": 0.07760416666666003,
          "durationTicks": 149,
          "midi": 74,
          "name": "D5",
          "ticks": 125970,
          "time": 65.609375,
          "velocity": 0.47244094488188976
        },
        {
          "duration": 0.1302083333333286,
          "durationTicks": 250,
          "midi": 72,
          "name": "C5",
          "ticks": 126378,
          "time": 65.821875,
          "velocity": 0.47244094488188976
        },
        {
          "duration": 0.12916666666666288,
          "durationTicks": 248,
          "midi": 67,
          "name": "G4",
          "ticks": 126382,
          "time": 65.82395833333334,
          "velocity": 0.49606299212598426
        },
        {
          "duration": 0.05885416666667709,
          "durationTicks": 113,
          "midi": 60,
          "name": "C4",
          "ticks": 126417,
          "time": 65.8421875,
          "velocity": 0.44881889763779526
        },
        {
          "duration": 0.18177083333333144,
          "durationTicks": 349,
          "midi": 72,
          "name": "C5",
          "ticks": 127143,
          "time": 66.2203125,
          "velocity": 0.44881889763779526
        },
        {
          "duration": 0.12604166666666572,
          "durationTicks": 242,
          "midi": 76,
          "name": "E5",
          "ticks": 127928,
          "time": 66.62916666666666,
          "velocity": 0.48031496062992124
        },
        {
          "duration": 0.11354166666666288,
          "durationTicks": 218,
          "midi": 72,
          "name": "C5",
          "ticks": 127936,
          "time": 66.63333333333334,
          "velocity": 0.4251968503937008
        },
        {
          "duration": 0.11302083333333712,
          "durationTicks": 217,
          "midi": 79,
          "name": "G5",
          "ticks": 127947,
          "time": 66.6390625,
          "velocity": 0.41732283464566927
        },
        {
          "duration": 0.12708333333334565,
          "durationTicks": 244,
          "midi": 60,
          "name": "C4",
          "ticks": 127949,
          "time": 66.64010416666666,
          "velocity": 0.48031496062992124
        },
        {
          "duration": 0.1041666666666714,
          "durationTicks": 200,
          "midi": 69,
          "name": "A4",
          "ticks": 127949,
          "time": 66.64010416666666,
          "velocity": 0.4566929133858268
        },
        {
          "duration": 0.14427083333333712,
          "durationTicks": 277,
          "midi": 67,
          "name": "G4",
          "ticks": 128738,
          "time": 67.05104166666666,
          "velocity": 0.4251968503937008
        },
        {
          "duration": 0.11562499999999432,
          "durationTicks": 222,
          "midi": 60,
          "name": "C4",
          "ticks": 128773,
          "time": 67.06927083333333,
          "velocity": 0.4330708661417323
        },
        {
          "duration": 0.12708333333333144,
          "durationTicks": 244,
          "midi": 76,
          "name": "E5",
          "ticks": 129523,
          "time": 67.45989583333333,
          "velocity": 0.49606299212598426
        },
        {
          "duration": 0.13385416666666572,
          "durationTicks": 257,
          "midi": 60,
          "name": "C4",
          "ticks": 129529,
          "time": 67.46302083333333,
          "velocity": 0.4409448818897638
        },
        {
          "duration": 0.10312500000000568,
          "durationTicks": 198,
          "midi": 72,
          "name": "C5",
          "ticks": 129533,
          "time": 67.46510416666666,
          "velocity": 0.44881889763779526
        },
        {
          "duration": 0.11406250000000284,
          "durationTicks": 219,
          "midi": 69,
          "name": "A4",
          "ticks": 129544,
          "time": 67.47083333333333,
          "velocity": 0.44881889763779526
        },
        {
          "duration": 0.07291666666665719,
          "durationTicks": 140,
          "midi": 79,
          "name": "G5",
          "ticks": 129560,
          "time": 67.47916666666667,
          "velocity": 0.4094488188976378
        },
        {
          "duration": 0.12083333333333712,
          "durationTicks": 232,
          "midi": 60,
          "name": "C4",
          "ticks": 130311,
          "time": 67.8703125,
          "velocity": 0.4330708661417323
        },
        {
          "duration": 0.14010416666666003,
          "durationTicks": 269,
          "midi": 67,
          "name": "G4",
          "ticks": 130314,
          "time": 67.871875,
          "velocity": 0.3858267716535433
        },
        {
          "duration": 0.10208333333332575,
          "durationTicks": 196,
          "midi": 72,
          "name": "C5",
          "ticks": 131107,
          "time": 68.28489583333334,
          "velocity": 0.49606299212598426
        },
        {
          "duration": 0.12708333333333144,
          "durationTicks": 244,
          "midi": 60,
          "name": "C4",
          "ticks": 131107,
          "time": 68.28489583333334,
          "velocity": 0.47244094488188976
        },
        {
          "duration": 0.12135416666666288,
          "durationTicks": 233,
          "midi": 76,
          "name": "E5",
          "ticks": 131111,
          "time": 68.28697916666667,
          "velocity": 0.48031496062992124
        },
        {
          "duration": 0.10989583333333997,
          "durationTicks": 211,
          "midi": 69,
          "name": "A4",
          "ticks": 131117,
          "time": 68.29010416666667,
          "velocity": 0.44881889763779526
        },
        {
          "duration": 0.06562500000001137,
          "durationTicks": 126,
          "midi": 79,
          "name": "G5",
          "ticks": 131127,
          "time": 68.2953125,
          "velocity": 0.44881889763779526
        },
        {
          "duration": 0.10520833333333712,
          "durationTicks": 202,
          "midi": 67,
          "name": "G4",
          "ticks": 131856,
          "time": 68.675,
          "velocity": 0.4094488188976378
        },
        {
          "duration": 0.10468750000001137,
          "durationTicks": 201,
          "midi": 60,
          "name": "C4",
          "ticks": 131862,
          "time": 68.678125,
          "velocity": 0.3858267716535433
        },
        {
          "duration": 0.15000000000000568,
          "durationTicks": 288,
          "midi": 57,
          "name": "A3",
          "ticks": 132632,
          "time": 69.07916666666667,
          "velocity": 0.47244094488188976
        },
        {
          "duration": 0.11666666666667425,
          "durationTicks": 224,
          "midi": 64,
          "name": "E4",
          "ticks": 132634,
          "time": 69.08020833333333,
          "velocity": 0.41732283464566927
        },
        {
          "duration": 0.12708333333334565,
          "durationTicks": 244,
          "midi": 69,
          "name": "A4",
          "ticks": 133409,
          "time": 69.48385416666666,
          "velocity": 0.3700787401574803
        },
        {
          "duration": 0.13697916666666288,
          "durationTicks": 263,
          "midi": 57,
          "name": "A3",
          "ticks": 133419,
          "time": 69.4890625,
          "velocity": 0.48031496062992124
        },
        {
          "duration": 0.14114583333332575,
          "durationTicks": 271,
          "midi": 72,
          "name": "C5",
          "ticks": 133423,
          "time": 69.49114583333333,
          "velocity": 0.47244094488188976
        },
        {
          "duration": 0.12395833333333428,
          "durationTicks": 238,
          "midi": 65,
          "name": "F4",
          "ticks": 133423,
          "time": 69.49114583333333,
          "velocity": 0.49606299212598426
        },
        {
          "duration": 0.10312499999999147,
          "durationTicks": 198,
          "midi": 76,
          "name": "E5",
          "ticks": 133436,
          "time": 69.49791666666667,
          "velocity": 0.4409448818897638
        },
        {
          "duration": 0.13593749999999716,
          "durationTicks": 261,
          "midi": 57,
          "name": "A3",
          "ticks": 134243,
          "time": 69.91822916666666,
          "velocity": 0.3700787401574803
        },
        {
          "duration": 0.10729166666666856,
          "durationTicks": 206,
          "midi": 64,
          "name": "E4",
          "ticks": 134258,
          "time": 69.92604166666666,
          "velocity": 0.3779527559055118
        },
        {
          "duration": 0.10625000000000284,
          "durationTicks": 204,
          "midi": 69,
          "name": "A4",
          "ticks": 134997,
          "time": 70.3109375,
          "velocity": 0.44881889763779526
        },
        {
          "duration": 0.1291666666666771,
          "durationTicks": 248,
          "midi": 72,
          "name": "C5",
          "ticks": 134999,
          "time": 70.31197916666666,
          "velocity": 0.49606299212598426
        },
        {
          "duration": 0.15520833333333428,
          "durationTicks": 298,
          "midi": 57,
          "name": "A3",
          "ticks": 135005,
          "time": 70.31510416666667,
          "velocity": 0.4566929133858268
        },
        {
          "duration": 0.0703125,
          "durationTicks": 135,
          "midi": 76,
          "name": "E5",
          "ticks": 135020,
          "time": 70.32291666666667,
          "velocity": 0.41732283464566927
        },
        {
          "duration": 0.1067708333333286,
          "durationTicks": 205,
          "midi": 65,
          "name": "F4",
          "ticks": 135030,
          "time": 70.328125,
          "velocity": 0.44881889763779526
        },
        {
          "duration": 0.11927083333333144,
          "durationTicks": 229,
          "midi": 57,
          "name": "A3",
          "ticks": 135740,
          "time": 70.69791666666667,
          "velocity": 0.3228346456692913
        },
        {
          "duration": 0.11875000000000568,
          "durationTicks": 228,
          "midi": 64,
          "name": "E4",
          "ticks": 135752,
          "time": 70.70416666666667,
          "velocity": 0.3700787401574803
        },
        {
          "duration": 0.12083333333333712,
          "durationTicks": 232,
          "midi": 69,
          "name": "A4",
          "ticks": 136539,
          "time": 71.1140625,
          "velocity": 0.44881889763779526
        },
        {
          "duration": 0.10572916666666288,
          "durationTicks": 203,
          "midi": 65,
          "name": "F4",
          "ticks": 136545,
          "time": 71.1171875,
          "velocity": 0.4566929133858268
        },
        {
          "duration": 0.1119791666666714,
          "durationTicks": 215,
          "midi": 57,
          "name": "A3",
          "ticks": 136545,
          "time": 71.1171875,
          "velocity": 0.44881889763779526
        },
        {
          "duration": 0.11041666666666572,
          "durationTicks": 212,
          "midi": 72,
          "name": "C5",
          "ticks": 136550,
          "time": 71.11979166666667,
          "velocity": 0.48031496062992124
        },
        {
          "duration": 0.10520833333332291,
          "durationTicks": 202,
          "midi": 76,
          "name": "E5",
          "ticks": 136552,
          "time": 71.12083333333334,
          "velocity": 0.4251968503937008
        },
        {
          "duration": 0.11093750000000568,
          "durationTicks": 213,
          "midi": 72,
          "name": "C5",
          "ticks": 137265,
          "time": 71.4921875,
          "velocity": 0.5118110236220472
        },
        {
          "duration": 0.12916666666666288,
          "durationTicks": 248,
          "midi": 53,
          "name": "F3",
          "ticks": 137274,
          "time": 71.496875,
          "velocity": 0.44881889763779526
        },
        {
          "duration": 0.10885416666667425,
          "durationTicks": 209,
          "midi": 60,
          "name": "C4",
          "ticks": 137282,
          "time": 71.50104166666667,
          "velocity": 0.44881889763779526
        },
        {
          "duration": 0.1588541666666572,
          "durationTicks": 305,
          "midi": 53,
          "name": "F3",
          "ticks": 138050,
          "time": 71.90104166666667,
          "velocity": 0.44881889763779526
        },
        {
          "duration": 0.16197916666666856,
          "durationTicks": 311,
          "midi": 65,
          "name": "F4",
          "ticks": 138067,
          "time": 71.90989583333334,
          "velocity": 0.47244094488188976
        },
        {
          "duration": 0.13697916666666288,
          "durationTicks": 263,
          "midi": 60,
          "name": "C4",
          "ticks": 138069,
          "time": 71.9109375,
          "velocity": 0.44881889763779526
        },
        {
          "duration": 0.11614583333333428,
          "durationTicks": 223,
          "midi": 69,
          "name": "A4",
          "ticks": 138810,
          "time": 72.296875,
          "velocity": 0.4566929133858268
        },
        {
          "duration": 0.10989583333333997,
          "durationTicks": 211,
          "midi": 62,
          "name": "D4",
          "ticks": 138814,
          "time": 72.29895833333333,
          "velocity": 0.4566929133858268
        },
        {
          "duration": 0.1302083333333428,
          "durationTicks": 250,
          "midi": 53,
          "name": "F3",
          "ticks": 138816,
          "time": 72.3,
          "velocity": 0.4566929133858268
        },
        {
          "duration": 0.10312499999999147,
          "durationTicks": 198,
          "midi": 65,
          "name": "F4",
          "ticks": 138826,
          "time": 72.30520833333334,
          "velocity": 0.44881889763779526
        },
        {
          "duration": 0.14374999999999716,
          "durationTicks": 276,
          "midi": 53,
          "name": "F3",
          "ticks": 139613,
          "time": 72.71510416666666,
          "velocity": 0.41732283464566927
        },
        {
          "duration": 0.1328125,
          "durationTicks": 255,
          "midi": 60,
          "name": "C4",
          "ticks": 139619,
          "time": 72.71822916666666,
          "velocity": 0.3937007874015748
        },
        {
          "duration": 0.11614583333333428,
          "durationTicks": 223,
          "midi": 69,
          "name": "A4",
          "ticks": 140362,
          "time": 73.10520833333334,
          "velocity": 0.48031496062992124
        },
        {
          "duration": 0.1354166666666714,
          "durationTicks": 260,
          "midi": 53,
          "name": "F3",
          "ticks": 140369,
          "time": 73.10885416666666,
          "velocity": 0.44881889763779526
        },
        {
          "duration": 0.11822916666666572,
          "durationTicks": 227,
          "midi": 62,
          "name": "D4",
          "ticks": 140375,
          "time": 73.11197916666667,
          "velocity": 0.4566929133858268
        },
        {
          "duration": 0.10416666666665719,
          "durationTicks": 200,
          "midi": 65,
          "name": "F4",
          "ticks": 140377,
          "time": 73.11302083333334,
          "velocity": 0.44881889763779526
        },
        {
          "duration": 0.05833333333333712,
          "durationTicks": 112,
          "midi": 72,
          "name": "C5",
          "ticks": 140396,
          "time": 73.12291666666667,
          "velocity": 0.4015748031496063
        },
        {
          "duration": 0.15208333333333712,
          "durationTicks": 292,
          "midi": 53,
          "name": "F3",
          "ticks": 141178,
          "time": 73.53020833333333,
          "velocity": 0.3937007874015748
        },
        {
          "duration": 0.1171875,
          "durationTicks": 225,
          "midi": 60,
          "name": "C4",
          "ticks": 141193,
          "time": 73.53802083333333,
          "velocity": 0.3937007874015748
        },
        {
          "duration": 0.12708333333334565,
          "durationTicks": 244,
          "midi": 69,
          "name": "A4",
          "ticks": 141944,
          "time": 73.92916666666666,
          "velocity": 0.47244094488188976
        },
        {
          "duration": 0.12187500000000284,
          "durationTicks": 234,
          "midi": 62,
          "name": "D4",
          "ticks": 141967,
          "time": 73.94114583333334,
          "velocity": 0.4566929133858268
        },
        {
          "duration": 0.12812499999999716,
          "durationTicks": 246,
          "midi": 53,
          "name": "F3",
          "ticks": 141969,
          "time": 73.9421875,
          "velocity": 0.44881889763779526
        },
        {
          "duration": 0.11354166666666288,
          "durationTicks": 218,
          "midi": 65,
          "name": "F4",
          "ticks": 141973,
          "time": 73.94427083333333,
          "velocity": 0.4409448818897638
        },
        {
          "duration": 0.06927083333333428,
          "durationTicks": 133,
          "midi": 72,
          "name": "C5",
          "ticks": 142011,
          "time": 73.9640625,
          "velocity": 0.3464566929133858
        },
        {
          "duration": 0.12395833333333428,
          "durationTicks": 238,
          "midi": 60,
          "name": "C4",
          "ticks": 142712,
          "time": 74.32916666666667,
          "velocity": 0.44881889763779526
        },
        {
          "duration": 0.10312500000000568,
          "durationTicks": 198,
          "midi": 53,
          "name": "F3",
          "ticks": 142731,
          "time": 74.3390625,
          "velocity": 0.4015748031496063
        },
        {
          "duration": 0.1291666666666771,
          "durationTicks": 248,
          "midi": 62,
          "name": "D4",
          "ticks": 143472,
          "time": 74.725,
          "velocity": 0.44881889763779526
        },
        {
          "duration": 0.13229166666667425,
          "durationTicks": 254,
          "midi": 55,
          "name": "G3",
          "ticks": 143489,
          "time": 74.73385416666666,
          "velocity": 0.44881889763779526
        },
        {
          "duration": 0.16197916666666856,
          "durationTicks": 311,
          "midi": 67,
          "name": "G4",
          "ticks": 143499,
          "time": 74.7390625,
          "velocity": 0.48031496062992124
        },
        {
          "duration": 0.41197916666666856,
          "durationTicks": 791,
          "midi": 69,
          "name": "A4",
          "ticks": 144238,
          "time": 75.12395833333333,
          "velocity": 0.4566929133858268
        },
        {
          "duration": 0.1328125,
          "durationTicks": 255,
          "midi": 55,
          "name": "G3",
          "ticks": 144267,
          "time": 75.1390625,
          "velocity": 0.44881889763779526
        },
        {
          "duration": 0.12604166666666572,
          "durationTicks": 242,
          "midi": 62,
          "name": "D4",
          "ticks": 144277,
          "time": 75.14427083333334,
          "velocity": 0.44881889763779526
        },
        {
          "duration": 0.13697916666666288,
          "durationTicks": 263,
          "midi": 55,
          "name": "G3",
          "ticks": 145037,
          "time": 75.54010416666667,
          "velocity": 0.44881889763779526
        },
        {
          "duration": 0.12864583333333712,
          "durationTicks": 247,
          "midi": 71,
          "name": "B4",
          "ticks": 145043,
          "time": 75.54322916666666,
          "velocity": 0.49606299212598426
        },
        {
          "duration": 0.11770833333333997,
          "durationTicks": 226,
          "midi": 62,
          "name": "D4",
          "ticks": 145045,
          "time": 75.54427083333333,
          "velocity": 0.4330708661417323
        },
        {
          "duration": 0.13593749999999716,
          "durationTicks": 261,
          "midi": 55,
          "name": "G3",
          "ticks": 145815,
          "time": 75.9453125,
          "velocity": 0.4409448818897638
        },
        {
          "duration": 0.11510416666666856,
          "durationTicks": 221,
          "midi": 62,
          "name": "D4",
          "ticks": 145824,
          "time": 75.95,
          "velocity": 0.4330708661417323
        },
        {
          "duration": 0.1119791666666714,
          "durationTicks": 215,
          "midi": 67,
          "name": "G4",
          "ticks": 146607,
          "time": 76.3578125,
          "velocity": 0.49606299212598426
        },
        {
          "duration": 0.11770833333332575,
          "durationTicks": 226,
          "midi": 62,
          "name": "D4",
          "ticks": 146623,
          "time": 76.36614583333333,
          "velocity": 0.4566929133858268
        },
        {
          "duration": 0.11770833333333997,
          "durationTicks": 226,
          "midi": 55,
          "name": "G3",
          "ticks": 146627,
          "time": 76.36822916666667,
          "velocity": 0.44881889763779526
        },
        {
          "duration": 0.14010416666667425,
          "durationTicks": 269,
          "midi": 55,
          "name": "G3",
          "ticks": 147379,
          "time": 76.75989583333333,
          "velocity": 0.4094488188976378
        },
        {
          "duration": 0.11979166666665719,
          "durationTicks": 230,
          "midi": 62,
          "name": "D4",
          "ticks": 147395,
          "time": 76.76822916666667,
          "velocity": 0.3858267716535433
        },
        {
          "duration": 0.11302083333333712,
          "durationTicks": 217,
          "midi": 55,
          "name": "G3",
          "ticks": 148174,
          "time": 77.17395833333333,
          "velocity": 0.48031496062992124
        },
        {
          "duration": 0.07708333333333428,
          "durationTicks": 148,
          "midi": 69,
          "name": "A4",
          "ticks": 148176,
          "time": 77.175,
          "velocity": 0.49606299212598426
        },
        {
          "duration": 0.07291666666665719,
          "durationTicks": 140,
          "midi": 62,
          "name": "D4",
          "ticks": 148201,
          "time": 77.18802083333334,
          "velocity": 0.44881889763779526
        },
        {
          "duration": 0.0989583333333286,
          "durationTicks": 190,
          "midi": 55,
          "name": "G3",
          "ticks": 148946,
          "time": 77.57604166666667,
          "velocity": 0.4330708661417323
        },
        {
          "duration": 0.08489583333333428,
          "durationTicks": 163,
          "midi": 62,
          "name": "D4",
          "ticks": 148952,
          "time": 77.57916666666667,
          "velocity": 0.4094488188976378
        },
        {
          "duration": 0.09479166666666572,
          "durationTicks": 182,
          "midi": 72,
          "name": "C5",
          "ticks": 149772,
          "time": 78.00625,
          "velocity": 0.4566929133858268
        },
        {
          "duration": 0.08906249999999716,
          "durationTicks": 171,
          "midi": 55,
          "name": "G3",
          "ticks": 149777,
          "time": 78.00885416666667,
          "velocity": 0.41732283464566927
        },
        {
          "duration": 0.0859375,
          "durationTicks": 165,
          "midi": 76,
          "name": "E5",
          "ticks": 149787,
          "time": 78.0140625,
          "velocity": 0.4566929133858268
        },
        {
          "duration": 0.060937499999994316,
          "durationTicks": 117,
          "midi": 62,
          "name": "D4",
          "ticks": 149797,
          "time": 78.01927083333334,
          "velocity": 0.3858267716535433
        },
        {
          "duration": 0.1015625,
          "durationTicks": 195,
          "midi": 55,
          "name": "G3",
          "ticks": 150546,
          "time": 78.409375,
          "velocity": 0.4566929133858268
        },
        {
          "duration": 0.12291666666666856,
          "durationTicks": 236,
          "midi": 77,
          "name": "F5",
          "ticks": 150551,
          "time": 78.41197916666667,
          "velocity": 0.47244094488188976
        },
        {
          "duration": 0.07083333333332575,
          "durationTicks": 136,
          "midi": 62,
          "name": "D4",
          "ticks": 150553,
          "time": 78.41302083333333,
          "velocity": 0.44881889763779526
        },
        {
          "duration": 0.10572916666666288,
          "durationTicks": 203,
          "midi": 76,
          "name": "E5",
          "ticks": 150924,
          "time": 78.60625,
          "velocity": 0.44881889763779526
        },
        {
          "duration": 0.8552083333333229,
          "durationTicks": 1642,
          "midi": 74,
          "name": "D5",
          "ticks": 151336,
          "time": 78.82083333333334,
          "velocity": 0.47244094488188976
        },
        {
          "duration": 0.10989583333333997,
          "durationTicks": 211,
          "midi": 55,
          "name": "G3",
          "ticks": 151371,
          "time": 78.8390625,
          "velocity": 0.3858267716535433
        },
        {
          "duration": 0.07187500000000568,
          "durationTicks": 138,
          "midi": 62,
          "name": "D4",
          "ticks": 151375,
          "time": 78.84114583333333,
          "velocity": 0.4094488188976378
        },
        {
          "duration": 0.08906250000001137,
          "durationTicks": 171,
          "midi": 55,
          "name": "G3",
          "ticks": 152185,
          "time": 79.26302083333333,
          "velocity": 0.3858267716535433
        },
        {
          "duration": 0.07343750000001137,
          "durationTicks": 141,
          "midi": 62,
          "name": "D4",
          "ticks": 152202,
          "time": 79.271875,
          "velocity": 0.3464566929133858
        },
        {
          "duration": 0.08906249999999716,
          "durationTicks": 171,
          "midi": 62,
          "name": "D4",
          "ticks": 152953,
          "time": 79.66302083333333,
          "velocity": 0.44881889763779526
        },
        {
          "duration": 0.07395833333333712,
          "durationTicks": 142,
          "midi": 55,
          "name": "G3",
          "ticks": 152963,
          "time": 79.66822916666666,
          "velocity": 0.4409448818897638
        },
        {
          "duration": 0.3583333333333343,
          "durationTicks": 688,
          "midi": 76,
          "name": "E5",
          "ticks": 152999,
          "time": 79.68697916666666,
          "velocity": 0.5196850393700787
        },
        {
          "duration": 0.1041666666666714,
          "durationTicks": 200,
          "midi": 55,
          "name": "G3",
          "ticks": 153748,
          "time": 80.07708333333333,
          "velocity": 0.44881889763779526
        },
        {
          "duration": 0.07239583333333144,
          "durationTicks": 139,
          "midi": 62,
          "name": "D4",
          "ticks": 153759,
          "time": 80.0828125,
          "velocity": 0.4330708661417323
        },
        {
          "duration": 0.13906250000000853,
          "durationTicks": 267,
          "midi": 77,
          "name": "F5",
          "ticks": 153769,
          "time": 80.08802083333333,
          "velocity": 0.44881889763779526
        },
        {
          "duration": 0.13958333333333428,
          "durationTicks": 268,
          "midi": 76,
          "name": "E5",
          "ticks": 154092,
          "time": 80.25625,
          "velocity": 0.41732283464566927
        },
        {
          "duration": 0.42916666666666003,
          "durationTicks": 824,
          "midi": 74,
          "name": "D5",
          "ticks": 154541,
          "time": 80.49010416666667,
          "velocity": 0.44881889763779526
        },
        {
          "duration": 0.08697916666666572,
          "durationTicks": 167,
          "midi": 62,
          "name": "D4",
          "ticks": 154543,
          "time": 80.49114583333333,
          "velocity": 0.47244094488188976
        },
        {
          "duration": 0.0625,
          "durationTicks": 120,
          "midi": 55,
          "name": "G3",
          "ticks": 154550,
          "time": 80.49479166666667,
          "velocity": 0.44881889763779526
        },
        {
          "duration": 0.35208333333332575,
          "durationTicks": 676,
          "midi": 76,
          "name": "E5",
          "ticks": 155347,
          "time": 80.90989583333334,
          "velocity": 0.49606299212598426
        },
        {
          "duration": 0.12291666666666856,
          "durationTicks": 236,
          "midi": 60,
          "name": "C4",
          "ticks": 155363,
          "time": 80.91822916666666,
          "velocity": 0.47244094488188976
        },
        {
          "duration": 0.10520833333333712,
          "durationTicks": 202,
          "midi": 67,
          "name": "G4",
          "ticks": 155391,
          "time": 80.9328125,
          "velocity": 0.44881889763779526
        },
        {
          "duration": 0.11093750000000568,
          "durationTicks": 213,
          "midi": 60,
          "name": "C4",
          "ticks": 156152,
          "time": 81.32916666666667,
          "velocity": 0.44881889763779526
        },
        {
          "duration": 0.37812499999999716,
          "durationTicks": 726,
          "midi": 74,
          "name": "D5",
          "ticks": 156152,
          "time": 81.32916666666667,
          "velocity": 0.47244094488188976
        },
        {
          "duration": 0.09062500000000284,
          "durationTicks": 174,
          "midi": 67,
          "name": "G4",
          "ticks": 156158,
          "time": 81.33229166666666,
          "velocity": 0.4251968503937008
        },
        {
          "duration": 0.11614583333333428,
          "durationTicks": 223,
          "midi": 60,
          "name": "C4",
          "ticks": 156887,
          "time": 81.71197916666667,
          "velocity": 0.47244094488188976
        },
        {
          "duration": 0.10520833333333712,
          "durationTicks": 202,
          "midi": 76,
          "name": "E5",
          "ticks": 156889,
          "time": 81.71302083333333,
          "velocity": 0.48031496062992124
        },
        {
          "duration": 0.0859375,
          "durationTicks": 165,
          "midi": 67,
          "name": "G4",
          "ticks": 156891,
          "time": 81.7140625,
          "velocity": 0.44881889763779526
        },
        {
          "duration": 0.34322916666666003,
          "durationTicks": 659,
          "midi": 74,
          "name": "D5",
          "ticks": 157657,
          "time": 82.11302083333334,
          "velocity": 0.4251968503937008
        },
        {
          "duration": 0.11093749999999147,
          "durationTicks": 213,
          "midi": 67,
          "name": "G4",
          "ticks": 157659,
          "time": 82.1140625,
          "velocity": 0.4566929133858268
        },
        {
          "duration": 0.11145833333333144,
          "durationTicks": 214,
          "midi": 60,
          "name": "C4",
          "ticks": 157670,
          "time": 82.11979166666667,
          "velocity": 0.44881889763779526
        },
        {
          "duration": 0.1848958333333286,
          "durationTicks": 355,
          "midi": 76,
          "name": "E5",
          "ticks": 158433,
          "time": 82.5171875,
          "velocity": 0.4566929133858268
        },
        {
          "duration": 0.10312500000000568,
          "durationTicks": 198,
          "midi": 67,
          "name": "G4",
          "ticks": 158438,
          "time": 82.51979166666666,
          "velocity": 0.41732283464566927
        },
        {
          "duration": 0.07291666666665719,
          "durationTicks": 140,
          "midi": 60,
          "name": "C4",
          "ticks": 158469,
          "time": 82.5359375,
          "velocity": 0.41732283464566927
        },
        {
          "duration": 0.17500000000001137,
          "durationTicks": 336,
          "midi": 77,
          "name": "F5",
          "ticks": 158757,
          "time": 82.6859375,
          "velocity": 0.4251968503937008
        },
        {
          "duration": 0.4046875000000085,
          "durationTicks": 777,
          "midi": 79,
          "name": "G5",
          "ticks": 159199,
          "time": 82.91614583333333,
          "velocity": 0.4566929133858268
        },
        {
          "duration": 0.1328125,
          "durationTicks": 255,
          "midi": 57,
          "name": "A3",
          "ticks": 159226,
          "time": 82.93020833333334,
          "velocity": 0.44881889763779526
        },
        {
          "duration": 0.054166666666674246,
          "durationTicks": 104,
          "midi": 64,
          "name": "E4",
          "ticks": 159254,
          "time": 82.94479166666666,
          "velocity": 0.3937007874015748
        },
        {
          "duration": 0.3656249999999943,
          "durationTicks": 702,
          "midi": 77,
          "name": "F5",
          "ticks": 159975,
          "time": 83.3203125,
          "velocity": 0.49606299212598426
        },
        {
          "duration": 0.11770833333333997,
          "durationTicks": 226,
          "midi": 53,
          "name": "F3",
          "ticks": 160019,
          "time": 83.34322916666666,
          "velocity": 0.3858267716535433
        },
        {
          "duration": 0.06406250000000568,
          "durationTicks": 123,
          "midi": 60,
          "name": "C4",
          "ticks": 160140,
          "time": 83.40625,
          "velocity": 0.2677165354330709
        },
        {
          "duration": 0.05572916666666572,
          "durationTicks": 107,
          "midi": 76,
          "name": "E5",
          "ticks": 160708,
          "time": 83.70208333333333,
          "velocity": 0.49606299212598426
        },
        {
          "duration": 0.09166666666666856,
          "durationTicks": 176,
          "midi": 60,
          "name": "C4",
          "ticks": 160739,
          "time": 83.71822916666666,
          "velocity": 0.44881889763779526
        },
        {
          "duration": 0.07187500000000568,
          "durationTicks": 138,
          "midi": 53,
          "name": "F3",
          "ticks": 160793,
          "time": 83.74635416666666,
          "velocity": 0.3464566929133858
        },
        {
          "duration": 0.08385416666665435,
          "durationTicks": 161,
          "midi": 60,
          "name": "C4",
          "ticks": 161553,
          "time": 84.1421875,
          "velocity": 0.44881889763779526
        },
        {
          "duration": 0.16302083333333428,
          "durationTicks": 313,
          "midi": 65,
          "name": "F4",
          "ticks": 161555,
          "time": 84.14322916666667,
          "velocity": 0.48031496062992124
        },
        {
          "duration": 0.08697916666667993,
          "durationTicks": 167,
          "midi": 53,
          "name": "F3",
          "ticks": 161564,
          "time": 84.14791666666666,
          "velocity": 0.4330708661417323
        },
        {
          "duration": 0.14687500000000853,
          "durationTicks": 282,
          "midi": 77,
          "name": "F5",
          "ticks": 162344,
          "time": 84.55416666666666,
          "velocity": 0.49606299212598426
        },
        {
          "duration": 0.06614583333332291,
          "durationTicks": 127,
          "midi": 53,
          "name": "F3",
          "ticks": 162382,
          "time": 84.57395833333334,
          "velocity": 0.44881889763779526
        },
        {
          "duration": 0.05208333333334281,
          "durationTicks": 100,
          "midi": 60,
          "name": "C4",
          "ticks": 162396,
          "time": 84.58125,
          "velocity": 0.41732283464566927
        },
        {
          "duration": 0.16197916666666856,
          "durationTicks": 311,
          "midi": 76,
          "name": "E5",
          "ticks": 162682,
          "time": 84.73020833333334,
          "velocity": 0.4251968503937008
        },
        {
          "duration": 0.15520833333333428,
          "durationTicks": 298,
          "midi": 74,
          "name": "D5",
          "ticks": 163077,
          "time": 84.9359375,
          "velocity": 0.44881889763779526
        },
        {
          "duration": 0.07500000000000284,
          "durationTicks": 144,
          "midi": 60,
          "name": "C4",
          "ticks": 163110,
          "time": 84.953125,
          "velocity": 0.44881889763779526
        },
        {
          "duration": 0.1145833333333286,
          "durationTicks": 220,
          "midi": 53,
          "name": "F3",
          "ticks": 163114,
          "time": 84.95520833333333,
          "velocity": 0.44881889763779526
        },
        {
          "duration": 0.10989583333333997,
          "durationTicks": 211,
          "midi": 72,
          "name": "C5",
          "ticks": 163454,
          "time": 85.13229166666666,
          "velocity": 0.41732283464566927
        },
        {
          "duration": 0.06406249999999147,
          "durationTicks": 123,
          "midi": 60,
          "name": "C4",
          "ticks": 163912,
          "time": 85.37083333333334,
          "velocity": 0.4566929133858268
        },
        {
          "duration": 0.19218750000000284,
          "durationTicks": 369,
          "midi": 77,
          "name": "F5",
          "ticks": 163916,
          "time": 85.37291666666667,
          "velocity": 0.5196850393700787
        },
        {
          "duration": 0.0859375,
          "durationTicks": 165,
          "midi": 53,
          "name": "F3",
          "ticks": 163922,
          "time": 85.37604166666667,
          "velocity": 0.3858267716535433
        },
        {
          "duration": 0.17864583333333428,
          "durationTicks": 343,
          "midi": 76,
          "name": "E5",
          "ticks": 164289,
          "time": 85.5671875,
          "velocity": 0.4015748031496063
        },
        {
          "duration": 0.17812500000000853,
          "durationTicks": 342,
          "midi": 74,
          "name": "D5",
          "ticks": 164661,
          "time": 85.7609375,
          "velocity": 0.3937007874015748
        },
        {
          "duration": 0.14218750000000568,
          "durationTicks": 273,
          "midi": 72,
          "name": "C5",
          "ticks": 164999,
          "time": 85.93697916666666,
          "velocity": 0.48031496062992124
        },
        {
          "duration": 0.10885416666667425,
          "durationTicks": 209,
          "midi": 60,
          "name": "C4",
          "ticks": 165443,
          "time": 86.16822916666666,
          "velocity": 0.4566929133858268
        },
        {
          "duration": 0.17239583333333997,
          "durationTicks": 331,
          "midi": 77,
          "name": "F5",
          "ticks": 165452,
          "time": 86.17291666666667,
          "velocity": 0.5196850393700787
        },
        {
          "duration": 0.11614583333333428,
          "durationTicks": 223,
          "midi": 53,
          "name": "F3",
          "ticks": 165458,
          "time": 86.17604166666666,
          "velocity": 0.44881889763779526
        },
        {
          "duration": 0.22864583333333144,
          "durationTicks": 439,
          "midi": 76,
          "name": "E5",
          "ticks": 165800,
          "time": 86.35416666666667,
          "velocity": 0.36220472440944884
        },
        {
          "duration": 0.18437500000000284,
          "durationTicks": 354,
          "midi": 74,
          "name": "D5",
          "ticks": 166197,
          "time": 86.5609375,
          "velocity": 0.44881889763779526
        },
        {
          "duration": 0.14427083333333712,
          "durationTicks": 277,
          "midi": 72,
          "name": "C5",
          "ticks": 166560,
          "time": 86.75,
          "velocity": 0.4251968503937008
        },
        {
          "duration": 0.08177083333332291,
          "durationTicks": 157,
          "midi": 60,
          "name": "C4",
          "ticks": 167002,
          "time": 86.98020833333334,
          "velocity": 0.48031496062992124
        },
        {
          "duration": 0.06354166666666572,
          "durationTicks": 122,
          "midi": 53,
          "name": "F3",
          "ticks": 167033,
          "time": 86.99635416666666,
          "velocity": 0.3700787401574803
        },
        {
          "duration": 0.24375000000000568,
          "durationTicks": 468,
          "midi": 67,
          "name": "G4",
          "ticks": 167768,
          "time": 87.37916666666666,
          "velocity": 0.44881889763779526
        },
        {
          "duration": 0.4260416666666629,
          "durationTicks": 818,
          "midi": 69,
          "name": "A4",
          "ticks": 168496,
          "time": 87.75833333333334,
          "velocity": 0.48031496062992124
        },
        {
          "duration": 0.13385416666666572,
          "durationTicks": 257,
          "midi": 65,
          "name": "F4",
          "ticks": 168536,
          "time": 87.77916666666667,
          "velocity": 0.44881889763779526
        },
        {
          "duration": 0.5510416666666629,
          "durationTicks": 1058,
          "midi": 71,
          "name": "B4",
          "ticks": 169277,
          "time": 88.16510416666667,
          "velocity": 0.4566929133858268
        },
        {
          "duration": 0.14010416666667425,
          "durationTicks": 269,
          "midi": 65,
          "name": "F4",
          "ticks": 169294,
          "time": 88.17395833333333,
          "velocity": 0.44881889763779526
        },
        {
          "duration": 0.39270833333333144,
          "durationTicks": 754,
          "midi": 72,
          "name": "C5",
          "ticks": 170032,
          "time": 88.55833333333334,
          "velocity": 0.48031496062992124
        },
        {
          "duration": 0.15833333333333144,
          "durationTicks": 304,
          "midi": 65,
          "name": "F4",
          "ticks": 170064,
          "time": 88.575,
          "velocity": 0.4566929133858268
        },
        {
          "duration": 0.09166666666666856,
          "durationTicks": 176,
          "midi": 71,
          "name": "B4",
          "ticks": 170773,
          "time": 88.94427083333333,
          "velocity": 0.48031496062992124
        },
        {
          "duration": 0.12083333333333712,
          "durationTicks": 232,
          "midi": 65,
          "name": "F4",
          "ticks": 170794,
          "time": 88.95520833333333,
          "velocity": 0.47244094488188976
        },
        {
          "duration": 0.2697916666666771,
          "durationTicks": 518,
          "midi": 72,
          "name": "C5",
          "ticks": 171518,
          "time": 89.33229166666666,
          "velocity": 0.5118110236220472
        },
        {
          "duration": 0.12395833333333428,
          "durationTicks": 238,
          "midi": 67,
          "name": "G4",
          "ticks": 171531,
          "time": 89.3390625,
          "velocity": 0.5118110236220472
        },
        {
          "duration": 0.09114583333334281,
          "durationTicks": 175,
          "midi": 60,
          "name": "C4",
          "ticks": 171554,
          "time": 89.35104166666666,
          "velocity": 0.44881889763779526
        },
        {
          "duration": 0.09479166666666572,
          "durationTicks": 182,
          "midi": 76,
          "name": "E5",
          "ticks": 172382,
          "time": 89.78229166666667,
          "velocity": 0.3779527559055118
        },
        {
          "duration": 0.10572916666666288,
          "durationTicks": 203,
          "midi": 72,
          "name": "C5",
          "ticks": 172762,
          "time": 89.98020833333334,
          "velocity": 0.4566929133858268
        },
        {
          "duration": 0.11770833333332575,
          "durationTicks": 226,
          "midi": 67,
          "name": "G4",
          "ticks": 173079,
          "time": 90.1453125,
          "velocity": 0.4566929133858268
        },
        {
          "duration": 0.11979166666665719,
          "durationTicks": 230,
          "midi": 60,
          "name": "C4",
          "ticks": 173094,
          "time": 90.153125,
          "velocity": 0.44881889763779526
        },
        {
          "duration": 0.3359375,
          "durationTicks": 645,
          "midi": 72,
          "name": "C5",
          "ticks": 173117,
          "time": 90.16510416666667,
          "velocity": 0.48031496062992124
        },
        {
          "duration": 0.07500000000000284,
          "durationTicks": 144,
          "midi": 76,
          "name": "E5",
          "ticks": 173912,
          "time": 90.57916666666667,
          "velocity": 0.33858267716535434
        },
        {
          "duration": 0.16197916666666856,
          "durationTicks": 311,
          "midi": 72,
          "name": "C5",
          "ticks": 174206,
          "time": 90.73229166666667,
          "velocity": 0.44881889763779526
        },
        {
          "duration": 0.08958333333333712,
          "durationTicks": 172,
          "midi": 67,
          "name": "G4",
          "ticks": 174640,
          "time": 90.95833333333333,
          "velocity": 0.41732283464566927
        },
        {
          "duration": 0.07395833333333712,
          "durationTicks": 142,
          "midi": 76,
          "name": "E5",
          "ticks": 174640,
          "time": 90.95833333333333,
          "velocity": 0.44881889763779526
        },
        {
          "duration": 0.07500000000000284,
          "durationTicks": 144,
          "midi": 60,
          "name": "C4",
          "ticks": 174645,
          "time": 90.9609375,
          "velocity": 0.4015748031496063
        },
        {
          "duration": 0.39374999999999716,
          "durationTicks": 756,
          "midi": 72,
          "name": "C5",
          "ticks": 175427,
          "time": 91.36822916666667,
          "velocity": 0.4409448818897638
        },
        {
          "duration": 0.044270833333328596,
          "durationTicks": 85,
          "midi": 76,
          "name": "E5",
          "ticks": 176158,
          "time": 91.74895833333333,
          "velocity": 0.48031496062992124
        },
        {
          "duration": 0.10520833333333712,
          "durationTicks": 202,
          "midi": 67,
          "name": "G4",
          "ticks": 176177,
          "time": 91.75885416666667,
          "velocity": 0.48031496062992124
        },
        {
          "duration": 0.07916666666666572,
          "durationTicks": 152,
          "midi": 60,
          "name": "C4",
          "ticks": 176206,
          "time": 91.77395833333334,
          "velocity": 0.41732283464566927
        },
        {
          "duration": 0.13333333333333997,
          "durationTicks": 256,
          "midi": 64,
          "name": "E4",
          "ticks": 177644,
          "time": 92.52291666666666,
          "velocity": 0.49606299212598426
        },
        {
          "duration": 0.17083333333333428,
          "durationTicks": 328,
          "midi": 72,
          "name": "C5",
          "ticks": 177660,
          "time": 92.53125,
          "velocity": 0.47244094488188976
        },
        {
          "duration": 0.09218749999999432,
          "durationTicks": 177,
          "midi": 57,
          "name": "A3",
          "ticks": 177667,
          "time": 92.53489583333334,
          "velocity": 0.41732283464566927
        },
        {
          "duration": 0.15833333333333144,
          "durationTicks": 304,
          "midi": 69,
          "name": "A4",
          "ticks": 178339,
          "time": 92.88489583333333,
          "velocity": 0.4251968503937008
        },
        {
          "duration": 0.12708333333333144,
          "durationTicks": 244,
          "midi": 72,
          "name": "C5",
          "ticks": 178650,
          "time": 93.046875,
          "velocity": 0.4409448818897638
        },
        {
          "duration": 0.375,
          "durationTicks": 720,
          "midi": 69,
          "name": "A4",
          "ticks": 179113,
          "time": 93.28802083333333,
          "velocity": 0.48031496062992124
        },
        {
          "duration": 0.12291666666666856,
          "durationTicks": 236,
          "midi": 64,
          "name": "E4",
          "ticks": 179115,
          "time": 93.2890625,
          "velocity": 0.49606299212598426
        },
        {
          "duration": 0.09791666666666288,
          "durationTicks": 188,
          "midi": 57,
          "name": "A3",
          "ticks": 179134,
          "time": 93.29895833333333,
          "velocity": 0.4409448818897638
        },
        {
          "duration": 0.2213541666666714,
          "durationTicks": 425,
          "midi": 72,
          "name": "C5",
          "ticks": 179848,
          "time": 93.67083333333333,
          "velocity": 0.48031496062992124
        },
        {
          "duration": 0.23229166666666856,
          "durationTicks": 446,
          "midi": 74,
          "name": "D5",
          "ticks": 180186,
          "time": 93.846875,
          "velocity": 0.44881889763779526
        },
        {
          "duration": 0.4479166666666714,
          "durationTicks": 860,
          "midi": 76,
          "name": "E5",
          "ticks": 180645,
          "time": 94.0859375,
          "velocity": 0.49606299212598426
        },
        {
          "duration": 0.13072916666666856,
          "durationTicks": 251,
          "midi": 64,
          "name": "E4",
          "ticks": 180659,
          "time": 94.09322916666666,
          "velocity": 0.5118110236220472
        },
        {
          "duration": 0.16458333333332575,
          "durationTicks": 316,
          "midi": 57,
          "name": "A3",
          "ticks": 180665,
          "time": 94.09635416666667,
          "velocity": 0.44881889763779526
        },
        {
          "duration": 0.4755208333333343,
          "durationTicks": 913,
          "midi": 74,
          "name": "D5",
          "ticks": 181383,
          "time": 94.4703125,
          "velocity": 0.49606299212598426
        },
        {
          "duration": 0.1979166666666714,
          "durationTicks": 380,
          "midi": 57,
          "name": "A3",
          "ticks": 181423,
          "time": 94.49114583333333,
          "velocity": 0.44881889763779526
        },
        {
          "duration": 0.15520833333333428,
          "durationTicks": 298,
          "midi": 64,
          "name": "E4",
          "ticks": 181434,
          "time": 94.496875,
          "velocity": 0.49606299212598426
        },
        {
          "duration": 0.11510416666666856,
          "durationTicks": 221,
          "midi": 72,
          "name": "C5",
          "ticks": 182170,
          "time": 94.88020833333333,
          "velocity": 0.5118110236220472
        },
        {
          "duration": 0.14218750000000568,
          "durationTicks": 273,
          "midi": 64,
          "name": "E4",
          "ticks": 182202,
          "time": 94.896875,
          "velocity": 0.49606299212598426
        },
        {
          "duration": 0.12395833333333428,
          "durationTicks": 238,
          "midi": 57,
          "name": "A3",
          "ticks": 182204,
          "time": 94.89791666666666,
          "velocity": 0.4566929133858268
        },
        {
          "duration": 0.08072916666665719,
          "durationTicks": 155,
          "midi": 76,
          "name": "E5",
          "ticks": 183562,
          "time": 95.60520833333334,
          "velocity": 0.47244094488188976
        },
        {
          "duration": 0.11822916666667993,
          "durationTicks": 227,
          "midi": 72,
          "name": "C5",
          "ticks": 183569,
          "time": 95.60885416666666,
          "velocity": 0.44881889763779526
        },
        {
          "duration": 0.12395833333333428,
          "durationTicks": 238,
          "midi": 60,
          "name": "C4",
          "ticks": 183581,
          "time": 95.61510416666667,
          "velocity": 0.4566929133858268
        },
        {
          "duration": 0.12187500000000284,
          "durationTicks": 234,
          "midi": 67,
          "name": "G4",
          "ticks": 183583,
          "time": 95.61614583333333,
          "velocity": 0.49606299212598426
        },
        {
          "duration": 0.21302083333333144,
          "durationTicks": 409,
          "midi": 76,
          "name": "E5",
          "ticks": 183900,
          "time": 95.78125,
          "velocity": 0.44881889763779526
        },
        {
          "duration": 0.14999999999999147,
          "durationTicks": 288,
          "midi": 77,
          "name": "F5",
          "ticks": 184316,
          "time": 95.99791666666667,
          "velocity": 0.4409448818897638
        },
        {
          "duration": 0.13489583333333144,
          "durationTicks": 259,
          "midi": 79,
          "name": "G5",
          "ticks": 184668,
          "time": 96.18125,
          "velocity": 0.48031496062992124
        },
        {
          "duration": 0.15833333333333144,
          "durationTicks": 304,
          "midi": 69,
          "name": "A4",
          "ticks": 185107,
          "time": 96.40989583333334,
          "velocity": 0.5118110236220472
        },
        {
          "duration": 0.38593750000001137,
          "durationTicks": 741,
          "midi": 77,
          "name": "F5",
          "ticks": 185125,
          "time": 96.41927083333333,
          "velocity": 0.49606299212598426
        },
        {
          "duration": 0.14687500000000853,
          "durationTicks": 282,
          "midi": 65,
          "name": "F4",
          "ticks": 185136,
          "time": 96.425,
          "velocity": 0.44881889763779526
        },
        {
          "duration": 0.3473958333333371,
          "durationTicks": 667,
          "midi": 76,
          "name": "E5",
          "ticks": 185852,
          "time": 96.79791666666667,
          "velocity": 0.48031496062992124
        },
        {
          "duration": 0.14479166666666288,
          "durationTicks": 278,
          "midi": 69,
          "name": "A4",
          "ticks": 185866,
          "time": 96.80520833333334,
          "velocity": 0.49606299212598426
        },
        {
          "duration": 0.14010416666666003,
          "durationTicks": 269,
          "midi": 65,
          "name": "F4",
          "ticks": 185883,
          "time": 96.8140625,
          "velocity": 0.44881889763779526
        },
        {
          "duration": 0.11874999999999147,
          "durationTicks": 228,
          "midi": 60,
          "name": "C4",
          "ticks": 186609,
          "time": 97.1921875,
          "velocity": 0.44881889763779526
        },
        {
          "duration": 0.12083333333333712,
          "durationTicks": 232,
          "midi": 67,
          "name": "G4",
          "ticks": 186609,
          "time": 97.1921875,
          "velocity": 0.47244094488188976
        },
        {
          "duration": 0.15312500000000284,
          "durationTicks": 294,
          "midi": 72,
          "name": "C5",
          "ticks": 186624,
          "time": 97.2,
          "velocity": 0.48031496062992124
        },
        {
          "duration": 0.2749999999999915,
          "durationTicks": 528,
          "midi": 76,
          "name": "E5",
          "ticks": 186939,
          "time": 97.3640625,
          "velocity": 0.4015748031496063
        },
        {
          "duration": 0.13489583333333144,
          "durationTicks": 259,
          "midi": 77,
          "name": "F5",
          "ticks": 187406,
          "time": 97.60729166666667,
          "velocity": 0.4409448818897638
        },
        {
          "duration": 0.10260416666666572,
          "durationTicks": 197,
          "midi": 79,
          "name": "G5",
          "ticks": 187744,
          "time": 97.78333333333333,
          "velocity": 0.47244094488188976
        },
        {
          "duration": 0.12916666666666288,
          "durationTicks": 248,
          "midi": 79,
          "name": "G5",
          "ticks": 188208,
          "time": 98.025,
          "velocity": 0.5196850393700787
        },
        {
          "duration": 0.12604166666666572,
          "durationTicks": 242,
          "midi": 71,
          "name": "B4",
          "ticks": 188212,
          "time": 98.02708333333334,
          "velocity": 0.5196850393700787
        },
        {
          "duration": 0.13906249999999432,
          "durationTicks": 267,
          "midi": 67,
          "name": "G4",
          "ticks": 188233,
          "time": 98.03802083333333,
          "velocity": 0.4566929133858268
        },
        {
          "duration": 0.09583333333333144,
          "durationTicks": 184,
          "midi": 76,
          "name": "E5",
          "ticks": 189652,
          "time": 98.77708333333334,
          "velocity": 0.44881889763779526
        },
        {
          "duration": 0.1510416666666572,
          "durationTicks": 290,
          "midi": 72,
          "name": "C5",
          "ticks": 189654,
          "time": 98.778125,
          "velocity": 0.44881889763779526
        },
        {
          "duration": 0.109375,
          "durationTicks": 210,
          "midi": 67,
          "name": "G4",
          "ticks": 189663,
          "time": 98.7828125,
          "velocity": 0.5118110236220472
        },
        {
          "duration": 0.12135416666666288,
          "durationTicks": 233,
          "midi": 60,
          "name": "C4",
          "ticks": 189667,
          "time": 98.78489583333334,
          "velocity": 0.4566929133858268
        },
        {
          "duration": 0.17083333333333428,
          "durationTicks": 328,
          "midi": 79,
          "name": "G5",
          "ticks": 189677,
          "time": 98.79010416666667,
          "velocity": 0.4015748031496063
        },
        {
          "duration": 0.24531249999999716,
          "durationTicks": 471,
          "midi": 76,
          "name": "E5",
          "ticks": 190009,
          "time": 98.96302083333333,
          "velocity": 0.4409448818897638
        },
        {
          "duration": 0.15260416666666288,
          "durationTicks": 293,
          "midi": 77,
          "name": "F5",
          "ticks": 190432,
          "time": 99.18333333333334,
          "velocity": 0.4566929133858268
        },
        {
          "duration": 0.14218749999999147,
          "durationTicks": 273,
          "midi": 79,
          "name": "G5",
          "ticks": 190781,
          "time": 99.36510416666667,
          "velocity": 0.48031496062992124
        },
        {
          "duration": 0.16770833333333712,
          "durationTicks": 322,
          "midi": 69,
          "name": "A4",
          "ticks": 191194,
          "time": 99.58020833333333,
          "velocity": 0.4566929133858268
        },
        {
          "duration": 0.45000000000000284,
          "durationTicks": 864,
          "midi": 57,
          "name": "A3",
          "ticks": 191201,
          "time": 99.58385416666667,
          "velocity": 0.4566929133858268
        },
        {
          "duration": 0.4442708333333343,
          "durationTicks": 853,
          "midi": 64,
          "name": "E4",
          "ticks": 191207,
          "time": 99.58697916666667,
          "velocity": 0.49606299212598426
        },
        {
          "duration": 0.1770833333333428,
          "durationTicks": 340,
          "midi": 72,
          "name": "C5",
          "ticks": 191213,
          "time": 99.59010416666666,
          "velocity": 0.4566929133858268
        },
        {
          "duration": 0.4442708333333343,
          "durationTicks": 853,
          "midi": 72,
          "name": "C5",
          "ticks": 191975,
          "time": 99.98697916666667,
          "velocity": 0.48031496062992124
        },
        {
          "duration": 0.1276041666666714,
          "durationTicks": 245,
          "midi": 65,
          "name": "F4",
          "ticks": 192761,
          "time": 100.39635416666667,
          "velocity": 0.49606299212598426
        },
        {
          "duration": 0.15677083333332575,
          "durationTicks": 301,
          "midi": 74,
          "name": "D5",
          "ticks": 192772,
          "time": 100.40208333333334,
          "velocity": 0.5196850393700787
        },
        {
          "duration": 0.14010416666666003,
          "durationTicks": 269,
          "midi": 62,
          "name": "D4",
          "ticks": 192789,
          "time": 100.4109375,
          "velocity": 0.4409448818897638
        },
        {
          "duration": 0.22812499999999147,
          "durationTicks": 438,
          "midi": 76,
          "name": "E5",
          "ticks": 193098,
          "time": 100.571875,
          "velocity": 0.47244094488188976
        },
        {
          "duration": 0.17083333333333428,
          "durationTicks": 328,
          "midi": 74,
          "name": "D5",
          "ticks": 193569,
          "time": 100.8171875,
          "velocity": 0.44881889763779526
        },
        {
          "duration": 0.10989583333333997,
          "durationTicks": 211,
          "midi": 72,
          "name": "C5",
          "ticks": 193947,
          "time": 101.0140625,
          "velocity": 0.4566929133858268
        },
        {
          "duration": 0.1276041666666572,
          "durationTicks": 245,
          "midi": 62,
          "name": "D4",
          "ticks": 194343,
          "time": 101.2203125,
          "velocity": 0.49606299212598426
        },
        {
          "duration": 0.6197916666666572,
          "durationTicks": 1190,
          "midi": 67,
          "name": "G4",
          "ticks": 194362,
          "time": 101.23020833333334,
          "velocity": 0.4566929133858268
        },
        {
          "duration": 0.12604166666666572,
          "durationTicks": 242,
          "midi": 55,
          "name": "G3",
          "ticks": 194371,
          "time": 101.23489583333334,
          "velocity": 0.44881889763779526
        },
        {
          "duration": 0.13072916666666856,
          "durationTicks": 251,
          "midi": 62,
          "name": "D4",
          "ticks": 195566,
          "time": 101.85729166666667,
          "velocity": 0.48031496062992124
        },
        {
          "duration": 0.23125000000000284,
          "durationTicks": 444,
          "midi": 71,
          "name": "B4",
          "ticks": 195569,
          "time": 101.85885416666666,
          "velocity": 0.48031496062992124
        },
        {
          "duration": 0.0911458333333286,
          "durationTicks": 175,
          "midi": 55,
          "name": "G3",
          "ticks": 195583,
          "time": 101.86614583333333,
          "velocity": 0.4409448818897638
        },
        {
          "duration": 0.5770833333333343,
          "durationTicks": 1108,
          "midi": 72,
          "name": "C5",
          "ticks": 195965,
          "time": 102.06510416666667,
          "velocity": 0.48031496062992124
        },
        {
          "duration": 0.23906250000000284,
          "durationTicks": 459,
          "midi": 74,
          "name": "D5",
          "ticks": 197027,
          "time": 102.61822916666667,
          "velocity": 0.4566929133858268
        },
        {
          "duration": 0.43697916666667425,
          "durationTicks": 839,
          "midi": 72,
          "name": "C5",
          "ticks": 197447,
          "time": 102.83697916666667,
          "velocity": 0.4566929133858268
        },
        {
          "duration": 0.044270833333328596,
          "durationTicks": 85,
          "midi": 71,
          "name": "B4",
          "ticks": 198213,
          "time": 103.2359375,
          "velocity": 0.47244094488188976
        },
        {
          "duration": 0.13385416666666572,
          "durationTicks": 257,
          "midi": 67,
          "name": "G4",
          "ticks": 198970,
          "time": 103.63020833333333,
          "velocity": 0.5118110236220472
        },
        {
          "duration": 0.33541666666666003,
          "durationTicks": 644,
          "midi": 72,
          "name": "C5",
          "ticks": 198975,
          "time": 103.6328125,
          "velocity": 0.5196850393700787
        },
        {
          "duration": 0.12187500000000284,
          "durationTicks": 234,
          "midi": 60,
          "name": "C4",
          "ticks": 198987,
          "time": 103.6390625,
          "velocity": 0.47244094488188976
        },
        {
          "duration": 0.14479166666666288,
          "durationTicks": 278,
          "midi": 76,
          "name": "E5",
          "ticks": 199713,
          "time": 104.0171875,
          "velocity": 0.5196850393700787
        },
        {
          "duration": 0.3734375000000085,
          "durationTicks": 717,
          "midi": 72,
          "name": "C5",
          "ticks": 200513,
          "time": 104.43385416666666,
          "velocity": 0.49606299212598426
        },
        {
          "duration": 0.12604166666666572,
          "durationTicks": 242,
          "midi": 67,
          "name": "G4",
          "ticks": 200515,
          "time": 104.43489583333333,
          "velocity": 0.48031496062992124
        },
        {
          "duration": 0.0807291666666714,
          "durationTicks": 155,
          "midi": 60,
          "name": "C4",
          "ticks": 200552,
          "time": 104.45416666666667,
          "velocity": 0.3937007874015748
        },
        {
          "duration": 0.09583333333333144,
          "durationTicks": 184,
          "midi": 76,
          "name": "E5",
          "ticks": 201270,
          "time": 104.828125,
          "velocity": 0.5196850393700787
        },
        {
          "duration": 0.41614583333333144,
          "durationTicks": 799,
          "midi": 72,
          "name": "C5",
          "ticks": 201988,
          "time": 105.20208333333333,
          "velocity": 0.48031496062992124
        },
        {
          "duration": 0.11614583333333428,
          "durationTicks": 223,
          "midi": 67,
          "name": "G4",
          "ticks": 201990,
          "time": 105.203125,
          "velocity": 0.4566929133858268
        },
        {
          "duration": 0.11302083333333712,
          "durationTicks": 217,
          "midi": 60,
          "name": "C4",
          "ticks": 202003,
          "time": 105.20989583333333,
          "velocity": 0.4330708661417323
        },
        {
          "duration": 0.04791666666666572,
          "durationTicks": 92,
          "midi": 76,
          "name": "E5",
          "ticks": 202752,
          "time": 105.6,
          "velocity": 0.5118110236220472
        },
        {
          "duration": 0.05885416666666288,
          "durationTicks": 113,
          "midi": 64,
          "name": "E4",
          "ticks": 202791,
          "time": 105.6203125,
          "velocity": 0.4409448818897638
        },
        {
          "duration": 0.07187499999999147,
          "durationTicks": 138,
          "midi": 57,
          "name": "A3",
          "ticks": 202794,
          "time": 105.621875,
          "velocity": 0.3779527559055118
        },
        {
          "duration": 0.4270833333333286,
          "durationTicks": 820,
          "midi": 72,
          "name": "C5",
          "ticks": 203553,
          "time": 106.0171875,
          "velocity": 0.41732283464566927
        },
        {
          "duration": 0.08802083333333144,
          "durationTicks": 169,
          "midi": 76,
          "name": "E5",
          "ticks": 204292,
          "time": 106.40208333333334,
          "velocity": 0.5433070866141733
        },
        {
          "duration": 0.10000000000000853,
          "durationTicks": 192,
          "midi": 55,
          "name": "G3",
          "ticks": 204304,
          "time": 106.40833333333333,
          "velocity": 0.48031496062992124
        },
        {
          "duration": 0.06354166666666572,
          "durationTicks": 122,
          "midi": 48,
          "name": "C3",
          "ticks": 204352,
          "time": 106.43333333333334,
          "velocity": 0.3858267716535433
        },
        {
          "duration": 0.4437499999999943,
          "durationTicks": 852,
          "midi": 72,
          "name": "C5",
          "ticks": 205083,
          "time": 106.8140625,
          "velocity": 0.41732283464566927
        },
        {
          "duration": 0.11822916666666572,
          "durationTicks": 227,
          "midi": 76,
          "name": "E5",
          "ticks": 205845,
          "time": 107.2109375,
          "velocity": 0.5196850393700787
        },
        {
          "duration": 0.1067708333333286,
          "durationTicks": 205,
          "midi": 48,
          "name": "C3",
          "ticks": 205878,
          "time": 107.228125,
          "velocity": 0.4330708661417323
        },
        {
          "duration": 0.11093749999999147,
          "durationTicks": 213,
          "midi": 60,
          "name": "C4",
          "ticks": 205880,
          "time": 107.22916666666667,
          "velocity": 0.47244094488188976
        },
        {
          "duration": 0.24322916666666572,
          "durationTicks": 467,
          "midi": 72,
          "name": "C5",
          "ticks": 206607,
          "time": 107.6078125,
          "velocity": 0.3779527559055118
        },
        {
          "duration": 0.15312500000000284,
          "durationTicks": 294,
          "midi": 76,
          "name": "E5",
          "ticks": 207381,
          "time": 108.0109375,
          "velocity": 0.5433070866141733
        },
        {
          "duration": 0.1369791666666771,
          "durationTicks": 263,
          "midi": 60,
          "name": "C4",
          "ticks": 207389,
          "time": 108.01510416666666,
          "velocity": 0.5118110236220472
        },
        {
          "duration": 0.09791666666666288,
          "durationTicks": 188,
          "midi": 64,
          "name": "E4",
          "ticks": 208155,
          "time": 108.4140625,
          "velocity": 0.41732283464566927
        },
        {
          "duration": 0.13906250000000853,
          "durationTicks": 267,
          "midi": 64,
          "name": "E4",
          "ticks": 208879,
          "time": 108.79114583333333,
          "velocity": 0.4330708661417323
        },
        {
          "duration": 0.12864583333333712,
          "durationTicks": 247,
          "midi": 64,
          "name": "E4",
          "ticks": 209674,
          "time": 109.20520833333333,
          "velocity": 0.44881889763779526
        },
        {
          "duration": 0.4208333333333343,
          "durationTicks": 808,
          "midi": 69,
          "name": "A4",
          "ticks": 210432,
          "time": 109.6,
          "velocity": 0.47244094488188976
        },
        {
          "duration": 0.12291666666666856,
          "durationTicks": 236,
          "midi": 64,
          "name": "E4",
          "ticks": 210465,
          "time": 109.6171875,
          "velocity": 0.47244094488188976
        },
        {
          "duration": 0.07604166666666856,
          "durationTicks": 146,
          "midi": 64,
          "name": "E4",
          "ticks": 211237,
          "time": 110.01927083333334,
          "velocity": 0.3937007874015748
        },
        {
          "duration": 0.04322916666667709,
          "durationTicks": 83,
          "midi": 71,
          "name": "B4",
          "ticks": 211238,
          "time": 110.01979166666666,
          "velocity": 0.44881889763779526
        },
        {
          "duration": 0.12083333333333712,
          "durationTicks": 232,
          "midi": 64,
          "name": "E4",
          "ticks": 211978,
          "time": 110.40520833333333,
          "velocity": 0.4015748031496063
        },
        {
          "duration": 0.19479166666666003,
          "durationTicks": 374,
          "midi": 69,
          "name": "A4",
          "ticks": 212763,
          "time": 110.8140625,
          "velocity": 0.47244094488188976
        },
        {
          "duration": 0.14114583333333997,
          "durationTicks": 271,
          "midi": 64,
          "name": "E4",
          "ticks": 212790,
          "time": 110.828125,
          "velocity": 0.47244094488188976
        },
        {
          "duration": 0.0911458333333286,
          "durationTicks": 175,
          "midi": 71,
          "name": "B4",
          "ticks": 213485,
          "time": 111.19010416666667,
          "velocity": 0.5196850393700787
        },
        {
          "duration": 0.1171875,
          "durationTicks": 225,
          "midi": 64,
          "name": "E4",
          "ticks": 213510,
          "time": 111.203125,
          "velocity": 0.44881889763779526
        },
        {
          "duration": 0.12812500000001137,
          "durationTicks": 246,
          "midi": 64,
          "name": "E4",
          "ticks": 214272,
          "time": 111.6,
          "velocity": 0.3700787401574803
        },
        {
          "duration": 0.39791666666667425,
          "durationTicks": 764,
          "midi": 69,
          "name": "A4",
          "ticks": 215059,
          "time": 112.00989583333333,
          "velocity": 0.49606299212598426
        },
        {
          "duration": 0.13750000000000284,
          "durationTicks": 264,
          "midi": 64,
          "name": "E4",
          "ticks": 215081,
          "time": 112.02135416666667,
          "velocity": 0.4566929133858268
        },
        {
          "duration": 0.08697916666666572,
          "durationTicks": 167,
          "midi": 71,
          "name": "B4",
          "ticks": 215783,
          "time": 112.38697916666666,
          "velocity": 0.5196850393700787
        },
        {
          "duration": 0.13385416666666572,
          "durationTicks": 257,
          "midi": 64,
          "name": "E4",
          "ticks": 215818,
          "time": 112.40520833333333,
          "velocity": 0.48031496062992124
        },
        {
          "duration": 0.12291666666666856,
          "durationTicks": 236,
          "midi": 64,
          "name": "E4",
          "ticks": 216538,
          "time": 112.78020833333333,
          "velocity": 0.4409448818897638
        },
        {
          "duration": 0.12708333333333144,
          "durationTicks": 244,
          "midi": 64,
          "name": "E4",
          "ticks": 217363,
          "time": 113.20989583333333,
          "velocity": 0.4330708661417323
        },
        {
          "duration": 0.12343749999999432,
          "durationTicks": 237,
          "midi": 64,
          "name": "E4",
          "ticks": 218085,
          "time": 113.5859375,
          "velocity": 0.47244094488188976
        },
        {
          "duration": 0.12604166666666572,
          "durationTicks": 242,
          "midi": 57,
          "name": "A3",
          "ticks": 218110,
          "time": 113.59895833333333,
          "velocity": 0.41732283464566927
        },
        {
          "duration": 0.4000000000000057,
          "durationTicks": 768,
          "midi": 65,
          "name": "F4",
          "ticks": 218828,
          "time": 113.97291666666666,
          "velocity": 0.44881889763779526
        },
        {
          "duration": 0.4260416666666629,
          "durationTicks": 818,
          "midi": 67,
          "name": "G4",
          "ticks": 219592,
          "time": 114.37083333333334,
          "velocity": 0.48031496062992124
        },
        {
          "duration": 0.8760416666666657,
          "durationTicks": 1682,
          "midi": 69,
          "name": "A4",
          "ticks": 220372,
          "time": 114.77708333333334,
          "velocity": 0.47244094488188976
        },
        {
          "duration": 0.13177083333333428,
          "durationTicks": 253,
          "midi": 60,
          "name": "C4",
          "ticks": 220374,
          "time": 114.778125,
          "velocity": 0.4566929133858268
        },
        {
          "duration": 0.12395833333333428,
          "durationTicks": 238,
          "midi": 53,
          "name": "F3",
          "ticks": 220393,
          "time": 114.78802083333333,
          "velocity": 0.4015748031496063
        },
        {
          "duration": 0.8171875000000028,
          "durationTicks": 1569,
          "midi": 71,
          "name": "B4",
          "ticks": 221937,
          "time": 115.5921875,
          "velocity": 0.48031496062992124
        },
        {
          "duration": 0.15625,
          "durationTicks": 300,
          "midi": 60,
          "name": "C4",
          "ticks": 221952,
          "time": 115.6,
          "velocity": 0.48031496062992124
        },
        {
          "duration": 0.18072916666666572,
          "durationTicks": 347,
          "midi": 53,
          "name": "F3",
          "ticks": 221964,
          "time": 115.60625,
          "velocity": 0.4409448818897638
        },
        {
          "duration": 0.8859374999999972,
          "durationTicks": 1701,
          "midi": 69,
          "name": "A4",
          "ticks": 223417,
          "time": 116.36302083333334,
          "velocity": 0.48031496062992124
        },
        {
          "duration": 0.18020833333332575,
          "durationTicks": 346,
          "midi": 60,
          "name": "C4",
          "ticks": 223419,
          "time": 116.3640625,
          "velocity": 0.48031496062992124
        },
        {
          "duration": 0.171875,
          "durationTicks": 330,
          "midi": 53,
          "name": "F3",
          "ticks": 223450,
          "time": 116.38020833333333,
          "velocity": 0.44881889763779526
        },
        {
          "duration": 0.5302083333333343,
          "durationTicks": 1018,
          "midi": 67,
          "name": "G4",
          "ticks": 224903,
          "time": 117.13697916666666,
          "velocity": 0.49606299212598426
        },
        {
          "duration": 0.17031250000000853,
          "durationTicks": 327,
          "midi": 53,
          "name": "F3",
          "ticks": 224922,
          "time": 117.146875,
          "velocity": 0.44881889763779526
        },
        {
          "duration": 0.1588541666666572,
          "durationTicks": 305,
          "midi": 60,
          "name": "C4",
          "ticks": 224930,
          "time": 117.15104166666667,
          "velocity": 0.49606299212598426
        },
        {
          "duration": 0.20729166666666288,
          "durationTicks": 398,
          "midi": 67,
          "name": "G4",
          "ticks": 226297,
          "time": 117.86302083333334,
          "velocity": 0.5118110236220472
        },
        {
          "duration": 0.15781250000000568,
          "durationTicks": 303,
          "midi": 62,
          "name": "D4",
          "ticks": 226307,
          "time": 117.86822916666667,
          "velocity": 0.5118110236220472
        },
        {
          "duration": 0.16822916666666288,
          "durationTicks": 323,
          "midi": 55,
          "name": "G3",
          "ticks": 226314,
          "time": 117.871875,
          "velocity": 0.47244094488188976
        },
        {
          "duration": 0.23333333333333428,
          "durationTicks": 448,
          "midi": 71,
          "name": "B4",
          "ticks": 227013,
          "time": 118.2359375,
          "velocity": 0.44881889763779526
        },
        {
          "duration": 0.2630208333333286,
          "durationTicks": 505,
          "midi": 72,
          "name": "C5",
          "ticks": 227359,
          "time": 118.41614583333333,
          "velocity": 0.48031496062992124
        },
        {
          "duration": 0.44583333333332575,
          "durationTicks": 856,
          "midi": 74,
          "name": "D5",
          "ticks": 227737,
          "time": 118.61302083333334,
          "velocity": 0.48031496062992124
        },
        {
          "duration": 0.11822916666667993,
          "durationTicks": 227,
          "midi": 62,
          "name": "D4",
          "ticks": 228449,
          "time": 118.98385416666666,
          "velocity": 0.47244094488188976
        },
        {
          "duration": 0.4312499999999915,
          "durationTicks": 828,
          "midi": 72,
          "name": "C5",
          "ticks": 228457,
          "time": 118.98802083333334,
          "velocity": 0.5118110236220472
        },
        {
          "duration": 0.10000000000000853,
          "durationTicks": 192,
          "midi": 55,
          "name": "G3",
          "ticks": 228469,
          "time": 118.99427083333333,
          "velocity": 0.4330708661417323
        },
        {
          "duration": 0.1041666666666714,
          "durationTicks": 200,
          "midi": 71,
          "name": "B4",
          "ticks": 229154,
          "time": 119.35104166666666,
          "velocity": 0.5196850393700787
        },
        {
          "duration": 0.11666666666666003,
          "durationTicks": 224,
          "midi": 55,
          "name": "G3",
          "ticks": 229166,
          "time": 119.35729166666667,
          "velocity": 0.47244094488188976
        },
        {
          "duration": 0.10833333333333428,
          "durationTicks": 208,
          "midi": 62,
          "name": "D4",
          "ticks": 229173,
          "time": 119.3609375,
          "velocity": 0.5196850393700787
        },
        {
          "duration": 0.13906250000000853,
          "durationTicks": 267,
          "midi": 72,
          "name": "C5",
          "ticks": 230579,
          "time": 120.09322916666666,
          "velocity": 0.5433070866141733
        },
        {
          "duration": 0.09583333333333144,
          "durationTicks": 184,
          "midi": 67,
          "name": "G4",
          "ticks": 230625,
          "time": 120.1171875,
          "velocity": 0.5196850393700787
        },
        {
          "duration": 0.06822916666666856,
          "durationTicks": 131,
          "midi": 60,
          "name": "C4",
          "ticks": 230640,
          "time": 120.125,
          "velocity": 0.44881889763779526
        },
        {
          "duration": 0.2265625,
          "durationTicks": 435,
          "midi": 84,
          "name": "C6",
          "ticks": 231977,
          "time": 120.82135416666667,
          "velocity": 0.5905511811023622
        },
        {
          "duration": 0.12916666666666288,
          "durationTicks": 248,
          "midi": 60,
          "name": "C4",
          "ticks": 231982,
          "time": 120.82395833333334,
          "velocity": 0.49606299212598426
        },
        {
          "duration": 0.1380208333333286,
          "durationTicks": 265,
          "midi": 67,
          "name": "G4",
          "ticks": 231984,
          "time": 120.825,
          "velocity": 0.5196850393700787
        },
        {
          "duration": 0.4338541666666771,
          "durationTicks": 833,
          "midi": 83,
          "name": "B5",
          "ticks": 232720,
          "time": 121.20833333333333,
          "velocity": 0.44881889763779526
        },
        {
          "duration": 0.1822916666666714,
          "durationTicks": 350,
          "midi": 60,
          "name": "C4",
          "ticks": 233447,
          "time": 121.58697916666667,
          "velocity": 0.4566929133858268
        },
        {
          "duration": 0.15000000000000568,
          "durationTicks": 288,
          "midi": 67,
          "name": "G4",
          "ticks": 233457,
          "time": 121.5921875,
          "velocity": 0.49606299212598426
        },
        {
          "duration": 0.4203125000000085,
          "durationTicks": 807,
          "midi": 81,
          "name": "A5",
          "ticks": 233464,
          "time": 121.59583333333333,
          "velocity": 0.5118110236220472
        },
        {
          "duration": 0.43802083333332575,
          "durationTicks": 841,
          "midi": 79,
          "name": "G5",
          "ticks": 234200,
          "time": 121.97916666666667,
          "velocity": 0.44881889763779526
        },
        {
          "duration": 0.2109375,
          "durationTicks": 405,
          "midi": 67,
          "name": "G4",
          "ticks": 234924,
          "time": 122.35625,
          "velocity": 0.5196850393700787
        },
        {
          "duration": 0.24010416666666856,
          "durationTicks": 461,
          "midi": 60,
          "name": "C4",
          "ticks": 234937,
          "time": 122.36302083333334,
          "velocity": 0.48031496062992124
        },
        {
          "duration": 0.2901041666666657,
          "durationTicks": 557,
          "midi": 84,
          "name": "C6",
          "ticks": 234958,
          "time": 122.37395833333333,
          "velocity": 0.5669291338582677
        },
        {
          "duration": 0.4177083333333371,
          "durationTicks": 802,
          "midi": 83,
          "name": "B5",
          "ticks": 235692,
          "time": 122.75625,
          "velocity": 0.4409448818897638
        },
        {
          "duration": 0.3619791666666714,
          "durationTicks": 695,
          "midi": 81,
          "name": "A5",
          "ticks": 236389,
          "time": 123.11927083333333,
          "velocity": 0.47244094488188976
        },
        {
          "duration": 0.08281250000000284,
          "durationTicks": 159,
          "midi": 79,
          "name": "G5",
          "ticks": 237107,
          "time": 123.49322916666667,
          "velocity": 0.4094488188976378
        },
        {
          "duration": 0.2890625,
          "durationTicks": 555,
          "midi": 69,
          "name": "A4",
          "ticks": 237806,
          "time": 123.85729166666667,
          "velocity": 0.4566929133858268
        },
        {
          "duration": 0.15729166666666572,
          "durationTicks": 302,
          "midi": 57,
          "name": "A3",
          "ticks": 237813,
          "time": 123.8609375,
          "velocity": 0.48031496062992124
        },
        {
          "duration": 0.15781249999999147,
          "durationTicks": 303,
          "midi": 64,
          "name": "E4",
          "ticks": 237817,
          "time": 123.86302083333334,
          "velocity": 0.5196850393700787
        },
        {
          "duration": 0.4359374999999943,
          "durationTicks": 837,
          "midi": 71,
          "name": "B4",
          "ticks": 238518,
          "time": 124.228125,
          "velocity": 0.4566929133858268
        },
        {
          "duration": 0.43177083333333144,
          "durationTicks": 829,
          "midi": 72,
          "name": "C5",
          "ticks": 239265,
          "time": 124.6171875,
          "velocity": 0.48031496062992124
        },
        {
          "duration": 0.3203125,
          "durationTicks": 615,
          "midi": 74,
          "name": "D5",
          "ticks": 240017,
          "time": 125.00885416666667,
          "velocity": 0.49606299212598426
        },
        {
          "duration": 0.2822916666666657,
          "durationTicks": 542,
          "midi": 65,
          "name": "F4",
          "ticks": 240695,
          "time": 125.36197916666667,
          "velocity": 0.5196850393700787
        },
        {
          "duration": 0.18125000000000568,
          "durationTicks": 348,
          "midi": 53,
          "name": "F3",
          "ticks": 240724,
          "time": 125.37708333333333,
          "velocity": 0.44881889763779526
        },
        {
          "duration": 0.15781250000000568,
          "durationTicks": 303,
          "midi": 60,
          "name": "C4",
          "ticks": 240728,
          "time": 125.37916666666666,
          "velocity": 0.49606299212598426
        },
        {
          "duration": 0.3791666666666771,
          "durationTicks": 728,
          "midi": 77,
          "name": "F5",
          "ticks": 241388,
          "time": 125.72291666666666,
          "velocity": 0.47244094488188976
        },
        {
          "duration": 0.3348958333333343,
          "durationTicks": 643,
          "midi": 76,
          "name": "E5",
          "ticks": 242133,
          "time": 126.1109375,
          "velocity": 0.4566929133858268
        },
        {
          "duration": 0.16614583333333144,
          "durationTicks": 319,
          "midi": 60,
          "name": "C4",
          "ticks": 242139,
          "time": 126.1140625,
          "velocity": 0.4566929133858268
        },
        {
          "duration": 0.19062499999999716,
          "durationTicks": 366,
          "midi": 53,
          "name": "F3",
          "ticks": 242151,
          "time": 126.1203125,
          "velocity": 0.41732283464566927
        },
        {
          "duration": 0.39895833333332575,
          "durationTicks": 766,
          "midi": 74,
          "name": "D5",
          "ticks": 242857,
          "time": 126.48802083333334,
          "velocity": 0.44881889763779526
        },
        {
          "duration": 0.12708333333333144,
          "durationTicks": 244,
          "midi": 53,
          "name": "F3",
          "ticks": 242884,
          "time": 126.50208333333333,
          "velocity": 0.41732283464566927
        },
        {
          "duration": 0.13385416666666572,
          "durationTicks": 257,
          "midi": 60,
          "name": "C4",
          "ticks": 242896,
          "time": 126.50833333333334,
          "velocity": 0.4566929133858268
        },
        {
          "duration": 0.14635416666666856,
          "durationTicks": 281,
          "midi": 62,
          "name": "D4",
          "ticks": 243552,
          "time": 126.85,
          "velocity": 0.4409448818897638
        },
        {
          "duration": 0.16614583333333144,
          "durationTicks": 319,
          "midi": 55,
          "name": "G3",
          "ticks": 243560,
          "time": 126.85416666666667,
          "velocity": 0.4094488188976378
        },
        {
          "duration": 0.31197916666667425,
          "durationTicks": 599,
          "midi": 67,
          "name": "G4",
          "ticks": 243614,
          "time": 126.88229166666666,
          "velocity": 0.4566929133858268
        },
        {
          "duration": 0.05729166666665719,
          "durationTicks": 110,
          "midi": 69,
          "name": "A4",
          "ticks": 243648,
          "time": 126.9,
          "velocity": 0.41732283464566927
        },
        {
          "duration": 0.29999999999999716,
          "durationTicks": 576,
          "midi": 79,
          "name": "G5",
          "ticks": 244305,
          "time": 127.2421875,
          "velocity": 0.4409448818897638
        },
        {
          "duration": 0.07395833333333712,
          "durationTicks": 142,
          "midi": 77,
          "name": "F5",
          "ticks": 244389,
          "time": 127.2859375,
          "velocity": 0.31496062992125984
        },
        {
          "duration": 0.15937499999999716,
          "durationTicks": 306,
          "midi": 62,
          "name": "D4",
          "ticks": 245063,
          "time": 127.63697916666666,
          "velocity": 0.4566929133858268
        },
        {
          "duration": 0.3921874999999915,
          "durationTicks": 753,
          "midi": 77,
          "name": "F5",
          "ticks": 245065,
          "time": 127.63802083333333,
          "velocity": 0.47244094488188976
        },
        {
          "duration": 0.14895833333332575,
          "durationTicks": 286,
          "midi": 55,
          "name": "G3",
          "ticks": 245079,
          "time": 127.6453125,
          "velocity": 0.4409448818897638
        },
        {
          "duration": 0.4390625000000057,
          "durationTicks": 843,
          "midi": 76,
          "name": "E5",
          "ticks": 245779,
          "time": 128.00989583333333,
          "velocity": 0.4409448818897638
        },
        {
          "duration": 0.4281249999999943,
          "durationTicks": 822,
          "midi": 74,
          "name": "D5",
          "ticks": 246509,
          "time": 128.39010416666667,
          "velocity": 0.47244094488188976
        },
        {
          "duration": 0.745312499999983,
          "durationTicks": 1431,
          "midi": 55,
          "name": "G3",
          "ticks": 246524,
          "time": 128.39791666666667,
          "velocity": 0.44881889763779526
        },
        {
          "duration": 0.7708333333333428,
          "durationTicks": 1480,
          "midi": 62,
          "name": "D4",
          "ticks": 246534,
          "time": 128.403125,
          "velocity": 0.47244094488188976
        },
        {
          "duration": 0.45104166666666856,
          "durationTicks": 866,
          "midi": 72,
          "name": "C5",
          "ticks": 247212,
          "time": 128.75625,
          "velocity": 0.4251968503937008
        },
        {
          "duration": 0.4312500000000057,
          "durationTicks": 828,
          "midi": 74,
          "name": "D5",
          "ticks": 247983,
          "time": 129.1578125,
          "velocity": 0.48031496062992124
        },
        {
          "duration": 0.4192708333333428,
          "durationTicks": 805,
          "midi": 76,
          "name": "E5",
          "ticks": 248686,
          "time": 129.52395833333333,
          "velocity": 0.44881889763779526
        },
        {
          "duration": 0.16145833333331439,
          "durationTicks": 310,
          "midi": 67,
          "name": "G4",
          "ticks": 249400,
          "time": 129.89583333333334,
          "velocity": 0.5118110236220472
        },
        {
          "duration": 0.15729166666667993,
          "durationTicks": 302,
          "midi": 60,
          "name": "C4",
          "ticks": 249402,
          "time": 129.896875,
          "velocity": 0.48031496062992124
        },
        {
          "duration": 0.3661458333333485,
          "durationTicks": 703,
          "midi": 77,
          "name": "F5",
          "ticks": 249406,
          "time": 129.89895833333333,
          "velocity": 0.5118110236220472
        },
        {
          "duration": 0.4937500000000057,
          "durationTicks": 948,
          "midi": 76,
          "name": "E5",
          "ticks": 250061,
          "time": 130.24010416666667,
          "velocity": 0.33858267716535434
        },
        {
          "duration": 0.19322916666666856,
          "durationTicks": 371,
          "midi": 60,
          "name": "C4",
          "ticks": 250875,
          "time": 130.6640625,
          "velocity": 0.44881889763779526
        },
        {
          "duration": 0.46302083333333144,
          "durationTicks": 889,
          "midi": 74,
          "name": "D5",
          "ticks": 250890,
          "time": 130.671875,
          "velocity": 0.44881889763779526
        },
        {
          "duration": 0.18645833333332007,
          "durationTicks": 358,
          "midi": 67,
          "name": "G4",
          "ticks": 250890,
          "time": 130.671875,
          "velocity": 0.47244094488188976
        },
        {
          "duration": 0.44739583333333144,
          "durationTicks": 859,
          "midi": 72,
          "name": "C5",
          "ticks": 251639,
          "time": 131.06197916666667,
          "velocity": 0.4566929133858268
        },
        {
          "duration": 0.18177083333335986,
          "durationTicks": 349,
          "midi": 60,
          "name": "C4",
          "ticks": 252373,
          "time": 131.44427083333332,
          "velocity": 0.48031496062992124
        },
        {
          "duration": 0.36145833333333144,
          "durationTicks": 694,
          "midi": 74,
          "name": "D5",
          "ticks": 252380,
          "time": 131.44791666666666,
          "velocity": 0.5433070866141733
        },
        {
          "duration": 0.16510416666667993,
          "durationTicks": 317,
          "midi": 67,
          "name": "G4",
          "ticks": 252384,
          "time": 131.45,
          "velocity": 0.5196850393700787
        },
        {
          "duration": 0.4281249999999943,
          "durationTicks": 822,
          "midi": 72,
          "name": "C5",
          "ticks": 253050,
          "time": 131.796875,
          "velocity": 0.3779527559055118
        },
        {
          "duration": 0.41093749999998863,
          "durationTicks": 789,
          "midi": 74,
          "name": "D5",
          "ticks": 253830,
          "time": 132.203125,
          "velocity": 0.47244094488188976
        },
        {
          "duration": 0.3890624999999943,
          "durationTicks": 747,
          "midi": 76,
          "name": "E5",
          "ticks": 254531,
          "time": 132.56822916666667,
          "velocity": 0.4409448818897638
        },
        {
          "duration": 0.18177083333333144,
          "durationTicks": 349,
          "midi": 57,
          "name": "A3",
          "ticks": 255220,
          "time": 132.92708333333334,
          "velocity": 0.47244094488188976
        },
        {
          "duration": 0.25104166666667993,
          "durationTicks": 482,
          "midi": 69,
          "name": "A4",
          "ticks": 255226,
          "time": 132.93020833333333,
          "velocity": 0.49606299212598426
        },
        {
          "duration": 0.13593750000001137,
          "durationTicks": 261,
          "midi": 64,
          "name": "E4",
          "ticks": 255241,
          "time": 132.93802083333333,
          "velocity": 0.5196850393700787
        },
        {
          "duration": 0.4729166666666913,
          "durationTicks": 908,
          "midi": 71,
          "name": "B4",
          "ticks": 255909,
          "time": 133.2859375,
          "velocity": 0.4251968503937008
        },
        {
          "duration": 0.4598958333333485,
          "durationTicks": 883,
          "midi": 72,
          "name": "C5",
          "ticks": 256689,
          "time": 133.6921875,
          "velocity": 0.5118110236220472
        },
        {
          "duration": 0.4067708333333542,
          "durationTicks": 781,
          "midi": 74,
          "name": "D5",
          "ticks": 257413,
          "time": 134.06927083333332,
          "velocity": 0.48031496062992124
        },
        {
          "duration": 0.4182291666666629,
          "durationTicks": 803,
          "midi": 72,
          "name": "C5",
          "ticks": 258117,
          "time": 134.4359375,
          "velocity": 0.49606299212598426
        },
        {
          "duration": 0.17708333333331439,
          "durationTicks": 340,
          "midi": 53,
          "name": "F3",
          "ticks": 258119,
          "time": 134.43697916666667,
          "velocity": 0.4566929133858268
        },
        {
          "duration": 0.15000000000000568,
          "durationTicks": 288,
          "midi": 60,
          "name": "C4",
          "ticks": 258129,
          "time": 134.4421875,
          "velocity": 0.5118110236220472
        },
        {
          "duration": 0.3869791666666629,
          "durationTicks": 743,
          "midi": 71,
          "name": "B4",
          "ticks": 258787,
          "time": 134.78489583333334,
          "velocity": 0.4409448818897638
        },
        {
          "duration": 0.18177083333333144,
          "durationTicks": 349,
          "midi": 69,
          "name": "A4",
          "ticks": 259521,
          "time": 135.1671875,
          "velocity": 0.4566929133858268
        },
        {
          "duration": 0.13906249999999432,
          "durationTicks": 267,
          "midi": 48,
          "name": "C3",
          "ticks": 260988,
          "time": 135.93125,
          "velocity": 0.5118110236220472
        },
        {
          "duration": 0.25,
          "durationTicks": 480,
          "midi": 72,
          "name": "C5",
          "ticks": 260988,
          "time": 135.93125,
          "velocity": 0.5905511811023622
        },
        {
          "duration": 0.125,
          "durationTicks": 240,
          "midi": 55,
          "name": "G3",
          "ticks": 260990,
          "time": 135.93229166666666,
          "velocity": 0.5118110236220472
        },
        {
          "duration": 0.3942708333333371,
          "durationTicks": 757,
          "midi": 71,
          "name": "B4",
          "ticks": 261648,
          "time": 136.275,
          "velocity": 0.4251968503937008
        },
        {
          "duration": 0.42395833333333144,
          "durationTicks": 814,
          "midi": 69,
          "name": "A4",
          "ticks": 262401,
          "time": 136.6671875,
          "velocity": 0.44881889763779526
        },
        {
          "duration": 0.47083333333333144,
          "durationTicks": 904,
          "midi": 67,
          "name": "G4",
          "ticks": 263094,
          "time": 137.028125,
          "velocity": 0.49606299212598426
        },
        {
          "duration": 0.5098958333333314,
          "durationTicks": 979,
          "midi": 57,
          "name": "A3",
          "ticks": 263814,
          "time": 137.403125,
          "velocity": 0.49606299212598426
        },
        {
          "duration": 0.45989583333332007,
          "durationTicks": 883,
          "midi": 48,
          "name": "C3",
          "ticks": 263835,
          "time": 137.4140625,
          "velocity": 0.4330708661417323
        },
        {
          "duration": 0.22864583333333144,
          "durationTicks": 439,
          "midi": 72,
          "name": "C5",
          "ticks": 263866,
          "time": 137.43020833333333,
          "velocity": 0.47244094488188976
        },
        {
          "duration": 0.1708333333333485,
          "durationTicks": 328,
          "midi": 74,
          "name": "D5",
          "ticks": 263870,
          "time": 137.43229166666666,
          "velocity": 0.48031496062992124
        },
        {
          "duration": 0.3942708333333371,
          "durationTicks": 757,
          "midi": 71,
          "name": "B4",
          "ticks": 264476,
          "time": 137.74791666666667,
          "velocity": 0.4566929133858268
        },
        {
          "duration": 0.43697916666667425,
          "durationTicks": 839,
          "midi": 69,
          "name": "A4",
          "ticks": 265215,
          "time": 138.1328125,
          "velocity": 0.47244094488188976
        },
        {
          "duration": 0.4442708333333485,
          "durationTicks": 853,
          "midi": 67,
          "name": "G4",
          "ticks": 265962,
          "time": 138.521875,
          "velocity": 0.3858267716535433
        },
        {
          "duration": 0.20000000000001705,
          "durationTicks": 384,
          "midi": 48,
          "name": "C3",
          "ticks": 266623,
          "time": 138.86614583333332,
          "velocity": 0.4330708661417323
        },
        {
          "duration": 0.19427083333332007,
          "durationTicks": 373,
          "midi": 55,
          "name": "G3",
          "ticks": 266640,
          "time": 138.875,
          "velocity": 0.49606299212598426
        },
        {
          "duration": 0.26718749999997726,
          "durationTicks": 513,
          "midi": 72,
          "name": "C5",
          "ticks": 266661,
          "time": 138.8859375,
          "velocity": 0.5196850393700787
        },
        {
          "duration": 0.4130208333333485,
          "durationTicks": 793,
          "midi": 71,
          "name": "B4",
          "ticks": 267368,
          "time": 139.25416666666666,
          "velocity": 0.44881889763779526
        },
        {
          "duration": 0.41302083333332007,
          "durationTicks": 793,
          "midi": 69,
          "name": "A4",
          "ticks": 268072,
          "time": 139.62083333333334,
          "velocity": 0.4251968503937008
        },
        {
          "duration": 0.46927083333332575,
          "durationTicks": 901,
          "midi": 67,
          "name": "G4",
          "ticks": 268817,
          "time": 140.00885416666668,
          "velocity": 0.4094488188976378
        },
        {
          "duration": 0.7270833333333258,
          "durationTicks": 1396,
          "midi": 60,
          "name": "C4",
          "ticks": 269464,
          "time": 140.34583333333333,
          "velocity": 0.4566929133858268
        },
        {
          "duration": 0.6911458333333371,
          "durationTicks": 1327,
          "midi": 53,
          "name": "F3",
          "ticks": 269476,
          "time": 140.35208333333333,
          "velocity": 0.4094488188976378
        },
        {
          "duration": 0.7817708333333258,
          "durationTicks": 1501,
          "midi": 69,
          "name": "A4",
          "ticks": 269580,
          "time": 140.40625,
          "velocity": 0.49606299212598426
        },
        {
          "duration": 0.7661458333333258,
          "durationTicks": 1471,
          "midi": 67,
          "name": "G4",
          "ticks": 270985,
          "time": 141.13802083333334,
          "velocity": 0.44881889763779526
        },
        {
          "duration": 0.2760416666666856,
          "durationTicks": 530,
          "midi": 60,
          "name": "C4",
          "ticks": 271018,
          "time": 141.15520833333332,
          "velocity": 0.49606299212598426
        },
        {
          "duration": 0.27812499999998863,
          "durationTicks": 534,
          "midi": 53,
          "name": "F3",
          "ticks": 271031,
          "time": 141.16197916666667,
          "velocity": 0.4330708661417323
        },
        {
          "duration": 0.13593750000001137,
          "durationTicks": 261,
          "midi": 60,
          "name": "C4",
          "ticks": 272464,
          "time": 141.90833333333333,
          "velocity": 0.49606299212598426
        },
        {
          "duration": 0.7859374999999886,
          "durationTicks": 1509,
          "midi": 65,
          "name": "F4",
          "ticks": 272471,
          "time": 141.91197916666667,
          "velocity": 0.48031496062992124
        },
        {
          "duration": 0.13385416666667993,
          "durationTicks": 257,
          "midi": 53,
          "name": "F3",
          "ticks": 272475,
          "time": 141.9140625,
          "velocity": 0.4566929133858268
        },
        {
          "duration": 0.10781249999999432,
          "durationTicks": 207,
          "midi": 67,
          "name": "G4",
          "ticks": 273919,
          "time": 142.66614583333333,
          "velocity": 0.5196850393700787
        },
        {
          "duration": 0.12083333333333712,
          "durationTicks": 232,
          "midi": 55,
          "name": "G3",
          "ticks": 273940,
          "time": 142.67708333333334,
          "velocity": 0.4566929133858268
        },
        {
          "duration": 0.10989583333332575,
          "durationTicks": 211,
          "midi": 62,
          "name": "D4",
          "ticks": 273942,
          "time": 142.678125,
          "velocity": 0.4566929133858268
        },
        {
          "duration": 0.15416666666666856,
          "durationTicks": 296,
          "midi": 72,
          "name": "C5",
          "ticks": 275374,
          "time": 143.42395833333333,
          "velocity": 0.48031496062992124
        },
        {
          "duration": 0.10624999999998863,
          "durationTicks": 204,
          "midi": 76,
          "name": "E5",
          "ticks": 275376,
          "time": 143.425,
          "velocity": 0.4566929133858268
        },
        {
          "duration": 0.12916666666666288,
          "durationTicks": 248,
          "midi": 55,
          "name": "G3",
          "ticks": 275382,
          "time": 143.428125,
          "velocity": 0.4566929133858268
        },
        {
          "duration": 0.11770833333335418,
          "durationTicks": 226,
          "midi": 62,
          "name": "D4",
          "ticks": 275390,
          "time": 143.43229166666666,
          "velocity": 0.4566929133858268
        },
        {
          "duration": 0.16614583333335986,
          "durationTicks": 319,
          "midi": 55,
          "name": "G3",
          "ticks": 276868,
          "time": 144.20208333333332,
          "velocity": 0.47244094488188976
        },
        {
          "duration": 0.7947916666666686,
          "durationTicks": 1526,
          "midi": 72,
          "name": "C5",
          "ticks": 276868,
          "time": 144.20208333333332,
          "velocity": 0.5196850393700787
        },
        {
          "duration": 0.15833333333333144,
          "durationTicks": 304,
          "midi": 62,
          "name": "D4",
          "ticks": 276879,
          "time": 144.2078125,
          "velocity": 0.4566929133858268
        },
        {
          "duration": 0.8479166666666629,
          "durationTicks": 1628,
          "midi": 76,
          "name": "E5",
          "ticks": 278281,
          "time": 144.93802083333333,
          "velocity": 0.5118110236220472
        },
        {
          "duration": 0.19999999999998863,
          "durationTicks": 384,
          "midi": 55,
          "name": "G3",
          "ticks": 278314,
          "time": 144.95520833333333,
          "velocity": 0.47244094488188976
        },
        {
          "duration": 0.17604166666666288,
          "durationTicks": 338,
          "midi": 62,
          "name": "D4",
          "ticks": 278320,
          "time": 144.95833333333334,
          "velocity": 0.4566929133858268
        },
        {
          "duration": 0.11875000000000568,
          "durationTicks": 228,
          "midi": 62,
          "name": "D4",
          "ticks": 279783,
          "time": 145.7203125,
          "velocity": 0.44881889763779526
        },
        {
          "duration": 0.07135416666667993,
          "durationTicks": 137,
          "midi": 55,
          "name": "G3",
          "ticks": 279807,
          "time": 145.7328125,
          "velocity": 0.33858267716535434
        },
        {
          "duration": 0.2098958333333485,
          "durationTicks": 403,
          "midi": 72,
          "name": "C5",
          "ticks": 279811,
          "time": 145.73489583333333,
          "velocity": 0.4566929133858268
        },
        {
          "duration": 0.17604166666666288,
          "durationTicks": 338,
          "midi": 72,
          "name": "C5",
          "ticks": 281194,
          "time": 146.45520833333333,
          "velocity": 0.5118110236220472
        },
        {
          "duration": 0.13124999999999432,
          "durationTicks": 252,
          "midi": 60,
          "name": "C4",
          "ticks": 281211,
          "time": 146.4640625,
          "velocity": 0.47244094488188976
        },
        {
          "duration": 0.12708333333333144,
          "durationTicks": 244,
          "midi": 67,
          "name": "G4",
          "ticks": 281213,
          "time": 146.46510416666666,
          "velocity": 0.49606299212598426
        },
        {
          "duration": 0.14375000000001137,
          "durationTicks": 276,
          "midi": 79,
          "name": "G5",
          "ticks": 281240,
          "time": 146.47916666666666,
          "velocity": 0.3700787401574803
        },
        {
          "duration": 0.0546875,
          "durationTicks": 105,
          "midi": 76,
          "name": "E5",
          "ticks": 281263,
          "time": 146.49114583333332,
          "velocity": 0.29133858267716534
        },
        {
          "duration": 0.1864583333333485,
          "durationTicks": 358,
          "midi": 76,
          "name": "E5",
          "ticks": 281923,
          "time": 146.83489583333332,
          "velocity": 0.44881889763779526
        },
        {
          "duration": 0.13489583333333144,
          "durationTicks": 259,
          "midi": 77,
          "name": "F5",
          "ticks": 282240,
          "time": 147,
          "velocity": 0.47244094488188976
        },
        {
          "duration": 0.375,
          "durationTicks": 720,
          "midi": 79,
          "name": "G5",
          "ticks": 282636,
          "time": 147.20625,
          "velocity": 0.49606299212598426
        },
        {
          "duration": 0.1380208333333428,
          "durationTicks": 265,
          "midi": 69,
          "name": "A4",
          "ticks": 282643,
          "time": 147.20989583333332,
          "velocity": 0.5118110236220472
        },
        {
          "duration": 0.14270833333333144,
          "durationTicks": 274,
          "midi": 65,
          "name": "F4",
          "ticks": 282665,
          "time": 147.22135416666666,
          "velocity": 0.4566929133858268
        },
        {
          "duration": 0.32916666666667993,
          "durationTicks": 632,
          "midi": 77,
          "name": "F5",
          "ticks": 283363,
          "time": 147.58489583333332,
          "velocity": 0.49606299212598426
        },
        {
          "duration": 0.11093750000000568,
          "durationTicks": 213,
          "midi": 69,
          "name": "A4",
          "ticks": 283379,
          "time": 147.59322916666667,
          "velocity": 0.47244094488188976
        },
        {
          "duration": 0.10729166666666856,
          "durationTicks": 206,
          "midi": 65,
          "name": "F4",
          "ticks": 283394,
          "time": 147.60104166666667,
          "velocity": 0.44881889763779526
        },
        {
          "duration": 0.28072916666667425,
          "durationTicks": 539,
          "midi": 76,
          "name": "E5",
          "ticks": 284074,
          "time": 147.95520833333333,
          "velocity": 0.5196850393700787
        },
        {
          "duration": 0.1666666666666572,
          "durationTicks": 320,
          "midi": 67,
          "name": "G4",
          "ticks": 284080,
          "time": 147.95833333333334,
          "velocity": 0.5118110236220472
        },
        {
          "duration": 0.13697916666666288,
          "durationTicks": 263,
          "midi": 60,
          "name": "C4",
          "ticks": 284110,
          "time": 147.97395833333334,
          "velocity": 0.44881889763779526
        },
        {
          "duration": 0.16927083333331439,
          "durationTicks": 325,
          "midi": 72,
          "name": "C5",
          "ticks": 284763,
          "time": 148.3140625,
          "velocity": 0.41732283464566927
        },
        {
          "duration": 0.14010416666667425,
          "durationTicks": 269,
          "midi": 76,
          "name": "E5",
          "ticks": 285135,
          "time": 148.5078125,
          "velocity": 0.5118110236220472
        },
        {
          "duration": 0.28125,
          "durationTicks": 540,
          "midi": 79,
          "name": "G5",
          "ticks": 285556,
          "time": 148.72708333333333,
          "velocity": 0.5118110236220472
        },
        {
          "duration": 0.28072916666667425,
          "durationTicks": 539,
          "midi": 69,
          "name": "A4",
          "ticks": 285564,
          "time": 148.73125,
          "velocity": 0.48031496062992124
        },
        {
          "duration": 0.28437500000001137,
          "durationTicks": 546,
          "midi": 65,
          "name": "F4",
          "ticks": 285590,
          "time": 148.74479166666666,
          "velocity": 0.44881889763779526
        },
        {
          "duration": 0.10520833333333712,
          "durationTicks": 202,
          "midi": 67,
          "name": "G4",
          "ticks": 287034,
          "time": 149.496875,
          "velocity": 0.49606299212598426
        },
        {
          "duration": 0.1640625,
          "durationTicks": 315,
          "midi": 72,
          "name": "C5",
          "ticks": 287034,
          "time": 149.496875,
          "velocity": 0.44881889763779526
        },
        {
          "duration": 0.109375,
          "durationTicks": 210,
          "midi": 60,
          "name": "C4",
          "ticks": 287036,
          "time": 149.49791666666667,
          "velocity": 0.48031496062992124
        },
        {
          "duration": 0.06510416666665719,
          "durationTicks": 125,
          "midi": 76,
          "name": "E5",
          "ticks": 287040,
          "time": 149.5,
          "velocity": 0.4251968503937008
        },
        {
          "duration": 0.1729166666666515,
          "durationTicks": 332,
          "midi": 79,
          "name": "G5",
          "ticks": 287050,
          "time": 149.50520833333334,
          "velocity": 0.4251968503937008
        },
        {
          "duration": 0.23020833333333712,
          "durationTicks": 442,
          "midi": 76,
          "name": "E5",
          "ticks": 287743,
          "time": 149.86614583333332,
          "velocity": 0.47244094488188976
        },
        {
          "duration": 0.16874999999998863,
          "durationTicks": 324,
          "midi": 77,
          "name": "F5",
          "ticks": 288085,
          "time": 150.04427083333334,
          "velocity": 0.48031496062992124
        },
        {
          "duration": 0.30677083333333144,
          "durationTicks": 589,
          "midi": 79,
          "name": "G5",
          "ticks": 288496,
          "time": 150.25833333333333,
          "velocity": 0.5118110236220472
        },
        {
          "duration": 0.11614583333332007,
          "durationTicks": 223,
          "midi": 62,
          "name": "D4",
          "ticks": 288501,
          "time": 150.2609375,
          "velocity": 0.5118110236220472
        },
        {
          "duration": 0.13072916666666856,
          "durationTicks": 251,
          "midi": 55,
          "name": "G3",
          "ticks": 288513,
          "time": 150.2671875,
          "velocity": 0.47244094488188976
        },
        {
          "duration": 0.10885416666667425,
          "durationTicks": 209,
          "midi": 77,
          "name": "F5",
          "ticks": 289204,
          "time": 150.62708333333333,
          "velocity": 0.47244094488188976
        },
        {
          "duration": 0.13593750000001137,
          "durationTicks": 261,
          "midi": 55,
          "name": "G3",
          "ticks": 289227,
          "time": 150.6390625,
          "velocity": 0.4094488188976378
        },
        {
          "duration": 0.13802083333331439,
          "durationTicks": 265,
          "midi": 62,
          "name": "D4",
          "ticks": 289229,
          "time": 150.64010416666667,
          "velocity": 0.44881889763779526
        },
        {
          "duration": 0.2109375,
          "durationTicks": 405,
          "midi": 67,
          "name": "G4",
          "ticks": 289976,
          "time": 151.02916666666667,
          "velocity": 0.48031496062992124
        },
        {
          "duration": 0.09895833333334281,
          "durationTicks": 190,
          "midi": 62,
          "name": "D4",
          "ticks": 289999,
          "time": 151.04114583333333,
          "velocity": 0.47244094488188976
        },
        {
          "duration": 0.06822916666666856,
          "durationTicks": 131,
          "midi": 55,
          "name": "G3",
          "ticks": 290010,
          "time": 151.046875,
          "velocity": 0.44881889763779526
        },
        {
          "duration": 0.4182291666666629,
          "durationTicks": 803,
          "midi": 71,
          "name": "B4",
          "ticks": 290730,
          "time": 151.421875,
          "velocity": 0.48031496062992124
        },
        {
          "duration": 0.14218750000000568,
          "durationTicks": 273,
          "midi": 55,
          "name": "G3",
          "ticks": 290765,
          "time": 151.44010416666666,
          "velocity": 0.4566929133858268
        },
        {
          "duration": 0.12395833333334849,
          "durationTicks": 238,
          "midi": 62,
          "name": "D4",
          "ticks": 290769,
          "time": 151.4421875,
          "velocity": 0.44881889763779526
        },
        {
          "duration": 0.3531250000000057,
          "durationTicks": 678,
          "midi": 72,
          "name": "C5",
          "ticks": 291477,
          "time": 151.8109375,
          "velocity": 0.49606299212598426
        },
        {
          "duration": 0.16614583333333144,
          "durationTicks": 319,
          "midi": 62,
          "name": "D4",
          "ticks": 291510,
          "time": 151.828125,
          "velocity": 0.49606299212598426
        },
        {
          "duration": 0.1708333333333485,
          "durationTicks": 328,
          "midi": 55,
          "name": "G3",
          "ticks": 291514,
          "time": 151.83020833333333,
          "velocity": 0.49606299212598426
        },
        {
          "duration": 0.12291666666666856,
          "durationTicks": 236,
          "midi": 60,
          "name": "C4",
          "ticks": 292898,
          "time": 152.55104166666666,
          "velocity": 0.47244094488188976
        },
        {
          "duration": 0.1338541666666515,
          "durationTicks": 257,
          "midi": 72,
          "name": "C5",
          "ticks": 292900,
          "time": 152.55208333333334,
          "velocity": 0.47244094488188976
        },
        {
          "duration": 0.0666666666666913,
          "durationTicks": 128,
          "midi": 76,
          "name": "E5",
          "ticks": 292914,
          "time": 152.559375,
          "velocity": 0.4566929133858268
        },
        {
          "duration": 0.10833333333332007,
          "durationTicks": 208,
          "midi": 67,
          "name": "G4",
          "ticks": 292915,
          "time": 152.55989583333334,
          "velocity": 0.49606299212598426
        },
        {
          "duration": 0.18906250000000568,
          "durationTicks": 363,
          "midi": 76,
          "name": "E5",
          "ticks": 293589,
          "time": 152.9109375,
          "velocity": 0.4566929133858268
        },
        {
          "duration": 0.1338541666666515,
          "durationTicks": 257,
          "midi": 77,
          "name": "F5",
          "ticks": 293943,
          "time": 153.0953125,
          "velocity": 0.5118110236220472
        },
        {
          "duration": 0.453125,
          "durationTicks": 870,
          "midi": 69,
          "name": "A4",
          "ticks": 294353,
          "time": 153.30885416666666,
          "velocity": 0.49606299212598426
        },
        {
          "duration": 0.3989583333333542,
          "durationTicks": 766,
          "midi": 77,
          "name": "F5",
          "ticks": 294361,
          "time": 153.31302083333333,
          "velocity": 0.47244094488188976
        },
        {
          "duration": 0.46302083333333144,
          "durationTicks": 889,
          "midi": 65,
          "name": "F4",
          "ticks": 294369,
          "time": 153.3171875,
          "velocity": 0.47244094488188976
        },
        {
          "duration": 0.36927083333333144,
          "durationTicks": 709,
          "midi": 76,
          "name": "E5",
          "ticks": 295102,
          "time": 153.69895833333334,
          "velocity": 0.48031496062992124
        },
        {
          "duration": 0.19895833333333712,
          "durationTicks": 382,
          "midi": 72,
          "name": "C5",
          "ticks": 295845,
          "time": 154.0859375,
          "velocity": 0.49606299212598426
        },
        {
          "duration": 0.11510416666666856,
          "durationTicks": 221,
          "midi": 67,
          "name": "G4",
          "ticks": 295872,
          "time": 154.1,
          "velocity": 0.48031496062992124
        },
        {
          "duration": 0.10468750000001137,
          "durationTicks": 201,
          "midi": 60,
          "name": "C4",
          "ticks": 295888,
          "time": 154.10833333333332,
          "velocity": 0.41732283464566927
        },
        {
          "duration": 0.18802083333332575,
          "durationTicks": 361,
          "midi": 76,
          "name": "E5",
          "ticks": 296575,
          "time": 154.46614583333334,
          "velocity": 0.4566929133858268
        },
        {
          "duration": 0.09687499999998295,
          "durationTicks": 186,
          "midi": 77,
          "name": "F5",
          "ticks": 296909,
          "time": 154.64010416666667,
          "velocity": 0.4566929133858268
        },
        {
          "duration": 0.14791666666667425,
          "durationTicks": 284,
          "midi": 71,
          "name": "B4",
          "ticks": 297345,
          "time": 154.8671875,
          "velocity": 0.5196850393700787
        },
        {
          "duration": 0.13124999999999432,
          "durationTicks": 252,
          "midi": 79,
          "name": "G5",
          "ticks": 297352,
          "time": 154.87083333333334,
          "velocity": 0.5669291338582677
        },
        {
          "duration": 0.15208333333333712,
          "durationTicks": 292,
          "midi": 67,
          "name": "G4",
          "ticks": 297360,
          "time": 154.875,
          "velocity": 0.48031496062992124
        },
        {
          "duration": 0.12395833333334849,
          "durationTicks": 238,
          "midi": 72,
          "name": "C5",
          "ticks": 298873,
          "time": 155.66302083333332,
          "velocity": 0.49606299212598426
        },
        {
          "duration": 0.11927083333333144,
          "durationTicks": 229,
          "midi": 60,
          "name": "C4",
          "ticks": 298890,
          "time": 155.671875,
          "velocity": 0.47244094488188976
        },
        {
          "duration": 0.09999999999999432,
          "durationTicks": 192,
          "midi": 67,
          "name": "G4",
          "ticks": 298892,
          "time": 155.67291666666668,
          "velocity": 0.48031496062992124
        },
        {
          "duration": 0.11822916666667993,
          "durationTicks": 227,
          "midi": 79,
          "name": "G5",
          "ticks": 298898,
          "time": 155.67604166666666,
          "velocity": 0.4251968503937008
        },
        {
          "duration": 0.16197916666664014,
          "durationTicks": 311,
          "midi": 76,
          "name": "E5",
          "ticks": 299192,
          "time": 155.82916666666668,
          "velocity": 0.4409448818897638
        },
        {
          "duration": 0.10572916666666288,
          "durationTicks": 203,
          "midi": 77,
          "name": "F5",
          "ticks": 299580,
          "time": 156.03125,
          "velocity": 0.44881889763779526
        },
        {
          "duration": 0.109375,
          "durationTicks": 210,
          "midi": 79,
          "name": "G5",
          "ticks": 299923,
          "time": 156.20989583333332,
          "velocity": 0.49606299212598426
        },
        {
          "duration": 0.15000000000000568,
          "durationTicks": 288,
          "midi": 69,
          "name": "A4",
          "ticks": 300313,
          "time": 156.41302083333332,
          "velocity": 0.47244094488188976
        },
        {
          "duration": 0.29479166666666856,
          "durationTicks": 566,
          "midi": 57,
          "name": "A3",
          "ticks": 300319,
          "time": 156.41614583333333,
          "velocity": 0.4566929133858268
        },
        {
          "duration": 0.2750000000000057,
          "durationTicks": 528,
          "midi": 64,
          "name": "E4",
          "ticks": 300330,
          "time": 156.421875,
          "velocity": 0.49606299212598426
        },
        {
          "duration": 0.10052083333332007,
          "durationTicks": 193,
          "midi": 72,
          "name": "C5",
          "ticks": 300352,
          "time": 156.43333333333334,
          "velocity": 0.41732283464566927
        },
        {
          "duration": 0.390625,
          "durationTicks": 750,
          "midi": 72,
          "name": "C5",
          "ticks": 301066,
          "time": 156.80520833333333,
          "velocity": 0.48031496062992124
        },
        {
          "duration": 0.11093750000000568,
          "durationTicks": 213,
          "midi": 74,
          "name": "D5",
          "ticks": 301811,
          "time": 157.19322916666667,
          "velocity": 0.49606299212598426
        },
        {
          "duration": 0.10572916666666288,
          "durationTicks": 203,
          "midi": 65,
          "name": "F4",
          "ticks": 301815,
          "time": 157.1953125,
          "velocity": 0.48031496062992124
        },
        {
          "duration": 0.12187499999998863,
          "durationTicks": 234,
          "midi": 62,
          "name": "D4",
          "ticks": 301826,
          "time": 157.20104166666667,
          "velocity": 0.4566929133858268
        },
        {
          "duration": 0.15833333333333144,
          "durationTicks": 304,
          "midi": 76,
          "name": "E5",
          "ticks": 302127,
          "time": 157.3578125,
          "velocity": 0.4566929133858268
        },
        {
          "duration": 0.14322916666668561,
          "durationTicks": 275,
          "midi": 74,
          "name": "D5",
          "ticks": 302544,
          "time": 157.575,
          "velocity": 0.4251968503937008
        },
        {
          "duration": 0.055208333333354176,
          "durationTicks": 106,
          "midi": 72,
          "name": "C5",
          "ticks": 302926,
          "time": 157.77395833333333,
          "velocity": 0.44881889763779526
        },
        {
          "duration": 0.125,
          "durationTicks": 240,
          "midi": 62,
          "name": "D4",
          "ticks": 303293,
          "time": 157.96510416666666,
          "velocity": 0.48031496062992124
        },
        {
          "duration": 0.5796875000000057,
          "durationTicks": 1113,
          "midi": 67,
          "name": "G4",
          "ticks": 303322,
          "time": 157.98020833333334,
          "velocity": 0.47244094488188976
        },
        {
          "duration": 0.12291666666666856,
          "durationTicks": 236,
          "midi": 55,
          "name": "G3",
          "ticks": 303333,
          "time": 157.9859375,
          "velocity": 0.44881889763779526
        },
        {
          "duration": 0.1354166666666572,
          "durationTicks": 260,
          "midi": 62,
          "name": "D4",
          "ticks": 304435,
          "time": 158.55989583333334,
          "velocity": 0.49606299212598426
        },
        {
          "duration": 0.13906249999999432,
          "durationTicks": 267,
          "midi": 71,
          "name": "B4",
          "ticks": 304439,
          "time": 158.56197916666667,
          "velocity": 0.48031496062992124
        },
        {
          "duration": 0.12604166666667993,
          "durationTicks": 242,
          "midi": 55,
          "name": "G3",
          "ticks": 304441,
          "time": 158.56302083333333,
          "velocity": 0.4566929133858268
        },
        {
          "duration": 0.14427083333333712,
          "durationTicks": 277,
          "midi": 67,
          "name": "G4",
          "ticks": 304825,
          "time": 158.76302083333334,
          "velocity": 0.44881889763779526
        },
        {
          "duration": 0.10364583333333144,
          "durationTicks": 199,
          "midi": 62,
          "name": "D4",
          "ticks": 305912,
          "time": 159.32916666666668,
          "velocity": 0.49606299212598426
        },
        {
          "duration": 0.11614583333334849,
          "durationTicks": 223,
          "midi": 55,
          "name": "G3",
          "ticks": 305919,
          "time": 159.3328125,
          "velocity": 0.47244094488188976
        },
        {
          "duration": 0.16197916666666856,
          "durationTicks": 311,
          "midi": 79,
          "name": "G5",
          "ticks": 305966,
          "time": 159.35729166666667,
          "velocity": 0.5118110236220472
        },
        {
          "duration": 0.22031250000000568,
          "durationTicks": 423,
          "midi": 77,
          "name": "F5",
          "ticks": 306288,
          "time": 159.525,
          "velocity": 0.44881889763779526
        },
        {
          "duration": 0.1848958333333428,
          "durationTicks": 355,
          "midi": 76,
          "name": "E5",
          "ticks": 306686,
          "time": 159.73229166666667,
          "velocity": 0.4566929133858268
        },
        {
          "duration": 0.3411458333333144,
          "durationTicks": 655,
          "midi": 74,
          "name": "D5",
          "ticks": 307037,
          "time": 159.91510416666668,
          "velocity": 0.48031496062992124
        },
        {
          "duration": 0.109375,
          "durationTicks": 210,
          "midi": 62,
          "name": "D4",
          "ticks": 307770,
          "time": 160.296875,
          "velocity": 0.47244094488188976
        },
        {
          "duration": 0.32604166666666856,
          "durationTicks": 626,
          "midi": 79,
          "name": "G5",
          "ticks": 307788,
          "time": 160.30625,
          "velocity": 0.5118110236220472
        },
        {
          "duration": 0.10677083333334281,
          "durationTicks": 205,
          "midi": 55,
          "name": "G3",
          "ticks": 307809,
          "time": 160.3171875,
          "velocity": 0.4566929133858268
        },
        {
          "duration": 0.39791666666667425,
          "durationTicks": 764,
          "midi": 77,
          "name": "F5",
          "ticks": 308506,
          "time": 160.68020833333333,
          "velocity": 0.5196850393700787
        },
        {
          "duration": 0.140625,
          "durationTicks": 270,
          "midi": 48,
          "name": "C3",
          "ticks": 308508,
          "time": 160.68125,
          "velocity": 0.5118110236220472
        },
        {
          "duration": 0.42499999999998295,
          "durationTicks": 816,
          "midi": 76,
          "name": "E5",
          "ticks": 309247,
          "time": 161.06614583333334,
          "velocity": 0.5196850393700787
        },
        {
          "duration": 0.09895833333334281,
          "durationTicks": 190,
          "midi": 55,
          "name": "G3",
          "ticks": 309253,
          "time": 161.06927083333332,
          "velocity": 0.49606299212598426
        },
        {
          "duration": 0.08906250000001137,
          "durationTicks": 171,
          "midi": 74,
          "name": "D5",
          "ticks": 309957,
          "time": 161.4359375,
          "velocity": 0.5118110236220472
        },
        {
          "duration": 0.09687500000001137,
          "durationTicks": 186,
          "midi": 60,
          "name": "C4",
          "ticks": 309971,
          "time": 161.44322916666667,
          "velocity": 0.44881889763779526
        },
        {
          "duration": 0.12135416666666288,
          "durationTicks": 233,
          "midi": 60,
          "name": "C4",
          "ticks": 310677,
          "time": 161.8109375,
          "velocity": 0.5196850393700787
        },
        {
          "duration": 0.24687499999998863,
          "durationTicks": 474,
          "midi": 64,
          "name": "E4",
          "ticks": 311013,
          "time": 161.9859375,
          "velocity": 0.48031496062992124
        },
        {
          "duration": 0.1885416666666515,
          "durationTicks": 362,
          "midi": 65,
          "name": "F4",
          "ticks": 311392,
          "time": 162.18333333333334,
          "velocity": 0.4566929133858268
        },
        {
          "duration": 0.09583333333333144,
          "durationTicks": 184,
          "midi": 67,
          "name": "G4",
          "ticks": 311741,
          "time": 162.36510416666667,
          "velocity": 0.49606299212598426
        },
        {
          "duration": 0.08697916666667993,
          "durationTicks": 167,
          "midi": 60,
          "name": "C4",
          "ticks": 312144,
          "time": 162.575,
          "velocity": 0.48031496062992124
        },
        {
          "duration": 0.09010416666666288,
          "durationTicks": 173,
          "midi": 71,
          "name": "B4",
          "ticks": 312841,
          "time": 162.93802083333333,
          "velocity": 0.49606299212598426
        },
        {
          "duration": 0.06302083333332575,
          "durationTicks": 121,
          "midi": 69,
          "name": "A4",
          "ticks": 312891,
          "time": 162.9640625,
          "velocity": 0.3228346456692913
        },
        {
          "duration": 0.15208333333333712,
          "durationTicks": 292,
          "midi": 48,
          "name": "C3",
          "ticks": 313599,
          "time": 163.3328125,
          "velocity": 0.48031496062992124
        },
        {
          "duration": 0.3760416666666515,
          "durationTicks": 722,
          "midi": 71,
          "name": "B4",
          "ticks": 313957,
          "time": 163.51927083333334,
          "velocity": 0.47244094488188976
        },
        {
          "duration": 0.109375,
          "durationTicks": 210,
          "midi": 60,
          "name": "C4",
          "ticks": 314344,
          "time": 163.72083333333333,
          "velocity": 0.47244094488188976
        },
        {
          "duration": 0.23020833333333712,
          "durationTicks": 442,
          "midi": 72,
          "name": "C5",
          "ticks": 314600,
          "time": 163.85416666666666,
          "velocity": 0.47244094488188976
        },
        {
          "duration": 0.375,
          "durationTicks": 720,
          "midi": 74,
          "name": "D5",
          "ticks": 315040,
          "time": 164.08333333333334,
          "velocity": 0.5118110236220472
        },
        {
          "duration": 0.07708333333334849,
          "durationTicks": 148,
          "midi": 72,
          "name": "C5",
          "ticks": 315710,
          "time": 164.43229166666666,
          "velocity": 0.5118110236220472
        },
        {
          "duration": 1.1770833333333428,
          "durationTicks": 2260,
          "midi": 48,
          "name": "C3",
          "ticks": 316393,
          "time": 164.78802083333332,
          "velocity": 0.48031496062992124
        },
        {
          "duration": 0.14583333333331439,
          "durationTicks": 280,
          "midi": 60,
          "name": "C4",
          "ticks": 316697,
          "time": 164.94635416666668,
          "velocity": 0.47244094488188976
        },
        {
          "duration": 0.13489583333333144,
          "durationTicks": 259,
          "midi": 62,
          "name": "D4",
          "ticks": 317132,
          "time": 165.17291666666668,
          "velocity": 0.4409448818897638
        },
        {
          "duration": 0.046875,
          "durationTicks": 90,
          "midi": 64,
          "name": "E4",
          "ticks": 317338,
          "time": 165.28020833333332,
          "velocity": 0.41732283464566927
        },
        {
          "duration": 0.44322916666666856,
          "durationTicks": 851,
          "midi": 60,
          "name": "C4",
          "ticks": 317783,
          "time": 165.51197916666666,
          "velocity": 0.41732283464566927
        },
        {
          "duration": 0.10989583333335418,
          "durationTicks": 211,
          "midi": 65,
          "name": "F4",
          "ticks": 318215,
          "time": 165.73697916666666,
          "velocity": 0.2440944881889764
        },
        {
          "duration": 0.17395833333333144,
          "durationTicks": 334,
          "midi": 65,
          "name": "F4",
          "ticks": 318551,
          "time": 165.91197916666667,
          "velocity": 0.3779527559055118
        },
        {
          "duration": 0.11666666666667425,
          "durationTicks": 224,
          "midi": 57,
          "name": "A3",
          "ticks": 319243,
          "time": 166.27239583333332,
          "velocity": 0.44881889763779526
        },
        {
          "duration": 0.14895833333332575,
          "durationTicks": 286,
          "midi": 67,
          "name": "G4",
          "ticks": 319252,
          "time": 166.27708333333334,
          "velocity": 0.5118110236220472
        },
        {
          "duration": 0.12343750000002274,
          "durationTicks": 237,
          "midi": 50,
          "name": "D3",
          "ticks": 319265,
          "time": 166.28385416666666,
          "velocity": 0.4330708661417323
        },
        {
          "duration": 0.16614583333333144,
          "durationTicks": 319,
          "midi": 69,
          "name": "A4",
          "ticks": 319569,
          "time": 166.4421875,
          "velocity": 0.4251968503937008
        },
        {
          "duration": 0.16197916666666856,
          "durationTicks": 311,
          "midi": 71,
          "name": "B4",
          "ticks": 320020,
          "time": 166.67708333333334,
          "velocity": 0.4251968503937008
        },
        {
          "duration": 0.28333333333333144,
          "durationTicks": 544,
          "midi": 69,
          "name": "A4",
          "ticks": 320350,
          "time": 166.84895833333334,
          "velocity": 0.4015748031496063
        },
        {
          "duration": 0.4078125000000057,
          "durationTicks": 783,
          "midi": 59,
          "name": "B3",
          "ticks": 320769,
          "time": 167.0671875,
          "velocity": 0.48031496062992124
        },
        {
          "duration": 0.36614583333332007,
          "durationTicks": 703,
          "midi": 67,
          "name": "G4",
          "ticks": 320786,
          "time": 167.07604166666667,
          "velocity": 0.47244094488188976
        },
        {
          "duration": 0.12239583333334281,
          "durationTicks": 235,
          "midi": 65,
          "name": "F4",
          "ticks": 321473,
          "time": 167.43385416666666,
          "velocity": 0.48031496062992124
        },
        {
          "duration": 0.14479166666666288,
          "durationTicks": 278,
          "midi": 60,
          "name": "C4",
          "ticks": 322253,
          "time": 167.84010416666666,
          "velocity": 0.48031496062992124
        },
        {
          "duration": 0.19687500000000568,
          "durationTicks": 378,
          "midi": 71,
          "name": "B4",
          "ticks": 322274,
          "time": 167.85104166666667,
          "velocity": 0.48031496062992124
        },
        {
          "duration": 0.19895833333333712,
          "durationTicks": 382,
          "midi": 72,
          "name": "C5",
          "ticks": 322589,
          "time": 168.01510416666667,
          "velocity": 0.44881889763779526
        },
        {
          "duration": 0.14687500000002274,
          "durationTicks": 282,
          "midi": 74,
          "name": "D5",
          "ticks": 323019,
          "time": 168.2390625,
          "velocity": 0.44881889763779526
        },
        {
          "duration": 0.16927083333331439,
          "durationTicks": 325,
          "midi": 72,
          "name": "C5",
          "ticks": 323324,
          "time": 168.39791666666667,
          "velocity": 0.4094488188976378
        },
        {
          "duration": 0.14583333333331439,
          "durationTicks": 280,
          "midi": 71,
          "name": "B4",
          "ticks": 323718,
          "time": 168.603125,
          "velocity": 0.44881889763779526
        },
        {
          "duration": 0.12447916666667425,
          "durationTicks": 239,
          "midi": 62,
          "name": "D4",
          "ticks": 323750,
          "time": 168.61979166666666,
          "velocity": 0.44881889763779526
        },
        {
          "duration": 0.15937499999998295,
          "durationTicks": 306,
          "midi": 69,
          "name": "A4",
          "ticks": 324044,
          "time": 168.77291666666667,
          "velocity": 0.3543307086614173
        },
        {
          "duration": 0.18906250000000568,
          "durationTicks": 363,
          "midi": 71,
          "name": "B4",
          "ticks": 324463,
          "time": 168.99114583333332,
          "velocity": 0.4409448818897638
        },
        {
          "duration": 0.19062500000001137,
          "durationTicks": 366,
          "midi": 72,
          "name": "C5",
          "ticks": 324803,
          "time": 169.16822916666666,
          "velocity": 0.44881889763779526
        },
        {
          "duration": 0.16979166666666856,
          "durationTicks": 326,
          "midi": 74,
          "name": "D5",
          "ticks": 325214,
          "time": 169.38229166666667,
          "velocity": 0.48031496062992124
        },
        {
          "duration": 0.1208333333333087,
          "durationTicks": 232,
          "midi": 64,
          "name": "E4",
          "ticks": 325221,
          "time": 169.3859375,
          "velocity": 0.48031496062992124
        },
        {
          "duration": 0.2239583333333428,
          "durationTicks": 430,
          "midi": 72,
          "name": "C5",
          "ticks": 325561,
          "time": 169.56302083333333,
          "velocity": 0.41732283464566927
        },
        {
          "duration": 0.14270833333333144,
          "durationTicks": 274,
          "midi": 71,
          "name": "B4",
          "ticks": 325999,
          "time": 169.79114583333333,
          "velocity": 0.3779527559055118
        },
        {
          "duration": 0.18697916666667425,
          "durationTicks": 359,
          "midi": 69,
          "name": "A4",
          "ticks": 326298,
          "time": 169.946875,
          "velocity": 0.4409448818897638
        },
        {
          "duration": 0.7989583333333314,
          "durationTicks": 1534,
          "midi": 53,
          "name": "F3",
          "ticks": 326784,
          "time": 170.2,
          "velocity": 0.48031496062992124
        },
        {
          "duration": 0.34531249999997726,
          "durationTicks": 663,
          "midi": 65,
          "name": "F4",
          "ticks": 327475,
          "time": 170.55989583333334,
          "velocity": 0.49606299212598426
        },
        {
          "duration": 0.14114583333332575,
          "durationTicks": 271,
          "midi": 60,
          "name": "C4",
          "ticks": 328222,
          "time": 170.94895833333334,
          "velocity": 0.49606299212598426
        },
        {
          "duration": 0.15937500000001137,
          "durationTicks": 306,
          "midi": 77,
          "name": "F5",
          "ticks": 328249,
          "time": 170.96302083333333,
          "velocity": 0.48031496062992124
        },
        {
          "duration": 0.05677083333333144,
          "durationTicks": 109,
          "midi": 76,
          "name": "E5",
          "ticks": 328301,
          "time": 170.99010416666667,
          "velocity": 0.4251968503937008
        },
        {
          "duration": 0.16197916666664014,
          "durationTicks": 311,
          "midi": 76,
          "name": "E5",
          "ticks": 328577,
          "time": 171.13385416666668,
          "velocity": 0.4015748031496063
        },
        {
          "duration": 0.24375000000000568,
          "durationTicks": 468,
          "midi": 74,
          "name": "D5",
          "ticks": 328998,
          "time": 171.353125,
          "velocity": 0.47244094488188976
        },
        {
          "duration": 0.09010416666666288,
          "durationTicks": 173,
          "midi": 55,
          "name": "G3",
          "ticks": 329186,
          "time": 171.45104166666667,
          "velocity": 0.28346456692913385
        },
        {
          "duration": 0.2682291666666572,
          "durationTicks": 515,
          "midi": 77,
          "name": "F5",
          "ticks": 329468,
          "time": 171.59791666666666,
          "velocity": 0.5433070866141733
        },
        {
          "duration": 0.11510416666666856,
          "durationTicks": 221,
          "midi": 62,
          "name": "D4",
          "ticks": 329829,
          "time": 171.7859375,
          "velocity": 0.48031496062992124
        },
        {
          "duration": 0.125,
          "durationTicks": 240,
          "midi": 55,
          "name": "G3",
          "ticks": 329835,
          "time": 171.7890625,
          "velocity": 0.47244094488188976
        },
        {
          "duration": 0.41302083333332007,
          "durationTicks": 793,
          "midi": 76,
          "name": "E5",
          "ticks": 329841,
          "time": 171.7921875,
          "velocity": 0.49606299212598426
        },
        {
          "duration": 0.3708333333333371,
          "durationTicks": 712,
          "midi": 74,
          "name": "D5",
          "ticks": 330605,
          "time": 172.19010416666666,
          "velocity": 0.48031496062992124
        },
        {
          "duration": 0.13020833333331439,
          "durationTicks": 250,
          "midi": 55,
          "name": "G3",
          "ticks": 331390,
          "time": 172.59895833333334,
          "velocity": 0.44881889763779526
        },
        {
          "duration": 0.10312500000000568,
          "durationTicks": 198,
          "midi": 62,
          "name": "D4",
          "ticks": 331417,
          "time": 172.61302083333334,
          "velocity": 0.3779527559055118
        },
        {
          "duration": 0.19583333333332575,
          "durationTicks": 376,
          "midi": 79,
          "name": "G5",
          "ticks": 331421,
          "time": 172.61510416666667,
          "velocity": 0.4566929133858268
        },
        {
          "duration": 0.09479166666667993,
          "durationTicks": 182,
          "midi": 77,
          "name": "F5",
          "ticks": 331423,
          "time": 172.61614583333332,
          "velocity": 0.4566929133858268
        },
        {
          "duration": 0.05364583333332007,
          "durationTicks": 103,
          "midi": 64,
          "name": "E4",
          "ticks": 331446,
          "time": 172.628125,
          "velocity": 0.3858267716535433
        },
        {
          "duration": 0.171875,
          "durationTicks": 330,
          "midi": 77,
          "name": "F5",
          "ticks": 331763,
          "time": 172.79322916666666,
          "velocity": 0.47244094488188976
        },
        {
          "duration": 0.16614583333333144,
          "durationTicks": 319,
          "midi": 76,
          "name": "E5",
          "ticks": 332191,
          "time": 173.01614583333333,
          "velocity": 0.44881889763779526
        },
        {
          "duration": 0.1520833333333087,
          "durationTicks": 292,
          "midi": 74,
          "name": "D5",
          "ticks": 332492,
          "time": 173.17291666666668,
          "velocity": 0.4409448818897638
        },
        {
          "duration": 0.13072916666666856,
          "durationTicks": 251,
          "midi": 57,
          "name": "A3",
          "ticks": 332915,
          "time": 173.39322916666666,
          "velocity": 0.44881889763779526
        },
        {
          "duration": 0.11406249999998863,
          "durationTicks": 219,
          "midi": 64,
          "name": "E4",
          "ticks": 332917,
          "time": 173.39427083333334,
          "velocity": 0.49606299212598426
        },
        {
          "duration": 0.2739583333333542,
          "durationTicks": 526,
          "midi": 83,
          "name": "B5",
          "ticks": 332926,
          "time": 173.39895833333333,
          "velocity": 0.49606299212598426
        },
        {
          "duration": 0.11927083333333144,
          "durationTicks": 229,
          "midi": 81,
          "name": "A5",
          "ticks": 332943,
          "time": 173.4078125,
          "velocity": 0.5118110236220472
        },
        {
          "duration": 0.33281249999998863,
          "durationTicks": 639,
          "midi": 81,
          "name": "A5",
          "ticks": 333723,
          "time": 173.8140625,
          "velocity": 0.48031496062992124
        },
        {
          "duration": 0.15572916666667425,
          "durationTicks": 299,
          "midi": 79,
          "name": "G5",
          "ticks": 334447,
          "time": 174.19114583333334,
          "velocity": 0.5669291338582677
        },
        {
          "duration": 0.12395833333334849,
          "durationTicks": 238,
          "midi": 65,
          "name": "F4",
          "ticks": 334489,
          "time": 174.21302083333333,
          "velocity": 0.49606299212598426
        },
        {
          "duration": 0.12916666666666288,
          "durationTicks": 248,
          "midi": 59,
          "name": "B3",
          "ticks": 334491,
          "time": 174.2140625,
          "velocity": 0.47244094488188976
        },
        {
          "duration": 0.18958333333333144,
          "durationTicks": 364,
          "midi": 86,
          "name": "D6",
          "ticks": 334883,
          "time": 174.41822916666666,
          "velocity": 0.4251968503937008
        },
        {
          "duration": 0.31302083333332575,
          "durationTicks": 601,
          "midi": 84,
          "name": "C6",
          "ticks": 334894,
          "time": 174.42395833333333,
          "velocity": 0.44881889763779526
        },
        {
          "duration": 0.17031249999999432,
          "durationTicks": 327,
          "midi": 83,
          "name": "B5",
          "ticks": 335441,
          "time": 174.70885416666667,
          "velocity": 0.48031496062992124
        },
        {
          "duration": 0.14322916666668561,
          "durationTicks": 275,
          "midi": 81,
          "name": "A5",
          "ticks": 335716,
          "time": 174.85208333333333,
          "velocity": 0.47244094488188976
        },
        {
          "duration": 0.15625,
          "durationTicks": 300,
          "midi": 67,
          "name": "G4",
          "ticks": 335975,
          "time": 174.98697916666666,
          "velocity": 0.5196850393700787
        },
        {
          "duration": 0.6369791666666913,
          "durationTicks": 1223,
          "midi": 88,
          "name": "E6",
          "ticks": 336069,
          "time": 175.0359375,
          "velocity": 0.5118110236220472
        },
        {
          "duration": 0.13385416666667993,
          "durationTicks": 257,
          "midi": 86,
          "name": "D6",
          "ticks": 337275,
          "time": 175.6640625,
          "velocity": 0.5118110236220472
        },
        {
          "duration": 0.11666666666667425,
          "durationTicks": 224,
          "midi": 67,
          "name": "G4",
          "ticks": 337308,
          "time": 175.68125,
          "velocity": 0.5118110236220472
        },
        {
          "duration": 0.09635416666665719,
          "durationTicks": 185,
          "midi": 84,
          "name": "C6",
          "ticks": 337676,
          "time": 175.87291666666667,
          "velocity": 0.49606299212598426
        },
        {
          "duration": 0.10104166666667425,
          "durationTicks": 194,
          "midi": 83,
          "name": "B5",
          "ticks": 337970,
          "time": 176.02604166666666,
          "velocity": 0.4566929133858268
        },
        {
          "duration": 0.09010416666666288,
          "durationTicks": 173,
          "midi": 67,
          "name": "G4",
          "ticks": 338396,
          "time": 176.24791666666667,
          "velocity": 0.4566929133858268
        },
        {
          "duration": 0.4286458333333485,
          "durationTicks": 823,
          "midi": 72,
          "name": "C5",
          "ticks": 339234,
          "time": 176.684375,
          "velocity": 0.4409448818897638
        },
        {
          "duration": 0.15000000000000568,
          "durationTicks": 288,
          "midi": 74,
          "name": "D5",
          "ticks": 339237,
          "time": 176.6859375,
          "velocity": 0.44881889763779526
        },
        {
          "duration": 0.4130208333333485,
          "durationTicks": 793,
          "midi": 74,
          "name": "D5",
          "ticks": 339965,
          "time": 177.06510416666666,
          "velocity": 0.5196850393700787
        },
        {
          "duration": 0.06822916666666856,
          "durationTicks": 131,
          "midi": 72,
          "name": "C5",
          "ticks": 340700,
          "time": 177.44791666666666,
          "velocity": 0.48031496062992124
        },
        {
          "duration": 0.12291666666666856,
          "durationTicks": 236,
          "midi": 60,
          "name": "C4",
          "ticks": 341426,
          "time": 177.82604166666667,
          "velocity": 0.5118110236220472
        },
        {
          "duration": 0.13072916666666856,
          "durationTicks": 251,
          "midi": 48,
          "name": "C3",
          "ticks": 341444,
          "time": 177.83541666666667,
          "velocity": 0.4566929133858268
        },
        {
          "duration": 0.22291666666666288,
          "durationTicks": 428,
          "midi": 62,
          "name": "D4",
          "ticks": 341753,
          "time": 177.99635416666666,
          "velocity": 0.44881889763779526
        },
        {
          "duration": 0.1729166666666515,
          "durationTicks": 332,
          "midi": 64,
          "name": "E4",
          "ticks": 342142,
          "time": 178.19895833333334,
          "velocity": 0.4566929133858268
        },
        {
          "duration": 0.17031249999999432,
          "durationTicks": 327,
          "midi": 65,
          "name": "F4",
          "ticks": 342472,
          "time": 178.37083333333334,
          "velocity": 0.5118110236220472
        },
        {
          "duration": 0.1338541666666515,
          "durationTicks": 257,
          "midi": 55,
          "name": "G3",
          "ticks": 342880,
          "time": 178.58333333333334,
          "velocity": 0.4330708661417323
        },
        {
          "duration": 0.12395833333332007,
          "durationTicks": 238,
          "midi": 48,
          "name": "C3",
          "ticks": 342880,
          "time": 178.58333333333334,
          "velocity": 0.44881889763779526
        },
        {
          "duration": 0.7864583333333428,
          "durationTicks": 1510,
          "midi": 64,
          "name": "E4",
          "ticks": 342907,
          "time": 178.59739583333334,
          "velocity": 0.47244094488188976
        },
        {
          "duration": 0.10781249999999432,
          "durationTicks": 207,
          "midi": 55,
          "name": "G3",
          "ticks": 344314,
          "time": 179.33020833333333,
          "velocity": 0.48031496062992124
        },
        {
          "duration": 0.12916666666666288,
          "durationTicks": 248,
          "midi": 62,
          "name": "D4",
          "ticks": 344321,
          "time": 179.33385416666667,
          "velocity": 0.47244094488188976
        },
        {
          "duration": 0.09322916666667425,
          "durationTicks": 179,
          "midi": 48,
          "name": "C3",
          "ticks": 344344,
          "time": 179.34583333333333,
          "velocity": 0.44881889763779526
        },
        {
          "duration": 0.16041666666666288,
          "durationTicks": 308,
          "midi": 60,
          "name": "C4",
          "ticks": 344705,
          "time": 179.53385416666666,
          "velocity": 0.4409448818897638
        },
        {
          "duration": 0.19218750000001705,
          "durationTicks": 369,
          "midi": 62,
          "name": "D4",
          "ticks": 345181,
          "time": 179.78177083333333,
          "velocity": 0.4566929133858268
        },
        {
          "duration": 0.1729166666666515,
          "durationTicks": 332,
          "midi": 64,
          "name": "E4",
          "ticks": 345460,
          "time": 179.92708333333334,
          "velocity": 0.47244094488188976
        },
        {
          "duration": 0.7541666666666629,
          "durationTicks": 1448,
          "midi": 65,
          "name": "F4",
          "ticks": 345915,
          "time": 180.1640625,
          "velocity": 0.48031496062992124
        },
        {
          "duration": 0.1291666666666913,
          "durationTicks": 248,
          "midi": 55,
          "name": "G3",
          "ticks": 345928,
          "time": 180.17083333333332,
          "velocity": 0.47244094488188976
        },
        {
          "duration": 0.1328125,
          "durationTicks": 255,
          "midi": 48,
          "name": "C3",
          "ticks": 345946,
          "time": 180.18020833333333,
          "velocity": 0.4566929133858268
        },
        {
          "duration": 0.1927083333333428,
          "durationTicks": 370,
          "midi": 64,
          "name": "E4",
          "ticks": 347338,
          "time": 180.90520833333332,
          "velocity": 0.5118110236220472
        },
        {
          "duration": 0.12291666666666856,
          "durationTicks": 236,
          "midi": 55,
          "name": "G3",
          "ticks": 347340,
          "time": 180.90625,
          "velocity": 0.49606299212598426
        },
        {
          "duration": 0.1338541666666515,
          "durationTicks": 257,
          "midi": 48,
          "name": "C3",
          "ticks": 347351,
          "time": 180.91197916666667,
          "velocity": 0.4566929133858268
        },
        {
          "duration": 0.14114583333335418,
          "durationTicks": 271,
          "midi": 62,
          "name": "D4",
          "ticks": 347731,
          "time": 181.10989583333333,
          "velocity": 0.3700787401574803
        },
        {
          "duration": 0.19322916666666856,
          "durationTicks": 371,
          "midi": 60,
          "name": "C4",
          "ticks": 348140,
          "time": 181.32291666666666,
          "velocity": 0.44881889763779526
        },
        {
          "duration": 0.21875,
          "durationTicks": 420,
          "midi": 62,
          "name": "D4",
          "ticks": 348540,
          "time": 181.53125,
          "velocity": 0.4409448818897638
        },
        {
          "duration": 0.16979166666666856,
          "durationTicks": 326,
          "midi": 64,
          "name": "E4",
          "ticks": 348926,
          "time": 181.73229166666667,
          "velocity": 0.49606299212598426
        },
        {
          "duration": 0.12916666666666288,
          "durationTicks": 248,
          "midi": 55,
          "name": "G3",
          "ticks": 348927,
          "time": 181.7328125,
          "velocity": 0.4566929133858268
        },
        {
          "duration": 0.13072916666666856,
          "durationTicks": 251,
          "midi": 48,
          "name": "C3",
          "ticks": 348945,
          "time": 181.7421875,
          "velocity": 0.44881889763779526
        },
        {
          "duration": 0.22187500000001137,
          "durationTicks": 426,
          "midi": 65,
          "name": "F4",
          "ticks": 349256,
          "time": 181.90416666666667,
          "velocity": 0.4566929133858268
        },
        {
          "duration": 0.21041666666667425,
          "durationTicks": 404,
          "midi": 64,
          "name": "E4",
          "ticks": 349695,
          "time": 182.1328125,
          "velocity": 0.48031496062992124
        },
        {
          "duration": 0.19791666666668561,
          "durationTicks": 380,
          "midi": 62,
          "name": "D4",
          "ticks": 350049,
          "time": 182.3171875,
          "velocity": 0.3858267716535433
        },
        {
          "duration": 0.13333333333332575,
          "durationTicks": 256,
          "midi": 48,
          "name": "C3",
          "ticks": 350442,
          "time": 182.521875,
          "velocity": 0.41732283464566927
        },
        {
          "duration": 0.10677083333331439,
          "durationTicks": 205,
          "midi": 55,
          "name": "G3",
          "ticks": 350466,
          "time": 182.534375,
          "velocity": 0.41732283464566927
        },
        {
          "duration": 0.21197916666667993,
          "durationTicks": 407,
          "midi": 60,
          "name": "C4",
          "ticks": 350498,
          "time": 182.55104166666666,
          "velocity": 0.47244094488188976
        },
        {
          "duration": 0.4114583333333428,
          "durationTicks": 790,
          "midi": 62,
          "name": "D4",
          "ticks": 351234,
          "time": 182.934375,
          "velocity": 0.48031496062992124
        },
        {
          "duration": 0.44843750000001137,
          "durationTicks": 861,
          "midi": 64,
          "name": "E4",
          "ticks": 352003,
          "time": 183.33489583333332,
          "velocity": 0.4566929133858268
        },
        {
          "duration": 0.3791666666666629,
          "durationTicks": 728,
          "midi": 65,
          "name": "F4",
          "ticks": 352792,
          "time": 183.74583333333334,
          "velocity": 0.5118110236220472
        },
        {
          "duration": 0.12135416666666288,
          "durationTicks": 233,
          "midi": 48,
          "name": "C3",
          "ticks": 353543,
          "time": 184.13697916666666,
          "velocity": 0.49606299212598426
        },
        {
          "duration": 0.17812499999999432,
          "durationTicks": 342,
          "midi": 64,
          "name": "E4",
          "ticks": 353545,
          "time": 184.13802083333334,
          "velocity": 0.5196850393700787
        },
        {
          "duration": 0.11093750000000568,
          "durationTicks": 213,
          "midi": 41,
          "name": "F2",
          "ticks": 353551,
          "time": 184.14114583333333,
          "velocity": 0.4409448818897638
        },
        {
          "duration": 0.2552083333333144,
          "durationTicks": 490,
          "midi": 62,
          "name": "D4",
          "ticks": 353875,
          "time": 184.30989583333334,
          "velocity": 0.4409448818897638
        },
        {
          "duration": 0.4385416666666515,
          "durationTicks": 842,
          "midi": 64,
          "name": "E4",
          "ticks": 354329,
          "time": 184.54635416666667,
          "velocity": 0.48031496062992124
        },
        {
          "duration": 0.15520833333332007,
          "durationTicks": 298,
          "midi": 65,
          "name": "F4",
          "ticks": 354647,
          "time": 184.71197916666668,
          "velocity": 0.4094488188976378
        },
        {
          "duration": 0.6083333333333201,
          "durationTicks": 1168,
          "midi": 65,
          "name": "F4",
          "ticks": 355079,
          "time": 184.93697916666667,
          "velocity": 0.5433070866141733
        },
        {
          "duration": 0.5010416666666515,
          "durationTicks": 962,
          "midi": 41,
          "name": "F2",
          "ticks": 355106,
          "time": 184.95104166666667,
          "velocity": 0.4409448818897638
        },
        {
          "duration": 0.5208333333333428,
          "durationTicks": 1000,
          "midi": 48,
          "name": "C3",
          "ticks": 355110,
          "time": 184.953125,
          "velocity": 0.49606299212598426
        },
        {
          "duration": 0.2750000000000057,
          "durationTicks": 528,
          "midi": 64,
          "name": "E4",
          "ticks": 356212,
          "time": 185.52708333333334,
          "velocity": 0.5669291338582677
        },
        {
          "duration": 0.17083333333332007,
          "durationTicks": 328,
          "midi": 43,
          "name": "G2",
          "ticks": 356268,
          "time": 185.55625,
          "velocity": 0.5118110236220472
        },
        {
          "duration": 0.10104166666664582,
          "durationTicks": 194,
          "midi": 50,
          "name": "D3",
          "ticks": 356279,
          "time": 185.56197916666667,
          "velocity": 0.3779527559055118
        },
        {
          "duration": 0.04999999999998295,
          "durationTicks": 96,
          "midi": 48,
          "name": "C3",
          "ticks": 356302,
          "time": 185.57395833333334,
          "velocity": 0.44881889763779526
        },
        {
          "duration": 0.20208333333332007,
          "durationTicks": 388,
          "midi": 62,
          "name": "D4",
          "ticks": 356627,
          "time": 185.74322916666668,
          "velocity": 0.48031496062992124
        },
        {
          "duration": 0.19427083333332007,
          "durationTicks": 373,
          "midi": 64,
          "name": "E4",
          "ticks": 356947,
          "time": 185.90989583333334,
          "velocity": 0.4094488188976378
        },
        {
          "duration": 0.09427083333332575,
          "durationTicks": 181,
          "midi": 43,
          "name": "G2",
          "ticks": 357381,
          "time": 186.1359375,
          "velocity": 0.47244094488188976
        },
        {
          "duration": 0.1354166666666572,
          "durationTicks": 260,
          "midi": 50,
          "name": "D3",
          "ticks": 357381,
          "time": 186.1359375,
          "velocity": 0.49606299212598426
        },
        {
          "duration": 0.3499999999999943,
          "durationTicks": 672,
          "midi": 65,
          "name": "F4",
          "ticks": 357385,
          "time": 186.13802083333334,
          "velocity": 0.5669291338582677
        },
        {
          "duration": 0.4333333333333371,
          "durationTicks": 832,
          "midi": 64,
          "name": "E4",
          "ticks": 358076,
          "time": 186.49791666666667,
          "velocity": 0.5433070866141733
        },
        {
          "duration": 0.12708333333335986,
          "durationTicks": 244,
          "midi": 45,
          "name": "A2",
          "ticks": 358078,
          "time": 186.49895833333332,
          "velocity": 0.47244094488188976
        },
        {
          "duration": 0.14479166666666288,
          "durationTicks": 278,
          "midi": 52,
          "name": "E3",
          "ticks": 358082,
          "time": 186.50104166666668,
          "velocity": 0.49606299212598426
        },
        {
          "duration": 0.18124999999997726,
          "durationTicks": 348,
          "midi": 53,
          "name": "F3",
          "ticks": 358821,
          "time": 186.8859375,
          "velocity": 0.47244094488188976
        },
        {
          "duration": 0.3479166666666629,
          "durationTicks": 668,
          "midi": 62,
          "name": "D4",
          "ticks": 358829,
          "time": 186.89010416666667,
          "velocity": 0.5433070866141733
        },
        {
          "duration": 0.1796875,
          "durationTicks": 345,
          "midi": 47,
          "name": "B2",
          "ticks": 358839,
          "time": 186.8953125,
          "velocity": 0.4566929133858268
        },
        {
          "duration": 0.3932291666666856,
          "durationTicks": 755,
          "midi": 64,
          "name": "E4",
          "ticks": 359570,
          "time": 187.27604166666666,
          "velocity": 0.5196850393700787
        },
        {
          "duration": 0.11770833333332575,
          "durationTicks": 226,
          "midi": 47,
          "name": "B2",
          "ticks": 359582,
          "time": 187.28229166666668,
          "velocity": 0.47244094488188976
        },
        {
          "duration": 0.13229166666667425,
          "durationTicks": 254,
          "midi": 53,
          "name": "F3",
          "ticks": 359585,
          "time": 187.28385416666666,
          "velocity": 0.49606299212598426
        },
        {
          "duration": 0.1052083333333087,
          "durationTicks": 202,
          "midi": 65,
          "name": "F4",
          "ticks": 360261,
          "time": 187.6359375,
          "velocity": 0.5433070866141733
        },
        {
          "duration": 0.125,
          "durationTicks": 240,
          "midi": 55,
          "name": "G3",
          "ticks": 360284,
          "time": 187.64791666666667,
          "velocity": 0.44881889763779526
        },
        {
          "duration": 0.12135416666666288,
          "durationTicks": 233,
          "midi": 48,
          "name": "C3",
          "ticks": 360286,
          "time": 187.64895833333333,
          "velocity": 0.4409448818897638
        },
        {
          "duration": 0.10885416666664582,
          "durationTicks": 209,
          "midi": 55,
          "name": "G3",
          "ticks": 361026,
          "time": 188.034375,
          "velocity": 0.48031496062992124
        },
        {
          "duration": 0.078125,
          "durationTicks": 150,
          "midi": 48,
          "name": "C3",
          "ticks": 361033,
          "time": 188.03802083333332,
          "velocity": 0.4409448818897638
        },
        {
          "duration": 0.3489583333333144,
          "durationTicks": 670,
          "midi": 72,
          "name": "C5",
          "ticks": 361724,
          "time": 188.39791666666667,
          "velocity": 0.47244094488188976
        },
        {
          "duration": 0.7932291666666629,
          "durationTicks": 1523,
          "midi": 48,
          "name": "C3",
          "ticks": 362442,
          "time": 188.771875,
          "velocity": 0.5196850393700787
        },
        {
          "duration": 0.17083333333332007,
          "durationTicks": 328,
          "midi": 84,
          "name": "C6",
          "ticks": 362460,
          "time": 188.78125,
          "velocity": 0.6141732283464567
        },
        {
          "duration": 0.16822916666666288,
          "durationTicks": 323,
          "midi": 83,
          "name": "B5",
          "ticks": 362805,
          "time": 188.9609375,
          "velocity": 0.48031496062992124
        },
        {
          "duration": 0.16614583333333144,
          "durationTicks": 319,
          "midi": 81,
          "name": "A5",
          "ticks": 363233,
          "time": 189.18385416666666,
          "velocity": 0.49606299212598426
        },
        {
          "duration": 0.1572916666666515,
          "durationTicks": 302,
          "midi": 79,
          "name": "G5",
          "ticks": 363502,
          "time": 189.32395833333334,
          "velocity": 0.4251968503937008
        },
        {
          "duration": 0.11666666666664582,
          "durationTicks": 224,
          "midi": 55,
          "name": "G3",
          "ticks": 363902,
          "time": 189.53229166666668,
          "velocity": 0.49606299212598426
        },
        {
          "duration": 0.22499999999999432,
          "durationTicks": 432,
          "midi": 84,
          "name": "C6",
          "ticks": 363907,
          "time": 189.53489583333334,
          "velocity": 0.5905511811023622
        },
        {
          "duration": 0.17500000000001137,
          "durationTicks": 336,
          "midi": 55,
          "name": "G3",
          "ticks": 364631,
          "time": 189.91197916666667,
          "velocity": 0.49606299212598426
        },
        {
          "duration": 0.3020833333333428,
          "durationTicks": 580,
          "midi": 83,
          "name": "B5",
          "ticks": 364635,
          "time": 189.9140625,
          "velocity": 0.5196850393700787
        },
        {
          "duration": 0.15156250000001137,
          "durationTicks": 291,
          "midi": 48,
          "name": "C3",
          "ticks": 364643,
          "time": 189.91822916666666,
          "velocity": 0.44881889763779526
        },
        {
          "duration": 0.140625,
          "durationTicks": 270,
          "midi": 55,
          "name": "G3",
          "ticks": 365340,
          "time": 190.28125,
          "velocity": 0.49606299212598426
        },
        {
          "duration": 0.40520833333332007,
          "durationTicks": 778,
          "midi": 81,
          "name": "A5",
          "ticks": 365343,
          "time": 190.2828125,
          "velocity": 0.5433070866141733
        },
        {
          "duration": 0.16979166666666856,
          "durationTicks": 326,
          "midi": 48,
          "name": "C3",
          "ticks": 365365,
          "time": 190.29427083333334,
          "velocity": 0.44881889763779526
        },
        {
          "duration": 0.08802083333333144,
          "durationTicks": 169,
          "midi": 79,
          "name": "G5",
          "ticks": 366079,
          "time": 190.66614583333333,
          "velocity": 0.48031496062992124
        },
        {
          "duration": 0.1057291666666913,
          "durationTicks": 203,
          "midi": 55,
          "name": "G3",
          "ticks": 366129,
          "time": 190.6921875,
          "velocity": 0.49606299212598426
        },
        {
          "duration": 0.08854166666668561,
          "durationTicks": 170,
          "midi": 48,
          "name": "C3",
          "ticks": 366136,
          "time": 190.69583333333333,
          "velocity": 0.4566929133858268
        },
        {
          "duration": 0.3880208333333144,
          "durationTicks": 745,
          "midi": 69,
          "name": "A4",
          "ticks": 366816,
          "time": 191.05,
          "velocity": 0.48031496062992124
        },
        {
          "duration": 0.1552083333333485,
          "durationTicks": 298,
          "midi": 48,
          "name": "C3",
          "ticks": 366818,
          "time": 191.05104166666666,
          "velocity": 0.4566929133858268
        },
        {
          "duration": 0.12864583333333712,
          "durationTicks": 247,
          "midi": 55,
          "name": "G3",
          "ticks": 366834,
          "time": 191.059375,
          "velocity": 0.44881889763779526
        },
        {
          "duration": 0.1786458333333485,
          "durationTicks": 343,
          "midi": 48,
          "name": "C3",
          "ticks": 367498,
          "time": 191.40520833333332,
          "velocity": 0.48031496062992124
        },
        {
          "duration": 0.3901041666666458,
          "durationTicks": 749,
          "midi": 72,
          "name": "C5",
          "ticks": 367521,
          "time": 191.4171875,
          "velocity": 0.5118110236220472
        },
        {
          "duration": 0.12916666666666288,
          "durationTicks": 248,
          "midi": 55,
          "name": "G3",
          "ticks": 367536,
          "time": 191.425,
          "velocity": 0.4330708661417323
        },
        {
          "duration": 0.39218749999997726,
          "durationTicks": 753,
          "midi": 74,
          "name": "D5",
          "ticks": 368252,
          "time": 191.79791666666668,
          "velocity": 0.47244094488188976
        },
        {
          "duration": 0.2770833333333371,
          "durationTicks": 532,
          "midi": 57,
          "name": "A3",
          "ticks": 368262,
          "time": 191.803125,
          "velocity": 0.4409448818897638
        },
        {
          "duration": 0.2828125000000057,
          "durationTicks": 543,
          "midi": 53,
          "name": "F3",
          "ticks": 368272,
          "time": 191.80833333333334,
          "velocity": 0.47244094488188976
        },
        {
          "duration": 0.10416666666668561,
          "durationTicks": 200,
          "midi": 57,
          "name": "A3",
          "ticks": 368953,
          "time": 192.16302083333332,
          "velocity": 0.4566929133858268
        },
        {
          "duration": 0.09687500000001137,
          "durationTicks": 186,
          "midi": 53,
          "name": "F3",
          "ticks": 368963,
          "time": 192.16822916666666,
          "velocity": 0.4566929133858268
        },
        {
          "duration": 0.3166666666666629,
          "durationTicks": 608,
          "midi": 76,
          "name": "E5",
          "ticks": 368965,
          "time": 192.16927083333334,
          "velocity": 0.49606299212598426
        },
        {
          "duration": 0.18072916666667993,
          "durationTicks": 347,
          "midi": 60,
          "name": "C4",
          "ticks": 369664,
          "time": 192.53333333333333,
          "velocity": 0.49606299212598426
        },
        {
          "duration": 0.4270833333333428,
          "durationTicks": 820,
          "midi": 74,
          "name": "D5",
          "ticks": 369669,
          "time": 192.5359375,
          "velocity": 0.5118110236220472
        },
        {
          "duration": 0.3557291666666629,
          "durationTicks": 683,
          "midi": 72,
          "name": "C5",
          "ticks": 370424,
          "time": 192.92916666666667,
          "velocity": 0.5118110236220472
        },
        {
          "duration": 0.11302083333333712,
          "durationTicks": 217,
          "midi": 60,
          "name": "C4",
          "ticks": 370430,
          "time": 192.93229166666666,
          "velocity": 0.49606299212598426
        },
        {
          "duration": 0.5489583333333314,
          "durationTicks": 1054,
          "midi": 60,
          "name": "C4",
          "ticks": 371196,
          "time": 193.33125,
          "velocity": 0.4330708661417323
        },
        {
          "duration": 0.5911458333333144,
          "durationTicks": 1135,
          "midi": 67,
          "name": "G4",
          "ticks": 371211,
          "time": 193.3390625,
          "velocity": 0.4094488188976378
        },
        {
          "duration": 0.6197916666666856,
          "durationTicks": 1190,
          "midi": 72,
          "name": "C5",
          "ticks": 371217,
          "time": 193.3421875,
          "velocity": 0.5669291338582677
        },
        {
          "duration": 0.08802083333333144,
          "durationTicks": 169,
          "midi": 65,
          "name": "F4",
          "ticks": 371219,
          "time": 193.34322916666667,
          "velocity": 0.3858267716535433
        },
        {
          "duration": 0.18593749999999432,
          "durationTicks": 357,
          "midi": 72,
          "name": "C5",
          "ticks": 372588,
          "time": 194.05625,
          "velocity": 0.48031496062992124
        },
        {
          "duration": 0.10312500000000568,
          "durationTicks": 198,
          "midi": 76,
          "name": "E5",
          "ticks": 372597,
          "time": 194.0609375,
          "velocity": 0.48031496062992124
        },
        {
          "duration": 0.18177083333333144,
          "durationTicks": 349,
          "midi": 79,
          "name": "G5",
          "ticks": 372603,
          "time": 194.0640625,
          "velocity": 0.49606299212598426
        },
        {
          "duration": 0.1260416666666515,
          "durationTicks": 242,
          "midi": 67,
          "name": "G4",
          "ticks": 372611,
          "time": 194.06822916666667,
          "velocity": 0.5196850393700787
        },
        {
          "duration": 0.11666666666667425,
          "durationTicks": 224,
          "midi": 60,
          "name": "C4",
          "ticks": 372613,
          "time": 194.06927083333332,
          "velocity": 0.49606299212598426
        },
        {
          "duration": 0.15000000000000568,
          "durationTicks": 288,
          "midi": 76,
          "name": "E5",
          "ticks": 373306,
          "time": 194.43020833333333,
          "velocity": 0.47244094488188976
        },
        {
          "duration": 0.14218750000000568,
          "durationTicks": 273,
          "midi": 77,
          "name": "F5",
          "ticks": 373584,
          "time": 194.575,
          "velocity": 0.44881889763779526
        },
        {
          "duration": 0.41510416666667993,
          "durationTicks": 797,
          "midi": 69,
          "name": "A4",
          "ticks": 374014,
          "time": 194.79895833333333,
          "velocity": 0.49606299212598426
        },
        {
          "duration": 0.3802083333333144,
          "durationTicks": 730,
          "midi": 79,
          "name": "G5",
          "ticks": 374016,
          "time": 194.8,
          "velocity": 0.5905511811023622
        },
        {
          "duration": 0.43697916666667425,
          "durationTicks": 839,
          "midi": 65,
          "name": "F4",
          "ticks": 374028,
          "time": 194.80625,
          "velocity": 0.47244094488188976
        },
        {
          "duration": 0.28697916666666856,
          "durationTicks": 551,
          "midi": 77,
          "name": "F5",
          "ticks": 374727,
          "time": 195.1703125,
          "velocity": 0.48031496062992124
        },
        {
          "duration": 0.29895833333333144,
          "durationTicks": 574,
          "midi": 76,
          "name": "E5",
          "ticks": 375431,
          "time": 195.53697916666667,
          "velocity": 0.5196850393700787
        },
        {
          "duration": 0.13906250000002274,
          "durationTicks": 267,
          "midi": 67,
          "name": "G4",
          "ticks": 375433,
          "time": 195.53802083333332,
          "velocity": 0.5118110236220472
        },
        {
          "duration": 0.12864583333333712,
          "durationTicks": 247,
          "midi": 60,
          "name": "C4",
          "ticks": 375443,
          "time": 195.54322916666666,
          "velocity": 0.47244094488188976
        },
        {
          "duration": 0.15572916666664582,
          "durationTicks": 299,
          "midi": 72,
          "name": "C5",
          "ticks": 376169,
          "time": 195.92135416666667,
          "velocity": 0.4409448818897638
        },
        {
          "duration": 0.1380208333333428,
          "durationTicks": 265,
          "midi": 76,
          "name": "E5",
          "ticks": 376460,
          "time": 196.07291666666666,
          "velocity": 0.49606299212598426
        },
        {
          "duration": 0.2645833333333485,
          "durationTicks": 508,
          "midi": 71,
          "name": "B4",
          "ticks": 376887,
          "time": 196.2953125,
          "velocity": 0.5118110236220472
        },
        {
          "duration": 0.30781250000001137,
          "durationTicks": 591,
          "midi": 79,
          "name": "G5",
          "ticks": 376902,
          "time": 196.303125,
          "velocity": 0.5433070866141733
        },
        {
          "duration": 0.2796874999999943,
          "durationTicks": 537,
          "midi": 67,
          "name": "G4",
          "ticks": 376906,
          "time": 196.30520833333333,
          "velocity": 0.4566929133858268
        },
        {
          "duration": 0.3395833333333371,
          "durationTicks": 652,
          "midi": 60,
          "name": "C4",
          "ticks": 378398,
          "time": 197.08229166666666,
          "velocity": 0.4566929133858268
        },
        {
          "duration": 0.20416666666667993,
          "durationTicks": 392,
          "midi": 72,
          "name": "C5",
          "ticks": 378405,
          "time": 197.0859375,
          "velocity": 0.47244094488188976
        },
        {
          "duration": 0.2640624999999943,
          "durationTicks": 507,
          "midi": 69,
          "name": "A4",
          "ticks": 378457,
          "time": 197.11302083333334,
          "velocity": 0.4409448818897638
        },
        {
          "duration": 0.23489583333332575,
          "durationTicks": 451,
          "midi": 67,
          "name": "G4",
          "ticks": 378490,
          "time": 197.13020833333334,
          "velocity": 0.3228346456692913
        },
        {
          "duration": 0.15833333333333144,
          "durationTicks": 304,
          "midi": 76,
          "name": "E5",
          "ticks": 378766,
          "time": 197.27395833333333,
          "velocity": 0.48031496062992124
        },
        {
          "duration": 0.1682291666666913,
          "durationTicks": 323,
          "midi": 72,
          "name": "C5",
          "ticks": 379108,
          "time": 197.45208333333332,
          "velocity": 0.4566929133858268
        },
        {
          "duration": 0.08489583333332007,
          "durationTicks": 163,
          "midi": 76,
          "name": "E5",
          "ticks": 379398,
          "time": 197.603125,
          "velocity": 0.48031496062992124
        },
        {
          "duration": 0.18281250000001137,
          "durationTicks": 351,
          "midi": 57,
          "name": "A3",
          "ticks": 379826,
          "time": 197.82604166666667,
          "velocity": 0.44881889763779526
        },
        {
          "duration": 0.18072916666667993,
          "durationTicks": 347,
          "midi": 64,
          "name": "E4",
          "ticks": 379838,
          "time": 197.83229166666666,
          "velocity": 0.5118110236220472
        },
        {
          "duration": 0.4052083333333485,
          "durationTicks": 778,
          "midi": 69,
          "name": "A4",
          "ticks": 379839,
          "time": 197.8328125,
          "velocity": 0.47244094488188976
        },
        {
          "duration": 0.3869791666666629,
          "durationTicks": 743,
          "midi": 72,
          "name": "C5",
          "ticks": 380567,
          "time": 198.21197916666668,
          "velocity": 0.5196850393700787
        },
        {
          "duration": 0.1317708333333485,
          "durationTicks": 253,
          "midi": 65,
          "name": "F4",
          "ticks": 381268,
          "time": 198.57708333333332,
          "velocity": 0.5118110236220472
        },
        {
          "duration": 0.1979166666666572,
          "durationTicks": 380,
          "midi": 74,
          "name": "D5",
          "ticks": 381272,
          "time": 198.57916666666668,
          "velocity": 0.5196850393700787
        },
        {
          "duration": 0.13749999999998863,
          "durationTicks": 264,
          "midi": 62,
          "name": "D4",
          "ticks": 381281,
          "time": 198.58385416666667,
          "velocity": 0.48031496062992124
        },
        {
          "duration": 0.18437499999998863,
          "durationTicks": 354,
          "midi": 76,
          "name": "E5",
          "ticks": 381596,
          "time": 198.74791666666667,
          "velocity": 0.5118110236220472
        },
        {
          "duration": 0.1708333333333485,
          "durationTicks": 328,
          "midi": 74,
          "name": "D5",
          "ticks": 381994,
          "time": 198.95520833333333,
          "velocity": 0.41732283464566927
        },
        {
          "duration": 0.2411458333333485,
          "durationTicks": 463,
          "midi": 72,
          "name": "C5",
          "ticks": 382324,
          "time": 199.12708333333333,
          "velocity": 0.4566929133858268
        },
        {
          "duration": 0.1416666666666515,
          "durationTicks": 272,
          "midi": 62,
          "name": "D4",
          "ticks": 382668,
          "time": 199.30625,
          "velocity": 0.48031496062992124
        },
        {
          "duration": 0.14635416666666856,
          "durationTicks": 281,
          "midi": 55,
          "name": "G3",
          "ticks": 382675,
          "time": 199.30989583333334,
          "velocity": 0.44881889763779526
        },
        {
          "duration": 0.3369791666666515,
          "durationTicks": 647,
          "midi": 67,
          "name": "G4",
          "ticks": 382691,
          "time": 199.31822916666667,
          "velocity": 0.44881889763779526
        },
        {
          "duration": 0.18020833333332575,
          "durationTicks": 346,
          "midi": 69,
          "name": "A4",
          "ticks": 382762,
          "time": 199.35520833333334,
          "velocity": 0.3464566929133858
        },
        {
          "duration": 0.40677083333332575,
          "durationTicks": 781,
          "midi": 72,
          "name": "C5",
          "ticks": 383388,
          "time": 199.68125,
          "velocity": 0.49606299212598426
        },
        {
          "duration": 0.1328125,
          "durationTicks": 255,
          "midi": 55,
          "name": "G3",
          "ticks": 383415,
          "time": 199.6953125,
          "velocity": 0.4566929133858268
        },
        {
          "duration": 0.12291666666666856,
          "durationTicks": 236,
          "midi": 62,
          "name": "D4",
          "ticks": 383430,
          "time": 199.703125,
          "velocity": 0.49606299212598426
        },
        {
          "duration": 0.41197916666666856,
          "durationTicks": 791,
          "midi": 67,
          "name": "G4",
          "ticks": 384138,
          "time": 200.071875,
          "velocity": 0.49606299212598426
        },
        {
          "duration": 0.453125,
          "durationTicks": 870,
          "midi": 55,
          "name": "G3",
          "ticks": 384140,
          "time": 200.07291666666666,
          "velocity": 0.44881889763779526
        },
        {
          "duration": 0.4020833333333371,
          "durationTicks": 772,
          "midi": 72,
          "name": "C5",
          "ticks": 384860,
          "time": 200.44791666666666,
          "velocity": 0.5433070866141733
        },
        {
          "duration": 0.11093749999997726,
          "durationTicks": 213,
          "midi": 62,
          "name": "D4",
          "ticks": 384876,
          "time": 200.45625,
          "velocity": 0.48031496062992124
        },
        {
          "duration": 0.45468749999997726,
          "durationTicks": 873,
          "midi": 74,
          "name": "D5",
          "ticks": 385592,
          "time": 200.82916666666668,
          "velocity": 0.49606299212598426
        },
        {
          "duration": 1.0932291666666458,
          "durationTicks": 2099,
          "midi": 67,
          "name": "G4",
          "ticks": 386279,
          "time": 201.18697916666667,
          "velocity": 0.5118110236220472
        },
        {
          "duration": 1.0687499999999943,
          "durationTicks": 2052,
          "midi": 60,
          "name": "C4",
          "ticks": 386287,
          "time": 201.19114583333334,
          "velocity": 0.4409448818897638
        },
        {
          "duration": 2.2369791666666856,
          "durationTicks": 4295,
          "midi": 72,
          "name": "C5",
          "ticks": 386341,
          "time": 201.21927083333333,
          "velocity": 0.48031496062992124
        }
      ]
    }
  ]
}