{
    "header": {
        "keySignatures": [
            {
                "key": "C",
                "scale": "major",
                "ticks": 0
            }
        ],
        "meta": [
            {
                "text": "trad.",
                "ticks": 0,
                "type": "text"
            }
        ],
        "name": "Twinke Twinkle Little Star",
        "ppq": 960,
        "tempos": [
            {
                "bpm": 100,
                "ticks": 0
            }
        ],
        "timeSignatures": [
            {
                "ticks": 0,
                "timeSignature": [
                    4,
                    4
                ],
                "measures": 0
            }
        ]
    },
    "tracks": [
        {
            "channel": 0,
            "controlChanges": {
                "7": [
                    {
                        "number": 7,
                        "ticks": 0,
                        "time": 0,
                        "value": 1
                    },
                    {
                        "number": 7,
                        "ticks": 0,
                        "time": 0,
                        "value": 1
                    }
                ],
                "10": [
                    {
                        "number": 10,
                        "ticks": 0,
                        "time": 0,
                        "value": 0.4015748031496063
                    },
                    {
                        "number": 10,
                        "ticks": 0,
                        "time": 0,
                        "value": 0.4015748031496063
                    }
                ],
                "64": [
                    {
                        "number": 64,
                        "ticks": 0,
                        "time": 0,
                        "value": 0
                    },
                    {
                        "number": 64,
                        "ticks": 0,
                        "time": 0,
                        "value": 0
                    }
                ],
                "91": [
                    {
                        "number": 91,
                        "ticks": 0,
                        "time": 0,
                        "value": 0.3779527559055118
                    },
                    {
                        "number": 91,
                        "ticks": 0,
                        "time": 0,
                        "value": 0.3779527559055118
                    }
                ],
                "121": [
                    {
                        "number": 121,
                        "ticks": 0,
                        "time": 0,
                        "value": 0
                    },
                    {
                        "number": 121,
                        "ticks": 0,
                        "time": 0,
                        "value": 0
                    }
                ]
            },
            "pitchBends": [],
            "instrument": {
                "family": "piano",
                "name": "acoustic grand piano",
                "number": 0
            },
            "name": "",
            "notes": [
                {
                    "duration": 0.6,
                    "durationTicks": 960,
                    "midi": 60,
                    "name": "C4",
                    "ticks": 0,
                    "time": 0,
                    "velocity": 0.5433070866141733
                },
                {
                    "duration": 1.2,
                    "durationTicks": 1920,
                    "midi": 48,
                    "name": "C3",
                    "ticks": 0,
                    "time": 0,
                    "velocity": 0.5118110236220472
                },
                {
                    "duration": 0.6,
                    "durationTicks": 960,
                    "midi": 60,
                    "name": "C4",
                    "ticks": 960,
                    "time": 0.6,
                    "velocity": 0.5984251968503937
                },
                {
                    "duration": 0.5999999999999999,
                    "durationTicks": 960,
                    "midi": 67,
                    "name": "G4",
                    "ticks": 1920,
                    "time": 1.2,
                    "velocity": 0.6850393700787402
                },
                {
                    "duration": 1.2,
                    "durationTicks": 1920,
                    "midi": 52,
                    "name": "E3",
                    "ticks": 1920,
                    "time": 1.2,
                    "velocity": 0.5984251968503937
                },
                {
                    "duration": 0.6000000000000001,
                    "durationTicks": 960,
                    "midi": 67,
                    "name": "G4",
                    "ticks": 2880,
                    "time": 1.7999999999999998,
                    "velocity": 0.6377952755905512
                },
                {
                    "duration": 0.6000000000000001,
                    "durationTicks": 960,
                    "midi": 69,
                    "name": "A4",
                    "ticks": 3840,
                    "time": 2.4,
                    "velocity": 0.6299212598425197
                },
                {
                    "duration": 1.1999999999999997,
                    "durationTicks": 1920,
                    "midi": 53,
                    "name": "F3",
                    "ticks": 3840,
                    "time": 2.4,
                    "velocity": 0.5984251968503937
                },
                {
                    "duration": 0.5999999999999996,
                    "durationTicks": 960,
                    "midi": 69,
                    "name": "A4",
                    "ticks": 4800,
                    "time": 3,
                    "velocity": 0.6062992125984252
                },
                {
                    "duration": 1.2000000000000002,
                    "durationTicks": 1920,
                    "midi": 67,
                    "name": "G4",
                    "ticks": 5760,
                    "time": 3.5999999999999996,
                    "velocity": 0.5984251968503937
                },
                {
                    "duration": 1.2000000000000002,
                    "durationTicks": 1920,
                    "midi": 52,
                    "name": "E3",
                    "ticks": 5760,
                    "time": 3.5999999999999996,
                    "velocity": 0.6062992125984252
                },
                {
                    "duration": 0.5999999999999996,
                    "durationTicks": 960,
                    "midi": 65,
                    "name": "F4",
                    "ticks": 7680,
                    "time": 4.8,
                    "velocity": 0.5275590551181102
                },
                {
                    "duration": 1.2000000000000002,
                    "durationTicks": 1920,
                    "midi": 50,
                    "name": "D3",
                    "ticks": 7680,
                    "time": 4.8,
                    "velocity": 0.5984251968503937
                },
                {
                    "duration": 0.6000000000000005,
                    "durationTicks": 960,
                    "midi": 65,
                    "name": "F4",
                    "ticks": 8640,
                    "time": 5.3999999999999995,
                    "velocity": 0.5826771653543307
                },
                {
                    "duration": 0.5999999999999996,
                    "durationTicks": 960,
                    "midi": 64,
                    "name": "E4",
                    "ticks": 9600,
                    "time": 6,
                    "velocity": 0.5748031496062992
                },
                {
                    "duration": 1.1999999999999993,
                    "durationTicks": 1920,
                    "midi": 48,
                    "name": "C3",
                    "ticks": 9600,
                    "time": 6,
                    "velocity": 0.5905511811023622
                },
                {
                    "duration": 0.5999999999999996,
                    "durationTicks": 960,
                    "midi": 64,
                    "name": "E4",
                    "ticks": 10560,
                    "time": 6.6,
                    "velocity": 0.5826771653543307
                },
                {
                    "duration": 0.6000000000000005,
                    "durationTicks": 960,
                    "midi": 62,
                    "name": "D4",
                    "ticks": 11520,
                    "time": 7.199999999999999,
                    "velocity": 0.5590551181102362
                },
                {
                    "duration": 0.6000000000000005,
                    "durationTicks": 960,
                    "midi": 53,
                    "name": "F3",
                    "ticks": 11520,
                    "time": 7.199999999999999,
                    "velocity": 0.6377952755905512
                },
                {
                    "duration": 0.6000000000000005,
                    "durationTicks": 960,
                    "midi": 62,
                    "name": "D4",
                    "ticks": 12480,
                    "time": 7.8,
                    "velocity": 0.6062992125984252
                },
                {
                    "duration": 0.6000000000000005,
                    "durationTicks": 960,
                    "midi": 55,
                    "name": "G3",
                    "ticks": 12480,
                    "time": 7.8,
                    "velocity": 0.6141732283464567
                },
                {
                    "duration": 1.1999999999999993,
                    "durationTicks": 1920,
                    "midi": 60,
                    "name": "C4",
                    "ticks": 13440,
                    "time": 8.4,
                    "velocity": 0.5354330708661418
                },
                {
                    "duration": 0.5999999999999996,
                    "durationTicks": 960,
                    "midi": 52,
                    "name": "E3",
                    "ticks": 13440,
                    "time": 8.4,
                    "velocity": 0.5511811023622047
                },
                {
                    "duration": 0.5999999999999996,
                    "durationTicks": 960,
                    "midi": 48,
                    "name": "C3",
                    "ticks": 14400,
                    "time": 9,
                    "velocity": 0.5669291338582677
                },
                {
                    "duration": 0.5999999999999996,
                    "durationTicks": 960,
                    "midi": 67,
                    "name": "G4",
                    "ticks": 15360,
                    "time": 9.6,
                    "velocity": 0.6850393700787402
                },
                {
                    "duration": 1.1999999999999993,
                    "durationTicks": 1920,
                    "midi": 52,
                    "name": "E3",
                    "ticks": 15360,
                    "time": 9.6,
                    "velocity": 0.6614173228346457
                },
                {
                    "duration": 0.5999999999999996,
                    "durationTicks": 960,
                    "midi": 67,
                    "name": "G4",
                    "ticks": 16320,
                    "time": 10.2,
                    "velocity": 0.6141732283464567
                },
                {
                    "duration": 0.6000000000000014,
                    "durationTicks": 960,
                    "midi": 65,
                    "name": "F4",
                    "ticks": 17280,
                    "time": 10.799999999999999,
                    "velocity": 0.5354330708661418
                },
                {
                    "duration": 1.200000000000001,
                    "durationTicks": 1920,
                    "midi": 53,
                    "name": "F3",
                    "ticks": 17280,
                    "time": 10.799999999999999,
                    "velocity": 0.5984251968503937
                },
                {
                    "duration": 0.5999999999999996,
                    "durationTicks": 960,
                    "midi": 65,
                    "name": "F4",
                    "ticks": 18240,
                    "time": 11.4,
                    "velocity": 0.5669291338582677
                },
                {
                    "duration": 0.5999999999999996,
                    "durationTicks": 960,
                    "midi": 64,
                    "name": "E4",
                    "ticks": 19200,
                    "time": 12,
                    "velocity": 0.5826771653543307
                },
                {
                    "duration": 1.1999999999999993,
                    "durationTicks": 1920,
                    "midi": 55,
                    "name": "G3",
                    "ticks": 19200,
                    "time": 12,
                    "velocity": 0.6535433070866141
                },
                {
                    "duration": 0.5999999999999996,
                    "durationTicks": 960,
                    "midi": 64,
                    "name": "E4",
                    "ticks": 20160,
                    "time": 12.6,
                    "velocity": 0.5905511811023622
                },
                {
                    "duration": 1.1999999999999993,
                    "durationTicks": 1920,
                    "midi": 62,
                    "name": "D4",
                    "ticks": 21120,
                    "time": 13.2,
                    "velocity": 0.5826771653543307
                },
                {
                    "duration": 1.1999999999999993,
                    "durationTicks": 1920,
                    "midi": 55,
                    "name": "G3",
                    "ticks": 21120,
                    "time": 13.2,
                    "velocity": 0.5984251968503937
                },
                {
                    "duration": 0.6000000000000014,
                    "durationTicks": 960,
                    "midi": 67,
                    "name": "G4",
                    "ticks": 23040,
                    "time": 14.399999999999999,
                    "velocity": 0.6850393700787402
                },
                {
                    "duration": 1.200000000000001,
                    "durationTicks": 1920,
                    "midi": 52,
                    "name": "E3",
                    "ticks": 23040,
                    "time": 14.399999999999999,
                    "velocity": 0.5590551181102362
                },
                {
                    "duration": 0.5999999999999996,
                    "durationTicks": 960,
                    "midi": 67,
                    "name": "G4",
                    "ticks": 24000,
                    "time": 15,
                    "velocity": 0.6377952755905512
                },
                {
                    "duration": 0.5999999999999996,
                    "durationTicks": 960,
                    "midi": 65,
                    "name": "F4",
                    "ticks": 24960,
                    "time": 15.6,
                    "velocity": 0.5354330708661418
                },
                {
                    "duration": 1.200000000000001,
                    "durationTicks": 1920,
                    "midi": 53,
                    "name": "F3",
                    "ticks": 24960,
                    "time": 15.6,
                    "velocity": 0.6062992125984252
                },
                {
                    "duration": 0.6000000000000014,
                    "durationTicks": 960,
                    "midi": 65,
                    "name": "F4",
                    "ticks": 25920,
                    "time": 16.2,
                    "velocity": 0.5905511811023622
                },
                {
                    "duration": 0.5999999999999979,
                    "durationTicks": 960,
                    "midi": 64,
                    "name": "E4",
                    "ticks": 26880,
                    "time": 16.8,
                    "velocity": 0.6062992125984252
                },
                {
                    "duration": 1.1999999999999993,
                    "durationTicks": 1920,
                    "midi": 55,
                    "name": "G3",
                    "ticks": 26880,
                    "time": 16.8,
                    "velocity": 0.6299212598425197
                },
                {
                    "duration": 0.6000000000000014,
                    "durationTicks": 960,
                    "midi": 64,
                    "name": "E4",
                    "ticks": 27840,
                    "time": 17.4,
                    "velocity": 0.6062992125984252
                },
                {
                    "duration": 1.1999999999999993,
                    "durationTicks": 1920,
                    "midi": 62,
                    "name": "D4",
                    "ticks": 28800,
                    "time": 18,
                    "velocity": 0.5669291338582677
                },
                {
                    "duration": 1.1999999999999993,
                    "durationTicks": 1920,
                    "midi": 55,
                    "name": "G3",
                    "ticks": 28800,
                    "time": 18,
                    "velocity": 0.5826771653543307
                },
                {
                    "duration": 0.6000000000000014,
                    "durationTicks": 960,
                    "midi": 60,
                    "name": "C4",
                    "ticks": 30720,
                    "time": 19.2,
                    "velocity": 0.5748031496062992
                },
                {
                    "duration": 1.1999999999999993,
                    "durationTicks": 1920,
                    "midi": 48,
                    "name": "C3",
                    "ticks": 30720,
                    "time": 19.2,
                    "velocity": 0.5748031496062992
                },
                {
                    "duration": 0.5999999999999979,
                    "durationTicks": 960,
                    "midi": 60,
                    "name": "C4",
                    "ticks": 31680,
                    "time": 19.8,
                    "velocity": 0.5826771653543307
                },
                {
                    "duration": 0.6000000000000014,
                    "durationTicks": 960,
                    "midi": 67,
                    "name": "G4",
                    "ticks": 32640,
                    "time": 20.4,
                    "velocity": 0.6692913385826772
                },
                {
                    "duration": 1.1999999999999993,
                    "durationTicks": 1920,
                    "midi": 52,
                    "name": "E3",
                    "ticks": 32640,
                    "time": 20.4,
                    "velocity": 0.6692913385826772
                },
                {
                    "duration": 0.5999999999999979,
                    "durationTicks": 960,
                    "midi": 67,
                    "name": "G4",
                    "ticks": 33600,
                    "time": 21,
                    "velocity": 0.6220472440944882
                },
                {
                    "duration": 0.6000000000000014,
                    "durationTicks": 960,
                    "midi": 69,
                    "name": "A4",
                    "ticks": 34560,
                    "time": 21.599999999999998,
                    "velocity": 0.6220472440944882
                },
                {
                    "duration": 1.2000000000000028,
                    "durationTicks": 1920,
                    "midi": 53,
                    "name": "F3",
                    "ticks": 34560,
                    "time": 21.599999999999998,
                    "velocity": 0.6614173228346457
                },
                {
                    "duration": 0.6000000000000014,
                    "durationTicks": 960,
                    "midi": 69,
                    "name": "A4",
                    "ticks": 35520,
                    "time": 22.2,
                    "velocity": 0.6062992125984252
                },
                {
                    "duration": 1.1999999999999993,
                    "durationTicks": 1920,
                    "midi": 67,
                    "name": "G4",
                    "ticks": 36480,
                    "time": 22.8,
                    "velocity": 0.5433070866141733
                },
                {
                    "duration": 1.1999999999999993,
                    "durationTicks": 1920,
                    "midi": 52,
                    "name": "E3",
                    "ticks": 36480,
                    "time": 22.8,
                    "velocity": 0.5826771653543307
                },
                {
                    "duration": 0.5999999999999979,
                    "durationTicks": 960,
                    "midi": 65,
                    "name": "F4",
                    "ticks": 38400,
                    "time": 24,
                    "velocity": 0.5826771653543307
                },
                {
                    "duration": 1.1999999999999993,
                    "durationTicks": 1920,
                    "midi": 50,
                    "name": "D3",
                    "ticks": 38400,
                    "time": 24,
                    "velocity": 0.6220472440944882
                },
                {
                    "duration": 0.6000000000000014,
                    "durationTicks": 960,
                    "midi": 65,
                    "name": "F4",
                    "ticks": 39360,
                    "time": 24.599999999999998,
                    "velocity": 0.6062992125984252
                },
                {
                    "duration": 0.6000000000000014,
                    "durationTicks": 960,
                    "midi": 64,
                    "name": "E4",
                    "ticks": 40320,
                    "time": 25.2,
                    "velocity": 0.5984251968503937
                },
                {
                    "duration": 1.1999999999999993,
                    "durationTicks": 1920,
                    "midi": 48,
                    "name": "C3",
                    "ticks": 40320,
                    "time": 25.2,
                    "velocity": 0.5826771653543307
                },
                {
                    "duration": 0.5999999999999979,
                    "durationTicks": 960,
                    "midi": 64,
                    "name": "E4",
                    "ticks": 41280,
                    "time": 25.8,
                    "velocity": 0.5984251968503937
                },
                {
                    "duration": 0.6000000000000014,
                    "durationTicks": 960,
                    "midi": 62,
                    "name": "D4",
                    "ticks": 42240,
                    "time": 26.4,
                    "velocity": 0.5748031496062992
                },
                {
                    "duration": 0.6000000000000014,
                    "durationTicks": 960,
                    "midi": 53,
                    "name": "F3",
                    "ticks": 42240,
                    "time": 26.4,
                    "velocity": 0.6299212598425197
                },
                {
                    "duration": 0.5999999999999979,
                    "durationTicks": 960,
                    "midi": 62,
                    "name": "D4",
                    "ticks": 43200,
                    "time": 27,
                    "velocity": 0.6062992125984252
                },
                {
                    "duration": 0.5999999999999979,
                    "durationTicks": 960,
                    "midi": 55,
                    "name": "G3",
                    "ticks": 43200,
                    "time": 27,
                    "velocity": 0.6377952755905512
                },
                {
                    "duration": 1.1999999999999993,
                    "durationTicks": 1920,
                    "midi": 60,
                    "name": "C4",
                    "ticks": 44160,
                    "time": 27.599999999999998,
                    "velocity": 0.5590551181102362
                },
                {
                    "duration": 1.1999999999999993,
                    "durationTicks": 1920,
                    "midi": 48,
                    "name": "C3",
                    "ticks": 44160,
                    "time": 27.599999999999998,
                    "velocity": 0.5433070866141733
                }
            ]
        }
    ]
}