{
  "header": {
    "keySignatures": [],
    "meta": [],
    "name": "",
    "ppq": 960,
    "tempos": [],
    "timeSignatures": []
  },
  "tracks": [
    {
      "channel": 0,
      "controlChanges": {
        "64": [
          {
            "number": 64,
            "ticks": 2141,
            "time": 1.1151041666666666,
            "value": 0
          },
          {
            "number": 64,
            "ticks": 2515,
            "time": 1.3098958333333333,
            "value": 1
          },
          {
            "number": 64,
            "ticks": 9007,
            "time": 4.691145833333334,
            "value": 0
          },
          {
            "number": 64,
            "ticks": 9068,
            "time": 4.722916666666666,
            "value": 1
          },
          {
            "number": 64,
            "ticks": 11209,
            "time": 5.838020833333333,
            "value": 0
          },
          {
            "number": 64,
            "ticks": 11267,
            "time": 5.868229166666667,
            "value": 1
          },
          {
            "number": 64,
            "ticks": 13331,
            "time": 6.943229166666667,
            "value": 0
          },
          {
            "number": 64,
            "ticks": 13432,
            "time": 6.995833333333334,
            "value": 1
          },
          {
            "number": 64,
            "ticks": 15439,
            "time": 8.041145833333333,
            "value": 0
          },
          {
            "number": 64,
            "ticks": 15516,
            "time": 8.08125,
            "value": 1
          },
          {
            "number": 64,
            "ticks": 17585,
            "time": 9.158854166666666,
            "value": 0
          },
          {
            "number": 64,
            "ticks": 17685,
            "time": 9.2109375,
            "value": 1
          },
          {
            "number": 64,
            "ticks": 19711,
            "time": 10.266145833333333,
            "value": 0
          },
          {
            "number": 64,
            "ticks": 19822,
            "time": 10.323958333333334,
            "value": 1
          },
          {
            "number": 64,
            "ticks": 24200,
            "time": 12.604166666666666,
            "value": 0
          },
          {
            "number": 64,
            "ticks": 24267,
            "time": 12.6390625,
            "value": 1
          },
          {
            "number": 64,
            "ticks": 31870,
            "time": 16.598958333333332,
            "value": 0
          },
          {
            "number": 64,
            "ticks": 31943,
            "time": 16.636979166666666,
            "value": 1
          },
          {
            "number": 64,
            "ticks": 36708,
            "time": 19.11875,
            "value": 0
          },
          {
            "number": 64,
            "ticks": 36743,
            "time": 19.136979166666666,
            "value": 1
          },
          {
            "number": 64,
            "ticks": 38600,
            "time": 20.104166666666668,
            "value": 0
          },
          {
            "number": 64,
            "ticks": 38682,
            "time": 20.146875,
            "value": 1
          },
          {
            "number": 64,
            "ticks": 45661,
            "time": 23.781770833333333,
            "value": 0
          },
          {
            "number": 64,
            "ticks": 45677,
            "time": 23.790104166666666,
            "value": 1
          },
          {
            "number": 64,
            "ticks": 49434,
            "time": 25.746875,
            "value": 0
          },
          {
            "number": 64,
            "ticks": 49501,
            "time": 25.781770833333333,
            "value": 1
          },
          {
            "number": 64,
            "ticks": 53299,
            "time": 27.759895833333335,
            "value": 0
          },
          {
            "number": 64,
            "ticks": 53324,
            "time": 27.772916666666667,
            "value": 1
          },
          {
            "number": 64,
            "ticks": 56003,
            "time": 29.168229166666666,
            "value": 0
          },
          {
            "number": 64,
            "ticks": 56016,
            "time": 29.175,
            "value": 1
          },
          {
            "number": 64,
            "ticks": 80129,
            "time": 41.73385416666667,
            "value": 0
          },
          {
            "number": 64,
            "ticks": 80168,
            "time": 41.75416666666667,
            "value": 1
          },
          {
            "number": 64,
            "ticks": 86974,
            "time": 45.29895833333333,
            "value": 0
          },
          {
            "number": 64,
            "ticks": 87012,
            "time": 45.31875,
            "value": 1
          },
          {
            "number": 64,
            "ticks": 88641,
            "time": 46.1671875,
            "value": 0
          },
          {
            "number": 64,
            "ticks": 88689,
            "time": 46.1921875,
            "value": 1
          },
          {
            "number": 64,
            "ticks": 96062,
            "time": 50.032291666666666,
            "value": 0
          },
          {
            "number": 64,
            "ticks": 96129,
            "time": 50.0671875,
            "value": 1
          },
          {
            "number": 64,
            "ticks": 214147,
            "time": 111.53489583333334,
            "value": 0
          },
          {
            "number": 64,
            "ticks": 214170,
            "time": 111.546875,
            "value": 1
          },
          {
            "number": 64,
            "ticks": 264901,
            "time": 137.96927083333333,
            "value": 0
          },
          {
            "number": 64,
            "ticks": 264964,
            "time": 138.00208333333333,
            "value": 1
          },
          {
            "number": 64,
            "ticks": 268506,
            "time": 139.846875,
            "value": 0
          },
          {
            "number": 64,
            "ticks": 268545,
            "time": 139.8671875,
            "value": 1
          },
          {
            "number": 64,
            "ticks": 270133,
            "time": 140.69427083333332,
            "value": 0
          },
          {
            "number": 64,
            "ticks": 270157,
            "time": 140.70677083333334,
            "value": 1
          },
          {
            "number": 64,
            "ticks": 515313,
            "time": 268.3921875,
            "value": 0
          }
        ]
      },
      "pitchBends": [],
      "instrument": {
        "family": "piano",
        "name": "acoustic grand piano",
        "number": 0
      },
      "name": "",
      "notes": [
        {
          "duration": 0.5848958333333333,
          "durationTicks": 1123,
          "midi": 60,
          "name": "C4",
          "ticks": 115,
          "time": 0.059895833333333336,
          "velocity": 0.4330708661417323
        },
        {
          "duration": 0.2880208333333334,
          "durationTicks": 553,
          "midi": 72,
          "name": "C5",
          "ticks": 123,
          "time": 0.0640625,
          "velocity": 0.44881889763779526
        },
        {
          "duration": 0.08385416666666666,
          "durationTicks": 161,
          "midi": 76,
          "name": "E5",
          "ticks": 140,
          "time": 0.07291666666666667,
          "velocity": 0.3779527559055118
        },
        {
          "duration": 0.5619791666666667,
          "durationTicks": 1079,
          "midi": 67,
          "name": "G4",
          "ticks": 144,
          "time": 0.075,
          "velocity": 0.3937007874015748
        },
        {
          "duration": 0.27708333333333335,
          "durationTicks": 532,
          "midi": 79,
          "name": "G5",
          "ticks": 159,
          "time": 0.0828125,
          "velocity": 0.3464566929133858
        },
        {
          "duration": 0.3989583333333333,
          "durationTicks": 766,
          "midi": 76,
          "name": "E5",
          "ticks": 716,
          "time": 0.3729166666666667,
          "velocity": 0.4015748031496063
        },
        {
          "duration": 0.28593750000000007,
          "durationTicks": 549,
          "midi": 77,
          "name": "F5",
          "ticks": 1321,
          "time": 0.6880208333333333,
          "velocity": 0.41732283464566927
        },
        {
          "duration": 0.14531249999999996,
          "durationTicks": 279,
          "midi": 79,
          "name": "G5",
          "ticks": 1889,
          "time": 0.9838541666666667,
          "velocity": 0.44881889763779526
        },
        {
          "duration": 0.6708333333333334,
          "durationTicks": 1288,
          "midi": 71,
          "name": "B4",
          "ticks": 2500,
          "time": 1.3020833333333333,
          "velocity": 0.41732283464566927
        },
        {
          "duration": 0.6130208333333333,
          "durationTicks": 1177,
          "midi": 79,
          "name": "G5",
          "ticks": 2521,
          "time": 1.3130208333333333,
          "velocity": 0.44881889763779526
        },
        {
          "duration": 0.7041666666666666,
          "durationTicks": 1352,
          "midi": 67,
          "name": "G4",
          "ticks": 2523,
          "time": 1.3140625,
          "velocity": 0.4015748031496063
        },
        {
          "duration": 0.5223958333333334,
          "durationTicks": 1003,
          "midi": 81,
          "name": "A5",
          "ticks": 3613,
          "time": 1.8817708333333334,
          "velocity": 0.44881889763779526
        },
        {
          "duration": 0.6104166666666666,
          "durationTicks": 1172,
          "midi": 60,
          "name": "C4",
          "ticks": 4673,
          "time": 2.433854166666667,
          "velocity": 0.4094488188976378
        },
        {
          "duration": 0.14322916666666652,
          "durationTicks": 275,
          "midi": 76,
          "name": "E5",
          "ticks": 4675,
          "time": 2.4348958333333335,
          "velocity": 0.4566929133858268
        },
        {
          "duration": 0.1260416666666666,
          "durationTicks": 242,
          "midi": 72,
          "name": "C5",
          "ticks": 4677,
          "time": 2.4359375,
          "velocity": 0.4566929133858268
        },
        {
          "duration": 0.6390625000000001,
          "durationTicks": 1227,
          "midi": 67,
          "name": "G4",
          "ticks": 4681,
          "time": 2.4380208333333333,
          "velocity": 0.44881889763779526
        },
        {
          "duration": 0.35416666666666696,
          "durationTicks": 680,
          "midi": 76,
          "name": "E5",
          "ticks": 5180,
          "time": 2.6979166666666665,
          "velocity": 0.3779527559055118
        },
        {
          "duration": 0.3010416666666669,
          "durationTicks": 578,
          "midi": 77,
          "name": "F5",
          "ticks": 5825,
          "time": 3.0338541666666665,
          "velocity": 0.4251968503937008
        },
        {
          "duration": 0.3213541666666666,
          "durationTicks": 617,
          "midi": 79,
          "name": "G5",
          "ticks": 6399,
          "time": 3.3328125,
          "velocity": 0.44881889763779526
        },
        {
          "duration": 0.6531250000000002,
          "durationTicks": 1254,
          "midi": 69,
          "name": "A4",
          "ticks": 6966,
          "time": 3.628125,
          "velocity": 0.4015748031496063
        },
        {
          "duration": 0.8786458333333331,
          "durationTicks": 1687,
          "midi": 77,
          "name": "F5",
          "ticks": 6970,
          "time": 3.6302083333333335,
          "velocity": 0.4251968503937008
        },
        {
          "duration": 0.6989583333333336,
          "durationTicks": 1342,
          "midi": 65,
          "name": "F4",
          "ticks": 6973,
          "time": 3.6317708333333334,
          "velocity": 0.36220472440944884
        },
        {
          "duration": 0.1171875,
          "durationTicks": 225,
          "midi": 76,
          "name": "E5",
          "ticks": 9070,
          "time": 4.723958333333333,
          "velocity": 0.4251968503937008
        },
        {
          "duration": 0.14479166666666643,
          "durationTicks": 278,
          "midi": 72,
          "name": "C5",
          "ticks": 9076,
          "time": 4.727083333333334,
          "velocity": 0.44881889763779526
        },
        {
          "duration": 0.17395833333333321,
          "durationTicks": 334,
          "midi": 67,
          "name": "G4",
          "ticks": 9099,
          "time": 4.7390625,
          "velocity": 0.44881889763779526
        },
        {
          "duration": 0.16354166666666714,
          "durationTicks": 314,
          "midi": 60,
          "name": "C4",
          "ticks": 9107,
          "time": 4.743229166666667,
          "velocity": 0.4330708661417323
        },
        {
          "duration": 0.3546874999999998,
          "durationTicks": 681,
          "midi": 76,
          "name": "E5",
          "ticks": 9564,
          "time": 4.98125,
          "velocity": 0.36220472440944884
        },
        {
          "duration": 0.21249999999999947,
          "durationTicks": 408,
          "midi": 77,
          "name": "F5",
          "ticks": 10211,
          "time": 5.318229166666667,
          "velocity": 0.44881889763779526
        },
        {
          "duration": 0.30416666666666714,
          "durationTicks": 584,
          "midi": 79,
          "name": "G5",
          "ticks": 10731,
          "time": 5.5890625,
          "velocity": 0.4409448818897638
        },
        {
          "duration": 0.6114583333333332,
          "durationTicks": 1174,
          "midi": 69,
          "name": "A4",
          "ticks": 11320,
          "time": 5.895833333333333,
          "velocity": 0.4409448818897638
        },
        {
          "duration": 0.6479166666666671,
          "durationTicks": 1244,
          "midi": 60,
          "name": "C4",
          "ticks": 11320,
          "time": 5.895833333333333,
          "velocity": 0.3937007874015748
        },
        {
          "duration": 0.5666666666666664,
          "durationTicks": 1088,
          "midi": 77,
          "name": "F5",
          "ticks": 11336,
          "time": 5.904166666666667,
          "velocity": 0.4566929133858268
        },
        {
          "duration": 0.6229166666666668,
          "durationTicks": 1196,
          "midi": 65,
          "name": "F4",
          "ticks": 11338,
          "time": 5.905208333333333,
          "velocity": 0.3937007874015748
        },
        {
          "duration": 0.5645833333333341,
          "durationTicks": 1084,
          "midi": 76,
          "name": "E5",
          "ticks": 12419,
          "time": 6.468229166666666,
          "velocity": 0.4094488188976378
        },
        {
          "duration": 0.18385416666666643,
          "durationTicks": 353,
          "midi": 72,
          "name": "C5",
          "ticks": 13423,
          "time": 6.991145833333333,
          "velocity": 0.4566929133858268
        },
        {
          "duration": 0.171875,
          "durationTicks": 330,
          "midi": 60,
          "name": "C4",
          "ticks": 13446,
          "time": 7.003125,
          "velocity": 0.44881889763779526
        },
        {
          "duration": 0.1630208333333334,
          "durationTicks": 313,
          "midi": 67,
          "name": "G4",
          "ticks": 13448,
          "time": 7.004166666666666,
          "velocity": 0.44881889763779526
        },
        {
          "duration": 0.19322916666666679,
          "durationTicks": 371,
          "midi": 79,
          "name": "G5",
          "ticks": 13457,
          "time": 7.008854166666667,
          "velocity": 0.4409448818897638
        },
        {
          "duration": 0.34895833333333304,
          "durationTicks": 670,
          "midi": 76,
          "name": "E5",
          "ticks": 13937,
          "time": 7.258854166666667,
          "velocity": 0.4094488188976378
        },
        {
          "duration": 0.20677083333333357,
          "durationTicks": 397,
          "midi": 77,
          "name": "F5",
          "ticks": 14519,
          "time": 7.561979166666666,
          "velocity": 0.4251968503937008
        },
        {
          "duration": 0.1338541666666675,
          "durationTicks": 257,
          "midi": 79,
          "name": "G5",
          "ticks": 14999,
          "time": 7.811979166666666,
          "velocity": 0.4409448818897638
        },
        {
          "duration": 0.6286458333333336,
          "durationTicks": 1207,
          "midi": 71,
          "name": "B4",
          "ticks": 15612,
          "time": 8.13125,
          "velocity": 0.44881889763779526
        },
        {
          "duration": 0.7119791666666675,
          "durationTicks": 1367,
          "midi": 79,
          "name": "G5",
          "ticks": 15612,
          "time": 8.13125,
          "velocity": 0.48031496062992124
        },
        {
          "duration": 0.6531249999999993,
          "durationTicks": 1254,
          "midi": 67,
          "name": "G4",
          "ticks": 15640,
          "time": 8.145833333333334,
          "velocity": 0.4251968503937008
        },
        {
          "duration": 0.17135416666666536,
          "durationTicks": 329,
          "midi": 72,
          "name": "C5",
          "ticks": 17702,
          "time": 9.219791666666667,
          "velocity": 0.44881889763779526
        },
        {
          "duration": 0.6484375,
          "durationTicks": 1245,
          "midi": 60,
          "name": "C4",
          "ticks": 17702,
          "time": 9.219791666666667,
          "velocity": 0.47244094488188976
        },
        {
          "duration": 0.11041666666666572,
          "durationTicks": 212,
          "midi": 76,
          "name": "E5",
          "ticks": 17706,
          "time": 9.221875,
          "velocity": 0.44881889763779526
        },
        {
          "duration": 0.6130208333333336,
          "durationTicks": 1177,
          "midi": 67,
          "name": "G4",
          "ticks": 17712,
          "time": 9.225,
          "velocity": 0.47244094488188976
        },
        {
          "duration": 0.16927083333333393,
          "durationTicks": 325,
          "midi": 79,
          "name": "G5",
          "ticks": 17750,
          "time": 9.244791666666666,
          "velocity": 0.3937007874015748
        },
        {
          "duration": 0.3802083333333339,
          "durationTicks": 730,
          "midi": 76,
          "name": "E5",
          "ticks": 18230,
          "time": 9.494791666666666,
          "velocity": 0.3779527559055118
        },
        {
          "duration": 0.22239583333333357,
          "durationTicks": 427,
          "midi": 77,
          "name": "F5",
          "ticks": 18810,
          "time": 9.796875,
          "velocity": 0.44881889763779526
        },
        {
          "duration": 0.24791666666666679,
          "durationTicks": 476,
          "midi": 79,
          "name": "G5",
          "ticks": 19304,
          "time": 10.054166666666667,
          "velocity": 0.44881889763779526
        },
        {
          "duration": 0.14791666666666714,
          "durationTicks": 284,
          "midi": 69,
          "name": "A4",
          "ticks": 19876,
          "time": 10.352083333333333,
          "velocity": 0.4566929133858268
        },
        {
          "duration": 0.7171874999999996,
          "durationTicks": 1377,
          "midi": 57,
          "name": "A3",
          "ticks": 19885,
          "time": 10.356770833333334,
          "velocity": 0.44881889763779526
        },
        {
          "duration": 0.1651041666666675,
          "durationTicks": 317,
          "midi": 72,
          "name": "C5",
          "ticks": 19887,
          "time": 10.3578125,
          "velocity": 0.4566929133858268
        },
        {
          "duration": 0.7052083333333332,
          "durationTicks": 1354,
          "midi": 64,
          "name": "E4",
          "ticks": 19899,
          "time": 10.3640625,
          "velocity": 0.47244094488188976
        },
        {
          "duration": 0.5598958333333321,
          "durationTicks": 1075,
          "midi": 72,
          "name": "C5",
          "ticks": 21003,
          "time": 10.9390625,
          "velocity": 0.47244094488188976
        },
        {
          "duration": 0.5760416666666668,
          "durationTicks": 1106,
          "midi": 65,
          "name": "F4",
          "ticks": 22040,
          "time": 11.479166666666666,
          "velocity": 0.47244094488188976
        },
        {
          "duration": 0.5864583333333346,
          "durationTicks": 1126,
          "midi": 62,
          "name": "D4",
          "ticks": 22070,
          "time": 11.494791666666666,
          "velocity": 0.4409448818897638
        },
        {
          "duration": 0.23125000000000107,
          "durationTicks": 444,
          "midi": 74,
          "name": "D5",
          "ticks": 22070,
          "time": 11.494791666666666,
          "velocity": 0.4566929133858268
        },
        {
          "duration": 0.2901041666666657,
          "durationTicks": 557,
          "midi": 76,
          "name": "E5",
          "ticks": 22552,
          "time": 11.745833333333334,
          "velocity": 0.4566929133858268
        },
        {
          "duration": 0.2588541666666657,
          "durationTicks": 497,
          "midi": 74,
          "name": "D5",
          "ticks": 23096,
          "time": 12.029166666666667,
          "velocity": 0.3700787401574803
        },
        {
          "duration": 0.33177083333333357,
          "durationTicks": 637,
          "midi": 72,
          "name": "C5",
          "ticks": 23651,
          "time": 12.318229166666667,
          "velocity": 0.3858267716535433
        },
        {
          "duration": 1.5020833333333332,
          "durationTicks": 2884,
          "midi": 62,
          "name": "D4",
          "ticks": 24209,
          "time": 12.608854166666667,
          "velocity": 0.4566929133858268
        },
        {
          "duration": 1.4921875,
          "durationTicks": 2865,
          "midi": 55,
          "name": "G3",
          "ticks": 24221,
          "time": 12.615104166666667,
          "velocity": 0.4409448818897638
        },
        {
          "duration": 1.4510416666666668,
          "durationTicks": 2786,
          "midi": 67,
          "name": "G4",
          "ticks": 24223,
          "time": 12.616145833333333,
          "velocity": 0.47244094488188976
        },
        {
          "duration": 0.39687499999999964,
          "durationTicks": 762,
          "midi": 71,
          "name": "B4",
          "ticks": 26909,
          "time": 14.015104166666667,
          "velocity": 0.3858267716535433
        },
        {
          "duration": 1.033854166666666,
          "durationTicks": 1985,
          "midi": 67,
          "name": "G4",
          "ticks": 27502,
          "time": 14.323958333333334,
          "velocity": 0.44881889763779526
        },
        {
          "duration": 0.9031250000000011,
          "durationTicks": 1734,
          "midi": 55,
          "name": "G3",
          "ticks": 27504,
          "time": 14.325,
          "velocity": 0.3937007874015748
        },
        {
          "duration": 0.8968749999999996,
          "durationTicks": 1722,
          "midi": 62,
          "name": "D4",
          "ticks": 27506,
          "time": 14.326041666666667,
          "velocity": 0.4330708661417323
        },
        {
          "duration": 0.3458333333333332,
          "durationTicks": 664,
          "midi": 71,
          "name": "B4",
          "ticks": 29397,
          "time": 15.3109375,
          "velocity": 0.3858267716535433
        },
        {
          "duration": 0.17135416666666714,
          "durationTicks": 329,
          "midi": 62,
          "name": "D4",
          "ticks": 29850,
          "time": 15.546875,
          "velocity": 0.4094488188976378
        },
        {
          "duration": 0.13489583333333321,
          "durationTicks": 259,
          "midi": 55,
          "name": "G3",
          "ticks": 29858,
          "time": 15.551041666666666,
          "velocity": 0.3543307086614173
        },
        {
          "duration": 0.8739583333333343,
          "durationTicks": 1678,
          "midi": 67,
          "name": "G4",
          "ticks": 29933,
          "time": 15.590104166666666,
          "velocity": 0.4566929133858268
        },
        {
          "duration": 0.3078125000000007,
          "durationTicks": 591,
          "midi": 71,
          "name": "B4",
          "ticks": 31502,
          "time": 16.407291666666666,
          "velocity": 0.3937007874015748
        },
        {
          "duration": 0.12187500000000284,
          "durationTicks": 234,
          "midi": 62,
          "name": "D4",
          "ticks": 32005,
          "time": 16.669270833333332,
          "velocity": 0.44881889763779526
        },
        {
          "duration": 0.10104166666666714,
          "durationTicks": 194,
          "midi": 55,
          "name": "G3",
          "ticks": 32016,
          "time": 16.675,
          "velocity": 0.4015748031496063
        },
        {
          "duration": 0.125,
          "durationTicks": 240,
          "midi": 67,
          "name": "G4",
          "ticks": 32020,
          "time": 16.677083333333332,
          "velocity": 0.44881889763779526
        },
        {
          "duration": 0.12604166666666572,
          "durationTicks": 242,
          "midi": 67,
          "name": "G4",
          "ticks": 32465,
          "time": 16.908854166666668,
          "velocity": 0.41732283464566927
        },
        {
          "duration": 0.08020833333333499,
          "durationTicks": 154,
          "midi": 67,
          "name": "G4",
          "ticks": 33001,
          "time": 17.188020833333333,
          "velocity": 0.4251968503937008
        },
        {
          "duration": 0.09791666666666643,
          "durationTicks": 188,
          "midi": 55,
          "name": "G3",
          "ticks": 33005,
          "time": 17.190104166666668,
          "velocity": 0.4094488188976378
        },
        {
          "duration": 0.10572916666666643,
          "durationTicks": 203,
          "midi": 62,
          "name": "D4",
          "ticks": 33007,
          "time": 17.191145833333334,
          "velocity": 0.41732283464566927
        },
        {
          "duration": 0.2156249999999993,
          "durationTicks": 414,
          "midi": 67,
          "name": "G4",
          "ticks": 33439,
          "time": 17.416145833333335,
          "velocity": 0.3779527559055118
        },
        {
          "duration": 0.11770833333333641,
          "durationTicks": 226,
          "midi": 62,
          "name": "D4",
          "ticks": 33963,
          "time": 17.6890625,
          "velocity": 0.3937007874015748
        },
        {
          "duration": 0.1687499999999993,
          "durationTicks": 324,
          "midi": 71,
          "name": "B4",
          "ticks": 33973,
          "time": 17.694270833333334,
          "velocity": 0.4409448818897638
        },
        {
          "duration": 0.08697916666666927,
          "durationTicks": 167,
          "midi": 55,
          "name": "G3",
          "ticks": 33978,
          "time": 17.696875,
          "velocity": 0.3464566929133858
        },
        {
          "duration": 0.2109375,
          "durationTicks": 405,
          "midi": 67,
          "name": "G4",
          "ticks": 34433,
          "time": 17.933854166666666,
          "velocity": 0.3700787401574803
        },
        {
          "duration": 0.13802083333333215,
          "durationTicks": 265,
          "midi": 71,
          "name": "B4",
          "ticks": 34921,
          "time": 18.188020833333333,
          "velocity": 0.4094488188976378
        },
        {
          "duration": 0.12760416666666785,
          "durationTicks": 245,
          "midi": 62,
          "name": "D4",
          "ticks": 34929,
          "time": 18.1921875,
          "velocity": 0.4409448818897638
        },
        {
          "duration": 0.07968749999999858,
          "durationTicks": 153,
          "midi": 55,
          "name": "G3",
          "ticks": 34950,
          "time": 18.203125,
          "velocity": 0.3858267716535433
        },
        {
          "duration": 0.23854166666666998,
          "durationTicks": 458,
          "midi": 67,
          "name": "G4",
          "ticks": 35411,
          "time": 18.443229166666665,
          "velocity": 0.36220472440944884
        },
        {
          "duration": 0.1171875,
          "durationTicks": 225,
          "midi": 62,
          "name": "D4",
          "ticks": 35896,
          "time": 18.695833333333333,
          "velocity": 0.4094488188976378
        },
        {
          "duration": 0.18593750000000142,
          "durationTicks": 357,
          "midi": 71,
          "name": "B4",
          "ticks": 35906,
          "time": 18.701041666666665,
          "velocity": 0.3937007874015748
        },
        {
          "duration": 0.08281249999999929,
          "durationTicks": 159,
          "midi": 55,
          "name": "G3",
          "ticks": 35908,
          "time": 18.702083333333334,
          "velocity": 0.3779527559055118
        },
        {
          "duration": 0.275520833333335,
          "durationTicks": 529,
          "midi": 67,
          "name": "G4",
          "ticks": 36368,
          "time": 18.941666666666666,
          "velocity": 0.3937007874015748
        },
        {
          "duration": 0.08645833333333641,
          "durationTicks": 166,
          "midi": 62,
          "name": "D4",
          "ticks": 36881,
          "time": 19.208854166666665,
          "velocity": 0.41732283464566927
        },
        {
          "duration": 0.09479166666666927,
          "durationTicks": 182,
          "midi": 55,
          "name": "G3",
          "ticks": 36887,
          "time": 19.211979166666666,
          "velocity": 0.3779527559055118
        },
        {
          "duration": 0.16302083333333073,
          "durationTicks": 313,
          "midi": 71,
          "name": "B4",
          "ticks": 36912,
          "time": 19.225,
          "velocity": 0.3937007874015748
        },
        {
          "duration": 0.26979166666666643,
          "durationTicks": 518,
          "midi": 67,
          "name": "G4",
          "ticks": 37375,
          "time": 19.466145833333332,
          "velocity": 0.3700787401574803
        },
        {
          "duration": 0.12291666666666501,
          "durationTicks": 236,
          "midi": 55,
          "name": "G3",
          "ticks": 37843,
          "time": 19.709895833333334,
          "velocity": 0.4409448818897638
        },
        {
          "duration": 0.1171875,
          "durationTicks": 225,
          "midi": 48,
          "name": "C3",
          "ticks": 37851,
          "time": 19.7140625,
          "velocity": 0.3937007874015748
        },
        {
          "duration": 0.15677083333333286,
          "durationTicks": 301,
          "midi": 71,
          "name": "B4",
          "ticks": 37876,
          "time": 19.727083333333333,
          "velocity": 0.4409448818897638
        },
        {
          "duration": 0.21510416666666643,
          "durationTicks": 413,
          "midi": 67,
          "name": "G4",
          "ticks": 38344,
          "time": 19.970833333333335,
          "velocity": 0.36220472440944884
        },
        {
          "duration": 0.20208333333333428,
          "durationTicks": 388,
          "midi": 71,
          "name": "B4",
          "ticks": 38843,
          "time": 20.230729166666666,
          "velocity": 0.41732283464566927
        },
        {
          "duration": 0.134895833333335,
          "durationTicks": 259,
          "midi": 55,
          "name": "G3",
          "ticks": 38853,
          "time": 20.2359375,
          "velocity": 0.44881889763779526
        },
        {
          "duration": 0.12187499999999929,
          "durationTicks": 234,
          "midi": 48,
          "name": "C3",
          "ticks": 38880,
          "time": 20.25,
          "velocity": 0.4094488188976378
        },
        {
          "duration": 0.2218750000000007,
          "durationTicks": 426,
          "midi": 67,
          "name": "G4",
          "ticks": 39343,
          "time": 20.491145833333334,
          "velocity": 0.3464566929133858
        },
        {
          "duration": 0.14114583333333286,
          "durationTicks": 271,
          "midi": 55,
          "name": "G3",
          "ticks": 39817,
          "time": 20.738020833333334,
          "velocity": 0.4409448818897638
        },
        {
          "duration": 0.1359375000000007,
          "durationTicks": 261,
          "midi": 48,
          "name": "C3",
          "ticks": 39825,
          "time": 20.7421875,
          "velocity": 0.4094488188976378
        },
        {
          "duration": 0.20885416666666856,
          "durationTicks": 401,
          "midi": 71,
          "name": "B4",
          "ticks": 39873,
          "time": 20.7671875,
          "velocity": 0.4566929133858268
        },
        {
          "duration": 0.20416666666666927,
          "durationTicks": 392,
          "midi": 67,
          "name": "G4",
          "ticks": 40322,
          "time": 21.001041666666666,
          "velocity": 0.3779527559055118
        },
        {
          "duration": 0.10885416666666714,
          "durationTicks": 209,
          "midi": 55,
          "name": "G3",
          "ticks": 40787,
          "time": 21.243229166666666,
          "velocity": 0.44881889763779526
        },
        {
          "duration": 0.06614583333333357,
          "durationTicks": 127,
          "midi": 48,
          "name": "C3",
          "ticks": 40792,
          "time": 21.245833333333334,
          "velocity": 0.3779527559055118
        },
        {
          "duration": 0.26614583333333286,
          "durationTicks": 511,
          "midi": 71,
          "name": "B4",
          "ticks": 40827,
          "time": 21.2640625,
          "velocity": 0.47244094488188976
        },
        {
          "duration": 0.24635416666666643,
          "durationTicks": 473,
          "midi": 72,
          "name": "C5",
          "ticks": 41272,
          "time": 21.495833333333334,
          "velocity": 0.44881889763779526
        },
        {
          "duration": 0.2734375,
          "durationTicks": 525,
          "midi": 74,
          "name": "D5",
          "ticks": 41776,
          "time": 21.758333333333333,
          "velocity": 0.49606299212598426
        },
        {
          "duration": 0.13906249999999787,
          "durationTicks": 267,
          "midi": 67,
          "name": "G4",
          "ticks": 41779,
          "time": 21.759895833333335,
          "velocity": 0.41732283464566927
        },
        {
          "duration": 0.127083333333335,
          "durationTicks": 244,
          "midi": 60,
          "name": "C4",
          "ticks": 41798,
          "time": 21.769791666666666,
          "velocity": 0.31496062992125984
        },
        {
          "duration": 0.06510416666666785,
          "durationTicks": 125,
          "midi": 59,
          "name": "B3",
          "ticks": 41850,
          "time": 21.796875,
          "velocity": 0.3228346456692913
        },
        {
          "duration": 0.2890625,
          "durationTicks": 555,
          "midi": 72,
          "name": "C5",
          "ticks": 42273,
          "time": 22.0171875,
          "velocity": 0.44881889763779526
        },
        {
          "duration": 0.28072916666666714,
          "durationTicks": 539,
          "midi": 71,
          "name": "B4",
          "ticks": 42776,
          "time": 22.279166666666665,
          "velocity": 0.47244094488188976
        },
        {
          "duration": 0.3781250000000007,
          "durationTicks": 726,
          "midi": 72,
          "name": "C5",
          "ticks": 43244,
          "time": 22.522916666666667,
          "velocity": 0.4409448818897638
        },
        {
          "duration": 0.15520833333333428,
          "durationTicks": 298,
          "midi": 60,
          "name": "C4",
          "ticks": 43728,
          "time": 22.775,
          "velocity": 0.47244094488188976
        },
        {
          "duration": 0.1531249999999993,
          "durationTicks": 294,
          "midi": 67,
          "name": "G4",
          "ticks": 43730,
          "time": 22.776041666666668,
          "velocity": 0.48031496062992124
        },
        {
          "duration": 0.22395833333333215,
          "durationTicks": 430,
          "midi": 74,
          "name": "D5",
          "ticks": 43745,
          "time": 22.783854166666668,
          "velocity": 0.47244094488188976
        },
        {
          "duration": 0.31979166666666714,
          "durationTicks": 614,
          "midi": 72,
          "name": "C5",
          "ticks": 44189,
          "time": 23.015104166666667,
          "velocity": 0.3779527559055118
        },
        {
          "duration": 0.22864583333333144,
          "durationTicks": 439,
          "midi": 71,
          "name": "B4",
          "ticks": 44721,
          "time": 23.2921875,
          "velocity": 0.4409448818897638
        },
        {
          "duration": 0.3046875,
          "durationTicks": 585,
          "midi": 72,
          "name": "C5",
          "ticks": 45176,
          "time": 23.529166666666665,
          "velocity": 0.3937007874015748
        },
        {
          "duration": 0.12239583333333215,
          "durationTicks": 235,
          "midi": 64,
          "name": "E4",
          "ticks": 45688,
          "time": 23.795833333333334,
          "velocity": 0.5118110236220472
        },
        {
          "duration": 0.1531249999999993,
          "durationTicks": 294,
          "midi": 71,
          "name": "B4",
          "ticks": 45690,
          "time": 23.796875,
          "velocity": 0.47244094488188976
        },
        {
          "duration": 0.09270833333333428,
          "durationTicks": 178,
          "midi": 57,
          "name": "A3",
          "ticks": 45700,
          "time": 23.802083333333332,
          "velocity": 0.4409448818897638
        },
        {
          "duration": 0.213020833333335,
          "durationTicks": 409,
          "midi": 69,
          "name": "A4",
          "ticks": 46134,
          "time": 24.028125,
          "velocity": 0.41732283464566927
        },
        {
          "duration": 0.23697916666666785,
          "durationTicks": 455,
          "midi": 71,
          "name": "B4",
          "ticks": 46658,
          "time": 24.301041666666666,
          "velocity": 0.44881889763779526
        },
        {
          "duration": 0.24895833333333428,
          "durationTicks": 478,
          "midi": 72,
          "name": "C5",
          "ticks": 47130,
          "time": 24.546875,
          "velocity": 0.4409448818897638
        },
        {
          "duration": 0.216666666666665,
          "durationTicks": 416,
          "midi": 74,
          "name": "D5",
          "ticks": 47630,
          "time": 24.807291666666668,
          "velocity": 0.47244094488188976
        },
        {
          "duration": 0.10885416666666714,
          "durationTicks": 209,
          "midi": 64,
          "name": "E4",
          "ticks": 47658,
          "time": 24.821875,
          "velocity": 0.4566929133858268
        },
        {
          "duration": 0.12812499999999716,
          "durationTicks": 246,
          "midi": 57,
          "name": "A3",
          "ticks": 47660,
          "time": 24.822916666666668,
          "velocity": 0.44881889763779526
        },
        {
          "duration": 0.3098958333333357,
          "durationTicks": 595,
          "midi": 72,
          "name": "C5",
          "ticks": 48123,
          "time": 25.0640625,
          "velocity": 0.4251968503937008
        },
        {
          "duration": 0.17031250000000142,
          "durationTicks": 327,
          "midi": 71,
          "name": "B4",
          "ticks": 48662,
          "time": 25.344791666666666,
          "velocity": 0.3937007874015748
        },
        {
          "duration": 0.10989583333333286,
          "durationTicks": 211,
          "midi": 69,
          "name": "A4",
          "ticks": 49066,
          "time": 25.555208333333333,
          "velocity": 0.4015748031496063
        },
        {
          "duration": 0.10885416666666714,
          "durationTicks": 209,
          "midi": 60,
          "name": "C4",
          "ticks": 49575,
          "time": 25.8203125,
          "velocity": 0.47244094488188976
        },
        {
          "duration": 0.11145833333333499,
          "durationTicks": 214,
          "midi": 53,
          "name": "F3",
          "ticks": 49599,
          "time": 25.8328125,
          "velocity": 0.44881889763779526
        },
        {
          "duration": 0.10572916666666643,
          "durationTicks": 203,
          "midi": 77,
          "name": "F5",
          "ticks": 49619,
          "time": 25.843229166666667,
          "velocity": 0.44881889763779526
        },
        {
          "duration": 0.13437499999999858,
          "durationTicks": 258,
          "midi": 77,
          "name": "F5",
          "ticks": 50513,
          "time": 26.308854166666666,
          "velocity": 0.47244094488188976
        },
        {
          "duration": 0.11406249999999929,
          "durationTicks": 219,
          "midi": 60,
          "name": "C4",
          "ticks": 50521,
          "time": 26.313020833333333,
          "velocity": 0.48031496062992124
        },
        {
          "duration": 0.10885416666666714,
          "durationTicks": 209,
          "midi": 53,
          "name": "F3",
          "ticks": 50540,
          "time": 26.322916666666668,
          "velocity": 0.41732283464566927
        },
        {
          "duration": 0.11927083333333144,
          "durationTicks": 229,
          "midi": 60,
          "name": "C4",
          "ticks": 51477,
          "time": 26.8109375,
          "velocity": 0.48031496062992124
        },
        {
          "duration": 0.13489583333333144,
          "durationTicks": 259,
          "midi": 77,
          "name": "F5",
          "ticks": 51479,
          "time": 26.811979166666667,
          "velocity": 0.4566929133858268
        },
        {
          "duration": 0.15000000000000213,
          "durationTicks": 288,
          "midi": 53,
          "name": "F3",
          "ticks": 51491,
          "time": 26.818229166666665,
          "velocity": 0.4409448818897638
        },
        {
          "duration": 0.09791666666666643,
          "durationTicks": 188,
          "midi": 60,
          "name": "C4",
          "ticks": 52426,
          "time": 27.305208333333333,
          "velocity": 0.49606299212598426
        },
        {
          "duration": 0.09999999999999787,
          "durationTicks": 192,
          "midi": 77,
          "name": "F5",
          "ticks": 52431,
          "time": 27.3078125,
          "velocity": 0.49606299212598426
        },
        {
          "duration": 0.07500000000000284,
          "durationTicks": 144,
          "midi": 53,
          "name": "F3",
          "ticks": 52481,
          "time": 27.333854166666665,
          "velocity": 0.3464566929133858
        },
        {
          "duration": 0.1296874999999993,
          "durationTicks": 249,
          "midi": 60,
          "name": "C4",
          "ticks": 53384,
          "time": 27.804166666666667,
          "velocity": 0.48031496062992124
        },
        {
          "duration": 0.142708333333335,
          "durationTicks": 274,
          "midi": 72,
          "name": "C5",
          "ticks": 53386,
          "time": 27.805208333333333,
          "velocity": 0.49606299212598426
        },
        {
          "duration": 0.13906250000000142,
          "durationTicks": 267,
          "midi": 79,
          "name": "G5",
          "ticks": 53387,
          "time": 27.805729166666666,
          "velocity": 0.49606299212598426
        },
        {
          "duration": 0.11406249999999929,
          "durationTicks": 219,
          "midi": 67,
          "name": "G4",
          "ticks": 53401,
          "time": 27.813020833333333,
          "velocity": 0.44881889763779526
        },
        {
          "duration": 0.16302083333333428,
          "durationTicks": 313,
          "midi": 76,
          "name": "E5",
          "ticks": 53403,
          "time": 27.8140625,
          "velocity": 0.4566929133858268
        },
        {
          "duration": 0.11666666666666714,
          "durationTicks": 224,
          "midi": 60,
          "name": "C4",
          "ticks": 53987,
          "time": 28.118229166666666,
          "velocity": 0.44881889763779526
        },
        {
          "duration": 0.12031250000000071,
          "durationTicks": 231,
          "midi": 67,
          "name": "G4",
          "ticks": 53992,
          "time": 28.120833333333334,
          "velocity": 0.4566929133858268
        },
        {
          "duration": 0.203125,
          "durationTicks": 390,
          "midi": 72,
          "name": "C5",
          "ticks": 54280,
          "time": 28.270833333333332,
          "velocity": 0.47244094488188976
        },
        {
          "duration": 0.17812499999999787,
          "durationTicks": 342,
          "midi": 79,
          "name": "G5",
          "ticks": 54282,
          "time": 28.271875,
          "velocity": 0.4566929133858268
        },
        {
          "duration": 0.1802083333333364,
          "durationTicks": 346,
          "midi": 76,
          "name": "E5",
          "ticks": 54288,
          "time": 28.275,
          "velocity": 0.5118110236220472
        },
        {
          "duration": 0.11927083333333499,
          "durationTicks": 229,
          "midi": 60,
          "name": "C4",
          "ticks": 54737,
          "time": 28.508854166666666,
          "velocity": 0.4566929133858268
        },
        {
          "duration": 0.11093749999999858,
          "durationTicks": 213,
          "midi": 67,
          "name": "G4",
          "ticks": 54747,
          "time": 28.5140625,
          "velocity": 0.44881889763779526
        },
        {
          "duration": 0.11302083333333357,
          "durationTicks": 217,
          "midi": 67,
          "name": "G4",
          "ticks": 55651,
          "time": 28.984895833333333,
          "velocity": 0.48031496062992124
        },
        {
          "duration": 0.12031250000000071,
          "durationTicks": 231,
          "midi": 60,
          "name": "C4",
          "ticks": 55653,
          "time": 28.9859375,
          "velocity": 0.48031496062992124
        },
        {
          "duration": 0.12916666666666998,
          "durationTicks": 248,
          "midi": 76,
          "name": "E5",
          "ticks": 56081,
          "time": 29.208854166666665,
          "velocity": 0.5433070866141733
        },
        {
          "duration": 0.12291666666666501,
          "durationTicks": 236,
          "midi": 79,
          "name": "G5",
          "ticks": 56089,
          "time": 29.213020833333335,
          "velocity": 0.5118110236220472
        },
        {
          "duration": 0.1296874999999993,
          "durationTicks": 249,
          "midi": 72,
          "name": "C5",
          "ticks": 56093,
          "time": 29.215104166666666,
          "velocity": 0.5196850393700787
        },
        {
          "duration": 0.14895833333333286,
          "durationTicks": 286,
          "midi": 57,
          "name": "A3",
          "ticks": 56938,
          "time": 29.655208333333334,
          "velocity": 0.44881889763779526
        },
        {
          "duration": 0.11562500000000142,
          "durationTicks": 222,
          "midi": 64,
          "name": "E4",
          "ticks": 56965,
          "time": 29.669270833333332,
          "velocity": 0.44881889763779526
        },
        {
          "duration": 0.14322916666666785,
          "durationTicks": 275,
          "midi": 57,
          "name": "A3",
          "ticks": 57571,
          "time": 29.984895833333333,
          "velocity": 0.44881889763779526
        },
        {
          "duration": 0.09791666666666998,
          "durationTicks": 188,
          "midi": 64,
          "name": "E4",
          "ticks": 57596,
          "time": 29.997916666666665,
          "velocity": 0.44881889763779526
        },
        {
          "duration": 0.20677083333333357,
          "durationTicks": 397,
          "midi": 69,
          "name": "A4",
          "ticks": 57806,
          "time": 30.107291666666665,
          "velocity": 0.5196850393700787
        },
        {
          "duration": 0.20468749999999858,
          "durationTicks": 393,
          "midi": 72,
          "name": "C5",
          "ticks": 57808,
          "time": 30.108333333333334,
          "velocity": 0.5196850393700787
        },
        {
          "duration": 0.171875,
          "durationTicks": 330,
          "midi": 76,
          "name": "E5",
          "ticks": 57838,
          "time": 30.123958333333334,
          "velocity": 0.47244094488188976
        },
        {
          "duration": 0.06718749999999929,
          "durationTicks": 129,
          "midi": 75,
          "name": "D#5",
          "ticks": 57884,
          "time": 30.147916666666667,
          "velocity": 0.3228346456692913
        },
        {
          "duration": 0.13697916666666643,
          "durationTicks": 263,
          "midi": 57,
          "name": "A3",
          "ticks": 58261,
          "time": 30.344270833333333,
          "velocity": 0.4566929133858268
        },
        {
          "duration": 0.10468749999999716,
          "durationTicks": 201,
          "midi": 64,
          "name": "E4",
          "ticks": 58280,
          "time": 30.354166666666668,
          "velocity": 0.4566929133858268
        },
        {
          "duration": 0.14427083333333357,
          "durationTicks": 277,
          "midi": 57,
          "name": "A3",
          "ticks": 59136,
          "time": 30.8,
          "velocity": 0.48031496062992124
        },
        {
          "duration": 0.10885416666666714,
          "durationTicks": 209,
          "midi": 64,
          "name": "E4",
          "ticks": 59148,
          "time": 30.80625,
          "velocity": 0.4566929133858268
        },
        {
          "duration": 0.1437500000000007,
          "durationTicks": 276,
          "midi": 72,
          "name": "C5",
          "ticks": 59551,
          "time": 31.016145833333333,
          "velocity": 0.5196850393700787
        },
        {
          "duration": 0.130729166666665,
          "durationTicks": 251,
          "midi": 69,
          "name": "A4",
          "ticks": 59557,
          "time": 31.019270833333334,
          "velocity": 0.49606299212598426
        },
        {
          "duration": 0.1281250000000007,
          "durationTicks": 246,
          "midi": 76,
          "name": "E5",
          "ticks": 59558,
          "time": 31.019791666666666,
          "velocity": 0.49606299212598426
        },
        {
          "duration": 0.15364583333333215,
          "durationTicks": 295,
          "midi": 53,
          "name": "F3",
          "ticks": 60390,
          "time": 31.453125,
          "velocity": 0.47244094488188976
        },
        {
          "duration": 0.11406249999999929,
          "durationTicks": 219,
          "midi": 60,
          "name": "C4",
          "ticks": 60405,
          "time": 31.4609375,
          "velocity": 0.44881889763779526
        },
        {
          "duration": 0.13593749999999716,
          "durationTicks": 261,
          "midi": 53,
          "name": "F3",
          "ticks": 61047,
          "time": 31.7953125,
          "velocity": 0.41732283464566927
        },
        {
          "duration": 0.10729166666666856,
          "durationTicks": 206,
          "midi": 60,
          "name": "C4",
          "ticks": 61058,
          "time": 31.801041666666666,
          "velocity": 0.4094488188976378
        },
        {
          "duration": 0.1947916666666636,
          "durationTicks": 374,
          "midi": 69,
          "name": "A4",
          "ticks": 61250,
          "time": 31.901041666666668,
          "velocity": 0.49606299212598426
        },
        {
          "duration": 0.1609374999999993,
          "durationTicks": 309,
          "midi": 65,
          "name": "F4",
          "ticks": 61271,
          "time": 31.911979166666665,
          "velocity": 0.5118110236220472
        },
        {
          "duration": 0.1489583333333293,
          "durationTicks": 286,
          "midi": 72,
          "name": "C5",
          "ticks": 61279,
          "time": 31.916145833333335,
          "velocity": 0.48031496062992124
        },
        {
          "duration": 0.16093750000000284,
          "durationTicks": 309,
          "midi": 53,
          "name": "F3",
          "ticks": 61686,
          "time": 32.128125,
          "velocity": 0.44881889763779526
        },
        {
          "duration": 0.11927083333333854,
          "durationTicks": 229,
          "midi": 60,
          "name": "C4",
          "ticks": 61701,
          "time": 32.1359375,
          "velocity": 0.44881889763779526
        },
        {
          "duration": 0.1458333333333357,
          "durationTicks": 280,
          "midi": 53,
          "name": "F3",
          "ticks": 62556,
          "time": 32.58125,
          "velocity": 0.44881889763779526
        },
        {
          "duration": 0.11406249999999574,
          "durationTicks": 219,
          "midi": 60,
          "name": "C4",
          "ticks": 62559,
          "time": 32.5828125,
          "velocity": 0.4566929133858268
        },
        {
          "duration": 0.16979166666666856,
          "durationTicks": 326,
          "midi": 69,
          "name": "A4",
          "ticks": 62959,
          "time": 32.79114583333333,
          "velocity": 0.5118110236220472
        },
        {
          "duration": 0.15625,
          "durationTicks": 300,
          "midi": 72,
          "name": "C5",
          "ticks": 62972,
          "time": 32.797916666666666,
          "velocity": 0.49606299212598426
        },
        {
          "duration": 0.13906250000000142,
          "durationTicks": 267,
          "midi": 65,
          "name": "F4",
          "ticks": 62972,
          "time": 32.797916666666666,
          "velocity": 0.49606299212598426
        },
        {
          "duration": 0.12395833333333428,
          "durationTicks": 238,
          "midi": 55,
          "name": "G3",
          "ticks": 63827,
          "time": 33.243229166666666,
          "velocity": 0.47244094488188976
        },
        {
          "duration": 0.09791666666666998,
          "durationTicks": 188,
          "midi": 62,
          "name": "D4",
          "ticks": 63842,
          "time": 33.251041666666666,
          "velocity": 0.4330708661417323
        },
        {
          "duration": 0.12187500000000284,
          "durationTicks": 234,
          "midi": 55,
          "name": "G3",
          "ticks": 64456,
          "time": 33.57083333333333,
          "velocity": 0.47244094488188976
        },
        {
          "duration": 0.078125,
          "durationTicks": 150,
          "midi": 62,
          "name": "D4",
          "ticks": 64479,
          "time": 33.5828125,
          "velocity": 0.4330708661417323
        },
        {
          "duration": 0.17812499999999432,
          "durationTicks": 342,
          "midi": 71,
          "name": "B4",
          "ticks": 64673,
          "time": 33.68385416666667,
          "velocity": 0.5118110236220472
        },
        {
          "duration": 0.1640625,
          "durationTicks": 315,
          "midi": 67,
          "name": "G4",
          "ticks": 64687,
          "time": 33.69114583333333,
          "velocity": 0.48031496062992124
        },
        {
          "duration": 0.14739583333333428,
          "durationTicks": 283,
          "midi": 74,
          "name": "D5",
          "ticks": 64696,
          "time": 33.69583333333333,
          "velocity": 0.44881889763779526
        },
        {
          "duration": 0.12135416666666998,
          "durationTicks": 233,
          "midi": 55,
          "name": "G3",
          "ticks": 65180,
          "time": 33.947916666666664,
          "velocity": 0.4566929133858268
        },
        {
          "duration": 0.08125000000000426,
          "durationTicks": 156,
          "midi": 62,
          "name": "D4",
          "ticks": 65209,
          "time": 33.96302083333333,
          "velocity": 0.41732283464566927
        },
        {
          "duration": 0.125,
          "durationTicks": 240,
          "midi": 55,
          "name": "G3",
          "ticks": 66015,
          "time": 34.3828125,
          "velocity": 0.49606299212598426
        },
        {
          "duration": 0.1197916666666643,
          "durationTicks": 230,
          "midi": 62,
          "name": "D4",
          "ticks": 66027,
          "time": 34.3890625,
          "velocity": 0.4566929133858268
        },
        {
          "duration": 0.14479166666666998,
          "durationTicks": 278,
          "midi": 71,
          "name": "B4",
          "ticks": 66436,
          "time": 34.60208333333333,
          "velocity": 0.5196850393700787
        },
        {
          "duration": 0.11510416666666856,
          "durationTicks": 221,
          "midi": 67,
          "name": "G4",
          "ticks": 66453,
          "time": 34.6109375,
          "velocity": 0.48031496062992124
        },
        {
          "duration": 0.13593749999999716,
          "durationTicks": 261,
          "midi": 74,
          "name": "D5",
          "ticks": 66474,
          "time": 34.621875,
          "velocity": 0.4566929133858268
        },
        {
          "duration": 0.11093750000000568,
          "durationTicks": 213,
          "midi": 76,
          "name": "E5",
          "ticks": 67296,
          "time": 35.05,
          "velocity": 0.5196850393700787
        },
        {
          "duration": 0.11562500000000142,
          "durationTicks": 222,
          "midi": 72,
          "name": "C5",
          "ticks": 67302,
          "time": 35.053125,
          "velocity": 0.5118110236220472
        },
        {
          "duration": 0.11406250000000284,
          "durationTicks": 219,
          "midi": 67,
          "name": "G4",
          "ticks": 67321,
          "time": 35.06302083333333,
          "velocity": 0.48031496062992124
        },
        {
          "duration": 0.09479166666666572,
          "durationTicks": 182,
          "midi": 60,
          "name": "C4",
          "ticks": 67331,
          "time": 35.06822916666667,
          "velocity": 0.48031496062992124
        },
        {
          "duration": 0.51927083333333,
          "durationTicks": 997,
          "midi": 76,
          "name": "E5",
          "ticks": 68154,
          "time": 35.496875,
          "velocity": 0.5196850393700787
        },
        {
          "duration": 0.12916666666666288,
          "durationTicks": 248,
          "midi": 67,
          "name": "G4",
          "ticks": 68171,
          "time": 35.50572916666667,
          "velocity": 0.4566929133858268
        },
        {
          "duration": 0.14218749999999858,
          "durationTicks": 273,
          "midi": 60,
          "name": "C4",
          "ticks": 68171,
          "time": 35.50572916666667,
          "velocity": 0.48031496062992124
        },
        {
          "duration": 0.5171874999999986,
          "durationTicks": 993,
          "midi": 77,
          "name": "F5",
          "ticks": 69039,
          "time": 35.9578125,
          "velocity": 0.5196850393700787
        },
        {
          "duration": 0.1510416666666643,
          "durationTicks": 290,
          "midi": 60,
          "name": "C4",
          "ticks": 69053,
          "time": 35.96510416666667,
          "velocity": 0.48031496062992124
        },
        {
          "duration": 0.13072916666666146,
          "durationTicks": 251,
          "midi": 67,
          "name": "G4",
          "ticks": 69055,
          "time": 35.966145833333336,
          "velocity": 0.44881889763779526
        },
        {
          "duration": 0.1119791666666643,
          "durationTicks": 215,
          "midi": 60,
          "name": "C4",
          "ticks": 69909,
          "time": 36.4109375,
          "velocity": 0.49606299212598426
        },
        {
          "duration": 0.2671874999999986,
          "durationTicks": 513,
          "midi": 79,
          "name": "G5",
          "ticks": 69911,
          "time": 36.41197916666667,
          "velocity": 0.49606299212598426
        },
        {
          "duration": 0.0911458333333357,
          "durationTicks": 175,
          "midi": 67,
          "name": "G4",
          "ticks": 69913,
          "time": 36.413020833333334,
          "velocity": 0.44881889763779526
        },
        {
          "duration": 0.1145833333333357,
          "durationTicks": 220,
          "midi": 69,
          "name": "A4",
          "ticks": 70787,
          "time": 36.868229166666666,
          "velocity": 0.48031496062992124
        },
        {
          "duration": 0.10781250000000142,
          "durationTicks": 207,
          "midi": 72,
          "name": "C5",
          "ticks": 70791,
          "time": 36.8703125,
          "velocity": 0.49606299212598426
        },
        {
          "duration": 0.12708333333333144,
          "durationTicks": 244,
          "midi": 57,
          "name": "A3",
          "ticks": 70817,
          "time": 36.883854166666666,
          "velocity": 0.48031496062992124
        },
        {
          "duration": 0.09270833333333428,
          "durationTicks": 178,
          "midi": 64,
          "name": "E4",
          "ticks": 70833,
          "time": 36.8921875,
          "velocity": 0.48031496062992124
        },
        {
          "duration": 0.20416666666666572,
          "durationTicks": 392,
          "midi": 72,
          "name": "C5",
          "ticks": 71178,
          "time": 37.071875,
          "velocity": 0.4015748031496063
        },
        {
          "duration": 0.16718749999999716,
          "durationTicks": 321,
          "midi": 74,
          "name": "D5",
          "ticks": 71654,
          "time": 37.31979166666667,
          "velocity": 0.48031496062992124
        },
        {
          "duration": 0.1328125,
          "durationTicks": 255,
          "midi": 57,
          "name": "A3",
          "ticks": 71701,
          "time": 37.34427083333333,
          "velocity": 0.48031496062992124
        },
        {
          "duration": 0.10208333333333286,
          "durationTicks": 196,
          "midi": 64,
          "name": "E4",
          "ticks": 71718,
          "time": 37.353125,
          "velocity": 0.47244094488188976
        },
        {
          "duration": 0.23489583333333286,
          "durationTicks": 451,
          "midi": 76,
          "name": "E5",
          "ticks": 72017,
          "time": 37.508854166666666,
          "velocity": 0.44881889763779526
        },
        {
          "duration": 0.1692708333333286,
          "durationTicks": 325,
          "midi": 57,
          "name": "A3",
          "ticks": 72549,
          "time": 37.7859375,
          "velocity": 0.47244094488188976
        },
        {
          "duration": 0.5057291666666686,
          "durationTicks": 971,
          "midi": 74,
          "name": "D5",
          "ticks": 72557,
          "time": 37.790104166666666,
          "velocity": 0.49606299212598426
        },
        {
          "duration": 0.12083333333333002,
          "durationTicks": 232,
          "midi": 64,
          "name": "E4",
          "ticks": 72565,
          "time": 37.794270833333336,
          "velocity": 0.44881889763779526
        },
        {
          "duration": 0.10104166666666714,
          "durationTicks": 194,
          "midi": 72,
          "name": "C5",
          "ticks": 73419,
          "time": 38.2390625,
          "velocity": 0.5196850393700787
        },
        {
          "duration": 0.11093749999999858,
          "durationTicks": 213,
          "midi": 57,
          "name": "A3",
          "ticks": 73436,
          "time": 38.24791666666667,
          "velocity": 0.47244094488188976
        },
        {
          "duration": 0.07239583333333144,
          "durationTicks": 139,
          "midi": 64,
          "name": "E4",
          "ticks": 73438,
          "time": 38.248958333333334,
          "velocity": 0.4566929133858268
        },
        {
          "duration": 0.10000000000000142,
          "durationTicks": 192,
          "midi": 69,
          "name": "A4",
          "ticks": 74262,
          "time": 38.678125,
          "velocity": 0.49606299212598426
        },
        {
          "duration": 0.0833333333333357,
          "durationTicks": 160,
          "midi": 65,
          "name": "F4",
          "ticks": 74271,
          "time": 38.6828125,
          "velocity": 0.44881889763779526
        },
        {
          "duration": 0.11822916666666572,
          "durationTicks": 227,
          "midi": 53,
          "name": "F3",
          "ticks": 74306,
          "time": 38.70104166666667,
          "velocity": 0.47244094488188976
        },
        {
          "duration": 0.07708333333333428,
          "durationTicks": 148,
          "midi": 60,
          "name": "C4",
          "ticks": 74315,
          "time": 38.705729166666664,
          "velocity": 0.4566929133858268
        },
        {
          "duration": 0.23593749999999858,
          "durationTicks": 453,
          "midi": 69,
          "name": "A4",
          "ticks": 74654,
          "time": 38.88229166666667,
          "velocity": 0.4015748031496063
        },
        {
          "duration": 0.2083333333333357,
          "durationTicks": 400,
          "midi": 71,
          "name": "B4",
          "ticks": 75133,
          "time": 39.131770833333334,
          "velocity": 0.49606299212598426
        },
        {
          "duration": 0.109375,
          "durationTicks": 210,
          "midi": 60,
          "name": "C4",
          "ticks": 75158,
          "time": 39.14479166666667,
          "velocity": 0.44881889763779526
        },
        {
          "duration": 0.12552083333333286,
          "durationTicks": 241,
          "midi": 53,
          "name": "F3",
          "ticks": 75158,
          "time": 39.14479166666667,
          "velocity": 0.4409448818897638
        },
        {
          "duration": 0.24791666666666146,
          "durationTicks": 476,
          "midi": 72,
          "name": "C5",
          "ticks": 75521,
          "time": 39.33385416666667,
          "velocity": 0.48031496062992124
        },
        {
          "duration": 0.15520833333333428,
          "durationTicks": 298,
          "midi": 53,
          "name": "F3",
          "ticks": 75972,
          "time": 39.56875,
          "velocity": 0.4566929133858268
        },
        {
          "duration": 0.5249999999999986,
          "durationTicks": 1008,
          "midi": 71,
          "name": "B4",
          "ticks": 75992,
          "time": 39.579166666666666,
          "velocity": 0.4566929133858268
        },
        {
          "duration": 0.125,
          "durationTicks": 240,
          "midi": 60,
          "name": "C4",
          "ticks": 75996,
          "time": 39.58125,
          "velocity": 0.44881889763779526
        },
        {
          "duration": 0.13072916666666856,
          "durationTicks": 251,
          "midi": 69,
          "name": "A4",
          "ticks": 76850,
          "time": 40.026041666666664,
          "velocity": 0.49606299212598426
        },
        {
          "duration": 0.1197916666666643,
          "durationTicks": 230,
          "midi": 53,
          "name": "F3",
          "ticks": 76856,
          "time": 40.02916666666667,
          "velocity": 0.47244094488188976
        },
        {
          "duration": 0.1041666666666643,
          "durationTicks": 200,
          "midi": 60,
          "name": "C4",
          "ticks": 76873,
          "time": 40.038020833333334,
          "velocity": 0.47244094488188976
        },
        {
          "duration": 0.12083333333333712,
          "durationTicks": 232,
          "midi": 67,
          "name": "G4",
          "ticks": 77672,
          "time": 40.454166666666666,
          "velocity": 0.49606299212598426
        },
        {
          "duration": 0.09427083333333286,
          "durationTicks": 181,
          "midi": 71,
          "name": "B4",
          "ticks": 77687,
          "time": 40.461979166666666,
          "velocity": 0.4251968503937008
        },
        {
          "duration": 0.10208333333333286,
          "durationTicks": 196,
          "midi": 62,
          "name": "D4",
          "ticks": 77714,
          "time": 40.47604166666667,
          "velocity": 0.4409448818897638
        },
        {
          "duration": 0.10781250000000142,
          "durationTicks": 207,
          "midi": 55,
          "name": "G3",
          "ticks": 77720,
          "time": 40.479166666666664,
          "velocity": 0.44881889763779526
        },
        {
          "duration": 0.23125000000000284,
          "durationTicks": 444,
          "midi": 71,
          "name": "B4",
          "ticks": 78044,
          "time": 40.64791666666667,
          "velocity": 0.4251968503937008
        },
        {
          "duration": 0.2526041666666714,
          "durationTicks": 485,
          "midi": 72,
          "name": "C5",
          "ticks": 78513,
          "time": 40.8921875,
          "velocity": 0.47244094488188976
        },
        {
          "duration": 0.1510416666666714,
          "durationTicks": 290,
          "midi": 55,
          "name": "G3",
          "ticks": 78545,
          "time": 40.908854166666664,
          "velocity": 0.48031496062992124
        },
        {
          "duration": 0.12864583333333712,
          "durationTicks": 247,
          "midi": 62,
          "name": "D4",
          "ticks": 78559,
          "time": 40.91614583333333,
          "velocity": 0.4566929133858268
        },
        {
          "duration": 0.22708333333333286,
          "durationTicks": 436,
          "midi": 74,
          "name": "D5",
          "ticks": 78939,
          "time": 41.1140625,
          "velocity": 0.5118110236220472
        },
        {
          "duration": 0.5249999999999986,
          "durationTicks": 1008,
          "midi": 72,
          "name": "C5",
          "ticks": 79384,
          "time": 41.34583333333333,
          "velocity": 0.44881889763779526
        },
        {
          "duration": 0.12916666666666288,
          "durationTicks": 248,
          "midi": 55,
          "name": "G3",
          "ticks": 79390,
          "time": 41.348958333333336,
          "velocity": 0.49606299212598426
        },
        {
          "duration": 0.08645833333333286,
          "durationTicks": 166,
          "midi": 62,
          "name": "D4",
          "ticks": 79408,
          "time": 41.358333333333334,
          "velocity": 0.47244094488188976
        },
        {
          "duration": 0.1041666666666643,
          "durationTicks": 200,
          "midi": 71,
          "name": "B4",
          "ticks": 80260,
          "time": 41.802083333333336,
          "velocity": 0.5118110236220472
        },
        {
          "duration": 0.13177083333333428,
          "durationTicks": 253,
          "midi": 48,
          "name": "C3",
          "ticks": 81080,
          "time": 42.229166666666664,
          "velocity": 0.47244094488188976
        },
        {
          "duration": 0.21822916666666714,
          "durationTicks": 419,
          "midi": 72,
          "name": "C5",
          "ticks": 81095,
          "time": 42.236979166666664,
          "velocity": 0.5669291338582677
        },
        {
          "duration": 0.1119791666666714,
          "durationTicks": 215,
          "midi": 55,
          "name": "G3",
          "ticks": 81097,
          "time": 42.23802083333333,
          "velocity": 0.44881889763779526
        },
        {
          "duration": 0.1197916666666643,
          "durationTicks": 230,
          "midi": 72,
          "name": "C5",
          "ticks": 81913,
          "time": 42.663020833333334,
          "velocity": 0.48031496062992124
        },
        {
          "duration": 0.13437499999999858,
          "durationTicks": 258,
          "midi": 48,
          "name": "C3",
          "ticks": 81926,
          "time": 42.66979166666667,
          "velocity": 0.4566929133858268
        },
        {
          "duration": 0.09270833333333428,
          "durationTicks": 178,
          "midi": 55,
          "name": "G3",
          "ticks": 81940,
          "time": 42.677083333333336,
          "velocity": 0.44881889763779526
        },
        {
          "duration": 0.11874999999999858,
          "durationTicks": 228,
          "midi": 72,
          "name": "C5",
          "ticks": 82345,
          "time": 42.888020833333336,
          "velocity": 0.41732283464566927
        },
        {
          "duration": 0.1302083333333357,
          "durationTicks": 250,
          "midi": 48,
          "name": "C3",
          "ticks": 82815,
          "time": 43.1328125,
          "velocity": 0.44881889763779526
        },
        {
          "duration": 0.10625000000000284,
          "durationTicks": 204,
          "midi": 72,
          "name": "C5",
          "ticks": 82815,
          "time": 43.1328125,
          "velocity": 0.4409448818897638
        },
        {
          "duration": 0.09479166666666572,
          "durationTicks": 182,
          "midi": 55,
          "name": "G3",
          "ticks": 82833,
          "time": 43.1421875,
          "velocity": 0.4330708661417323
        },
        {
          "duration": 0.12083333333333002,
          "durationTicks": 232,
          "midi": 72,
          "name": "C5",
          "ticks": 83215,
          "time": 43.341145833333336,
          "velocity": 0.4094488188976378
        },
        {
          "duration": 0.1276041666666643,
          "durationTicks": 245,
          "midi": 48,
          "name": "C3",
          "ticks": 83701,
          "time": 43.59427083333333,
          "velocity": 0.44881889763779526
        },
        {
          "duration": 0.1119791666666714,
          "durationTicks": 215,
          "midi": 72,
          "name": "C5",
          "ticks": 83704,
          "time": 43.59583333333333,
          "velocity": 0.44881889763779526
        },
        {
          "duration": 0.10312499999999858,
          "durationTicks": 198,
          "midi": 55,
          "name": "G3",
          "ticks": 83708,
          "time": 43.59791666666667,
          "velocity": 0.44881889763779526
        },
        {
          "duration": 0.15416666666666856,
          "durationTicks": 296,
          "midi": 72,
          "name": "C5",
          "ticks": 84096,
          "time": 43.8,
          "velocity": 0.3937007874015748
        },
        {
          "duration": 0.45885416666666146,
          "durationTicks": 881,
          "midi": 76,
          "name": "E5",
          "ticks": 84536,
          "time": 44.02916666666667,
          "velocity": 0.5196850393700787
        },
        {
          "duration": 0.15312499999999574,
          "durationTicks": 294,
          "midi": 48,
          "name": "C3",
          "ticks": 84551,
          "time": 44.03697916666667,
          "velocity": 0.47244094488188976
        },
        {
          "duration": 0.125,
          "durationTicks": 240,
          "midi": 55,
          "name": "G3",
          "ticks": 84557,
          "time": 44.040104166666666,
          "velocity": 0.44881889763779526
        },
        {
          "duration": 0.5119791666666629,
          "durationTicks": 983,
          "midi": 77,
          "name": "F5",
          "ticks": 85363,
          "time": 44.459895833333334,
          "velocity": 0.49606299212598426
        },
        {
          "duration": 0.15416666666666856,
          "durationTicks": 296,
          "midi": 48,
          "name": "C3",
          "ticks": 85392,
          "time": 44.475,
          "velocity": 0.48031496062992124
        },
        {
          "duration": 0.09791666666666288,
          "durationTicks": 188,
          "midi": 55,
          "name": "G3",
          "ticks": 85423,
          "time": 44.491145833333334,
          "velocity": 0.44881889763779526
        },
        {
          "duration": 0.12916666666666288,
          "durationTicks": 248,
          "midi": 48,
          "name": "C3",
          "ticks": 86277,
          "time": 44.9359375,
          "velocity": 0.44881889763779526
        },
        {
          "duration": 0.45781250000000284,
          "durationTicks": 879,
          "midi": 76,
          "name": "E5",
          "ticks": 86283,
          "time": 44.9390625,
          "velocity": 0.49606299212598426
        },
        {
          "duration": 0.09583333333333144,
          "durationTicks": 184,
          "midi": 55,
          "name": "G3",
          "ticks": 86312,
          "time": 44.954166666666666,
          "velocity": 0.4094488188976378
        },
        {
          "duration": 0.14687500000000142,
          "durationTicks": 282,
          "midi": 48,
          "name": "C3",
          "ticks": 87124,
          "time": 45.37708333333333,
          "velocity": 0.4566929133858268
        },
        {
          "duration": 0.4739583333333357,
          "durationTicks": 910,
          "midi": 72,
          "name": "C5",
          "ticks": 87126,
          "time": 45.378125,
          "velocity": 0.48031496062992124
        },
        {
          "duration": 0.11406249999999574,
          "durationTicks": 219,
          "midi": 55,
          "name": "G3",
          "ticks": 87145,
          "time": 45.388020833333336,
          "velocity": 0.44881889763779526
        },
        {
          "duration": 0.12812499999999716,
          "durationTicks": 246,
          "midi": 48,
          "name": "C3",
          "ticks": 87940,
          "time": 45.802083333333336,
          "velocity": 0.47244094488188976
        },
        {
          "duration": 0.09687499999999716,
          "durationTicks": 186,
          "midi": 55,
          "name": "G3",
          "ticks": 87957,
          "time": 45.8109375,
          "velocity": 0.44881889763779526
        },
        {
          "duration": 0.23802083333333712,
          "durationTicks": 457,
          "midi": 76,
          "name": "E5",
          "ticks": 87963,
          "time": 45.8140625,
          "velocity": 0.5196850393700787
        },
        {
          "duration": 0.10000000000000142,
          "durationTicks": 192,
          "midi": 72,
          "name": "C5",
          "ticks": 88766,
          "time": 46.23229166666667,
          "velocity": 0.4566929133858268
        },
        {
          "duration": 0.12708333333333144,
          "durationTicks": 244,
          "midi": 48,
          "name": "C3",
          "ticks": 88781,
          "time": 46.24010416666667,
          "velocity": 0.4566929133858268
        },
        {
          "duration": 0.06093750000000142,
          "durationTicks": 117,
          "midi": 55,
          "name": "G3",
          "ticks": 88802,
          "time": 46.251041666666666,
          "velocity": 0.41732283464566927
        },
        {
          "duration": 0.11093749999999858,
          "durationTicks": 213,
          "midi": 72,
          "name": "C5",
          "ticks": 89142,
          "time": 46.428125,
          "velocity": 0.3937007874015748
        },
        {
          "duration": 0.10572916666666288,
          "durationTicks": 203,
          "midi": 72,
          "name": "C5",
          "ticks": 89605,
          "time": 46.669270833333336,
          "velocity": 0.4409448818897638
        },
        {
          "duration": 0.12604166666666572,
          "durationTicks": 242,
          "midi": 48,
          "name": "C3",
          "ticks": 89633,
          "time": 46.68385416666667,
          "velocity": 0.4566929133858268
        },
        {
          "duration": 0.07135416666666572,
          "durationTicks": 137,
          "midi": 55,
          "name": "G3",
          "ticks": 89658,
          "time": 46.696875,
          "velocity": 0.41732283464566927
        },
        {
          "duration": 0.16197916666666856,
          "durationTicks": 311,
          "midi": 72,
          "name": "C5",
          "ticks": 90006,
          "time": 46.878125,
          "velocity": 0.3937007874015748
        },
        {
          "duration": 0.10312499999999858,
          "durationTicks": 198,
          "midi": 72,
          "name": "C5",
          "ticks": 90484,
          "time": 47.12708333333333,
          "velocity": 0.48031496062992124
        },
        {
          "duration": 0.08020833333333144,
          "durationTicks": 154,
          "midi": 55,
          "name": "G3",
          "ticks": 90505,
          "time": 47.138020833333336,
          "velocity": 0.4409448818897638
        },
        {
          "duration": 0.08229166666666288,
          "durationTicks": 158,
          "midi": 48,
          "name": "C3",
          "ticks": 90520,
          "time": 47.145833333333336,
          "velocity": 0.4094488188976378
        },
        {
          "duration": 0.14895833333333286,
          "durationTicks": 286,
          "midi": 72,
          "name": "C5",
          "ticks": 90841,
          "time": 47.31302083333333,
          "velocity": 0.4094488188976378
        },
        {
          "duration": 0.421875,
          "durationTicks": 810,
          "midi": 76,
          "name": "E5",
          "ticks": 91304,
          "time": 47.55416666666667,
          "velocity": 0.48031496062992124
        },
        {
          "duration": 0.1328125,
          "durationTicks": 255,
          "midi": 48,
          "name": "C3",
          "ticks": 91323,
          "time": 47.5640625,
          "velocity": 0.4566929133858268
        },
        {
          "duration": 0.09322916666666714,
          "durationTicks": 179,
          "midi": 55,
          "name": "G3",
          "ticks": 91348,
          "time": 47.577083333333334,
          "velocity": 0.4330708661417323
        },
        {
          "duration": 0.46510416666667,
          "durationTicks": 893,
          "midi": 72,
          "name": "C5",
          "ticks": 92118,
          "time": 47.978125,
          "velocity": 0.4566929133858268
        },
        {
          "duration": 0.13593749999999716,
          "durationTicks": 261,
          "midi": 48,
          "name": "C3",
          "ticks": 92141,
          "time": 47.99010416666667,
          "velocity": 0.44881889763779526
        },
        {
          "duration": 0.10885416666666714,
          "durationTicks": 209,
          "midi": 55,
          "name": "G3",
          "ticks": 92158,
          "time": 47.998958333333334,
          "velocity": 0.4409448818897638
        },
        {
          "duration": 0.07708333333333428,
          "durationTicks": 148,
          "midi": 48,
          "name": "C3",
          "ticks": 92974,
          "time": 48.42395833333333,
          "velocity": 0.44881889763779526
        },
        {
          "duration": 0.44322916666666146,
          "durationTicks": 851,
          "midi": 76,
          "name": "E5",
          "ticks": 92993,
          "time": 48.43385416666667,
          "velocity": 0.48031496062992124
        },
        {
          "duration": 0.06927083333333428,
          "durationTicks": 133,
          "midi": 55,
          "name": "G3",
          "ticks": 92997,
          "time": 48.4359375,
          "velocity": 0.4330708661417323
        },
        {
          "duration": 0.31458333333333144,
          "durationTicks": 604,
          "midi": 72,
          "name": "C5",
          "ticks": 93806,
          "time": 48.85729166666667,
          "velocity": 0.48031496062992124
        },
        {
          "duration": 0.14375000000000426,
          "durationTicks": 276,
          "midi": 72,
          "name": "C5",
          "ticks": 94593,
          "time": 49.2671875,
          "velocity": 0.44881889763779526
        },
        {
          "duration": 0.078125,
          "durationTicks": 150,
          "midi": 76,
          "name": "E5",
          "ticks": 94610,
          "time": 49.276041666666664,
          "velocity": 0.4566929133858268
        },
        {
          "duration": 0.11875000000000568,
          "durationTicks": 228,
          "midi": 60,
          "name": "C4",
          "ticks": 94610,
          "time": 49.276041666666664,
          "velocity": 0.5118110236220472
        },
        {
          "duration": 0.0729166666666714,
          "durationTicks": 140,
          "midi": 67,
          "name": "G4",
          "ticks": 94627,
          "time": 49.28489583333333,
          "velocity": 0.44881889763779526
        },
        {
          "duration": 0.22083333333333144,
          "durationTicks": 424,
          "midi": 76,
          "name": "E5",
          "ticks": 94977,
          "time": 49.4671875,
          "velocity": 0.4251968503937008
        },
        {
          "duration": 0.15937499999999716,
          "durationTicks": 306,
          "midi": 77,
          "name": "F5",
          "ticks": 95412,
          "time": 49.69375,
          "velocity": 0.47244094488188976
        },
        {
          "duration": 0.14218749999999858,
          "durationTicks": 273,
          "midi": 79,
          "name": "G5",
          "ticks": 95802,
          "time": 49.896875,
          "velocity": 0.48031496062992124
        },
        {
          "duration": 0.13125000000000142,
          "durationTicks": 252,
          "midi": 69,
          "name": "A4",
          "ticks": 96259,
          "time": 50.13489583333333,
          "velocity": 0.49606299212598426
        },
        {
          "duration": 0.4151041666666657,
          "durationTicks": 797,
          "midi": 77,
          "name": "F5",
          "ticks": 96263,
          "time": 50.13697916666667,
          "velocity": 0.5118110236220472
        },
        {
          "duration": 0.1119791666666714,
          "durationTicks": 215,
          "midi": 65,
          "name": "F4",
          "ticks": 96290,
          "time": 50.151041666666664,
          "velocity": 0.41732283464566927
        },
        {
          "duration": 0.09166666666666146,
          "durationTicks": 176,
          "midi": 60,
          "name": "C4",
          "ticks": 96296,
          "time": 50.15416666666667,
          "velocity": 0.3858267716535433
        },
        {
          "duration": 0.34166666666666856,
          "durationTicks": 656,
          "midi": 76,
          "name": "E5",
          "ticks": 97085,
          "time": 50.565104166666664,
          "velocity": 0.48031496062992124
        },
        {
          "duration": 0.12916666666666288,
          "durationTicks": 248,
          "midi": 60,
          "name": "C4",
          "ticks": 97870,
          "time": 50.973958333333336,
          "velocity": 0.47244094488188976
        },
        {
          "duration": 0.10624999999999574,
          "durationTicks": 204,
          "midi": 76,
          "name": "E5",
          "ticks": 97872,
          "time": 50.975,
          "velocity": 0.48031496062992124
        },
        {
          "duration": 0.13906250000000142,
          "durationTicks": 267,
          "midi": 72,
          "name": "C5",
          "ticks": 97874,
          "time": 50.97604166666667,
          "velocity": 0.5118110236220472
        },
        {
          "duration": 0.11249999999999716,
          "durationTicks": 216,
          "midi": 67,
          "name": "G4",
          "ticks": 97886,
          "time": 50.98229166666667,
          "velocity": 0.49606299212598426
        },
        {
          "duration": 0.2510416666666657,
          "durationTicks": 482,
          "midi": 76,
          "name": "E5",
          "ticks": 98243,
          "time": 51.16822916666667,
          "velocity": 0.41732283464566927
        },
        {
          "duration": 0.16510416666666572,
          "durationTicks": 317,
          "midi": 77,
          "name": "F5",
          "ticks": 98726,
          "time": 51.41979166666667,
          "velocity": 0.47244094488188976
        },
        {
          "duration": 0.12708333333333854,
          "durationTicks": 244,
          "midi": 79,
          "name": "G5",
          "ticks": 99097,
          "time": 51.61302083333333,
          "velocity": 0.48031496062992124
        },
        {
          "duration": 0.41979166666666856,
          "durationTicks": 806,
          "midi": 79,
          "name": "G5",
          "ticks": 99554,
          "time": 51.85104166666667,
          "velocity": 0.44881889763779526
        },
        {
          "duration": 0.4781249999999986,
          "durationTicks": 918,
          "midi": 71,
          "name": "B4",
          "ticks": 99565,
          "time": 51.856770833333336,
          "velocity": 0.5118110236220472
        },
        {
          "duration": 0.4989583333333272,
          "durationTicks": 958,
          "midi": 67,
          "name": "G4",
          "ticks": 99594,
          "time": 51.871875,
          "velocity": 0.4251968503937008
        },
        {
          "duration": 0.15625,
          "durationTicks": 300,
          "midi": 60,
          "name": "C4",
          "ticks": 101174,
          "time": 52.69479166666667,
          "velocity": 0.48031496062992124
        },
        {
          "duration": 0.14895833333333286,
          "durationTicks": 286,
          "midi": 72,
          "name": "C5",
          "ticks": 101176,
          "time": 52.69583333333333,
          "velocity": 0.49606299212598426
        },
        {
          "duration": 0.13072916666666146,
          "durationTicks": 251,
          "midi": 67,
          "name": "G4",
          "ticks": 101186,
          "time": 52.70104166666667,
          "velocity": 0.5118110236220472
        },
        {
          "duration": 0.06875000000000142,
          "durationTicks": 132,
          "midi": 76,
          "name": "E5",
          "ticks": 101188,
          "time": 52.702083333333334,
          "velocity": 0.44881889763779526
        },
        {
          "duration": 0.1510416666666643,
          "durationTicks": 290,
          "midi": 79,
          "name": "G5",
          "ticks": 101203,
          "time": 52.709895833333334,
          "velocity": 0.4251968503937008
        },
        {
          "duration": 0.2723958333333343,
          "durationTicks": 523,
          "midi": 76,
          "name": "E5",
          "ticks": 101560,
          "time": 52.895833333333336,
          "velocity": 0.4409448818897638
        },
        {
          "duration": 0.19114583333333002,
          "durationTicks": 367,
          "midi": 77,
          "name": "F5",
          "ticks": 102056,
          "time": 53.15416666666667,
          "velocity": 0.47244094488188976
        },
        {
          "duration": 0.2083333333333286,
          "durationTicks": 400,
          "midi": 79,
          "name": "G5",
          "ticks": 102474,
          "time": 53.371875,
          "velocity": 0.48031496062992124
        },
        {
          "duration": 0.5343749999999972,
          "durationTicks": 1026,
          "midi": 65,
          "name": "F4",
          "ticks": 102931,
          "time": 53.60989583333333,
          "velocity": 0.44881889763779526
        },
        {
          "duration": 0.3999999999999986,
          "durationTicks": 768,
          "midi": 74,
          "name": "D5",
          "ticks": 102933,
          "time": 53.6109375,
          "velocity": 0.5196850393700787
        },
        {
          "duration": 0.5651041666666714,
          "durationTicks": 1085,
          "midi": 57,
          "name": "A3",
          "ticks": 102935,
          "time": 53.611979166666664,
          "velocity": 0.3779527559055118
        },
        {
          "duration": 0.5499999999999972,
          "durationTicks": 1056,
          "midi": 62,
          "name": "D4",
          "ticks": 102945,
          "time": 53.6171875,
          "velocity": 0.44881889763779526
        },
        {
          "duration": 0.2802083333333343,
          "durationTicks": 538,
          "midi": 72,
          "name": "C5",
          "ticks": 103728,
          "time": 54.025,
          "velocity": 0.5118110236220472
        },
        {
          "duration": 0.20104166666666856,
          "durationTicks": 386,
          "midi": 69,
          "name": "A4",
          "ticks": 104567,
          "time": 54.461979166666666,
          "velocity": 0.5196850393700787
        },
        {
          "duration": 0.17812500000000142,
          "durationTicks": 342,
          "midi": 72,
          "name": "C5",
          "ticks": 104945,
          "time": 54.658854166666664,
          "velocity": 0.47244094488188976
        },
        {
          "duration": 0.18281249999999716,
          "durationTicks": 351,
          "midi": 69,
          "name": "A4",
          "ticks": 105406,
          "time": 54.89895833333333,
          "velocity": 0.4094488188976378
        },
        {
          "duration": 0.2083333333333357,
          "durationTicks": 400,
          "midi": 72,
          "name": "C5",
          "ticks": 105738,
          "time": 55.071875,
          "velocity": 0.4409448818897638
        },
        {
          "duration": 0.8057291666666657,
          "durationTicks": 1547,
          "midi": 55,
          "name": "G3",
          "ticks": 106213,
          "time": 55.319270833333334,
          "velocity": 0.44881889763779526
        },
        {
          "duration": 0.7250000000000014,
          "durationTicks": 1392,
          "midi": 62,
          "name": "D4",
          "ticks": 106226,
          "time": 55.32604166666667,
          "velocity": 0.4566929133858268
        },
        {
          "duration": 0.8489583333333357,
          "durationTicks": 1630,
          "midi": 67,
          "name": "G4",
          "ticks": 106234,
          "time": 55.33020833333333,
          "velocity": 0.5118110236220472
        },
        {
          "duration": 0.6312500000000014,
          "durationTicks": 1212,
          "midi": 64,
          "name": "E4",
          "ticks": 107856,
          "time": 56.175,
          "velocity": 0.48031496062992124
        },
        {
          "duration": 0.23802083333333002,
          "durationTicks": 457,
          "midi": 72,
          "name": "C5",
          "ticks": 107858,
          "time": 56.17604166666667,
          "velocity": 0.5118110236220472
        },
        {
          "duration": 0.6140625000000028,
          "durationTicks": 1179,
          "midi": 60,
          "name": "C4",
          "ticks": 107896,
          "time": 56.19583333333333,
          "velocity": 0.4409448818897638
        },
        {
          "duration": 0.2447916666666643,
          "durationTicks": 470,
          "midi": 74,
          "name": "D5",
          "ticks": 108240,
          "time": 56.375,
          "velocity": 0.44881889763779526
        },
        {
          "duration": 0.27708333333333,
          "durationTicks": 532,
          "midi": 76,
          "name": "E5",
          "ticks": 108728,
          "time": 56.62916666666667,
          "velocity": 0.44881889763779526
        },
        {
          "duration": 0.28177083333333286,
          "durationTicks": 541,
          "midi": 74,
          "name": "D5",
          "ticks": 109129,
          "time": 56.83802083333333,
          "velocity": 0.44881889763779526
        },
        {
          "duration": 0.4911458333333343,
          "durationTicks": 943,
          "midi": 72,
          "name": "C5",
          "ticks": 109582,
          "time": 57.07395833333333,
          "velocity": 0.48031496062992124
        },
        {
          "duration": 0.16302083333333428,
          "durationTicks": 313,
          "midi": 64,
          "name": "E4",
          "ticks": 109586,
          "time": 57.07604166666667,
          "velocity": 0.49606299212598426
        },
        {
          "duration": 0.15312499999999574,
          "durationTicks": 294,
          "midi": 60,
          "name": "C4",
          "ticks": 109603,
          "time": 57.084895833333334,
          "velocity": 0.44881889763779526
        },
        {
          "duration": 0.48906250000000284,
          "durationTicks": 939,
          "midi": 74,
          "name": "D5",
          "ticks": 110467,
          "time": 57.53489583333333,
          "velocity": 0.5196850393700787
        },
        {
          "duration": 0.18697916666666714,
          "durationTicks": 359,
          "midi": 64,
          "name": "E4",
          "ticks": 110475,
          "time": 57.5390625,
          "velocity": 0.48031496062992124
        },
        {
          "duration": 0.1901041666666643,
          "durationTicks": 365,
          "midi": 60,
          "name": "C4",
          "ticks": 110498,
          "time": 57.55104166666667,
          "velocity": 0.4566929133858268
        },
        {
          "duration": 0.14895833333333997,
          "durationTicks": 286,
          "midi": 64,
          "name": "E4",
          "ticks": 111352,
          "time": 57.99583333333333,
          "velocity": 0.47244094488188976
        },
        {
          "duration": 0.20781249999999574,
          "durationTicks": 399,
          "midi": 72,
          "name": "C5",
          "ticks": 111358,
          "time": 57.998958333333334,
          "velocity": 0.49606299212598426
        },
        {
          "duration": 0.1458333333333357,
          "durationTicks": 280,
          "midi": 60,
          "name": "C4",
          "ticks": 111366,
          "time": 58.003125,
          "velocity": 0.41732283464566927
        },
        {
          "duration": 0.22968749999999716,
          "durationTicks": 441,
          "midi": 74,
          "name": "D5",
          "ticks": 111750,
          "time": 58.203125,
          "velocity": 0.4094488188976378
        },
        {
          "duration": 0.23802083333333712,
          "durationTicks": 457,
          "midi": 76,
          "name": "E5",
          "ticks": 112218,
          "time": 58.446875,
          "velocity": 0.47244094488188976
        },
        {
          "duration": 0.14270833333333144,
          "durationTicks": 274,
          "midi": 64,
          "name": "E4",
          "ticks": 112232,
          "time": 58.454166666666666,
          "velocity": 0.48031496062992124
        },
        {
          "duration": 0.15312500000000284,
          "durationTicks": 294,
          "midi": 60,
          "name": "C4",
          "ticks": 112247,
          "time": 58.461979166666666,
          "velocity": 0.44881889763779526
        },
        {
          "duration": 0.328125,
          "durationTicks": 630,
          "midi": 74,
          "name": "D5",
          "ticks": 112646,
          "time": 58.66979166666667,
          "velocity": 0.47244094488188976
        },
        {
          "duration": 0.1588541666666643,
          "durationTicks": 305,
          "midi": 64,
          "name": "E4",
          "ticks": 113125,
          "time": 58.919270833333336,
          "velocity": 0.48031496062992124
        },
        {
          "duration": 0.49427083333333144,
          "durationTicks": 949,
          "midi": 72,
          "name": "C5",
          "ticks": 113128,
          "time": 58.920833333333334,
          "velocity": 0.47244094488188976
        },
        {
          "duration": 0.15677083333333286,
          "durationTicks": 301,
          "midi": 60,
          "name": "C4",
          "ticks": 113136,
          "time": 58.925,
          "velocity": 0.44881889763779526
        },
        {
          "duration": 0.48125000000000284,
          "durationTicks": 924,
          "midi": 74,
          "name": "D5",
          "ticks": 113977,
          "time": 59.36302083333333,
          "velocity": 0.49606299212598426
        },
        {
          "duration": 0.0989583333333286,
          "durationTicks": 190,
          "midi": 64,
          "name": "E4",
          "ticks": 113994,
          "time": 59.371875,
          "velocity": 0.5118110236220472
        },
        {
          "duration": 0.10989583333333286,
          "durationTicks": 211,
          "midi": 60,
          "name": "C4",
          "ticks": 114014,
          "time": 59.38229166666667,
          "velocity": 0.44881889763779526
        },
        {
          "duration": 0.23593749999999858,
          "durationTicks": 453,
          "midi": 76,
          "name": "E5",
          "ticks": 114897,
          "time": 59.8421875,
          "velocity": 0.47244094488188976
        },
        {
          "duration": 0.3177083333333357,
          "durationTicks": 610,
          "midi": 74,
          "name": "D5",
          "ticks": 115327,
          "time": 60.06614583333333,
          "velocity": 0.44881889763779526
        },
        {
          "duration": 0.16302083333333428,
          "durationTicks": 313,
          "midi": 48,
          "name": "C3",
          "ticks": 115761,
          "time": 60.2921875,
          "velocity": 0.4566929133858268
        },
        {
          "duration": 0.14895833333333286,
          "durationTicks": 286,
          "midi": 55,
          "name": "G3",
          "ticks": 115765,
          "time": 60.294270833333336,
          "velocity": 0.4566929133858268
        },
        {
          "duration": 0.4260416666666629,
          "durationTicks": 818,
          "midi": 72,
          "name": "C5",
          "ticks": 115784,
          "time": 60.30416666666667,
          "velocity": 0.44881889763779526
        },
        {
          "duration": 0.1979166666666714,
          "durationTicks": 380,
          "midi": 71,
          "name": "B4",
          "ticks": 116644,
          "time": 60.75208333333333,
          "velocity": 0.44881889763779526
        },
        {
          "duration": 0.14270833333333854,
          "durationTicks": 274,
          "midi": 48,
          "name": "C3",
          "ticks": 116646,
          "time": 60.753125,
          "velocity": 0.4094488188976378
        },
        {
          "duration": 0.13333333333333286,
          "durationTicks": 256,
          "midi": 55,
          "name": "G3",
          "ticks": 116653,
          "time": 60.756770833333334,
          "velocity": 0.44881889763779526
        },
        {
          "duration": 0.2630208333333357,
          "durationTicks": 505,
          "midi": 72,
          "name": "C5",
          "ticks": 117022,
          "time": 60.94895833333333,
          "velocity": 0.4566929133858268
        },
        {
          "duration": 0.4911458333333343,
          "durationTicks": 943,
          "midi": 74,
          "name": "D5",
          "ticks": 117502,
          "time": 61.19895833333333,
          "velocity": 0.47244094488188976
        },
        {
          "duration": 0.17031249999999432,
          "durationTicks": 327,
          "midi": 55,
          "name": "G3",
          "ticks": 117519,
          "time": 61.2078125,
          "velocity": 0.47244094488188976
        },
        {
          "duration": 0.16510416666666572,
          "durationTicks": 317,
          "midi": 48,
          "name": "C3",
          "ticks": 117525,
          "time": 61.2109375,
          "velocity": 0.44881889763779526
        },
        {
          "duration": 0.13489583333333144,
          "durationTicks": 259,
          "midi": 55,
          "name": "G3",
          "ticks": 118362,
          "time": 61.646875,
          "velocity": 0.44881889763779526
        },
        {
          "duration": 0.14895833333333286,
          "durationTicks": 286,
          "midi": 48,
          "name": "C3",
          "ticks": 118364,
          "time": 61.64791666666667,
          "velocity": 0.4409448818897638
        },
        {
          "duration": 0.19843749999999716,
          "durationTicks": 381,
          "midi": 76,
          "name": "E5",
          "ticks": 118408,
          "time": 61.670833333333334,
          "velocity": 0.47244094488188976
        },
        {
          "duration": 0.28697916666666856,
          "durationTicks": 551,
          "midi": 74,
          "name": "D5",
          "ticks": 118771,
          "time": 61.85989583333333,
          "velocity": 0.3779527559055118
        },
        {
          "duration": 0.140625,
          "durationTicks": 270,
          "midi": 55,
          "name": "G3",
          "ticks": 119263,
          "time": 62.116145833333334,
          "velocity": 0.41732283464566927
        },
        {
          "duration": 0.12395833333332718,
          "durationTicks": 238,
          "midi": 48,
          "name": "C3",
          "ticks": 119274,
          "time": 62.121875,
          "velocity": 0.3937007874015748
        },
        {
          "duration": 0.20624999999999716,
          "durationTicks": 396,
          "midi": 72,
          "name": "C5",
          "ticks": 119276,
          "time": 62.12291666666667,
          "velocity": 0.44881889763779526
        },
        {
          "duration": 0.23541666666666572,
          "durationTicks": 452,
          "midi": 74,
          "name": "D5",
          "ticks": 119654,
          "time": 62.31979166666667,
          "velocity": 0.41732283464566927
        },
        {
          "duration": 0.2447916666666643,
          "durationTicks": 470,
          "midi": 76,
          "name": "E5",
          "ticks": 120121,
          "time": 62.56302083333333,
          "velocity": 0.47244094488188976
        },
        {
          "duration": 0.15989583333333002,
          "durationTicks": 307,
          "midi": 48,
          "name": "C3",
          "ticks": 120133,
          "time": 62.569270833333334,
          "velocity": 0.44881889763779526
        },
        {
          "duration": 0.14791666666666714,
          "durationTicks": 284,
          "midi": 55,
          "name": "G3",
          "ticks": 120133,
          "time": 62.569270833333334,
          "velocity": 0.4566929133858268
        },
        {
          "duration": 0.31302083333333286,
          "durationTicks": 601,
          "midi": 74,
          "name": "D5",
          "ticks": 120528,
          "time": 62.775,
          "velocity": 0.44881889763779526
        },
        {
          "duration": 0.14479166666666998,
          "durationTicks": 278,
          "midi": 72,
          "name": "C5",
          "ticks": 121012,
          "time": 63.02708333333333,
          "velocity": 0.47244094488188976
        },
        {
          "duration": 0.1354166666666643,
          "durationTicks": 260,
          "midi": 48,
          "name": "C3",
          "ticks": 121029,
          "time": 63.0359375,
          "velocity": 0.4015748031496063
        },
        {
          "duration": 0.14999999999999858,
          "durationTicks": 288,
          "midi": 55,
          "name": "G3",
          "ticks": 121035,
          "time": 63.0390625,
          "velocity": 0.44881889763779526
        },
        {
          "duration": 0.15416666666666856,
          "durationTicks": 296,
          "midi": 48,
          "name": "C3",
          "ticks": 121866,
          "time": 63.471875,
          "velocity": 0.44881889763779526
        },
        {
          "duration": 0.1901041666666643,
          "durationTicks": 365,
          "midi": 84,
          "name": "C6",
          "ticks": 121868,
          "time": 63.47291666666667,
          "velocity": 0.5433070866141733
        },
        {
          "duration": 0.14895833333333286,
          "durationTicks": 286,
          "midi": 55,
          "name": "G3",
          "ticks": 121874,
          "time": 63.47604166666667,
          "velocity": 0.47244094488188976
        },
        {
          "duration": 0.1770833333333357,
          "durationTicks": 340,
          "midi": 83,
          "name": "B5",
          "ticks": 122294,
          "time": 63.69479166666667,
          "velocity": 0.4566929133858268
        },
        {
          "duration": 0.27812500000000284,
          "durationTicks": 534,
          "midi": 81,
          "name": "A5",
          "ticks": 122732,
          "time": 63.922916666666666,
          "velocity": 0.4251968503937008
        },
        {
          "duration": 0.21145833333333997,
          "durationTicks": 406,
          "midi": 79,
          "name": "G5",
          "ticks": 123135,
          "time": 64.1328125,
          "velocity": 0.4409448818897638
        },
        {
          "duration": 0.15677083333333997,
          "durationTicks": 301,
          "midi": 55,
          "name": "G3",
          "ticks": 123608,
          "time": 64.37916666666666,
          "velocity": 0.49606299212598426
        },
        {
          "duration": 0.15000000000000568,
          "durationTicks": 288,
          "midi": 48,
          "name": "C3",
          "ticks": 123612,
          "time": 64.38125,
          "velocity": 0.4566929133858268
        },
        {
          "duration": 0.20104166666666856,
          "durationTicks": 386,
          "midi": 84,
          "name": "C6",
          "ticks": 123644,
          "time": 64.39791666666666,
          "velocity": 0.5669291338582677
        },
        {
          "duration": 0.25208333333334565,
          "durationTicks": 484,
          "midi": 83,
          "name": "B5",
          "ticks": 124047,
          "time": 64.6078125,
          "velocity": 0.44881889763779526
        },
        {
          "duration": 0.3010416666666771,
          "durationTicks": 578,
          "midi": 81,
          "name": "A5",
          "ticks": 124525,
          "time": 64.85677083333333,
          "velocity": 0.44881889763779526
        },
        {
          "duration": 0.17395833333333144,
          "durationTicks": 334,
          "midi": 79,
          "name": "G5",
          "ticks": 124954,
          "time": 65.08020833333333,
          "velocity": 0.44881889763779526
        },
        {
          "duration": 0.13489583333333144,
          "durationTicks": 259,
          "midi": 48,
          "name": "C3",
          "ticks": 125328,
          "time": 65.275,
          "velocity": 0.44881889763779526
        },
        {
          "duration": 0.12187500000000284,
          "durationTicks": 234,
          "midi": 55,
          "name": "G3",
          "ticks": 125334,
          "time": 65.278125,
          "velocity": 0.48031496062992124
        },
        {
          "duration": 0.21197916666666572,
          "durationTicks": 407,
          "midi": 84,
          "name": "C6",
          "ticks": 125372,
          "time": 65.29791666666667,
          "velocity": 0.5433070866141733
        },
        {
          "duration": 0.2567708333333343,
          "durationTicks": 493,
          "midi": 83,
          "name": "B5",
          "ticks": 125772,
          "time": 65.50625,
          "velocity": 0.41732283464566927
        },
        {
          "duration": 0.25989583333333144,
          "durationTicks": 499,
          "midi": 81,
          "name": "A5",
          "ticks": 126246,
          "time": 65.753125,
          "velocity": 0.4251968503937008
        },
        {
          "duration": 0.20729166666666288,
          "durationTicks": 398,
          "midi": 79,
          "name": "G5",
          "ticks": 126641,
          "time": 65.95885416666667,
          "velocity": 0.4251968503937008
        },
        {
          "duration": 0.08958333333333712,
          "durationTicks": 172,
          "midi": 48,
          "name": "C3",
          "ticks": 127114,
          "time": 66.20520833333333,
          "velocity": 0.44881889763779526
        },
        {
          "duration": 0.10729166666666856,
          "durationTicks": 206,
          "midi": 55,
          "name": "G3",
          "ticks": 127119,
          "time": 66.2078125,
          "velocity": 0.49606299212598426
        },
        {
          "duration": 0.19687500000000568,
          "durationTicks": 378,
          "midi": 84,
          "name": "C6",
          "ticks": 127146,
          "time": 66.221875,
          "velocity": 0.5433070866141733
        },
        {
          "duration": 0.2697916666666771,
          "durationTicks": 518,
          "midi": 83,
          "name": "B5",
          "ticks": 127542,
          "time": 66.428125,
          "velocity": 0.41732283464566927
        },
        {
          "duration": 0.21510416666666288,
          "durationTicks": 413,
          "midi": 81,
          "name": "A5",
          "ticks": 128012,
          "time": 66.67291666666667,
          "velocity": 0.41732283464566927
        },
        {
          "duration": 0.13593749999999716,
          "durationTicks": 261,
          "midi": 79,
          "name": "G5",
          "ticks": 128389,
          "time": 66.86927083333333,
          "velocity": 0.4566929133858268
        },
        {
          "duration": 0.13489583333333144,
          "durationTicks": 259,
          "midi": 72,
          "name": "C5",
          "ticks": 128821,
          "time": 67.09427083333334,
          "velocity": 0.5196850393700787
        },
        {
          "duration": 0.1197916666666714,
          "durationTicks": 230,
          "midi": 60,
          "name": "C4",
          "ticks": 128832,
          "time": 67.1,
          "velocity": 0.4566929133858268
        },
        {
          "duration": 0.1302083333333428,
          "durationTicks": 250,
          "midi": 67,
          "name": "G4",
          "ticks": 128832,
          "time": 67.1,
          "velocity": 0.49606299212598426
        },
        {
          "duration": 0.13958333333333428,
          "durationTicks": 268,
          "midi": 84,
          "name": "C6",
          "ticks": 129685,
          "time": 67.54427083333333,
          "velocity": 0.5905511811023622
        },
        {
          "duration": 0.13645833333333712,
          "durationTicks": 262,
          "midi": 60,
          "name": "C4",
          "ticks": 129687,
          "time": 67.5453125,
          "velocity": 0.48031496062992124
        },
        {
          "duration": 0.12395833333333428,
          "durationTicks": 238,
          "midi": 67,
          "name": "G4",
          "ticks": 129698,
          "time": 67.55104166666666,
          "velocity": 0.49606299212598426
        },
        {
          "duration": 0.14218749999999147,
          "durationTicks": 273,
          "midi": 60,
          "name": "C4",
          "ticks": 130537,
          "time": 67.98802083333334,
          "velocity": 0.48031496062992124
        },
        {
          "duration": 0.10104166666666003,
          "durationTicks": 194,
          "midi": 83,
          "name": "B5",
          "ticks": 130550,
          "time": 67.99479166666667,
          "velocity": 0.47244094488188976
        },
        {
          "duration": 0.10833333333333428,
          "durationTicks": 208,
          "midi": 67,
          "name": "G4",
          "ticks": 130552,
          "time": 67.99583333333334,
          "velocity": 0.4566929133858268
        },
        {
          "duration": 0.13906249999999432,
          "durationTicks": 267,
          "midi": 81,
          "name": "A5",
          "ticks": 130938,
          "time": 68.196875,
          "velocity": 0.44881889763779526
        },
        {
          "duration": 0.09999999999999432,
          "durationTicks": 192,
          "midi": 79,
          "name": "G5",
          "ticks": 131426,
          "time": 68.45104166666667,
          "velocity": 0.5433070866141733
        },
        {
          "duration": 0.11093750000000568,
          "durationTicks": 213,
          "midi": 60,
          "name": "C4",
          "ticks": 131434,
          "time": 68.45520833333333,
          "velocity": 0.4566929133858268
        },
        {
          "duration": 0.109375,
          "durationTicks": 210,
          "midi": 67,
          "name": "G4",
          "ticks": 131443,
          "time": 68.45989583333333,
          "velocity": 0.48031496062992124
        },
        {
          "duration": 0.1369791666666771,
          "durationTicks": 263,
          "midi": 72,
          "name": "C5",
          "ticks": 132267,
          "time": 68.8890625,
          "velocity": 0.5196850393700787
        },
        {
          "duration": 0.12187500000000284,
          "durationTicks": 234,
          "midi": 60,
          "name": "C4",
          "ticks": 132292,
          "time": 68.90208333333334,
          "velocity": 0.4566929133858268
        },
        {
          "duration": 0.12083333333333712,
          "durationTicks": 232,
          "midi": 67,
          "name": "G4",
          "ticks": 132294,
          "time": 68.903125,
          "velocity": 0.49606299212598426
        },
        {
          "duration": 0.11302083333332291,
          "durationTicks": 217,
          "midi": 60,
          "name": "C4",
          "ticks": 133102,
          "time": 69.32395833333334,
          "velocity": 0.44881889763779526
        },
        {
          "duration": 0.19687499999999147,
          "durationTicks": 378,
          "midi": 84,
          "name": "C6",
          "ticks": 133102,
          "time": 69.32395833333334,
          "velocity": 0.5433070866141733
        },
        {
          "duration": 0.1119791666666714,
          "durationTicks": 215,
          "midi": 67,
          "name": "G4",
          "ticks": 133108,
          "time": 69.32708333333333,
          "velocity": 0.49606299212598426
        },
        {
          "duration": 0.10989583333333997,
          "durationTicks": 211,
          "midi": 60,
          "name": "C4",
          "ticks": 133930,
          "time": 69.75520833333333,
          "velocity": 0.44881889763779526
        },
        {
          "duration": 0.12343749999999432,
          "durationTicks": 237,
          "midi": 67,
          "name": "G4",
          "ticks": 133937,
          "time": 69.75885416666667,
          "velocity": 0.47244094488188976
        },
        {
          "duration": 0.14895833333333997,
          "durationTicks": 286,
          "midi": 83,
          "name": "B5",
          "ticks": 133939,
          "time": 69.75989583333333,
          "velocity": 0.49606299212598426
        },
        {
          "duration": 0.22187500000001137,
          "durationTicks": 426,
          "midi": 81,
          "name": "A5",
          "ticks": 134337,
          "time": 69.9671875,
          "velocity": 0.4566929133858268
        },
        {
          "duration": 0.10572916666666288,
          "durationTicks": 203,
          "midi": 79,
          "name": "G5",
          "ticks": 134794,
          "time": 70.20520833333333,
          "velocity": 0.5118110236220472
        },
        {
          "duration": 0.12083333333333712,
          "durationTicks": 232,
          "midi": 67,
          "name": "G4",
          "ticks": 134830,
          "time": 70.22395833333333,
          "velocity": 0.5118110236220472
        },
        {
          "duration": 0.10885416666667425,
          "durationTicks": 209,
          "midi": 60,
          "name": "C4",
          "ticks": 134834,
          "time": 70.22604166666666,
          "velocity": 0.4566929133858268
        },
        {
          "duration": 0.3317708333333371,
          "durationTicks": 637,
          "midi": 72,
          "name": "C5",
          "ticks": 135675,
          "time": 70.6640625,
          "velocity": 0.48031496062992124
        },
        {
          "duration": 0.2135416666666714,
          "durationTicks": 410,
          "midi": 84,
          "name": "C6",
          "ticks": 136525,
          "time": 71.10677083333333,
          "velocity": 0.5669291338582677
        },
        {
          "duration": 0.1458333333333286,
          "durationTicks": 280,
          "midi": 67,
          "name": "G4",
          "ticks": 136541,
          "time": 71.11510416666667,
          "velocity": 0.5196850393700787
        },
        {
          "duration": 0.13749999999998863,
          "durationTicks": 264,
          "midi": 60,
          "name": "C4",
          "ticks": 136548,
          "time": 71.11875,
          "velocity": 0.47244094488188976
        },
        {
          "duration": 0.14791666666667425,
          "durationTicks": 284,
          "midi": 60,
          "name": "C4",
          "ticks": 137399,
          "time": 71.56197916666666,
          "velocity": 0.4566929133858268
        },
        {
          "duration": 0.1380208333333286,
          "durationTicks": 265,
          "midi": 67,
          "name": "G4",
          "ticks": 137411,
          "time": 71.56822916666667,
          "velocity": 0.48031496062992124
        },
        {
          "duration": 0.16302083333332007,
          "durationTicks": 313,
          "midi": 83,
          "name": "B5",
          "ticks": 137416,
          "time": 71.57083333333334,
          "velocity": 0.5118110236220472
        },
        {
          "duration": 0.29374999999998863,
          "durationTicks": 564,
          "midi": 81,
          "name": "A5",
          "ticks": 137791,
          "time": 71.76614583333334,
          "velocity": 0.4566929133858268
        },
        {
          "duration": 0.15625,
          "durationTicks": 300,
          "midi": 60,
          "name": "C4",
          "ticks": 138265,
          "time": 72.01302083333333,
          "velocity": 0.48031496062992124
        },
        {
          "duration": 0.15208333333333712,
          "durationTicks": 292,
          "midi": 67,
          "name": "G4",
          "ticks": 138276,
          "time": 72.01875,
          "velocity": 0.5196850393700787
        },
        {
          "duration": 0.1369791666666771,
          "durationTicks": 263,
          "midi": 79,
          "name": "G5",
          "ticks": 138278,
          "time": 72.01979166666666,
          "velocity": 0.5118110236220472
        },
        {
          "duration": 0.14479166666666288,
          "durationTicks": 278,
          "midi": 72,
          "name": "C5",
          "ticks": 139112,
          "time": 72.45416666666667,
          "velocity": 0.48031496062992124
        },
        {
          "duration": 0.125,
          "durationTicks": 240,
          "midi": 67,
          "name": "G4",
          "ticks": 139133,
          "time": 72.46510416666666,
          "velocity": 0.49606299212598426
        },
        {
          "duration": 0.13177083333333428,
          "durationTicks": 253,
          "midi": 60,
          "name": "C4",
          "ticks": 139152,
          "time": 72.475,
          "velocity": 0.44881889763779526
        },
        {
          "duration": 0.14427083333333712,
          "durationTicks": 277,
          "midi": 72,
          "name": "C5",
          "ticks": 139962,
          "time": 72.896875,
          "velocity": 0.49606299212598426
        },
        {
          "duration": 0.1328125,
          "durationTicks": 255,
          "midi": 76,
          "name": "E5",
          "ticks": 139966,
          "time": 72.89895833333334,
          "velocity": 0.49606299212598426
        },
        {
          "duration": 0.12291666666666856,
          "durationTicks": 236,
          "midi": 67,
          "name": "G4",
          "ticks": 139976,
          "time": 72.90416666666667,
          "velocity": 0.49606299212598426
        },
        {
          "duration": 0.13489583333333144,
          "durationTicks": 259,
          "midi": 60,
          "name": "C4",
          "ticks": 139978,
          "time": 72.90520833333333,
          "velocity": 0.44881889763779526
        },
        {
          "duration": 0.07500000000000284,
          "durationTicks": 144,
          "midi": 72,
          "name": "C5",
          "ticks": 141339,
          "time": 73.6140625,
          "velocity": 0.4566929133858268
        },
        {
          "duration": 0.060937500000008527,
          "durationTicks": 117,
          "midi": 72,
          "name": "C5",
          "ticks": 141784,
          "time": 73.84583333333333,
          "velocity": 0.47244094488188976
        },
        {
          "duration": 0.09010416666666288,
          "durationTicks": 173,
          "midi": 72,
          "name": "C5",
          "ticks": 142189,
          "time": 74.05677083333333,
          "velocity": 0.4409448818897638
        },
        {
          "duration": 0.10781249999999432,
          "durationTicks": 207,
          "midi": 76,
          "name": "E5",
          "ticks": 142629,
          "time": 74.2859375,
          "velocity": 0.5118110236220472
        },
        {
          "duration": 0.12708333333333144,
          "durationTicks": 244,
          "midi": 72,
          "name": "C5",
          "ticks": 142629,
          "time": 74.2859375,
          "velocity": 0.48031496062992124
        },
        {
          "duration": 0.125,
          "durationTicks": 240,
          "midi": 60,
          "name": "C4",
          "ticks": 142641,
          "time": 74.2921875,
          "velocity": 0.4566929133858268
        },
        {
          "duration": 0.12395833333333428,
          "durationTicks": 238,
          "midi": 67,
          "name": "G4",
          "ticks": 142643,
          "time": 74.29322916666666,
          "velocity": 0.48031496062992124
        },
        {
          "duration": 0.0859375,
          "durationTicks": 165,
          "midi": 72,
          "name": "C5",
          "ticks": 143983,
          "time": 74.99114583333333,
          "velocity": 0.44881889763779526
        },
        {
          "duration": 0.057291666666671404,
          "durationTicks": 110,
          "midi": 72,
          "name": "C5",
          "ticks": 144445,
          "time": 75.23177083333333,
          "velocity": 0.3700787401574803
        },
        {
          "duration": 0.14010416666667425,
          "durationTicks": 269,
          "midi": 72,
          "name": "C5",
          "ticks": 144822,
          "time": 75.428125,
          "velocity": 0.3779527559055118
        },
        {
          "duration": 0.12083333333333712,
          "durationTicks": 232,
          "midi": 67,
          "name": "G4",
          "ticks": 145275,
          "time": 75.6640625,
          "velocity": 0.47244094488188976
        },
        {
          "duration": 0.1197916666666714,
          "durationTicks": 230,
          "midi": 76,
          "name": "E5",
          "ticks": 145281,
          "time": 75.6671875,
          "velocity": 0.49606299212598426
        },
        {
          "duration": 0.12708333333333144,
          "durationTicks": 244,
          "midi": 60,
          "name": "C4",
          "ticks": 145283,
          "time": 75.66822916666666,
          "velocity": 0.47244094488188976
        },
        {
          "duration": 0.1119791666666714,
          "durationTicks": 215,
          "midi": 72,
          "name": "C5",
          "ticks": 145300,
          "time": 75.67708333333333,
          "velocity": 0.4409448818897638
        },
        {
          "duration": 0.08802083333333144,
          "durationTicks": 169,
          "midi": 72,
          "name": "C5",
          "ticks": 146659,
          "time": 76.38489583333333,
          "velocity": 0.4409448818897638
        },
        {
          "duration": 0.05833333333333712,
          "durationTicks": 112,
          "midi": 72,
          "name": "C5",
          "ticks": 147141,
          "time": 76.6359375,
          "velocity": 0.4015748031496063
        },
        {
          "duration": 0.14635416666666856,
          "durationTicks": 281,
          "midi": 72,
          "name": "C5",
          "ticks": 147519,
          "time": 76.8328125,
          "velocity": 0.4409448818897638
        },
        {
          "duration": 0.11197916666665719,
          "durationTicks": 215,
          "midi": 67,
          "name": "G4",
          "ticks": 147946,
          "time": 77.05520833333334,
          "velocity": 0.47244094488188976
        },
        {
          "duration": 0.1598958333333229,
          "durationTicks": 307,
          "midi": 84,
          "name": "C6",
          "ticks": 147965,
          "time": 77.06510416666667,
          "velocity": 0.5433070866141733
        },
        {
          "duration": 0.06979166666666003,
          "durationTicks": 134,
          "midi": 60,
          "name": "C4",
          "ticks": 147969,
          "time": 77.0671875,
          "velocity": 0.4409448818897638
        },
        {
          "duration": 0.16093750000000284,
          "durationTicks": 309,
          "midi": 83,
          "name": "B5",
          "ticks": 148341,
          "time": 77.2609375,
          "velocity": 0.4251968503937008
        },
        {
          "duration": 0.22864583333334565,
          "durationTicks": 439,
          "midi": 81,
          "name": "A5",
          "ticks": 148814,
          "time": 77.50729166666666,
          "velocity": 0.48031496062992124
        },
        {
          "duration": 0.12604166666667993,
          "durationTicks": 242,
          "midi": 67,
          "name": "G4",
          "ticks": 148829,
          "time": 77.51510416666666,
          "velocity": 0.4566929133858268
        },
        {
          "duration": 0.12291666666665435,
          "durationTicks": 236,
          "midi": 60,
          "name": "C4",
          "ticks": 148833,
          "time": 77.5171875,
          "velocity": 0.44881889763779526
        },
        {
          "duration": 0.17916666666667425,
          "durationTicks": 344,
          "midi": 79,
          "name": "G5",
          "ticks": 149230,
          "time": 77.72395833333333,
          "velocity": 0.4409448818897638
        },
        {
          "duration": 0.13593750000001137,
          "durationTicks": 261,
          "midi": 60,
          "name": "C4",
          "ticks": 149695,
          "time": 77.96614583333333,
          "velocity": 0.44881889763779526
        },
        {
          "duration": 0.14010416666667425,
          "durationTicks": 269,
          "midi": 67,
          "name": "G4",
          "ticks": 149714,
          "time": 77.97604166666666,
          "velocity": 0.48031496062992124
        },
        {
          "duration": 0.7380208333333371,
          "durationTicks": 1417,
          "midi": 81,
          "name": "A5",
          "ticks": 149725,
          "time": 77.98177083333333,
          "velocity": 0.5196850393700787
        },
        {
          "duration": 0.1369791666666771,
          "durationTicks": 263,
          "midi": 79,
          "name": "G5",
          "ticks": 151073,
          "time": 78.68385416666666,
          "velocity": 0.48031496062992124
        },
        {
          "duration": 0.11197916666665719,
          "durationTicks": 215,
          "midi": 67,
          "name": "G4",
          "ticks": 151096,
          "time": 78.69583333333334,
          "velocity": 0.49606299212598426
        },
        {
          "duration": 0.06406249999999147,
          "durationTicks": 123,
          "midi": 60,
          "name": "C4",
          "ticks": 151106,
          "time": 78.70104166666667,
          "velocity": 0.44881889763779526
        },
        {
          "duration": 0.17656250000000284,
          "durationTicks": 339,
          "midi": 77,
          "name": "F5",
          "ticks": 151523,
          "time": 78.91822916666666,
          "velocity": 0.44881889763779526
        },
        {
          "duration": 0.22812500000000568,
          "durationTicks": 438,
          "midi": 79,
          "name": "G5",
          "ticks": 151943,
          "time": 79.13697916666666,
          "velocity": 0.48031496062992124
        },
        {
          "duration": 0.18697916666667425,
          "durationTicks": 359,
          "midi": 81,
          "name": "A5",
          "ticks": 152423,
          "time": 79.38697916666666,
          "velocity": 0.47244094488188976
        },
        {
          "duration": 0.1380208333333428,
          "durationTicks": 265,
          "midi": 67,
          "name": "G4",
          "ticks": 152429,
          "time": 79.39010416666666,
          "velocity": 0.48031496062992124
        },
        {
          "duration": 0.15781249999999147,
          "durationTicks": 303,
          "midi": 60,
          "name": "C4",
          "ticks": 152433,
          "time": 79.3921875,
          "velocity": 0.47244094488188976
        },
        {
          "duration": 0.22708333333333997,
          "durationTicks": 436,
          "midi": 83,
          "name": "B5",
          "ticks": 152809,
          "time": 79.58802083333333,
          "velocity": 0.44881889763779526
        },
        {
          "duration": 0.6291666666666629,
          "durationTicks": 1208,
          "midi": 81,
          "name": "A5",
          "ticks": 153306,
          "time": 79.846875,
          "velocity": 0.44881889763779526
        },
        {
          "duration": 0.1744791666666714,
          "durationTicks": 335,
          "midi": 60,
          "name": "C4",
          "ticks": 153327,
          "time": 79.8578125,
          "velocity": 0.4566929133858268
        },
        {
          "duration": 0.13229166666666003,
          "durationTicks": 254,
          "midi": 67,
          "name": "G4",
          "ticks": 153350,
          "time": 79.86979166666667,
          "velocity": 0.47244094488188976
        },
        {
          "duration": 0.17812499999999432,
          "durationTicks": 342,
          "midi": 72,
          "name": "C5",
          "ticks": 154608,
          "time": 80.525,
          "velocity": 0.4251968503937008
        },
        {
          "duration": 0.15312500000000284,
          "durationTicks": 294,
          "midi": 60,
          "name": "C4",
          "ticks": 155084,
          "time": 80.77291666666666,
          "velocity": 0.47244094488188976
        },
        {
          "duration": 0.18593749999999432,
          "durationTicks": 357,
          "midi": 84,
          "name": "C6",
          "ticks": 155086,
          "time": 80.77395833333334,
          "velocity": 0.5433070866141733
        },
        {
          "duration": 0.12395833333333428,
          "durationTicks": 238,
          "midi": 67,
          "name": "G4",
          "ticks": 155102,
          "time": 80.78229166666667,
          "velocity": 0.4566929133858268
        },
        {
          "duration": 0.2578125,
          "durationTicks": 495,
          "midi": 83,
          "name": "B5",
          "ticks": 155453,
          "time": 80.96510416666666,
          "velocity": 0.44881889763779526
        },
        {
          "duration": 0.28593750000000284,
          "durationTicks": 549,
          "midi": 81,
          "name": "A5",
          "ticks": 155925,
          "time": 81.2109375,
          "velocity": 0.4566929133858268
        },
        {
          "duration": 0.2645833333333343,
          "durationTicks": 508,
          "midi": 79,
          "name": "G5",
          "ticks": 156348,
          "time": 81.43125,
          "velocity": 0.47244094488188976
        },
        {
          "duration": 0.12864583333333712,
          "durationTicks": 247,
          "midi": 67,
          "name": "G4",
          "ticks": 156805,
          "time": 81.66927083333333,
          "velocity": 0.47244094488188976
        },
        {
          "duration": 0.22187499999999716,
          "durationTicks": 426,
          "midi": 81,
          "name": "A5",
          "ticks": 156812,
          "time": 81.67291666666667,
          "velocity": 0.47244094488188976
        },
        {
          "duration": 0.14114583333333997,
          "durationTicks": 271,
          "midi": 60,
          "name": "C4",
          "ticks": 156818,
          "time": 81.67604166666666,
          "velocity": 0.4566929133858268
        },
        {
          "duration": 0.2901041666666657,
          "durationTicks": 557,
          "midi": 83,
          "name": "B5",
          "ticks": 157219,
          "time": 81.88489583333333,
          "velocity": 0.44881889763779526
        },
        {
          "duration": 0.32239583333333144,
          "durationTicks": 619,
          "midi": 81,
          "name": "A5",
          "ticks": 157670,
          "time": 82.11979166666667,
          "velocity": 0.44881889763779526
        },
        {
          "duration": 0.20104166666666856,
          "durationTicks": 386,
          "midi": 79,
          "name": "G5",
          "ticks": 158177,
          "time": 82.38385416666667,
          "velocity": 0.4566929133858268
        },
        {
          "duration": 0.22500000000000853,
          "durationTicks": 432,
          "midi": 77,
          "name": "F5",
          "ticks": 158586,
          "time": 82.596875,
          "velocity": 0.44881889763779526
        },
        {
          "duration": 0.1640625,
          "durationTicks": 315,
          "midi": 60,
          "name": "C4",
          "ticks": 158590,
          "time": 82.59895833333333,
          "velocity": 0.44881889763779526
        },
        {
          "duration": 0.13333333333332575,
          "durationTicks": 256,
          "midi": 67,
          "name": "G4",
          "ticks": 158611,
          "time": 82.60989583333334,
          "velocity": 0.47244094488188976
        },
        {
          "duration": 0.2614583333333371,
          "durationTicks": 502,
          "midi": 79,
          "name": "G5",
          "ticks": 159013,
          "time": 82.81927083333333,
          "velocity": 0.4566929133858268
        },
        {
          "duration": 0.2567708333333343,
          "durationTicks": 493,
          "midi": 81,
          "name": "A5",
          "ticks": 159470,
          "time": 83.05729166666667,
          "velocity": 0.44881889763779526
        },
        {
          "duration": 0.2057291666666714,
          "durationTicks": 395,
          "midi": 83,
          "name": "B5",
          "ticks": 159921,
          "time": 83.2921875,
          "velocity": 0.47244094488188976
        },
        {
          "duration": 0.9630208333333314,
          "durationTicks": 1849,
          "midi": 81,
          "name": "A5",
          "ticks": 160351,
          "time": 83.51614583333334,
          "velocity": 0.4409448818897638
        },
        {
          "duration": 0.16197916666666856,
          "durationTicks": 311,
          "midi": 67,
          "name": "G4",
          "ticks": 160395,
          "time": 83.5390625,
          "velocity": 0.49606299212598426
        },
        {
          "duration": 0.1770833333333428,
          "durationTicks": 340,
          "midi": 60,
          "name": "C4",
          "ticks": 160418,
          "time": 83.55104166666666,
          "velocity": 0.4566929133858268
        },
        {
          "duration": 0.2619791666666771,
          "durationTicks": 503,
          "midi": 79,
          "name": "G5",
          "ticks": 162100,
          "time": 84.42708333333333,
          "velocity": 0.48031496062992124
        },
        {
          "duration": 0.30520833333332575,
          "durationTicks": 586,
          "midi": 81,
          "name": "A5",
          "ticks": 162526,
          "time": 84.64895833333334,
          "velocity": 0.44881889763779526
        },
        {
          "duration": 0.25729166666667425,
          "durationTicks": 494,
          "midi": 83,
          "name": "B5",
          "ticks": 163004,
          "time": 84.89791666666666,
          "velocity": 0.4566929133858268
        },
        {
          "duration": 0.2958333333333343,
          "durationTicks": 568,
          "midi": 81,
          "name": "A5",
          "ticks": 163390,
          "time": 85.09895833333333,
          "velocity": 0.3937007874015748
        },
        {
          "duration": 0.11510416666666856,
          "durationTicks": 221,
          "midi": 67,
          "name": "G4",
          "ticks": 163868,
          "time": 85.34791666666666,
          "velocity": 0.48031496062992124
        },
        {
          "duration": 0.09427083333333997,
          "durationTicks": 181,
          "midi": 60,
          "name": "C4",
          "ticks": 163870,
          "time": 85.34895833333333,
          "velocity": 0.44881889763779526
        },
        {
          "duration": 0.1640625,
          "durationTicks": 315,
          "midi": 79,
          "name": "G5",
          "ticks": 163874,
          "time": 85.35104166666666,
          "velocity": 0.48031496062992124
        },
        {
          "duration": 0.1927083333333286,
          "durationTicks": 370,
          "midi": 77,
          "name": "F5",
          "ticks": 164297,
          "time": 85.57135416666667,
          "velocity": 0.41732283464566927
        },
        {
          "duration": 0.25,
          "durationTicks": 480,
          "midi": 79,
          "name": "G5",
          "ticks": 164742,
          "time": 85.803125,
          "velocity": 0.44881889763779526
        },
        {
          "duration": 0.22187499999999716,
          "durationTicks": 426,
          "midi": 77,
          "name": "F5",
          "ticks": 165247,
          "time": 86.06614583333334,
          "velocity": 0.4251968503937008
        },
        {
          "duration": 0.14479166666666288,
          "durationTicks": 278,
          "midi": 60,
          "name": "C4",
          "ticks": 165650,
          "time": 86.27604166666667,
          "velocity": 0.47244094488188976
        },
        {
          "duration": 0.12187500000000284,
          "durationTicks": 234,
          "midi": 67,
          "name": "G4",
          "ticks": 165654,
          "time": 86.278125,
          "velocity": 0.48031496062992124
        },
        {
          "duration": 0.15156249999999716,
          "durationTicks": 291,
          "midi": 79,
          "name": "G5",
          "ticks": 165658,
          "time": 86.28020833333333,
          "velocity": 0.48031496062992124
        },
        {
          "duration": 0.203125,
          "durationTicks": 390,
          "midi": 77,
          "name": "F5",
          "ticks": 166097,
          "time": 86.50885416666667,
          "velocity": 0.36220472440944884
        },
        {
          "duration": 0.18593749999999432,
          "durationTicks": 357,
          "midi": 79,
          "name": "G5",
          "ticks": 166575,
          "time": 86.7578125,
          "velocity": 0.4566929133858268
        },
        {
          "duration": 0.2135416666666714,
          "durationTicks": 410,
          "midi": 81,
          "name": "A5",
          "ticks": 166956,
          "time": 86.95625,
          "velocity": 0.4251968503937008
        },
        {
          "duration": 0.19895833333333712,
          "durationTicks": 382,
          "midi": 83,
          "name": "B5",
          "ticks": 167455,
          "time": 87.21614583333333,
          "velocity": 0.44881889763779526
        },
        {
          "duration": 0.23854166666666288,
          "durationTicks": 458,
          "midi": 81,
          "name": "A5",
          "ticks": 167868,
          "time": 87.43125,
          "velocity": 0.4409448818897638
        },
        {
          "duration": 0.28177083333332575,
          "durationTicks": 541,
          "midi": 79,
          "name": "G5",
          "ticks": 168367,
          "time": 87.69114583333334,
          "velocity": 0.4094488188976378
        },
        {
          "duration": 0.11614583333333428,
          "durationTicks": 223,
          "midi": 55,
          "name": "G3",
          "ticks": 169263,
          "time": 88.1578125,
          "velocity": 0.47244094488188976
        },
        {
          "duration": 0.11145833333333144,
          "durationTicks": 214,
          "midi": 76,
          "name": "E5",
          "ticks": 169265,
          "time": 88.15885416666667,
          "velocity": 0.47244094488188976
        },
        {
          "duration": 0.11614583333333428,
          "durationTicks": 223,
          "midi": 48,
          "name": "C3",
          "ticks": 169269,
          "time": 88.1609375,
          "velocity": 0.47244094488188976
        },
        {
          "duration": 0.1197916666666714,
          "durationTicks": 230,
          "midi": 72,
          "name": "C5",
          "ticks": 169283,
          "time": 88.16822916666666,
          "velocity": 0.3937007874015748
        },
        {
          "duration": 0.05885416666666288,
          "durationTicks": 113,
          "midi": 74,
          "name": "D5",
          "ticks": 169310,
          "time": 88.18229166666667,
          "velocity": 0.3779527559055118
        },
        {
          "duration": 0.24791666666666856,
          "durationTicks": 476,
          "midi": 76,
          "name": "E5",
          "ticks": 169649,
          "time": 88.35885416666666,
          "velocity": 0.4251968503937008
        },
        {
          "duration": 0.13854166666666856,
          "durationTicks": 266,
          "midi": 48,
          "name": "C3",
          "ticks": 170173,
          "time": 88.63177083333333,
          "velocity": 0.44881889763779526
        },
        {
          "duration": 0.23906250000000284,
          "durationTicks": 459,
          "midi": 77,
          "name": "F5",
          "ticks": 170175,
          "time": 88.6328125,
          "velocity": 0.4566929133858268
        },
        {
          "duration": 0.1302083333333428,
          "durationTicks": 250,
          "midi": 55,
          "name": "G3",
          "ticks": 170189,
          "time": 88.64010416666666,
          "velocity": 0.4330708661417323
        },
        {
          "duration": 0.23281250000000853,
          "durationTicks": 447,
          "midi": 79,
          "name": "G5",
          "ticks": 170590,
          "time": 88.84895833333333,
          "velocity": 0.47244094488188976
        },
        {
          "duration": 0.13333333333333997,
          "durationTicks": 256,
          "midi": 48,
          "name": "C3",
          "ticks": 171070,
          "time": 89.09895833333333,
          "velocity": 0.47244094488188976
        },
        {
          "duration": 0.14687499999999432,
          "durationTicks": 282,
          "midi": 55,
          "name": "G3",
          "ticks": 171086,
          "time": 89.10729166666667,
          "velocity": 0.44881889763779526
        },
        {
          "duration": 0.5562499999999915,
          "durationTicks": 1068,
          "midi": 77,
          "name": "F5",
          "ticks": 171097,
          "time": 89.11302083333334,
          "velocity": 0.49606299212598426
        },
        {
          "duration": 0.14531250000000284,
          "durationTicks": 279,
          "midi": 55,
          "name": "G3",
          "ticks": 172003,
          "time": 89.58489583333333,
          "velocity": 0.47244094488188976
        },
        {
          "duration": 0.1302083333333286,
          "durationTicks": 250,
          "midi": 48,
          "name": "C3",
          "ticks": 172007,
          "time": 89.58697916666667,
          "velocity": 0.47244094488188976
        },
        {
          "duration": 0.4729166666666629,
          "durationTicks": 908,
          "midi": 76,
          "name": "E5",
          "ticks": 172009,
          "time": 89.58802083333333,
          "velocity": 0.5196850393700787
        },
        {
          "duration": 0.14270833333333144,
          "durationTicks": 274,
          "midi": 48,
          "name": "C3",
          "ticks": 172906,
          "time": 90.05520833333334,
          "velocity": 0.44881889763779526
        },
        {
          "duration": 0.13229166666667425,
          "durationTicks": 254,
          "midi": 55,
          "name": "G3",
          "ticks": 172915,
          "time": 90.05989583333333,
          "velocity": 0.44881889763779526
        },
        {
          "duration": 0.17812500000000853,
          "durationTicks": 342,
          "midi": 72,
          "name": "C5",
          "ticks": 172915,
          "time": 90.05989583333333,
          "velocity": 0.44881889763779526
        },
        {
          "duration": 0.26614583333332575,
          "durationTicks": 511,
          "midi": 76,
          "name": "E5",
          "ticks": 173334,
          "time": 90.278125,
          "velocity": 0.4094488188976378
        },
        {
          "duration": 0.21979166666666572,
          "durationTicks": 422,
          "midi": 77,
          "name": "F5",
          "ticks": 173810,
          "time": 90.52604166666667,
          "velocity": 0.49606299212598426
        },
        {
          "duration": 0.1328125,
          "durationTicks": 255,
          "midi": 55,
          "name": "G3",
          "ticks": 173816,
          "time": 90.52916666666667,
          "velocity": 0.44881889763779526
        },
        {
          "duration": 0.14791666666666003,
          "durationTicks": 284,
          "midi": 48,
          "name": "C3",
          "ticks": 173818,
          "time": 90.53020833333333,
          "velocity": 0.44881889763779526
        },
        {
          "duration": 0.27031250000000284,
          "durationTicks": 519,
          "midi": 79,
          "name": "G5",
          "ticks": 174207,
          "time": 90.7328125,
          "velocity": 0.44881889763779526
        },
        {
          "duration": 0.16510416666666572,
          "durationTicks": 317,
          "midi": 48,
          "name": "C3",
          "ticks": 174712,
          "time": 90.99583333333334,
          "velocity": 0.44881889763779526
        },
        {
          "duration": 0.5088541666666657,
          "durationTicks": 977,
          "midi": 77,
          "name": "F5",
          "ticks": 174720,
          "time": 91,
          "velocity": 0.48031496062992124
        },
        {
          "duration": 0.13593749999999716,
          "durationTicks": 261,
          "midi": 55,
          "name": "G3",
          "ticks": 174724,
          "time": 91.00208333333333,
          "velocity": 0.44881889763779526
        },
        {
          "duration": 0.14635416666666856,
          "durationTicks": 281,
          "midi": 55,
          "name": "G3",
          "ticks": 175624,
          "time": 91.47083333333333,
          "velocity": 0.47244094488188976
        },
        {
          "duration": 0.32604166666666856,
          "durationTicks": 626,
          "midi": 76,
          "name": "E5",
          "ticks": 175626,
          "time": 91.471875,
          "velocity": 0.5118110236220472
        },
        {
          "duration": 0.13385416666666572,
          "durationTicks": 257,
          "midi": 48,
          "name": "C3",
          "ticks": 175630,
          "time": 91.47395833333333,
          "velocity": 0.44881889763779526
        },
        {
          "duration": 0.12343750000000853,
          "durationTicks": 237,
          "midi": 76,
          "name": "E5",
          "ticks": 176438,
          "time": 91.89479166666666,
          "velocity": 0.4094488188976378
        },
        {
          "duration": 0.14999999999999147,
          "durationTicks": 288,
          "midi": 72,
          "name": "C5",
          "ticks": 176467,
          "time": 91.90989583333334,
          "velocity": 0.5118110236220472
        },
        {
          "duration": 0.10781249999999432,
          "durationTicks": 207,
          "midi": 48,
          "name": "C3",
          "ticks": 176477,
          "time": 91.91510416666667,
          "velocity": 0.44881889763779526
        },
        {
          "duration": 0.12031249999999716,
          "durationTicks": 231,
          "midi": 55,
          "name": "G3",
          "ticks": 176490,
          "time": 91.921875,
          "velocity": 0.4566929133858268
        },
        {
          "duration": 0.3031250000000085,
          "durationTicks": 582,
          "midi": 76,
          "name": "E5",
          "ticks": 176901,
          "time": 92.1359375,
          "velocity": 0.4015748031496063
        },
        {
          "duration": 0.20989583333333428,
          "durationTicks": 403,
          "midi": 77,
          "name": "F5",
          "ticks": 177393,
          "time": 92.3921875,
          "velocity": 0.47244094488188976
        },
        {
          "duration": 0.15312500000000284,
          "durationTicks": 294,
          "midi": 79,
          "name": "G5",
          "ticks": 177844,
          "time": 92.62708333333333,
          "velocity": 0.48031496062992124
        },
        {
          "duration": 0.5109374999999972,
          "durationTicks": 981,
          "midi": 77,
          "name": "F5",
          "ticks": 178282,
          "time": 92.85520833333334,
          "velocity": 0.49606299212598426
        },
        {
          "duration": 0.53177083333334,
          "durationTicks": 1021,
          "midi": 48,
          "name": "C3",
          "ticks": 178305,
          "time": 92.8671875,
          "velocity": 0.48031496062992124
        },
        {
          "duration": 0.5374999999999943,
          "durationTicks": 1032,
          "midi": 57,
          "name": "A3",
          "ticks": 178307,
          "time": 92.86822916666667,
          "velocity": 0.49606299212598426
        },
        {
          "duration": 0.5437500000000028,
          "durationTicks": 1044,
          "midi": 53,
          "name": "F3",
          "ticks": 178326,
          "time": 92.878125,
          "velocity": 0.44881889763779526
        },
        {
          "duration": 0.3557291666666629,
          "durationTicks": 683,
          "midi": 76,
          "name": "E5",
          "ticks": 179236,
          "time": 93.35208333333334,
          "velocity": 0.48031496062992124
        },
        {
          "duration": 0.10833333333333428,
          "durationTicks": 208,
          "midi": 76,
          "name": "E5",
          "ticks": 180088,
          "time": 93.79583333333333,
          "velocity": 0.4094488188976378
        },
        {
          "duration": 0.12291666666666856,
          "durationTicks": 236,
          "midi": 55,
          "name": "G3",
          "ticks": 180098,
          "time": 93.80104166666666,
          "velocity": 0.49606299212598426
        },
        {
          "duration": 0.11093750000000568,
          "durationTicks": 213,
          "midi": 48,
          "name": "C3",
          "ticks": 180098,
          "time": 93.80104166666666,
          "velocity": 0.4566929133858268
        },
        {
          "duration": 0.14375000000001137,
          "durationTicks": 276,
          "midi": 72,
          "name": "C5",
          "ticks": 180102,
          "time": 93.803125,
          "velocity": 0.49606299212598426
        },
        {
          "duration": 0.17135416666667425,
          "durationTicks": 329,
          "midi": 79,
          "name": "G5",
          "ticks": 180117,
          "time": 93.8109375,
          "velocity": 0.44881889763779526
        },
        {
          "duration": 0.29739583333333997,
          "durationTicks": 571,
          "midi": 76,
          "name": "E5",
          "ticks": 180495,
          "time": 94.0078125,
          "velocity": 0.4094488188976378
        },
        {
          "duration": 0.16302083333333428,
          "durationTicks": 313,
          "midi": 77,
          "name": "F5",
          "ticks": 181014,
          "time": 94.278125,
          "velocity": 0.44881889763779526
        },
        {
          "duration": 0.11927083333333144,
          "durationTicks": 229,
          "midi": 79,
          "name": "G5",
          "ticks": 181378,
          "time": 94.46770833333333,
          "velocity": 0.5118110236220472
        },
        {
          "duration": 0.39114583333332575,
          "durationTicks": 751,
          "midi": 79,
          "name": "G5",
          "ticks": 181901,
          "time": 94.74010416666667,
          "velocity": 0.5433070866141733
        },
        {
          "duration": 0.41197916666666856,
          "durationTicks": 791,
          "midi": 59,
          "name": "B3",
          "ticks": 181905,
          "time": 94.7421875,
          "velocity": 0.49606299212598426
        },
        {
          "duration": 0.40416666666666856,
          "durationTicks": 776,
          "midi": 55,
          "name": "G3",
          "ticks": 181918,
          "time": 94.74895833333333,
          "velocity": 0.44881889763779526
        },
        {
          "duration": 0.13906249999999432,
          "durationTicks": 267,
          "midi": 60,
          "name": "C4",
          "ticks": 183686,
          "time": 95.66979166666667,
          "velocity": 0.4566929133858268
        },
        {
          "duration": 0.14427083333333712,
          "durationTicks": 277,
          "midi": 67,
          "name": "G4",
          "ticks": 183686,
          "time": 95.66979166666667,
          "velocity": 0.48031496062992124
        },
        {
          "duration": 0.0911458333333286,
          "durationTicks": 175,
          "midi": 76,
          "name": "E5",
          "ticks": 183690,
          "time": 95.671875,
          "velocity": 0.4566929133858268
        },
        {
          "duration": 0.15833333333333144,
          "durationTicks": 304,
          "midi": 72,
          "name": "C5",
          "ticks": 183692,
          "time": 95.67291666666667,
          "velocity": 0.49606299212598426
        },
        {
          "duration": 0.16093750000000284,
          "durationTicks": 309,
          "midi": 79,
          "name": "G5",
          "ticks": 183717,
          "time": 95.6859375,
          "velocity": 0.44881889763779526
        },
        {
          "duration": 0.328125,
          "durationTicks": 630,
          "midi": 76,
          "name": "E5",
          "ticks": 184080,
          "time": 95.875,
          "velocity": 0.3779527559055118
        },
        {
          "duration": 0.1927083333333286,
          "durationTicks": 370,
          "midi": 77,
          "name": "F5",
          "ticks": 184618,
          "time": 96.15520833333333,
          "velocity": 0.44881889763779526
        },
        {
          "duration": 0.2109375,
          "durationTicks": 405,
          "midi": 79,
          "name": "G5",
          "ticks": 185061,
          "time": 96.3859375,
          "velocity": 0.48031496062992124
        },
        {
          "duration": 0.5052083333333286,
          "durationTicks": 970,
          "midi": 77,
          "name": "F5",
          "ticks": 185518,
          "time": 96.62395833333333,
          "velocity": 0.48031496062992124
        },
        {
          "duration": 0.6031250000000057,
          "durationTicks": 1158,
          "midi": 65,
          "name": "F4",
          "ticks": 185537,
          "time": 96.63385416666667,
          "velocity": 0.41732283464566927
        },
        {
          "duration": 0.6177083333333258,
          "durationTicks": 1186,
          "midi": 62,
          "name": "D4",
          "ticks": 185551,
          "time": 96.64114583333334,
          "velocity": 0.41732283464566927
        },
        {
          "duration": 0.11927083333333144,
          "durationTicks": 229,
          "midi": 74,
          "name": "D5",
          "ticks": 186468,
          "time": 97.11875,
          "velocity": 0.47244094488188976
        },
        {
          "duration": 0.1520833333333229,
          "durationTicks": 292,
          "midi": 57,
          "name": "A3",
          "ticks": 187340,
          "time": 97.57291666666667,
          "velocity": 0.4566929133858268
        },
        {
          "duration": 0.125,
          "durationTicks": 240,
          "midi": 64,
          "name": "E4",
          "ticks": 187352,
          "time": 97.57916666666667,
          "velocity": 0.5196850393700787
        },
        {
          "duration": 0.15833333333333144,
          "durationTicks": 304,
          "midi": 69,
          "name": "A4",
          "ticks": 187357,
          "time": 97.58177083333334,
          "velocity": 0.49606299212598426
        },
        {
          "duration": 0.26874999999999716,
          "durationTicks": 516,
          "midi": 72,
          "name": "C5",
          "ticks": 187738,
          "time": 97.78020833333333,
          "velocity": 0.47244094488188976
        },
        {
          "duration": 0.15729166666666572,
          "durationTicks": 302,
          "midi": 74,
          "name": "D5",
          "ticks": 188252,
          "time": 98.04791666666667,
          "velocity": 0.44881889763779526
        },
        {
          "duration": 0.21979166666667993,
          "durationTicks": 422,
          "midi": 76,
          "name": "E5",
          "ticks": 188669,
          "time": 98.26510416666666,
          "velocity": 0.4251968503937008
        },
        {
          "duration": 0.3218750000000057,
          "durationTicks": 618,
          "midi": 55,
          "name": "G3",
          "ticks": 189143,
          "time": 98.51197916666666,
          "velocity": 0.48031496062992124
        },
        {
          "duration": 0.171875,
          "durationTicks": 330,
          "midi": 71,
          "name": "B4",
          "ticks": 189155,
          "time": 98.51822916666667,
          "velocity": 0.4566929133858268
        },
        {
          "duration": 0.3499999999999943,
          "durationTicks": 672,
          "midi": 62,
          "name": "D4",
          "ticks": 189155,
          "time": 98.51822916666667,
          "velocity": 0.48031496062992124
        },
        {
          "duration": 0.15833333333333144,
          "durationTicks": 304,
          "midi": 67,
          "name": "G4",
          "ticks": 189156,
          "time": 98.51875,
          "velocity": 0.49606299212598426
        },
        {
          "duration": 0.10468749999999716,
          "durationTicks": 201,
          "midi": 60,
          "name": "C4",
          "ticks": 191000,
          "time": 99.47916666666667,
          "velocity": 0.47244094488188976
        },
        {
          "duration": 0.10572916666666288,
          "durationTicks": 203,
          "midi": 67,
          "name": "G4",
          "ticks": 191000,
          "time": 99.47916666666667,
          "velocity": 0.48031496062992124
        },
        {
          "duration": 0.1119791666666714,
          "durationTicks": 215,
          "midi": 72,
          "name": "C5",
          "ticks": 191009,
          "time": 99.48385416666666,
          "velocity": 0.48031496062992124
        },
        {
          "duration": 0.07291666666665719,
          "durationTicks": 140,
          "midi": 76,
          "name": "E5",
          "ticks": 191013,
          "time": 99.4859375,
          "velocity": 0.4566929133858268
        },
        {
          "duration": 0.17031249999999432,
          "durationTicks": 327,
          "midi": 79,
          "name": "G5",
          "ticks": 191015,
          "time": 99.48697916666667,
          "velocity": 0.47244094488188976
        },
        {
          "duration": 0.2749999999999915,
          "durationTicks": 528,
          "midi": 76,
          "name": "E5",
          "ticks": 191409,
          "time": 99.6921875,
          "velocity": 0.41732283464566927
        },
        {
          "duration": 0.2421875,
          "durationTicks": 465,
          "midi": 77,
          "name": "F5",
          "ticks": 191898,
          "time": 99.946875,
          "velocity": 0.4566929133858268
        },
        {
          "duration": 0.17916666666667425,
          "durationTicks": 344,
          "midi": 79,
          "name": "G5",
          "ticks": 192340,
          "time": 100.17708333333333,
          "velocity": 0.48031496062992124
        },
        {
          "duration": 0.17031249999999432,
          "durationTicks": 327,
          "midi": 60,
          "name": "C4",
          "ticks": 192789,
          "time": 100.4109375,
          "velocity": 0.48031496062992124
        },
        {
          "duration": 0.5567708333333314,
          "durationTicks": 1069,
          "midi": 77,
          "name": "F5",
          "ticks": 192797,
          "time": 100.41510416666667,
          "velocity": 0.49606299212598426
        },
        {
          "duration": 0.1447916666666771,
          "durationTicks": 278,
          "midi": 67,
          "name": "G4",
          "ticks": 192803,
          "time": 100.41822916666666,
          "velocity": 0.49606299212598426
        },
        {
          "duration": 0.125,
          "durationTicks": 240,
          "midi": 76,
          "name": "E5",
          "ticks": 193743,
          "time": 100.9078125,
          "velocity": 0.5196850393700787
        },
        {
          "duration": 0.12708333333333144,
          "durationTicks": 244,
          "midi": 60,
          "name": "C4",
          "ticks": 193751,
          "time": 100.91197916666667,
          "velocity": 0.47244094488188976
        },
        {
          "duration": 0.1328125,
          "durationTicks": 255,
          "midi": 67,
          "name": "G4",
          "ticks": 193757,
          "time": 100.91510416666667,
          "velocity": 0.5118110236220472
        },
        {
          "duration": 0.15208333333333712,
          "durationTicks": 292,
          "midi": 60,
          "name": "C4",
          "ticks": 194663,
          "time": 101.38697916666666,
          "velocity": 0.44881889763779526
        },
        {
          "duration": 0.1328125,
          "durationTicks": 255,
          "midi": 67,
          "name": "G4",
          "ticks": 194698,
          "time": 101.40520833333333,
          "velocity": 0.48031496062992124
        },
        {
          "duration": 0.17812499999999432,
          "durationTicks": 342,
          "midi": 76,
          "name": "E5",
          "ticks": 194732,
          "time": 101.42291666666667,
          "velocity": 0.5118110236220472
        },
        {
          "duration": 0.19843749999999716,
          "durationTicks": 381,
          "midi": 72,
          "name": "C5",
          "ticks": 195114,
          "time": 101.621875,
          "velocity": 0.48031496062992124
        },
        {
          "duration": 0.2447916666666714,
          "durationTicks": 470,
          "midi": 76,
          "name": "E5",
          "ticks": 195581,
          "time": 101.86510416666667,
          "velocity": 0.47244094488188976
        },
        {
          "duration": 0.14218749999999147,
          "durationTicks": 273,
          "midi": 77,
          "name": "F5",
          "ticks": 195982,
          "time": 102.07395833333334,
          "velocity": 0.4566929133858268
        },
        {
          "duration": 0.35625000000000284,
          "durationTicks": 684,
          "midi": 71,
          "name": "B4",
          "ticks": 196481,
          "time": 102.33385416666667,
          "velocity": 0.49606299212598426
        },
        {
          "duration": 0.3401041666666629,
          "durationTicks": 653,
          "midi": 79,
          "name": "G5",
          "ticks": 196489,
          "time": 102.33802083333333,
          "velocity": 0.5433070866141733
        },
        {
          "duration": 0.37812500000001137,
          "durationTicks": 726,
          "midi": 67,
          "name": "G4",
          "ticks": 196495,
          "time": 102.34114583333333,
          "velocity": 0.44881889763779526
        },
        {
          "duration": 0.1614583333333286,
          "durationTicks": 310,
          "midi": 72,
          "name": "C5",
          "ticks": 198255,
          "time": 103.2578125,
          "velocity": 0.4566929133858268
        },
        {
          "duration": 0.16093749999998863,
          "durationTicks": 309,
          "midi": 60,
          "name": "C4",
          "ticks": 198273,
          "time": 103.2671875,
          "velocity": 0.49606299212598426
        },
        {
          "duration": 0.1796875,
          "durationTicks": 345,
          "midi": 79,
          "name": "G5",
          "ticks": 198275,
          "time": 103.26822916666667,
          "velocity": 0.4409448818897638
        },
        {
          "duration": 0.054166666666660035,
          "durationTicks": 104,
          "midi": 76,
          "name": "E5",
          "ticks": 198286,
          "time": 103.27395833333334,
          "velocity": 0.4015748031496063
        },
        {
          "duration": 0.13072916666666856,
          "durationTicks": 251,
          "midi": 67,
          "name": "G4",
          "ticks": 198294,
          "time": 103.278125,
          "velocity": 0.5196850393700787
        },
        {
          "duration": 0.3369791666666657,
          "durationTicks": 647,
          "midi": 76,
          "name": "E5",
          "ticks": 198632,
          "time": 103.45416666666667,
          "velocity": 0.3779527559055118
        },
        {
          "duration": 0.1510416666666572,
          "durationTicks": 290,
          "midi": 77,
          "name": "F5",
          "ticks": 199177,
          "time": 103.73802083333334,
          "velocity": 0.44881889763779526
        },
        {
          "duration": 0.1588541666666572,
          "durationTicks": 305,
          "midi": 79,
          "name": "G5",
          "ticks": 199565,
          "time": 103.94010416666667,
          "velocity": 0.44881889763779526
        },
        {
          "duration": 0.14374999999999716,
          "durationTicks": 276,
          "midi": 69,
          "name": "A4",
          "ticks": 200047,
          "time": 104.19114583333334,
          "velocity": 0.49606299212598426
        },
        {
          "duration": 0.17656250000000284,
          "durationTicks": 339,
          "midi": 72,
          "name": "C5",
          "ticks": 200051,
          "time": 104.19322916666667,
          "velocity": 0.49606299212598426
        },
        {
          "duration": 0.5421874999999972,
          "durationTicks": 1041,
          "midi": 57,
          "name": "A3",
          "ticks": 200058,
          "time": 104.196875,
          "velocity": 0.48031496062992124
        },
        {
          "duration": 0.5192708333333371,
          "durationTicks": 997,
          "midi": 64,
          "name": "E4",
          "ticks": 200064,
          "time": 104.2,
          "velocity": 0.5433070866141733
        },
        {
          "duration": 0.47187499999999716,
          "durationTicks": 906,
          "midi": 72,
          "name": "C5",
          "ticks": 200978,
          "time": 104.67604166666666,
          "velocity": 0.5196850393700787
        },
        {
          "duration": 0.19114583333333712,
          "durationTicks": 367,
          "midi": 74,
          "name": "D5",
          "ticks": 201859,
          "time": 105.13489583333333,
          "velocity": 0.5196850393700787
        },
        {
          "duration": 0.41718750000001137,
          "durationTicks": 801,
          "midi": 65,
          "name": "F4",
          "ticks": 201865,
          "time": 105.13802083333333,
          "velocity": 0.48031496062992124
        },
        {
          "duration": 0.4338541666666629,
          "durationTicks": 833,
          "midi": 62,
          "name": "D4",
          "ticks": 201886,
          "time": 105.14895833333334,
          "velocity": 0.4566929133858268
        },
        {
          "duration": 0.2671875000000057,
          "durationTicks": 513,
          "midi": 76,
          "name": "E5",
          "ticks": 202272,
          "time": 105.35,
          "velocity": 0.44881889763779526
        },
        {
          "duration": 0.20208333333333428,
          "durationTicks": 388,
          "midi": 74,
          "name": "D5",
          "ticks": 202742,
          "time": 105.59479166666667,
          "velocity": 0.44881889763779526
        },
        {
          "duration": 0.12604166666666572,
          "durationTicks": 242,
          "midi": 72,
          "name": "C5",
          "ticks": 203180,
          "time": 105.82291666666667,
          "velocity": 0.47244094488188976
        },
        {
          "duration": 0.7489583333333343,
          "durationTicks": 1438,
          "midi": 55,
          "name": "G3",
          "ticks": 203622,
          "time": 106.053125,
          "velocity": 0.47244094488188976
        },
        {
          "duration": 0.7677083333333314,
          "durationTicks": 1474,
          "midi": 62,
          "name": "D4",
          "ticks": 203628,
          "time": 106.05625,
          "velocity": 0.48031496062992124
        },
        {
          "duration": 0.7312500000000028,
          "durationTicks": 1404,
          "midi": 67,
          "name": "G4",
          "ticks": 203629,
          "time": 106.05677083333333,
          "velocity": 0.5433070866141733
        },
        {
          "duration": 0.3317708333333229,
          "durationTicks": 637,
          "midi": 71,
          "name": "B4",
          "ticks": 204937,
          "time": 106.73802083333334,
          "velocity": 0.44881889763779526
        },
        {
          "duration": 0.68020833333334,
          "durationTicks": 1306,
          "midi": 55,
          "name": "G3",
          "ticks": 205409,
          "time": 106.98385416666666,
          "velocity": 0.4409448818897638
        },
        {
          "duration": 0.6812499999999915,
          "durationTicks": 1308,
          "midi": 62,
          "name": "D4",
          "ticks": 205411,
          "time": 106.98489583333334,
          "velocity": 0.4409448818897638
        },
        {
          "duration": 0.5833333333333286,
          "durationTicks": 1120,
          "midi": 67,
          "name": "G4",
          "ticks": 205436,
          "time": 106.99791666666667,
          "velocity": 0.47244094488188976
        },
        {
          "duration": 0.24114583333333428,
          "durationTicks": 463,
          "midi": 67,
          "name": "G4",
          "ticks": 206820,
          "time": 107.71875,
          "velocity": 0.4409448818897638
        },
        {
          "duration": 0.14427083333333712,
          "durationTicks": 277,
          "midi": 55,
          "name": "G3",
          "ticks": 207229,
          "time": 107.93177083333333,
          "velocity": 0.3937007874015748
        },
        {
          "duration": 0.15416666666666856,
          "durationTicks": 296,
          "midi": 62,
          "name": "D4",
          "ticks": 207231,
          "time": 107.9328125,
          "velocity": 0.44881889763779526
        },
        {
          "duration": 0.18802083333333997,
          "durationTicks": 361,
          "midi": 71,
          "name": "B4",
          "ticks": 207239,
          "time": 107.93697916666666,
          "velocity": 0.44881889763779526
        },
        {
          "duration": 0.26614583333333997,
          "durationTicks": 511,
          "midi": 67,
          "name": "G4",
          "ticks": 207629,
          "time": 108.14010416666666,
          "velocity": 0.3937007874015748
        },
        {
          "duration": 0.15677083333332575,
          "durationTicks": 301,
          "midi": 55,
          "name": "G3",
          "ticks": 208111,
          "time": 108.39114583333334,
          "velocity": 0.4015748031496063
        },
        {
          "duration": 0.15468749999999432,
          "durationTicks": 297,
          "midi": 62,
          "name": "D4",
          "ticks": 208117,
          "time": 108.39427083333334,
          "velocity": 0.44881889763779526
        },
        {
          "duration": 0.20989583333333428,
          "durationTicks": 403,
          "midi": 71,
          "name": "B4",
          "ticks": 208130,
          "time": 108.40104166666667,
          "velocity": 0.4409448818897638
        },
        {
          "duration": 0.25833333333332575,
          "durationTicks": 496,
          "midi": 67,
          "name": "G4",
          "ticks": 208548,
          "time": 108.61875,
          "velocity": 0.4015748031496063
        },
        {
          "duration": 0.7578125,
          "durationTicks": 1455,
          "midi": 55,
          "name": "G3",
          "ticks": 208969,
          "time": 108.83802083333333,
          "velocity": 0.44881889763779526
        },
        {
          "duration": 0.7645833333333343,
          "durationTicks": 1468,
          "midi": 71,
          "name": "B4",
          "ticks": 208977,
          "time": 108.8421875,
          "velocity": 0.4251968503937008
        },
        {
          "duration": 0.7635416666666686,
          "durationTicks": 1466,
          "midi": 62,
          "name": "D4",
          "ticks": 208979,
          "time": 108.84322916666666,
          "velocity": 0.47244094488188976
        },
        {
          "duration": 0.2083333333333286,
          "durationTicks": 400,
          "midi": 67,
          "name": "G4",
          "ticks": 210303,
          "time": 109.5328125,
          "velocity": 0.44881889763779526
        },
        {
          "duration": 0.16041666666666288,
          "durationTicks": 308,
          "midi": 62,
          "name": "D4",
          "ticks": 210756,
          "time": 109.76875,
          "velocity": 0.47244094488188976
        },
        {
          "duration": 0.15989583333333712,
          "durationTicks": 307,
          "midi": 55,
          "name": "G3",
          "ticks": 210778,
          "time": 109.78020833333333,
          "velocity": 0.44881889763779526
        },
        {
          "duration": 0.18906250000000568,
          "durationTicks": 363,
          "midi": 79,
          "name": "G5",
          "ticks": 210812,
          "time": 109.79791666666667,
          "velocity": 0.5433070866141733
        },
        {
          "duration": 0.17604166666666288,
          "durationTicks": 338,
          "midi": 77,
          "name": "F5",
          "ticks": 211171,
          "time": 109.98489583333334,
          "velocity": 0.4094488188976378
        },
        {
          "duration": 0.2307291666666771,
          "durationTicks": 443,
          "midi": 76,
          "name": "E5",
          "ticks": 211634,
          "time": 110.22604166666666,
          "velocity": 0.47244094488188976
        },
        {
          "duration": 0.15677083333332575,
          "durationTicks": 301,
          "midi": 62,
          "name": "D4",
          "ticks": 211638,
          "time": 110.228125,
          "velocity": 0.44881889763779526
        },
        {
          "duration": 0.15208333333333712,
          "durationTicks": 292,
          "midi": 55,
          "name": "G3",
          "ticks": 211645,
          "time": 110.23177083333333,
          "velocity": 0.41732283464566927
        },
        {
          "duration": 0.15208333333333712,
          "durationTicks": 292,
          "midi": 74,
          "name": "D5",
          "ticks": 212064,
          "time": 110.45,
          "velocity": 0.4094488188976378
        },
        {
          "duration": 0.16302083333333428,
          "durationTicks": 313,
          "midi": 62,
          "name": "D4",
          "ticks": 212463,
          "time": 110.6578125,
          "velocity": 0.47244094488188976
        },
        {
          "duration": 0.16614583333333144,
          "durationTicks": 319,
          "midi": 55,
          "name": "G3",
          "ticks": 212467,
          "time": 110.65989583333334,
          "velocity": 0.4409448818897638
        },
        {
          "duration": 0.203125,
          "durationTicks": 390,
          "midi": 79,
          "name": "G5",
          "ticks": 212525,
          "time": 110.69010416666667,
          "velocity": 0.5433070866141733
        },
        {
          "duration": 0.2369791666666572,
          "durationTicks": 455,
          "midi": 77,
          "name": "F5",
          "ticks": 212949,
          "time": 110.9109375,
          "velocity": 0.4251968503937008
        },
        {
          "duration": 0.2750000000000057,
          "durationTicks": 528,
          "midi": 76,
          "name": "E5",
          "ticks": 213418,
          "time": 111.15520833333333,
          "velocity": 0.4094488188976378
        },
        {
          "duration": 0.20520833333333144,
          "durationTicks": 394,
          "midi": 74,
          "name": "D5",
          "ticks": 213815,
          "time": 111.36197916666667,
          "velocity": 0.4409448818897638
        },
        {
          "duration": 0.15156249999999716,
          "durationTicks": 291,
          "midi": 55,
          "name": "G3",
          "ticks": 214238,
          "time": 111.58229166666666,
          "velocity": 0.44881889763779526
        },
        {
          "duration": 0.14739583333333428,
          "durationTicks": 283,
          "midi": 62,
          "name": "D4",
          "ticks": 214239,
          "time": 111.5828125,
          "velocity": 0.47244094488188976
        },
        {
          "duration": 0.18802083333333997,
          "durationTicks": 361,
          "midi": 79,
          "name": "G5",
          "ticks": 214289,
          "time": 111.60885416666666,
          "velocity": 0.5196850393700787
        },
        {
          "duration": 0.27812500000000284,
          "durationTicks": 534,
          "midi": 77,
          "name": "F5",
          "ticks": 214652,
          "time": 111.79791666666667,
          "velocity": 0.41732283464566927
        },
        {
          "duration": 0.2958333333333343,
          "durationTicks": 568,
          "midi": 76,
          "name": "E5",
          "ticks": 215100,
          "time": 112.03125,
          "velocity": 0.44881889763779526
        },
        {
          "duration": 0.2239583333333428,
          "durationTicks": 430,
          "midi": 74,
          "name": "D5",
          "ticks": 215530,
          "time": 112.25520833333333,
          "velocity": 0.44881889763779526
        },
        {
          "duration": 0.1510416666666572,
          "durationTicks": 290,
          "midi": 55,
          "name": "G3",
          "ticks": 215971,
          "time": 112.48489583333334,
          "velocity": 0.4566929133858268
        },
        {
          "duration": 0.1442708333333229,
          "durationTicks": 277,
          "midi": 62,
          "name": "D4",
          "ticks": 215975,
          "time": 112.48697916666667,
          "velocity": 0.48031496062992124
        },
        {
          "duration": 0.20104166666666856,
          "durationTicks": 386,
          "midi": 79,
          "name": "G5",
          "ticks": 215994,
          "time": 112.496875,
          "velocity": 0.5433070866141733
        },
        {
          "duration": 0.2828125000000057,
          "durationTicks": 543,
          "midi": 77,
          "name": "F5",
          "ticks": 216388,
          "time": 112.70208333333333,
          "velocity": 0.3937007874015748
        },
        {
          "duration": 0.2916666666666714,
          "durationTicks": 560,
          "midi": 76,
          "name": "E5",
          "ticks": 216855,
          "time": 112.9453125,
          "velocity": 0.4409448818897638
        },
        {
          "duration": 0.20468750000000568,
          "durationTicks": 393,
          "midi": 74,
          "name": "D5",
          "ticks": 217283,
          "time": 113.16822916666666,
          "velocity": 0.4251968503937008
        },
        {
          "duration": 0.15208333333333712,
          "durationTicks": 292,
          "midi": 62,
          "name": "D4",
          "ticks": 217701,
          "time": 113.3859375,
          "velocity": 0.49606299212598426
        },
        {
          "duration": 0.15520833333333428,
          "durationTicks": 298,
          "midi": 55,
          "name": "G3",
          "ticks": 217707,
          "time": 113.3890625,
          "velocity": 0.47244094488188976
        },
        {
          "duration": 0.1979166666666572,
          "durationTicks": 380,
          "midi": 79,
          "name": "G5",
          "ticks": 217726,
          "time": 113.39895833333334,
          "velocity": 0.5669291338582677
        },
        {
          "duration": 0.27395833333332575,
          "durationTicks": 526,
          "midi": 77,
          "name": "F5",
          "ticks": 218150,
          "time": 113.61979166666667,
          "velocity": 0.4094488188976378
        },
        {
          "duration": 0.24322916666666572,
          "durationTicks": 467,
          "midi": 76,
          "name": "E5",
          "ticks": 218615,
          "time": 113.86197916666667,
          "velocity": 0.44881889763779526
        },
        {
          "duration": 0.12083333333333712,
          "durationTicks": 232,
          "midi": 74,
          "name": "D5",
          "ticks": 219034,
          "time": 114.08020833333333,
          "velocity": 0.4094488188976378
        },
        {
          "duration": 0.1640625,
          "durationTicks": 315,
          "midi": 72,
          "name": "C5",
          "ticks": 219446,
          "time": 114.29479166666667,
          "velocity": 0.5118110236220472
        },
        {
          "duration": 0.11406250000000284,
          "durationTicks": 219,
          "midi": 60,
          "name": "C4",
          "ticks": 219452,
          "time": 114.29791666666667,
          "velocity": 0.47244094488188976
        },
        {
          "duration": 0.12083333333333712,
          "durationTicks": 232,
          "midi": 67,
          "name": "G4",
          "ticks": 219454,
          "time": 114.29895833333333,
          "velocity": 0.5118110236220472
        },
        {
          "duration": 0.23385416666666003,
          "durationTicks": 449,
          "midi": 76,
          "name": "E5",
          "ticks": 220286,
          "time": 114.73229166666667,
          "velocity": 0.4566929133858268
        },
        {
          "duration": 0.12604166666666572,
          "durationTicks": 242,
          "midi": 67,
          "name": "G4",
          "ticks": 220314,
          "time": 114.746875,
          "velocity": 0.44881889763779526
        },
        {
          "duration": 0.09375,
          "durationTicks": 180,
          "midi": 60,
          "name": "C4",
          "ticks": 220322,
          "time": 114.75104166666667,
          "velocity": 0.4330708661417323
        },
        {
          "duration": 0.18333333333333712,
          "durationTicks": 352,
          "midi": 77,
          "name": "F5",
          "ticks": 220694,
          "time": 114.94479166666666,
          "velocity": 0.44881889763779526
        },
        {
          "duration": 0.6208333333333229,
          "durationTicks": 1192,
          "midi": 79,
          "name": "G5",
          "ticks": 221148,
          "time": 115.18125,
          "velocity": 0.5118110236220472
        },
        {
          "duration": 0.1286458333333229,
          "durationTicks": 247,
          "midi": 60,
          "name": "C4",
          "ticks": 221165,
          "time": 115.19010416666667,
          "velocity": 0.47244094488188976
        },
        {
          "duration": 0.11822916666666572,
          "durationTicks": 227,
          "midi": 67,
          "name": "G4",
          "ticks": 221180,
          "time": 115.19791666666667,
          "velocity": 0.49606299212598426
        },
        {
          "duration": 0.060937500000008527,
          "durationTicks": 117,
          "midi": 81,
          "name": "A5",
          "ticks": 222505,
          "time": 115.88802083333333,
          "velocity": 0.4409448818897638
        },
        {
          "duration": 0.13645833333333712,
          "durationTicks": 262,
          "midi": 83,
          "name": "B5",
          "ticks": 222516,
          "time": 115.89375,
          "velocity": 0.44881889763779526
        },
        {
          "duration": 0.23281249999999432,
          "durationTicks": 447,
          "midi": 84,
          "name": "C6",
          "ticks": 222887,
          "time": 116.08697916666667,
          "velocity": 0.48031496062992124
        },
        {
          "duration": 0.2135416666666714,
          "durationTicks": 410,
          "midi": 86,
          "name": "D6",
          "ticks": 223283,
          "time": 116.29322916666666,
          "velocity": 0.4566929133858268
        },
        {
          "duration": 0.15052083333333144,
          "durationTicks": 289,
          "midi": 88,
          "name": "E6",
          "ticks": 223765,
          "time": 116.54427083333333,
          "velocity": 0.5275590551181102
        },
        {
          "duration": 0.13177083333333428,
          "durationTicks": 253,
          "midi": 60,
          "name": "C4",
          "ticks": 223782,
          "time": 116.553125,
          "velocity": 0.5118110236220472
        },
        {
          "duration": 0.13177083333333428,
          "durationTicks": 253,
          "midi": 67,
          "name": "G4",
          "ticks": 223784,
          "time": 116.55416666666666,
          "velocity": 0.5196850393700787
        },
        {
          "duration": 0.24687500000000284,
          "durationTicks": 474,
          "midi": 71,
          "name": "B4",
          "ticks": 225109,
          "time": 117.24427083333333,
          "velocity": 0.5118110236220472
        },
        {
          "duration": 0.23125000000000284,
          "durationTicks": 444,
          "midi": 72,
          "name": "C5",
          "ticks": 225533,
          "time": 117.46510416666666,
          "velocity": 0.47244094488188976
        },
        {
          "duration": 0.15052083333334565,
          "durationTicks": 289,
          "midi": 74,
          "name": "D5",
          "ticks": 225972,
          "time": 117.69375,
          "velocity": 0.47244094488188976
        },
        {
          "duration": 0.7520833333333314,
          "durationTicks": 1444,
          "midi": 72,
          "name": "C5",
          "ticks": 226370,
          "time": 117.90104166666667,
          "velocity": 0.5196850393700787
        },
        {
          "duration": 0.1640625,
          "durationTicks": 315,
          "midi": 71,
          "name": "B4",
          "ticks": 227629,
          "time": 118.55677083333333,
          "velocity": 0.44881889763779526
        },
        {
          "duration": 0.17760416666666856,
          "durationTicks": 341,
          "midi": 69,
          "name": "A4",
          "ticks": 228058,
          "time": 118.78020833333333,
          "velocity": 0.47244094488188976
        },
        {
          "duration": 0.20937500000000853,
          "durationTicks": 402,
          "midi": 71,
          "name": "B4",
          "ticks": 228449,
          "time": 118.98385416666666,
          "velocity": 0.4015748031496063
        },
        {
          "duration": 0.10104166666666003,
          "durationTicks": 194,
          "midi": 64,
          "name": "E4",
          "ticks": 228920,
          "time": 119.22916666666667,
          "velocity": 0.5196850393700787
        },
        {
          "duration": 0.703125,
          "durationTicks": 1350,
          "midi": 69,
          "name": "A4",
          "ticks": 228925,
          "time": 119.23177083333333,
          "velocity": 0.48031496062992124
        },
        {
          "duration": 0.09583333333333144,
          "durationTicks": 184,
          "midi": 57,
          "name": "A3",
          "ticks": 228937,
          "time": 119.23802083333334,
          "velocity": 0.41732283464566927
        },
        {
          "duration": 0.26770833333333144,
          "durationTicks": 514,
          "midi": 71,
          "name": "B4",
          "ticks": 230333,
          "time": 119.96510416666666,
          "velocity": 0.48031496062992124
        },
        {
          "duration": 0.16093749999998863,
          "durationTicks": 309,
          "midi": 48,
          "name": "C3",
          "ticks": 230356,
          "time": 119.97708333333334,
          "velocity": 0.47244094488188976
        },
        {
          "duration": 0.06874999999999432,
          "durationTicks": 132,
          "midi": 57,
          "name": "A3",
          "ticks": 230435,
          "time": 120.01822916666667,
          "velocity": 0.36220472440944884
        },
        {
          "duration": 0.07604166666666856,
          "durationTicks": 146,
          "midi": 55,
          "name": "G3",
          "ticks": 230440,
          "time": 120.02083333333333,
          "velocity": 0.30708661417322836
        },
        {
          "duration": 0.22499999999999432,
          "durationTicks": 432,
          "midi": 72,
          "name": "C5",
          "ticks": 230769,
          "time": 120.1921875,
          "velocity": 0.4566929133858268
        },
        {
          "duration": 0.20208333333333428,
          "durationTicks": 388,
          "midi": 74,
          "name": "D5",
          "ticks": 231170,
          "time": 120.40104166666667,
          "velocity": 0.48031496062992124
        },
        {
          "duration": 0.11822916666667993,
          "durationTicks": 227,
          "midi": 55,
          "name": "G3",
          "ticks": 231644,
          "time": 120.64791666666666,
          "velocity": 0.44881889763779526
        },
        {
          "duration": 0.7041666666666657,
          "durationTicks": 1352,
          "midi": 72,
          "name": "C5",
          "ticks": 231648,
          "time": 120.65,
          "velocity": 0.47244094488188976
        },
        {
          "duration": 0.10260416666666572,
          "durationTicks": 197,
          "midi": 48,
          "name": "C3",
          "ticks": 231658,
          "time": 120.65520833333333,
          "velocity": 0.4409448818897638
        },
        {
          "duration": 0.16093749999998863,
          "durationTicks": 309,
          "midi": 71,
          "name": "B4",
          "ticks": 232936,
          "time": 121.32083333333334,
          "velocity": 0.4251968503937008
        },
        {
          "duration": 0.1927083333333428,
          "durationTicks": 370,
          "midi": 69,
          "name": "A4",
          "ticks": 233363,
          "time": 121.54322916666666,
          "velocity": 0.4015748031496063
        },
        {
          "duration": 0.21562500000000284,
          "durationTicks": 414,
          "midi": 71,
          "name": "B4",
          "ticks": 233799,
          "time": 121.7703125,
          "velocity": 0.4566929133858268
        },
        {
          "duration": 0.39895833333332575,
          "durationTicks": 766,
          "midi": 72,
          "name": "C5",
          "ticks": 234223,
          "time": 121.99114583333333,
          "velocity": 0.49606299212598426
        },
        {
          "duration": 2.926041666666663,
          "durationTicks": 5618,
          "midi": 48,
          "name": "C3",
          "ticks": 234246,
          "time": 122.003125,
          "velocity": 0.44881889763779526
        },
        {
          "duration": 2.9588541666666686,
          "durationTicks": 5681,
          "midi": 60,
          "name": "C4",
          "ticks": 234261,
          "time": 122.0109375,
          "velocity": 0.4566929133858268
        },
        {
          "duration": 0.20416666666666572,
          "durationTicks": 392,
          "midi": 62,
          "name": "D4",
          "ticks": 235553,
          "time": 122.68385416666666,
          "velocity": 0.3858267716535433
        },
        {
          "duration": 0.26770833333334565,
          "durationTicks": 514,
          "midi": 64,
          "name": "E4",
          "ticks": 236022,
          "time": 122.928125,
          "velocity": 0.44881889763779526
        },
        {
          "duration": 0.2161458333333428,
          "durationTicks": 415,
          "midi": 65,
          "name": "F4",
          "ticks": 236427,
          "time": 123.1390625,
          "velocity": 0.44881889763779526
        },
        {
          "duration": 0.13489583333333144,
          "durationTicks": 259,
          "midi": 67,
          "name": "G4",
          "ticks": 236888,
          "time": 123.37916666666666,
          "velocity": 0.4409448818897638
        },
        {
          "duration": 0.16874999999998863,
          "durationTicks": 324,
          "midi": 71,
          "name": "B4",
          "ticks": 237301,
          "time": 123.59427083333334,
          "velocity": 0.3779527559055118
        },
        {
          "duration": 0.3161458333333371,
          "durationTicks": 607,
          "midi": 72,
          "name": "C5",
          "ticks": 237784,
          "time": 123.84583333333333,
          "velocity": 0.44881889763779526
        },
        {
          "duration": 0.2541666666666771,
          "durationTicks": 488,
          "midi": 74,
          "name": "D5",
          "ticks": 238210,
          "time": 124.06770833333333,
          "velocity": 0.4409448818897638
        },
        {
          "duration": 0.2135416666666572,
          "durationTicks": 410,
          "midi": 76,
          "name": "E5",
          "ticks": 238689,
          "time": 124.3171875,
          "velocity": 0.47244094488188976
        },
        {
          "duration": 0.24791666666665435,
          "durationTicks": 476,
          "midi": 77,
          "name": "F5",
          "ticks": 239086,
          "time": 124.52395833333334,
          "velocity": 0.49606299212598426
        },
        {
          "duration": 0.27812500000000284,
          "durationTicks": 534,
          "midi": 76,
          "name": "E5",
          "ticks": 239539,
          "time": 124.75989583333333,
          "velocity": 0.4094488188976378
        },
        {
          "duration": 0.28697916666665435,
          "durationTicks": 551,
          "midi": 74,
          "name": "D5",
          "ticks": 239958,
          "time": 124.978125,
          "velocity": 0.4409448818897638
        },
        {
          "duration": 0.1510416666666714,
          "durationTicks": 290,
          "midi": 72,
          "name": "C5",
          "ticks": 240417,
          "time": 125.2171875,
          "velocity": 0.4409448818897638
        },
        {
          "duration": 0.2291666666666572,
          "durationTicks": 440,
          "midi": 72,
          "name": "C5",
          "ticks": 240862,
          "time": 125.44895833333334,
          "velocity": 0.44881889763779526
        },
        {
          "duration": 0.1640625,
          "durationTicks": 315,
          "midi": 60,
          "name": "C4",
          "ticks": 241265,
          "time": 125.65885416666667,
          "velocity": 0.41732283464566927
        },
        {
          "duration": 0.14374999999999716,
          "durationTicks": 276,
          "midi": 67,
          "name": "G4",
          "ticks": 241275,
          "time": 125.6640625,
          "velocity": 0.44881889763779526
        },
        {
          "duration": 0.22708333333332575,
          "durationTicks": 436,
          "midi": 74,
          "name": "D5",
          "ticks": 241288,
          "time": 125.67083333333333,
          "velocity": 0.47244094488188976
        },
        {
          "duration": 0.296875,
          "durationTicks": 570,
          "midi": 72,
          "name": "C5",
          "ticks": 241799,
          "time": 125.93697916666666,
          "velocity": 0.4409448818897638
        },
        {
          "duration": 0.19114583333333712,
          "durationTicks": 367,
          "midi": 67,
          "name": "G4",
          "ticks": 242233,
          "time": 126.16302083333333,
          "velocity": 0.44881889763779526
        },
        {
          "duration": 0.20729166666666288,
          "durationTicks": 398,
          "midi": 60,
          "name": "C4",
          "ticks": 242248,
          "time": 126.17083333333333,
          "velocity": 0.4330708661417323
        },
        {
          "duration": 0.4619791666666657,
          "durationTicks": 887,
          "midi": 74,
          "name": "D5",
          "ticks": 242266,
          "time": 126.18020833333334,
          "velocity": 0.48031496062992124
        },
        {
          "duration": 0.52291666666666,
          "durationTicks": 1004,
          "midi": 72,
          "name": "C5",
          "ticks": 243114,
          "time": 126.621875,
          "velocity": 0.48031496062992124
        },
        {
          "duration": 0.13489583333334565,
          "durationTicks": 259,
          "midi": 67,
          "name": "G4",
          "ticks": 243134,
          "time": 126.63229166666666,
          "velocity": 0.47244094488188976
        },
        {
          "duration": 0.15000000000000568,
          "durationTicks": 288,
          "midi": 60,
          "name": "C4",
          "ticks": 243135,
          "time": 126.6328125,
          "velocity": 0.44881889763779526
        },
        {
          "duration": 0.5041666666666771,
          "durationTicks": 968,
          "midi": 74,
          "name": "D5",
          "ticks": 244049,
          "time": 127.10885416666666,
          "velocity": 0.5118110236220472
        },
        {
          "duration": 0.32864583333333997,
          "durationTicks": 631,
          "midi": 72,
          "name": "C5",
          "ticks": 244952,
          "time": 127.57916666666667,
          "velocity": 0.47244094488188976
        },
        {
          "duration": 0.1942708333333485,
          "durationTicks": 373,
          "midi": 72,
          "name": "C5",
          "ticks": 245877,
          "time": 128.0609375,
          "velocity": 0.48031496062992124
        },
        {
          "duration": 0.15677083333335418,
          "durationTicks": 301,
          "midi": 67,
          "name": "G4",
          "ticks": 245885,
          "time": 128.06510416666666,
          "velocity": 0.4566929133858268
        },
        {
          "duration": 0.14270833333333144,
          "durationTicks": 274,
          "midi": 60,
          "name": "C4",
          "ticks": 245885,
          "time": 128.06510416666666,
          "velocity": 0.47244094488188976
        },
        {
          "duration": 0.17864583333332007,
          "durationTicks": 343,
          "midi": 79,
          "name": "G5",
          "ticks": 245887,
          "time": 128.06614583333334,
          "velocity": 0.44881889763779526
        },
        {
          "duration": 0.22500000000002274,
          "durationTicks": 432,
          "midi": 76,
          "name": "E5",
          "ticks": 245889,
          "time": 128.0671875,
          "velocity": 0.49606299212598426
        },
        {
          "duration": 0.13385416666667993,
          "durationTicks": 257,
          "midi": 60,
          "name": "C4",
          "ticks": 246488,
          "time": 128.37916666666666,
          "velocity": 0.47244094488188976
        },
        {
          "duration": 0.0739583333333087,
          "durationTicks": 142,
          "midi": 67,
          "name": "G4",
          "ticks": 246497,
          "time": 128.38385416666668,
          "velocity": 0.44881889763779526
        },
        {
          "duration": 0.23697916666668561,
          "durationTicks": 455,
          "midi": 72,
          "name": "C5",
          "ticks": 246789,
          "time": 128.5359375,
          "velocity": 0.47244094488188976
        },
        {
          "duration": 0.26093749999998295,
          "durationTicks": 501,
          "midi": 76,
          "name": "E5",
          "ticks": 246797,
          "time": 128.54010416666668,
          "velocity": 0.48031496062992124
        },
        {
          "duration": 0.21197916666667993,
          "durationTicks": 407,
          "midi": 79,
          "name": "G5",
          "ticks": 246810,
          "time": 128.546875,
          "velocity": 0.44881889763779526
        },
        {
          "duration": 0.14010416666667425,
          "durationTicks": 269,
          "midi": 60,
          "name": "C4",
          "ticks": 247242,
          "time": 128.771875,
          "velocity": 0.4330708661417323
        },
        {
          "duration": 0.1171875,
          "durationTicks": 225,
          "midi": 69,
          "name": "A4",
          "ticks": 247267,
          "time": 128.78489583333334,
          "velocity": 0.4251968503937008
        },
        {
          "duration": 0.11770833333332575,
          "durationTicks": 226,
          "midi": 67,
          "name": "G4",
          "ticks": 248160,
          "time": 129.25,
          "velocity": 0.3858267716535433
        },
        {
          "duration": 0.13697916666666288,
          "durationTicks": 263,
          "midi": 60,
          "name": "C4",
          "ticks": 248170,
          "time": 129.25520833333334,
          "velocity": 0.4566929133858268
        },
        {
          "duration": 0.1432291666666572,
          "durationTicks": 275,
          "midi": 60,
          "name": "C4",
          "ticks": 248605,
          "time": 129.48177083333334,
          "velocity": 0.44881889763779526
        },
        {
          "duration": 0.47708333333332575,
          "durationTicks": 916,
          "midi": 72,
          "name": "C5",
          "ticks": 248632,
          "time": 129.49583333333334,
          "velocity": 0.4566929133858268
        },
        {
          "duration": 0.45625000000001137,
          "durationTicks": 876,
          "midi": 76,
          "name": "E5",
          "ticks": 248634,
          "time": 129.496875,
          "velocity": 0.48031496062992124
        },
        {
          "duration": 0.4401041666666572,
          "durationTicks": 845,
          "midi": 79,
          "name": "G5",
          "ticks": 248636,
          "time": 129.49791666666667,
          "velocity": 0.4566929133858268
        },
        {
          "duration": 0.10833333333332007,
          "durationTicks": 208,
          "midi": 69,
          "name": "A4",
          "ticks": 248636,
          "time": 129.49791666666667,
          "velocity": 0.49606299212598426
        },
        {
          "duration": 0.1510416666666572,
          "durationTicks": 290,
          "midi": 57,
          "name": "A3",
          "ticks": 249554,
          "time": 129.97604166666667,
          "velocity": 0.47244094488188976
        },
        {
          "duration": 0.1276041666666572,
          "durationTicks": 245,
          "midi": 64,
          "name": "E4",
          "ticks": 249562,
          "time": 129.98020833333334,
          "velocity": 0.44881889763779526
        },
        {
          "duration": 0.28177083333332575,
          "durationTicks": 541,
          "midi": 57,
          "name": "A3",
          "ticks": 250151,
          "time": 130.28697916666667,
          "velocity": 0.4566929133858268
        },
        {
          "duration": 0.06510416666665719,
          "durationTicks": 125,
          "midi": 64,
          "name": "E4",
          "ticks": 250199,
          "time": 130.31197916666667,
          "velocity": 0.3464566929133858
        },
        {
          "duration": 0.10312499999997726,
          "durationTicks": 198,
          "midi": 65,
          "name": "F4",
          "ticks": 250491,
          "time": 130.4640625,
          "velocity": 0.47244094488188976
        },
        {
          "duration": 0.25989583333333144,
          "durationTicks": 499,
          "midi": 69,
          "name": "A4",
          "ticks": 250493,
          "time": 130.46510416666666,
          "velocity": 0.5118110236220472
        },
        {
          "duration": 0.25,
          "durationTicks": 480,
          "midi": 72,
          "name": "C5",
          "ticks": 250506,
          "time": 130.471875,
          "velocity": 0.5196850393700787
        },
        {
          "duration": 0.24791666666666856,
          "durationTicks": 476,
          "midi": 76,
          "name": "E5",
          "ticks": 250518,
          "time": 130.478125,
          "velocity": 0.44881889763779526
        },
        {
          "duration": 0.11145833333333144,
          "durationTicks": 214,
          "midi": 64,
          "name": "E4",
          "ticks": 251030,
          "time": 130.74479166666666,
          "velocity": 0.41732283464566927
        },
        {
          "duration": 0.1260416666666515,
          "durationTicks": 242,
          "midi": 57,
          "name": "A3",
          "ticks": 251032,
          "time": 130.74583333333334,
          "velocity": 0.4409448818897638
        },
        {
          "duration": 0.1588541666666572,
          "durationTicks": 305,
          "midi": 57,
          "name": "A3",
          "ticks": 251789,
          "time": 131.14010416666667,
          "velocity": 0.44881889763779526
        },
        {
          "duration": 0.07968749999997726,
          "durationTicks": 153,
          "midi": 64,
          "name": "E4",
          "ticks": 251841,
          "time": 131.1671875,
          "velocity": 0.3937007874015748
        },
        {
          "duration": 0.18385416666666288,
          "durationTicks": 353,
          "midi": 57,
          "name": "A3",
          "ticks": 252275,
          "time": 131.39322916666666,
          "velocity": 0.3779527559055118
        },
        {
          "duration": 0.12708333333335986,
          "durationTicks": 244,
          "midi": 65,
          "name": "F4",
          "ticks": 252313,
          "time": 131.41302083333332,
          "velocity": 0.47244094488188976
        },
        {
          "duration": 0.2932291666666629,
          "durationTicks": 563,
          "midi": 69,
          "name": "A4",
          "ticks": 252330,
          "time": 131.421875,
          "velocity": 0.49606299212598426
        },
        {
          "duration": 0.3161458333333371,
          "durationTicks": 607,
          "midi": 72,
          "name": "C5",
          "ticks": 252334,
          "time": 131.42395833333333,
          "velocity": 0.5118110236220472
        },
        {
          "duration": 0.3187499999999943,
          "durationTicks": 612,
          "midi": 76,
          "name": "E5",
          "ticks": 252348,
          "time": 131.43125,
          "velocity": 0.4566929133858268
        },
        {
          "duration": 0.14895833333332575,
          "durationTicks": 286,
          "midi": 57,
          "name": "A3",
          "ticks": 253237,
          "time": 131.89427083333334,
          "velocity": 0.4409448818897638
        },
        {
          "duration": 0.12187499999998863,
          "durationTicks": 234,
          "midi": 64,
          "name": "E4",
          "ticks": 253252,
          "time": 131.90208333333334,
          "velocity": 0.4409448818897638
        },
        {
          "duration": 0.2890625,
          "durationTicks": 555,
          "midi": 57,
          "name": "A3",
          "ticks": 253853,
          "time": 132.21510416666666,
          "velocity": 0.4409448818897638
        },
        {
          "duration": 0.04166666666665719,
          "durationTicks": 80,
          "midi": 64,
          "name": "E4",
          "ticks": 253928,
          "time": 132.25416666666666,
          "velocity": 0.25196850393700787
        },
        {
          "duration": 0.13593750000001137,
          "durationTicks": 261,
          "midi": 65,
          "name": "F4",
          "ticks": 254172,
          "time": 132.38125,
          "velocity": 0.48031496062992124
        },
        {
          "duration": 0.1953125,
          "durationTicks": 375,
          "midi": 69,
          "name": "A4",
          "ticks": 254185,
          "time": 132.38802083333334,
          "velocity": 0.49606299212598426
        },
        {
          "duration": 0.1848958333333428,
          "durationTicks": 355,
          "midi": 72,
          "name": "C5",
          "ticks": 254197,
          "time": 132.39427083333334,
          "velocity": 0.5196850393700787
        },
        {
          "duration": 0.18177083333333144,
          "durationTicks": 349,
          "midi": 76,
          "name": "E5",
          "ticks": 254197,
          "time": 132.39427083333334,
          "velocity": 0.44881889763779526
        },
        {
          "duration": 0.14791666666667425,
          "durationTicks": 284,
          "midi": 57,
          "name": "A3",
          "ticks": 254700,
          "time": 132.65625,
          "velocity": 0.3937007874015748
        },
        {
          "duration": 0.08697916666667993,
          "durationTicks": 167,
          "midi": 64,
          "name": "E4",
          "ticks": 254746,
          "time": 132.68020833333333,
          "velocity": 0.3700787401574803
        },
        {
          "duration": 0.13906249999999432,
          "durationTicks": 267,
          "midi": 57,
          "name": "A3",
          "ticks": 255525,
          "time": 133.0859375,
          "velocity": 0.4409448818897638
        },
        {
          "duration": 0.06510416666668561,
          "durationTicks": 125,
          "midi": 64,
          "name": "E4",
          "ticks": 255556,
          "time": 133.10208333333333,
          "velocity": 0.41732283464566927
        },
        {
          "duration": 0.15260416666666288,
          "durationTicks": 293,
          "midi": 57,
          "name": "A3",
          "ticks": 255971,
          "time": 133.31822916666667,
          "velocity": 0.4094488188976378
        },
        {
          "duration": 0.12291666666666856,
          "durationTicks": 236,
          "midi": 65,
          "name": "F4",
          "ticks": 255982,
          "time": 133.32395833333334,
          "velocity": 0.48031496062992124
        },
        {
          "duration": 0.18802083333332575,
          "durationTicks": 361,
          "midi": 72,
          "name": "C5",
          "ticks": 256028,
          "time": 133.34791666666666,
          "velocity": 0.48031496062992124
        },
        {
          "duration": 0.19999999999998863,
          "durationTicks": 384,
          "midi": 76,
          "name": "E5",
          "ticks": 256034,
          "time": 133.35104166666667,
          "velocity": 0.4094488188976378
        },
        {
          "duration": 0.21875,
          "durationTicks": 420,
          "midi": 69,
          "name": "A4",
          "ticks": 256036,
          "time": 133.35208333333333,
          "velocity": 0.4251968503937008
        },
        {
          "duration": 0.1510416666666572,
          "durationTicks": 290,
          "midi": 60,
          "name": "C4",
          "ticks": 256875,
          "time": 133.7890625,
          "velocity": 0.44881889763779526
        },
        {
          "duration": 0.14270833333333144,
          "durationTicks": 274,
          "midi": 53,
          "name": "F3",
          "ticks": 256879,
          "time": 133.79114583333333,
          "velocity": 0.44881889763779526
        },
        {
          "duration": 0.3010416666666629,
          "durationTicks": 578,
          "midi": 53,
          "name": "F3",
          "ticks": 257489,
          "time": 134.10885416666667,
          "velocity": 0.4330708661417323
        },
        {
          "duration": 0.05572916666667993,
          "durationTicks": 107,
          "midi": 60,
          "name": "C4",
          "ticks": 257532,
          "time": 134.13125,
          "velocity": 0.3700787401574803
        },
        {
          "duration": 0.12031250000001137,
          "durationTicks": 231,
          "midi": 62,
          "name": "D4",
          "ticks": 257802,
          "time": 134.271875,
          "velocity": 0.49606299212598426
        },
        {
          "duration": 0.17395833333333144,
          "durationTicks": 334,
          "midi": 65,
          "name": "F4",
          "ticks": 257810,
          "time": 134.27604166666666,
          "velocity": 0.5118110236220472
        },
        {
          "duration": 0.18593749999999432,
          "durationTicks": 357,
          "midi": 69,
          "name": "A4",
          "ticks": 257812,
          "time": 134.27708333333334,
          "velocity": 0.5196850393700787
        },
        {
          "duration": 0.14218750000000568,
          "durationTicks": 273,
          "midi": 72,
          "name": "C5",
          "ticks": 257827,
          "time": 134.28489583333334,
          "velocity": 0.47244094488188976
        },
        {
          "duration": 0.16093750000001705,
          "durationTicks": 309,
          "midi": 53,
          "name": "F3",
          "ticks": 258294,
          "time": 134.528125,
          "velocity": 0.3779527559055118
        },
        {
          "duration": 0.13645833333333712,
          "durationTicks": 262,
          "midi": 60,
          "name": "C4",
          "ticks": 258326,
          "time": 134.54479166666667,
          "velocity": 0.4094488188976378
        },
        {
          "duration": 0.15677083333332575,
          "durationTicks": 301,
          "midi": 53,
          "name": "F3",
          "ticks": 259154,
          "time": 134.97604166666667,
          "velocity": 0.4330708661417323
        },
        {
          "duration": 0.12031250000001137,
          "durationTicks": 231,
          "midi": 60,
          "name": "C4",
          "ticks": 259167,
          "time": 134.9828125,
          "velocity": 0.4094488188976378
        },
        {
          "duration": 0.16510416666667993,
          "durationTicks": 317,
          "midi": 53,
          "name": "F3",
          "ticks": 259617,
          "time": 135.2171875,
          "velocity": 0.4409448818897638
        },
        {
          "duration": 0.14531249999998863,
          "durationTicks": 279,
          "midi": 62,
          "name": "D4",
          "ticks": 259626,
          "time": 135.221875,
          "velocity": 0.48031496062992124
        },
        {
          "duration": 0.20104166666666856,
          "durationTicks": 386,
          "midi": 65,
          "name": "F4",
          "ticks": 259628,
          "time": 135.22291666666666,
          "velocity": 0.49606299212598426
        },
        {
          "duration": 0.1822916666666572,
          "durationTicks": 350,
          "midi": 69,
          "name": "A4",
          "ticks": 259628,
          "time": 135.22291666666666,
          "velocity": 0.5196850393700787
        },
        {
          "duration": 0.16979166666666856,
          "durationTicks": 326,
          "midi": 72,
          "name": "C5",
          "ticks": 259634,
          "time": 135.22604166666667,
          "velocity": 0.47244094488188976
        },
        {
          "duration": 0.14531250000001705,
          "durationTicks": 279,
          "midi": 53,
          "name": "F3",
          "ticks": 260536,
          "time": 135.69583333333333,
          "velocity": 0.44881889763779526
        },
        {
          "duration": 0.1380208333333428,
          "durationTicks": 265,
          "midi": 60,
          "name": "C4",
          "ticks": 260569,
          "time": 135.71302083333333,
          "velocity": 0.4409448818897638
        },
        {
          "duration": 0.30156249999998863,
          "durationTicks": 579,
          "midi": 53,
          "name": "F3",
          "ticks": 261153,
          "time": 136.0171875,
          "velocity": 0.4330708661417323
        },
        {
          "duration": 0.06406250000000568,
          "durationTicks": 123,
          "midi": 60,
          "name": "C4",
          "ticks": 261185,
          "time": 136.03385416666666,
          "velocity": 0.3937007874015748
        },
        {
          "duration": 0.18541666666666856,
          "durationTicks": 356,
          "midi": 65,
          "name": "F4",
          "ticks": 261448,
          "time": 136.17083333333332,
          "velocity": 0.48031496062992124
        },
        {
          "duration": 0.17708333333331439,
          "durationTicks": 340,
          "midi": 72,
          "name": "C5",
          "ticks": 261452,
          "time": 136.17291666666668,
          "velocity": 0.44881889763779526
        },
        {
          "duration": 0.18333333333333712,
          "durationTicks": 352,
          "midi": 69,
          "name": "A4",
          "ticks": 261454,
          "time": 136.17395833333333,
          "velocity": 0.49606299212598426
        },
        {
          "duration": 0.13697916666666288,
          "durationTicks": 263,
          "midi": 62,
          "name": "D4",
          "ticks": 261468,
          "time": 136.18125,
          "velocity": 0.5196850393700787
        },
        {
          "duration": 0.17239583333332575,
          "durationTicks": 331,
          "midi": 53,
          "name": "F3",
          "ticks": 261951,
          "time": 136.4328125,
          "velocity": 0.3858267716535433
        },
        {
          "duration": 0.13385416666667993,
          "durationTicks": 257,
          "midi": 60,
          "name": "C4",
          "ticks": 261969,
          "time": 136.4421875,
          "velocity": 0.47244094488188976
        },
        {
          "duration": 0.1520833333333087,
          "durationTicks": 292,
          "midi": 53,
          "name": "F3",
          "ticks": 262821,
          "time": 136.8859375,
          "velocity": 0.4566929133858268
        },
        {
          "duration": 0.07916666666667993,
          "durationTicks": 152,
          "midi": 60,
          "name": "C4",
          "ticks": 262854,
          "time": 136.903125,
          "velocity": 0.4409448818897638
        },
        {
          "duration": 0.15208333333333712,
          "durationTicks": 292,
          "midi": 65,
          "name": "F4",
          "ticks": 263234,
          "time": 137.10104166666667,
          "velocity": 0.49606299212598426
        },
        {
          "duration": 0.17500000000001137,
          "durationTicks": 336,
          "midi": 72,
          "name": "C5",
          "ticks": 263240,
          "time": 137.10416666666666,
          "velocity": 0.4566929133858268
        },
        {
          "duration": 0.14999999999997726,
          "durationTicks": 288,
          "midi": 69,
          "name": "A4",
          "ticks": 263245,
          "time": 137.10677083333334,
          "velocity": 0.5118110236220472
        },
        {
          "duration": 0.1484375,
          "durationTicks": 285,
          "midi": 62,
          "name": "D4",
          "ticks": 263247,
          "time": 137.1078125,
          "velocity": 0.48031496062992124
        },
        {
          "duration": 0.11354166666666288,
          "durationTicks": 218,
          "midi": 53,
          "name": "F3",
          "ticks": 263269,
          "time": 137.11927083333333,
          "velocity": 0.47244094488188976
        },
        {
          "duration": 0.1510416666666572,
          "durationTicks": 290,
          "midi": 55,
          "name": "G3",
          "ticks": 264104,
          "time": 137.55416666666667,
          "velocity": 0.49606299212598426
        },
        {
          "duration": 0.13020833333331439,
          "durationTicks": 250,
          "midi": 62,
          "name": "D4",
          "ticks": 264115,
          "time": 137.55989583333334,
          "velocity": 0.47244094488188976
        },
        {
          "duration": 0.2880208333333485,
          "durationTicks": 553,
          "midi": 55,
          "name": "G3",
          "ticks": 264714,
          "time": 137.871875,
          "velocity": 0.47244094488188976
        },
        {
          "duration": 0.055208333333354176,
          "durationTicks": 106,
          "midi": 62,
          "name": "D4",
          "ticks": 264733,
          "time": 137.88177083333332,
          "velocity": 0.41732283464566927
        },
        {
          "duration": 0.12083333333333712,
          "durationTicks": 232,
          "midi": 64,
          "name": "E4",
          "ticks": 264987,
          "time": 138.0140625,
          "velocity": 0.5433070866141733
        },
        {
          "duration": 0.16197916666666856,
          "durationTicks": 311,
          "midi": 67,
          "name": "G4",
          "ticks": 265006,
          "time": 138.02395833333333,
          "velocity": 0.5118110236220472
        },
        {
          "duration": 0.16510416666667993,
          "durationTicks": 317,
          "midi": 71,
          "name": "B4",
          "ticks": 265014,
          "time": 138.028125,
          "velocity": 0.5118110236220472
        },
        {
          "duration": 0.15416666666666856,
          "durationTicks": 296,
          "midi": 74,
          "name": "D5",
          "ticks": 265019,
          "time": 138.03072916666667,
          "velocity": 0.4566929133858268
        },
        {
          "duration": 0.17812500000002274,
          "durationTicks": 342,
          "midi": 55,
          "name": "G3",
          "ticks": 265434,
          "time": 138.246875,
          "velocity": 0.4094488188976378
        },
        {
          "duration": 0.15729166666667993,
          "durationTicks": 302,
          "midi": 62,
          "name": "D4",
          "ticks": 265463,
          "time": 138.26197916666666,
          "velocity": 0.44881889763779526
        },
        {
          "duration": 0.15781250000000568,
          "durationTicks": 303,
          "midi": 55,
          "name": "G3",
          "ticks": 266341,
          "time": 138.71927083333333,
          "velocity": 0.44881889763779526
        },
        {
          "duration": 0.08072916666665719,
          "durationTicks": 155,
          "midi": 62,
          "name": "D4",
          "ticks": 266381,
          "time": 138.74010416666667,
          "velocity": 0.41732283464566927
        },
        {
          "duration": 0.15104166666668561,
          "durationTicks": 290,
          "midi": 55,
          "name": "G3",
          "ticks": 266780,
          "time": 138.94791666666666,
          "velocity": 0.4409448818897638
        },
        {
          "duration": 0.13593750000001137,
          "durationTicks": 261,
          "midi": 64,
          "name": "E4",
          "ticks": 266786,
          "time": 138.95104166666667,
          "velocity": 0.44881889763779526
        },
        {
          "duration": 0.17812499999999432,
          "durationTicks": 342,
          "midi": 71,
          "name": "B4",
          "ticks": 266809,
          "time": 138.96302083333333,
          "velocity": 0.5196850393700787
        },
        {
          "duration": 0.1796875,
          "durationTicks": 345,
          "midi": 67,
          "name": "G4",
          "ticks": 266811,
          "time": 138.9640625,
          "velocity": 0.48031496062992124
        },
        {
          "duration": 0.2098958333333485,
          "durationTicks": 403,
          "midi": 74,
          "name": "D5",
          "ticks": 266813,
          "time": 138.96510416666666,
          "velocity": 0.44881889763779526
        },
        {
          "duration": 0.1604166666666913,
          "durationTicks": 308,
          "midi": 55,
          "name": "G3",
          "ticks": 267688,
          "time": 139.42083333333332,
          "velocity": 0.4330708661417323
        },
        {
          "duration": 0.12447916666664582,
          "durationTicks": 239,
          "midi": 62,
          "name": "D4",
          "ticks": 267707,
          "time": 139.43072916666668,
          "velocity": 0.4330708661417323
        },
        {
          "duration": 0.29999999999998295,
          "durationTicks": 576,
          "midi": 55,
          "name": "G3",
          "ticks": 268293,
          "time": 139.7359375,
          "velocity": 0.4094488188976378
        },
        {
          "duration": 0.05989583333334281,
          "durationTicks": 115,
          "midi": 62,
          "name": "D4",
          "ticks": 268305,
          "time": 139.7421875,
          "velocity": 0.4015748031496063
        },
        {
          "duration": 0.1651041666666515,
          "durationTicks": 317,
          "midi": 67,
          "name": "G4",
          "ticks": 268585,
          "time": 139.88802083333334,
          "velocity": 0.49606299212598426
        },
        {
          "duration": 0.1640625,
          "durationTicks": 315,
          "midi": 71,
          "name": "B4",
          "ticks": 268589,
          "time": 139.89010416666667,
          "velocity": 0.5118110236220472
        },
        {
          "duration": 0.12708333333333144,
          "durationTicks": 244,
          "midi": 64,
          "name": "E4",
          "ticks": 268596,
          "time": 139.89375,
          "velocity": 0.5196850393700787
        },
        {
          "duration": 0.1432291666666572,
          "durationTicks": 275,
          "midi": 74,
          "name": "D5",
          "ticks": 268600,
          "time": 139.89583333333334,
          "velocity": 0.41732283464566927
        },
        {
          "duration": 0.12916666666666288,
          "durationTicks": 248,
          "midi": 62,
          "name": "D4",
          "ticks": 269061,
          "time": 140.1359375,
          "velocity": 0.44881889763779526
        },
        {
          "duration": 0.1432291666666572,
          "durationTicks": 275,
          "midi": 55,
          "name": "G3",
          "ticks": 269063,
          "time": 140.13697916666666,
          "velocity": 0.3700787401574803
        },
        {
          "duration": 0.13697916666666288,
          "durationTicks": 263,
          "midi": 55,
          "name": "G3",
          "ticks": 269873,
          "time": 140.55885416666666,
          "velocity": 0.4330708661417323
        },
        {
          "duration": 0.06927083333332007,
          "durationTicks": 133,
          "midi": 62,
          "name": "D4",
          "ticks": 269925,
          "time": 140.5859375,
          "velocity": 0.33858267716535434
        },
        {
          "duration": 0.12812500000001137,
          "durationTicks": 246,
          "midi": 71,
          "name": "B4",
          "ticks": 270328,
          "time": 140.79583333333332,
          "velocity": 0.5118110236220472
        },
        {
          "duration": 0.10885416666664582,
          "durationTicks": 209,
          "midi": 67,
          "name": "G4",
          "ticks": 270336,
          "time": 140.8,
          "velocity": 0.5118110236220472
        },
        {
          "duration": 0.07395833333333712,
          "durationTicks": 142,
          "midi": 55,
          "name": "G3",
          "ticks": 270342,
          "time": 140.803125,
          "velocity": 0.3779527559055118
        },
        {
          "duration": 0.1260416666666515,
          "durationTicks": 242,
          "midi": 64,
          "name": "E4",
          "ticks": 270344,
          "time": 140.80416666666667,
          "velocity": 0.5196850393700787
        },
        {
          "duration": 0.13333333333332575,
          "durationTicks": 256,
          "midi": 74,
          "name": "D5",
          "ticks": 270351,
          "time": 140.8078125,
          "velocity": 0.44881889763779526
        },
        {
          "duration": 0.13489583333333144,
          "durationTicks": 259,
          "midi": 67,
          "name": "G4",
          "ticks": 271219,
          "time": 141.25989583333333,
          "velocity": 0.4566929133858268
        },
        {
          "duration": 0.1640625,
          "durationTicks": 315,
          "midi": 72,
          "name": "C5",
          "ticks": 271227,
          "time": 141.2640625,
          "velocity": 0.5118110236220472
        },
        {
          "duration": 0.14270833333333144,
          "durationTicks": 274,
          "midi": 60,
          "name": "C4",
          "ticks": 271227,
          "time": 141.2640625,
          "velocity": 0.4566929133858268
        },
        {
          "duration": 0.13593750000001137,
          "durationTicks": 261,
          "midi": 69,
          "name": "A4",
          "ticks": 272066,
          "time": 141.70104166666667,
          "velocity": 0.47244094488188976
        },
        {
          "duration": 0.14895833333335418,
          "durationTicks": 286,
          "midi": 60,
          "name": "C4",
          "ticks": 272079,
          "time": 141.7078125,
          "velocity": 0.4094488188976378
        },
        {
          "duration": 0.30000000000001137,
          "durationTicks": 576,
          "midi": 72,
          "name": "C5",
          "ticks": 272085,
          "time": 141.7109375,
          "velocity": 0.5118110236220472
        },
        {
          "duration": 0.5151041666666742,
          "durationTicks": 989,
          "midi": 76,
          "name": "E5",
          "ticks": 272970,
          "time": 142.171875,
          "velocity": 0.5196850393700787
        },
        {
          "duration": 0.19374999999999432,
          "durationTicks": 372,
          "midi": 60,
          "name": "C4",
          "ticks": 272978,
          "time": 142.17604166666666,
          "velocity": 0.48031496062992124
        },
        {
          "duration": 0.15364583333331439,
          "durationTicks": 295,
          "midi": 67,
          "name": "G4",
          "ticks": 272984,
          "time": 142.17916666666667,
          "velocity": 0.47244094488188976
        },
        {
          "duration": 0.38593750000001137,
          "durationTicks": 741,
          "midi": 72,
          "name": "C5",
          "ticks": 273821,
          "time": 142.61510416666667,
          "velocity": 0.49606299212598426
        },
        {
          "duration": 0.1640625,
          "durationTicks": 315,
          "midi": 69,
          "name": "A4",
          "ticks": 273836,
          "time": 142.62291666666667,
          "velocity": 0.49606299212598426
        },
        {
          "duration": 0.18802083333332575,
          "durationTicks": 361,
          "midi": 60,
          "name": "C4",
          "ticks": 273836,
          "time": 142.62291666666667,
          "velocity": 0.47244094488188976
        },
        {
          "duration": 0.19687500000000568,
          "durationTicks": 378,
          "midi": 76,
          "name": "E5",
          "ticks": 274687,
          "time": 143.06614583333334,
          "velocity": 0.48031496062992124
        },
        {
          "duration": 0.15937500000001137,
          "durationTicks": 306,
          "midi": 67,
          "name": "G4",
          "ticks": 274696,
          "time": 143.07083333333333,
          "velocity": 0.47244094488188976
        },
        {
          "duration": 0.1729166666666515,
          "durationTicks": 332,
          "midi": 60,
          "name": "C4",
          "ticks": 274702,
          "time": 143.07395833333334,
          "velocity": 0.48031496062992124
        },
        {
          "duration": 0.20989583333332007,
          "durationTicks": 403,
          "midi": 77,
          "name": "F5",
          "ticks": 275065,
          "time": 143.26302083333334,
          "velocity": 0.49606299212598426
        },
        {
          "duration": 0.47604166666667425,
          "durationTicks": 914,
          "midi": 79,
          "name": "G5",
          "ticks": 275528,
          "time": 143.50416666666666,
          "velocity": 0.48031496062992124
        },
        {
          "duration": 0.16093749999998863,
          "durationTicks": 309,
          "midi": 60,
          "name": "C4",
          "ticks": 275560,
          "time": 143.52083333333334,
          "velocity": 0.47244094488188976
        },
        {
          "duration": 0.13072916666666856,
          "durationTicks": 251,
          "midi": 67,
          "name": "G4",
          "ticks": 275572,
          "time": 143.52708333333334,
          "velocity": 0.44881889763779526
        },
        {
          "duration": 0.17447916666668561,
          "durationTicks": 335,
          "midi": 60,
          "name": "C4",
          "ticks": 276399,
          "time": 143.9578125,
          "velocity": 0.48031496062992124
        },
        {
          "duration": 0.5041666666666629,
          "durationTicks": 968,
          "midi": 77,
          "name": "F5",
          "ticks": 276401,
          "time": 143.95885416666667,
          "velocity": 0.49606299212598426
        },
        {
          "duration": 0.12812500000001137,
          "durationTicks": 246,
          "midi": 67,
          "name": "G4",
          "ticks": 276413,
          "time": 143.96510416666666,
          "velocity": 0.44881889763779526
        },
        {
          "duration": 0.45000000000001705,
          "durationTicks": 864,
          "midi": 76,
          "name": "E5",
          "ticks": 277231,
          "time": 144.39114583333333,
          "velocity": 0.48031496062992124
        },
        {
          "duration": 0.14114583333332575,
          "durationTicks": 271,
          "midi": 69,
          "name": "A4",
          "ticks": 277242,
          "time": 144.396875,
          "velocity": 0.4566929133858268
        },
        {
          "duration": 0.1640625,
          "durationTicks": 315,
          "midi": 60,
          "name": "C4",
          "ticks": 277244,
          "time": 144.39791666666667,
          "velocity": 0.47244094488188976
        },
        {
          "duration": 0.4026041666666629,
          "durationTicks": 773,
          "midi": 74,
          "name": "D5",
          "ticks": 278072,
          "time": 144.82916666666668,
          "velocity": 0.47244094488188976
        },
        {
          "duration": 0.10989583333332575,
          "durationTicks": 211,
          "midi": 60,
          "name": "C4",
          "ticks": 278076,
          "time": 144.83125,
          "velocity": 0.48031496062992124
        },
        {
          "duration": 0.10208333333332575,
          "durationTicks": 196,
          "midi": 67,
          "name": "G4",
          "ticks": 278077,
          "time": 144.83177083333334,
          "velocity": 0.47244094488188976
        },
        {
          "duration": 0.15885416666668561,
          "durationTicks": 305,
          "midi": 57,
          "name": "A3",
          "ticks": 278915,
          "time": 145.26822916666666,
          "velocity": 0.44881889763779526
        },
        {
          "duration": 0.11666666666667425,
          "durationTicks": 224,
          "midi": 64,
          "name": "E4",
          "ticks": 278936,
          "time": 145.27916666666667,
          "velocity": 0.4409448818897638
        },
        {
          "duration": 0.19583333333332575,
          "durationTicks": 376,
          "midi": 76,
          "name": "E5",
          "ticks": 278947,
          "time": 145.28489583333334,
          "velocity": 0.48031496062992124
        },
        {
          "duration": 0.17604166666666288,
          "durationTicks": 338,
          "midi": 77,
          "name": "F5",
          "ticks": 279300,
          "time": 145.46875,
          "velocity": 0.4409448818897638
        },
        {
          "duration": 0.15937500000001137,
          "durationTicks": 306,
          "midi": 57,
          "name": "A3",
          "ticks": 279759,
          "time": 145.7078125,
          "velocity": 0.4566929133858268
        },
        {
          "duration": 0.4453125,
          "durationTicks": 855,
          "midi": 79,
          "name": "G5",
          "ticks": 279761,
          "time": 145.70885416666667,
          "velocity": 0.4566929133858268
        },
        {
          "duration": 0.11406249999998863,
          "durationTicks": 219,
          "midi": 64,
          "name": "E4",
          "ticks": 279782,
          "time": 145.71979166666668,
          "velocity": 0.44881889763779526
        },
        {
          "duration": 0.17135416666664582,
          "durationTicks": 329,
          "midi": 57,
          "name": "A3",
          "ticks": 280619,
          "time": 146.15572916666667,
          "velocity": 0.4566929133858268
        },
        {
          "duration": 0.42916666666667425,
          "durationTicks": 824,
          "midi": 77,
          "name": "F5",
          "ticks": 280633,
          "time": 146.16302083333332,
          "velocity": 0.4566929133858268
        },
        {
          "duration": 0.12135416666666288,
          "durationTicks": 233,
          "midi": 64,
          "name": "E4",
          "ticks": 280646,
          "time": 146.16979166666667,
          "velocity": 0.44881889763779526
        },
        {
          "duration": 0.4489583333333371,
          "durationTicks": 862,
          "midi": 76,
          "name": "E5",
          "ticks": 281480,
          "time": 146.60416666666666,
          "velocity": 0.47244094488188976
        },
        {
          "duration": 0.15781250000000568,
          "durationTicks": 303,
          "midi": 57,
          "name": "A3",
          "ticks": 281501,
          "time": 146.61510416666667,
          "velocity": 0.4566929133858268
        },
        {
          "duration": 0.11197916666665719,
          "durationTicks": 215,
          "midi": 64,
          "name": "E4",
          "ticks": 281522,
          "time": 146.62604166666668,
          "velocity": 0.44881889763779526
        },
        {
          "duration": 0.16197916666666856,
          "durationTicks": 311,
          "midi": 74,
          "name": "D5",
          "ticks": 282353,
          "time": 147.05885416666666,
          "velocity": 0.48031496062992124
        },
        {
          "duration": 0.15677083333332575,
          "durationTicks": 301,
          "midi": 57,
          "name": "A3",
          "ticks": 282363,
          "time": 147.0640625,
          "velocity": 0.44881889763779526
        },
        {
          "duration": 0.11822916666667993,
          "durationTicks": 227,
          "midi": 64,
          "name": "E4",
          "ticks": 282380,
          "time": 147.07291666666666,
          "velocity": 0.4566929133858268
        },
        {
          "duration": 0.13749999999998863,
          "durationTicks": 264,
          "midi": 57,
          "name": "A3",
          "ticks": 283188,
          "time": 147.49375,
          "velocity": 0.48031496062992124
        },
        {
          "duration": 0.07916666666667993,
          "durationTicks": 152,
          "midi": 64,
          "name": "E4",
          "ticks": 283200,
          "time": 147.5,
          "velocity": 0.49606299212598426
        },
        {
          "duration": 0.16250000000002274,
          "durationTicks": 312,
          "midi": 83,
          "name": "B5",
          "ticks": 283213,
          "time": 147.50677083333332,
          "velocity": 0.4409448818897638
        },
        {
          "duration": 0.12187500000001705,
          "durationTicks": 234,
          "midi": 81,
          "name": "A5",
          "ticks": 283235,
          "time": 147.51822916666666,
          "velocity": 0.4566929133858268
        },
        {
          "duration": 0.20520833333333144,
          "durationTicks": 394,
          "midi": 81,
          "name": "A5",
          "ticks": 283559,
          "time": 147.68697916666667,
          "velocity": 0.33858267716535434
        },
        {
          "duration": 0.2526041666666572,
          "durationTicks": 485,
          "midi": 79,
          "name": "G5",
          "ticks": 284024,
          "time": 147.92916666666667,
          "velocity": 0.44881889763779526
        },
        {
          "duration": 0.19427083333332007,
          "durationTicks": 373,
          "midi": 77,
          "name": "F5",
          "ticks": 284444,
          "time": 148.14791666666667,
          "velocity": 0.4251968503937008
        },
        {
          "duration": 0.14010416666667425,
          "durationTicks": 269,
          "midi": 57,
          "name": "A3",
          "ticks": 284876,
          "time": 148.37291666666667,
          "velocity": 0.48031496062992124
        },
        {
          "duration": 0.18697916666667425,
          "durationTicks": 359,
          "midi": 83,
          "name": "B5",
          "ticks": 284884,
          "time": 148.37708333333333,
          "velocity": 0.5669291338582677
        },
        {
          "duration": 0.11406249999998863,
          "durationTicks": 219,
          "midi": 64,
          "name": "E4",
          "ticks": 284886,
          "time": 148.378125,
          "velocity": 0.48031496062992124
        },
        {
          "duration": 0.24895833333332007,
          "durationTicks": 478,
          "midi": 81,
          "name": "A5",
          "ticks": 285224,
          "time": 148.55416666666667,
          "velocity": 0.3858267716535433
        },
        {
          "duration": 0.18802083333332575,
          "durationTicks": 361,
          "midi": 79,
          "name": "G5",
          "ticks": 285704,
          "time": 148.80416666666667,
          "velocity": 0.3779527559055118
        },
        {
          "duration": 0.17395833333333144,
          "durationTicks": 334,
          "midi": 77,
          "name": "F5",
          "ticks": 286126,
          "time": 149.02395833333333,
          "velocity": 0.4094488188976378
        },
        {
          "duration": 0.43541666666666856,
          "durationTicks": 836,
          "midi": 76,
          "name": "E5",
          "ticks": 286600,
          "time": 149.27083333333334,
          "velocity": 0.49606299212598426
        },
        {
          "duration": 0.13020833333331439,
          "durationTicks": 250,
          "midi": 53,
          "name": "F3",
          "ticks": 286604,
          "time": 149.27291666666667,
          "velocity": 0.4566929133858268
        },
        {
          "duration": 0.12083333333333712,
          "durationTicks": 232,
          "midi": 60,
          "name": "C4",
          "ticks": 286614,
          "time": 149.278125,
          "velocity": 0.47244094488188976
        },
        {
          "duration": 0.38177083333332007,
          "durationTicks": 733,
          "midi": 77,
          "name": "F5",
          "ticks": 287430,
          "time": 149.703125,
          "velocity": 0.49606299212598426
        },
        {
          "duration": 0.15625,
          "durationTicks": 300,
          "midi": 53,
          "name": "F3",
          "ticks": 287445,
          "time": 149.7109375,
          "velocity": 0.47244094488188976
        },
        {
          "duration": 0.12708333333333144,
          "durationTicks": 244,
          "midi": 60,
          "name": "C4",
          "ticks": 287447,
          "time": 149.71197916666668,
          "velocity": 0.47244094488188976
        },
        {
          "duration": 0.47552083333332007,
          "durationTicks": 913,
          "midi": 76,
          "name": "E5",
          "ticks": 288277,
          "time": 150.14427083333334,
          "velocity": 0.49606299212598426
        },
        {
          "duration": 0.20625000000001137,
          "durationTicks": 396,
          "midi": 55,
          "name": "G3",
          "ticks": 288282,
          "time": 150.146875,
          "velocity": 0.48031496062992124
        },
        {
          "duration": 0.18177083333335986,
          "durationTicks": 349,
          "midi": 62,
          "name": "D4",
          "ticks": 288313,
          "time": 150.16302083333332,
          "velocity": 0.44881889763779526
        },
        {
          "duration": 0.1171875,
          "durationTicks": 225,
          "midi": 77,
          "name": "F5",
          "ticks": 289148,
          "time": 150.59791666666666,
          "velocity": 0.49606299212598426
        },
        {
          "duration": 0.14270833333335986,
          "durationTicks": 274,
          "midi": 55,
          "name": "G3",
          "ticks": 289183,
          "time": 150.61614583333332,
          "velocity": 0.49606299212598426
        },
        {
          "duration": 0.11406249999998863,
          "durationTicks": 219,
          "midi": 62,
          "name": "D4",
          "ticks": 289188,
          "time": 150.61875,
          "velocity": 0.48031496062992124
        },
        {
          "duration": 0.14010416666667425,
          "durationTicks": 269,
          "midi": 55,
          "name": "G3",
          "ticks": 289993,
          "time": 151.03802083333332,
          "velocity": 0.47244094488188976
        },
        {
          "duration": 0.11875000000000568,
          "durationTicks": 228,
          "midi": 62,
          "name": "D4",
          "ticks": 290007,
          "time": 151.0453125,
          "velocity": 0.4566929133858268
        },
        {
          "duration": 0.1510416666666572,
          "durationTicks": 290,
          "midi": 67,
          "name": "G4",
          "ticks": 290018,
          "time": 151.05104166666666,
          "velocity": 0.48031496062992124
        },
        {
          "duration": 0.23385416666667425,
          "durationTicks": 449,
          "midi": 69,
          "name": "A4",
          "ticks": 290396,
          "time": 151.24791666666667,
          "velocity": 0.44881889763779526
        },
        {
          "duration": 0.21302083333333144,
          "durationTicks": 409,
          "midi": 71,
          "name": "B4",
          "ticks": 290849,
          "time": 151.48385416666667,
          "velocity": 0.44881889763779526
        },
        {
          "duration": 0.10677083333331439,
          "durationTicks": 205,
          "midi": 62,
          "name": "D4",
          "ticks": 290886,
          "time": 151.503125,
          "velocity": 0.47244094488188976
        },
        {
          "duration": 0.125,
          "durationTicks": 240,
          "midi": 55,
          "name": "G3",
          "ticks": 290888,
          "time": 151.50416666666666,
          "velocity": 0.47244094488188976
        },
        {
          "duration": 0.125,
          "durationTicks": 240,
          "midi": 72,
          "name": "C5",
          "ticks": 291266,
          "time": 151.70104166666667,
          "velocity": 0.47244094488188976
        },
        {
          "duration": 0.6411458333333542,
          "durationTicks": 1231,
          "midi": 77,
          "name": "F5",
          "ticks": 291748,
          "time": 151.95208333333332,
          "velocity": 0.3779527559055118
        },
        {
          "duration": 0.10572916666666288,
          "durationTicks": 203,
          "midi": 76,
          "name": "E5",
          "ticks": 291754,
          "time": 151.95520833333333,
          "velocity": 0.3464566929133858
        },
        {
          "duration": 0.1552083333333485,
          "durationTicks": 298,
          "midi": 55,
          "name": "G3",
          "ticks": 291763,
          "time": 151.95989583333332,
          "velocity": 0.47244094488188976
        },
        {
          "duration": 0.125,
          "durationTicks": 240,
          "midi": 62,
          "name": "D4",
          "ticks": 291767,
          "time": 151.96197916666668,
          "velocity": 0.44881889763779526
        },
        {
          "duration": 0.15416666666666856,
          "durationTicks": 296,
          "midi": 79,
          "name": "G5",
          "ticks": 293090,
          "time": 152.65104166666666,
          "velocity": 0.49606299212598426
        },
        {
          "duration": 0.12187500000001705,
          "durationTicks": 234,
          "midi": 55,
          "name": "G3",
          "ticks": 293094,
          "time": 152.653125,
          "velocity": 0.4566929133858268
        },
        {
          "duration": 0.11510416666666856,
          "durationTicks": 221,
          "midi": 62,
          "name": "D4",
          "ticks": 293098,
          "time": 152.65520833333332,
          "velocity": 0.48031496062992124
        },
        {
          "duration": 0.15833333333333144,
          "durationTicks": 304,
          "midi": 77,
          "name": "F5",
          "ticks": 293560,
          "time": 152.89583333333334,
          "velocity": 0.41732283464566927
        },
        {
          "duration": 0.23802083333333712,
          "durationTicks": 457,
          "midi": 79,
          "name": "G5",
          "ticks": 293889,
          "time": 153.0671875,
          "velocity": 0.47244094488188976
        },
        {
          "duration": 0.15468749999999432,
          "durationTicks": 297,
          "midi": 81,
          "name": "A5",
          "ticks": 294340,
          "time": 153.30208333333334,
          "velocity": 0.47244094488188976
        },
        {
          "duration": 0.1328125,
          "durationTicks": 255,
          "midi": 55,
          "name": "G3",
          "ticks": 294361,
          "time": 153.31302083333333,
          "velocity": 0.48031496062992124
        },
        {
          "duration": 0.10989583333332575,
          "durationTicks": 211,
          "midi": 62,
          "name": "D4",
          "ticks": 294371,
          "time": 153.31822916666667,
          "velocity": 0.4566929133858268
        },
        {
          "duration": 0.2161458333333428,
          "durationTicks": 415,
          "midi": 83,
          "name": "B5",
          "ticks": 294716,
          "time": 153.49791666666667,
          "velocity": 0.4566929133858268
        },
        {
          "duration": 0.29895833333333144,
          "durationTicks": 574,
          "midi": 81,
          "name": "A5",
          "ticks": 295190,
          "time": 153.74479166666666,
          "velocity": 0.5196850393700787
        },
        {
          "duration": 0.3776041666666572,
          "durationTicks": 725,
          "midi": 62,
          "name": "D4",
          "ticks": 295208,
          "time": 153.75416666666666,
          "velocity": 0.4566929133858268
        },
        {
          "duration": 0.3088541666666629,
          "durationTicks": 593,
          "midi": 55,
          "name": "G3",
          "ticks": 295252,
          "time": 153.77708333333334,
          "velocity": 0.44881889763779526
        },
        {
          "duration": 0.125,
          "durationTicks": 240,
          "midi": 67,
          "name": "G4",
          "ticks": 296780,
          "time": 154.57291666666666,
          "velocity": 0.5118110236220472
        },
        {
          "duration": 0.125,
          "durationTicks": 240,
          "midi": 76,
          "name": "E5",
          "ticks": 296786,
          "time": 154.57604166666667,
          "velocity": 0.41732283464566927
        },
        {
          "duration": 0.07656249999999432,
          "durationTicks": 147,
          "midi": 60,
          "name": "C4",
          "ticks": 296794,
          "time": 154.58020833333333,
          "velocity": 0.3858267716535433
        },
        {
          "duration": 0.21406250000001137,
          "durationTicks": 411,
          "midi": 72,
          "name": "C5",
          "ticks": 297158,
          "time": 154.76979166666666,
          "velocity": 0.4409448818897638
        },
        {
          "duration": 0.17343750000000568,
          "durationTicks": 333,
          "midi": 76,
          "name": "E5",
          "ticks": 297638,
          "time": 155.01979166666666,
          "velocity": 0.4409448818897638
        },
        {
          "duration": 0.171875,
          "durationTicks": 330,
          "midi": 72,
          "name": "C5",
          "ticks": 297984,
          "time": 155.2,
          "velocity": 0.41732283464566927
        },
        {
          "duration": 0.15260416666666288,
          "durationTicks": 293,
          "midi": 60,
          "name": "C4",
          "ticks": 298428,
          "time": 155.43125,
          "velocity": 0.44881889763779526
        },
        {
          "duration": 0.14739583333332007,
          "durationTicks": 283,
          "midi": 67,
          "name": "G4",
          "ticks": 298431,
          "time": 155.4328125,
          "velocity": 0.48031496062992124
        },
        {
          "duration": 0.20000000000001705,
          "durationTicks": 384,
          "midi": 79,
          "name": "G5",
          "ticks": 298456,
          "time": 155.44583333333333,
          "velocity": 0.47244094488188976
        },
        {
          "duration": 0.23020833333333712,
          "durationTicks": 442,
          "midi": 76,
          "name": "E5",
          "ticks": 298869,
          "time": 155.6609375,
          "velocity": 0.41732283464566927
        },
        {
          "duration": 0.2333333333333485,
          "durationTicks": 448,
          "midi": 79,
          "name": "G5",
          "ticks": 299299,
          "time": 155.88489583333333,
          "velocity": 0.47244094488188976
        },
        {
          "duration": 0.18906249999997726,
          "durationTicks": 363,
          "midi": 76,
          "name": "E5",
          "ticks": 299687,
          "time": 156.08697916666668,
          "velocity": 0.4566929133858268
        },
        {
          "duration": 0.20520833333333144,
          "durationTicks": 394,
          "midi": 69,
          "name": "A4",
          "ticks": 300543,
          "time": 156.5328125,
          "velocity": 0.4409448818897638
        },
        {
          "duration": 0.16718750000001137,
          "durationTicks": 321,
          "midi": 72,
          "name": "C5",
          "ticks": 300960,
          "time": 156.75,
          "velocity": 0.47244094488188976
        },
        {
          "duration": 0.25572916666666856,
          "durationTicks": 491,
          "midi": 69,
          "name": "A4",
          "ticks": 301327,
          "time": 156.94114583333334,
          "velocity": 0.3700787401574803
        },
        {
          "duration": 0.16041666666666288,
          "durationTicks": 308,
          "midi": 64,
          "name": "E4",
          "ticks": 301770,
          "time": 157.171875,
          "velocity": 0.4566929133858268
        },
        {
          "duration": 0.4671874999999943,
          "durationTicks": 897,
          "midi": 72,
          "name": "C5",
          "ticks": 301772,
          "time": 157.17291666666668,
          "velocity": 0.5118110236220472
        },
        {
          "duration": 0.16822916666666288,
          "durationTicks": 323,
          "midi": 57,
          "name": "A3",
          "ticks": 301774,
          "time": 157.17395833333333,
          "velocity": 0.4330708661417323
        },
        {
          "duration": 0.4338541666666629,
          "durationTicks": 833,
          "midi": 74,
          "name": "D5",
          "ticks": 302627,
          "time": 157.61822916666668,
          "velocity": 0.5669291338582677
        },
        {
          "duration": 0.17083333333332007,
          "durationTicks": 328,
          "midi": 72,
          "name": "C5",
          "ticks": 303437,
          "time": 158.04010416666668,
          "velocity": 0.4566929133858268
        },
        {
          "duration": 0.125,
          "durationTicks": 240,
          "midi": 64,
          "name": "E4",
          "ticks": 303454,
          "time": 158.04895833333333,
          "velocity": 0.47244094488188976
        },
        {
          "duration": 0.13177083333332007,
          "durationTicks": 253,
          "midi": 57,
          "name": "A3",
          "ticks": 303464,
          "time": 158.05416666666667,
          "velocity": 0.4409448818897638
        },
        {
          "duration": 0.2229166666666913,
          "durationTicks": 428,
          "midi": 69,
          "name": "A4",
          "ticks": 303834,
          "time": 158.246875,
          "velocity": 0.4094488188976378
        },
        {
          "duration": 0.17812499999999432,
          "durationTicks": 342,
          "midi": 72,
          "name": "C5",
          "ticks": 304282,
          "time": 158.48020833333334,
          "velocity": 0.4409448818897638
        },
        {
          "duration": 0.20104166666666856,
          "durationTicks": 386,
          "midi": 69,
          "name": "A4",
          "ticks": 304681,
          "time": 158.68802083333333,
          "velocity": 0.4251968503937008
        },
        {
          "duration": 0.16770833333333712,
          "durationTicks": 322,
          "midi": 57,
          "name": "A3",
          "ticks": 305144,
          "time": 158.92916666666667,
          "velocity": 0.4330708661417323
        },
        {
          "duration": 0.14947916666667993,
          "durationTicks": 287,
          "midi": 64,
          "name": "E4",
          "ticks": 305149,
          "time": 158.93177083333333,
          "velocity": 0.4566929133858268
        },
        {
          "duration": 0.19270833333331439,
          "durationTicks": 370,
          "midi": 76,
          "name": "E5",
          "ticks": 305163,
          "time": 158.9390625,
          "velocity": 0.4566929133858268
        },
        {
          "duration": 0.24427083333333144,
          "durationTicks": 469,
          "midi": 72,
          "name": "C5",
          "ticks": 305545,
          "time": 159.13802083333334,
          "velocity": 0.48031496062992124
        },
        {
          "duration": 0.20468750000000568,
          "durationTicks": 393,
          "midi": 76,
          "name": "E5",
          "ticks": 305985,
          "time": 159.3671875,
          "velocity": 0.4566929133858268
        },
        {
          "duration": 0.4520833333333485,
          "durationTicks": 868,
          "midi": 72,
          "name": "C5",
          "ticks": 306328,
          "time": 159.54583333333332,
          "velocity": 0.3937007874015748
        },
        {
          "duration": 0.17552083333333712,
          "durationTicks": 337,
          "midi": 69,
          "name": "A4",
          "ticks": 307189,
          "time": 159.99427083333333,
          "velocity": 0.4409448818897638
        },
        {
          "duration": 0.16510416666667993,
          "durationTicks": 317,
          "midi": 64,
          "name": "E4",
          "ticks": 307227,
          "time": 160.0140625,
          "velocity": 0.4566929133858268
        },
        {
          "duration": 0.171875,
          "durationTicks": 330,
          "midi": 57,
          "name": "A3",
          "ticks": 307237,
          "time": 160.01927083333334,
          "velocity": 0.4409448818897638
        },
        {
          "duration": 0.21822916666667425,
          "durationTicks": 419,
          "midi": 72,
          "name": "C5",
          "ticks": 307601,
          "time": 160.20885416666667,
          "velocity": 0.44881889763779526
        },
        {
          "duration": 0.24010416666666856,
          "durationTicks": 461,
          "midi": 74,
          "name": "D5",
          "ticks": 307972,
          "time": 160.40208333333334,
          "velocity": 0.4566929133858268
        },
        {
          "duration": 0.4453125,
          "durationTicks": 855,
          "midi": 76,
          "name": "E5",
          "ticks": 308442,
          "time": 160.646875,
          "velocity": 0.48031496062992124
        },
        {
          "duration": 0.09322916666664582,
          "durationTicks": 179,
          "midi": 74,
          "name": "D5",
          "ticks": 309254,
          "time": 161.06979166666667,
          "velocity": 0.48031496062992124
        },
        {
          "duration": 1.5489583333333314,
          "durationTicks": 2974,
          "midi": 53,
          "name": "F3",
          "ticks": 310065,
          "time": 161.4921875,
          "velocity": 0.44881889763779526
        },
        {
          "duration": 1.567187500000017,
          "durationTicks": 3009,
          "midi": 60,
          "name": "C4",
          "ticks": 310078,
          "time": 161.49895833333332,
          "velocity": 0.44881889763779526
        },
        {
          "duration": 0.1770833333333428,
          "durationTicks": 340,
          "midi": 69,
          "name": "A4",
          "ticks": 310088,
          "time": 161.50416666666666,
          "velocity": 0.44881889763779526
        },
        {
          "duration": 0.22083333333333144,
          "durationTicks": 424,
          "midi": 65,
          "name": "F4",
          "ticks": 310462,
          "time": 161.69895833333334,
          "velocity": 0.4015748031496063
        },
        {
          "duration": 0.20468749999997726,
          "durationTicks": 393,
          "midi": 69,
          "name": "A4",
          "ticks": 310881,
          "time": 161.9171875,
          "velocity": 0.3937007874015748
        },
        {
          "duration": 0.17552083333333712,
          "durationTicks": 337,
          "midi": 65,
          "name": "F4",
          "ticks": 311292,
          "time": 162.13125,
          "velocity": 0.4015748031496063
        },
        {
          "duration": 0.24114583333332007,
          "durationTicks": 463,
          "midi": 69,
          "name": "A4",
          "ticks": 311733,
          "time": 162.3609375,
          "velocity": 0.49606299212598426
        },
        {
          "duration": 0.18281249999998295,
          "durationTicks": 351,
          "midi": 71,
          "name": "B4",
          "ticks": 312081,
          "time": 162.5421875,
          "velocity": 0.4566929133858268
        },
        {
          "duration": 0.2916666666666572,
          "durationTicks": 560,
          "midi": 72,
          "name": "C5",
          "ticks": 312540,
          "time": 162.78125,
          "velocity": 0.47244094488188976
        },
        {
          "duration": 0.4291666666666458,
          "durationTicks": 824,
          "midi": 71,
          "name": "B4",
          "ticks": 312902,
          "time": 162.96979166666668,
          "velocity": 0.44881889763779526
        },
        {
          "duration": 0.15416666666666856,
          "durationTicks": 296,
          "midi": 67,
          "name": "G4",
          "ticks": 313768,
          "time": 163.42083333333332,
          "velocity": 0.47244094488188976
        },
        {
          "duration": 1.1682291666666629,
          "durationTicks": 2243,
          "midi": 62,
          "name": "D4",
          "ticks": 313795,
          "time": 163.43489583333334,
          "velocity": 0.47244094488188976
        },
        {
          "duration": 1.128124999999983,
          "durationTicks": 2166,
          "midi": 55,
          "name": "G3",
          "ticks": 313803,
          "time": 163.4390625,
          "velocity": 0.44881889763779526
        },
        {
          "duration": 0.25156249999997726,
          "durationTicks": 483,
          "midi": 71,
          "name": "B4",
          "ticks": 314151,
          "time": 163.6203125,
          "velocity": 0.41732283464566927
        },
        {
          "duration": 0.23385416666667425,
          "durationTicks": 449,
          "midi": 72,
          "name": "C5",
          "ticks": 314550,
          "time": 163.828125,
          "velocity": 0.47244094488188976
        },
        {
          "duration": 0.504687500000017,
          "durationTicks": 969,
          "midi": 74,
          "name": "D5",
          "ticks": 315028,
          "time": 164.07708333333332,
          "velocity": 0.48031496062992124
        },
        {
          "duration": 0.109375,
          "durationTicks": 210,
          "midi": 72,
          "name": "C5",
          "ticks": 315853,
          "time": 164.50677083333332,
          "velocity": 0.5196850393700787
        },
        {
          "duration": 0.4098958333333371,
          "durationTicks": 787,
          "midi": 72,
          "name": "C5",
          "ticks": 316702,
          "time": 164.94895833333334,
          "velocity": 0.5433070866141733
        },
        {
          "duration": 1.07916666666668,
          "durationTicks": 2072,
          "midi": 67,
          "name": "G4",
          "ticks": 317547,
          "time": 165.3890625,
          "velocity": 0.47244094488188976
        },
        {
          "duration": 1.0749999999999886,
          "durationTicks": 2064,
          "midi": 60,
          "name": "C4",
          "ticks": 317553,
          "time": 165.3921875,
          "velocity": 0.47244094488188976
        },
        {
          "duration": 0.6239583333333201,
          "durationTicks": 1198,
          "midi": 84,
          "name": "C6",
          "ticks": 317576,
          "time": 165.40416666666667,
          "velocity": 0.5433070866141733
        },
        {
          "duration": 0.24947916666664582,
          "durationTicks": 479,
          "midi": 83,
          "name": "B5",
          "ticks": 318782,
          "time": 166.03229166666668,
          "velocity": 0.5196850393700787
        },
        {
          "duration": 0.26093750000001137,
          "durationTicks": 501,
          "midi": 81,
          "name": "A5",
          "ticks": 319194,
          "time": 166.246875,
          "velocity": 0.48031496062992124
        },
        {
          "duration": 0.20104166666666856,
          "durationTicks": 386,
          "midi": 79,
          "name": "G5",
          "ticks": 319596,
          "time": 166.45625,
          "velocity": 0.4251968503937008
        },
        {
          "duration": 0.2770833333333087,
          "durationTicks": 532,
          "midi": 60,
          "name": "C4",
          "ticks": 320016,
          "time": 166.675,
          "velocity": 0.48031496062992124
        },
        {
          "duration": 0.2682291666666572,
          "durationTicks": 515,
          "midi": 67,
          "name": "G4",
          "ticks": 320035,
          "time": 166.68489583333334,
          "velocity": 0.49606299212598426
        },
        {
          "duration": 0.6588541666666572,
          "durationTicks": 1265,
          "midi": 84,
          "name": "C6",
          "ticks": 320051,
          "time": 166.69322916666667,
          "velocity": 0.49606299212598426
        },
        {
          "duration": 0.22760416666667993,
          "durationTicks": 437,
          "midi": 83,
          "name": "B5",
          "ticks": 321226,
          "time": 167.30520833333333,
          "velocity": 0.5118110236220472
        },
        {
          "duration": 0.3187499999999943,
          "durationTicks": 612,
          "midi": 81,
          "name": "A5",
          "ticks": 321589,
          "time": 167.49427083333333,
          "velocity": 0.4094488188976378
        },
        {
          "duration": 0.234375,
          "durationTicks": 450,
          "midi": 79,
          "name": "G5",
          "ticks": 322047,
          "time": 167.7328125,
          "velocity": 0.47244094488188976
        },
        {
          "duration": 0.9260416666666913,
          "durationTicks": 1778,
          "midi": 60,
          "name": "C4",
          "ticks": 322483,
          "time": 167.95989583333332,
          "velocity": 0.48031496062992124
        },
        {
          "duration": 0.8619791666666856,
          "durationTicks": 1655,
          "midi": 67,
          "name": "G4",
          "ticks": 322483,
          "time": 167.95989583333332,
          "velocity": 0.5196850393700787
        },
        {
          "duration": 0.5822916666666629,
          "durationTicks": 1118,
          "midi": 84,
          "name": "C6",
          "ticks": 322506,
          "time": 167.971875,
          "velocity": 0.6456692913385826
        },
        {
          "duration": 0.2901041666666515,
          "durationTicks": 557,
          "midi": 83,
          "name": "B5",
          "ticks": 323597,
          "time": 168.54010416666668,
          "velocity": 0.49606299212598426
        },
        {
          "duration": 0.2901041666666515,
          "durationTicks": 557,
          "midi": 81,
          "name": "A5",
          "ticks": 324021,
          "time": 168.7609375,
          "velocity": 0.49606299212598426
        },
        {
          "duration": 0.3166666666666629,
          "durationTicks": 608,
          "midi": 79,
          "name": "G5",
          "ticks": 324438,
          "time": 168.978125,
          "velocity": 0.48031496062992124
        },
        {
          "duration": 0.6192708333333314,
          "durationTicks": 1189,
          "midi": 57,
          "name": "A3",
          "ticks": 324839,
          "time": 169.18697916666667,
          "velocity": 0.44881889763779526
        },
        {
          "duration": 0.6010416666666742,
          "durationTicks": 1154,
          "midi": 64,
          "name": "E4",
          "ticks": 324860,
          "time": 169.19791666666666,
          "velocity": 0.47244094488188976
        },
        {
          "duration": 0.40416666666666856,
          "durationTicks": 776,
          "midi": 69,
          "name": "A4",
          "ticks": 325670,
          "time": 169.61979166666666,
          "velocity": 0.48031496062992124
        },
        {
          "duration": 0.14791666666667425,
          "durationTicks": 284,
          "midi": 57,
          "name": "A3",
          "ticks": 326454,
          "time": 170.028125,
          "velocity": 0.4409448818897638
        },
        {
          "duration": 0.13125000000002274,
          "durationTicks": 252,
          "midi": 64,
          "name": "E4",
          "ticks": 326469,
          "time": 170.0359375,
          "velocity": 0.48031496062992124
        },
        {
          "duration": 0.2020833333333485,
          "durationTicks": 388,
          "midi": 81,
          "name": "A5",
          "ticks": 326488,
          "time": 170.04583333333332,
          "velocity": 0.5196850393700787
        },
        {
          "duration": 0.23593749999997726,
          "durationTicks": 453,
          "midi": 79,
          "name": "G5",
          "ticks": 326867,
          "time": 170.24322916666668,
          "velocity": 0.44881889763779526
        },
        {
          "duration": 0.17395833333333144,
          "durationTicks": 334,
          "midi": 77,
          "name": "F5",
          "ticks": 327322,
          "time": 170.48020833333334,
          "velocity": 0.4566929133858268
        },
        {
          "duration": 0.2057291666666572,
          "durationTicks": 395,
          "midi": 76,
          "name": "E5",
          "ticks": 327679,
          "time": 170.66614583333333,
          "velocity": 0.47244094488188976
        },
        {
          "duration": 0.682812499999983,
          "durationTicks": 1311,
          "midi": 74,
          "name": "D5",
          "ticks": 328109,
          "time": 170.89010416666667,
          "velocity": 0.5196850393700787
        },
        {
          "duration": 0.12343749999999432,
          "durationTicks": 237,
          "midi": 64,
          "name": "E4",
          "ticks": 328122,
          "time": 170.896875,
          "velocity": 0.49606299212598426
        },
        {
          "duration": 0.12812499999998295,
          "durationTicks": 246,
          "midi": 57,
          "name": "A3",
          "ticks": 328124,
          "time": 170.89791666666667,
          "velocity": 0.49606299212598426
        },
        {
          "duration": 0.1536458333333428,
          "durationTicks": 295,
          "midi": 76,
          "name": "E5",
          "ticks": 329407,
          "time": 171.56614583333334,
          "velocity": 0.5118110236220472
        },
        {
          "duration": 0.13906250000002274,
          "durationTicks": 267,
          "midi": 67,
          "name": "G4",
          "ticks": 329428,
          "time": 171.57708333333332,
          "velocity": 0.48031496062992124
        },
        {
          "duration": 0.11666666666667425,
          "durationTicks": 224,
          "midi": 60,
          "name": "C4",
          "ticks": 329438,
          "time": 171.58229166666666,
          "velocity": 0.47244094488188976
        },
        {
          "duration": 0.17916666666667425,
          "durationTicks": 344,
          "midi": 72,
          "name": "C5",
          "ticks": 329839,
          "time": 171.79114583333333,
          "velocity": 0.44881889763779526
        },
        {
          "duration": 0.21875,
          "durationTicks": 420,
          "midi": 76,
          "name": "E5",
          "ticks": 330229,
          "time": 171.99427083333333,
          "velocity": 0.44881889763779526
        },
        {
          "duration": 0.4479166666666572,
          "durationTicks": 860,
          "midi": 77,
          "name": "F5",
          "ticks": 330659,
          "time": 172.21822916666667,
          "velocity": 0.47244094488188976
        },
        {
          "duration": 0.14114583333332575,
          "durationTicks": 271,
          "midi": 60,
          "name": "C4",
          "ticks": 330672,
          "time": 172.225,
          "velocity": 0.4566929133858268
        },
        {
          "duration": 0.12812500000001137,
          "durationTicks": 246,
          "midi": 67,
          "name": "G4",
          "ticks": 330680,
          "time": 172.22916666666666,
          "velocity": 0.5118110236220472
        },
        {
          "duration": 0.4468750000000057,
          "durationTicks": 858,
          "midi": 79,
          "name": "G5",
          "ticks": 331477,
          "time": 172.64427083333334,
          "velocity": 0.5118110236220472
        },
        {
          "duration": 0.16718749999998295,
          "durationTicks": 321,
          "midi": 60,
          "name": "C4",
          "ticks": 331480,
          "time": 172.64583333333334,
          "velocity": 0.47244094488188976
        },
        {
          "duration": 0.15312500000001705,
          "durationTicks": 294,
          "midi": 67,
          "name": "G4",
          "ticks": 331498,
          "time": 172.65520833333332,
          "velocity": 0.49606299212598426
        },
        {
          "duration": 0.4270833333333428,
          "durationTicks": 820,
          "midi": 77,
          "name": "F5",
          "ticks": 332314,
          "time": 173.08020833333333,
          "velocity": 0.48031496062992124
        },
        {
          "duration": 0.12968749999998863,
          "durationTicks": 249,
          "midi": 60,
          "name": "C4",
          "ticks": 332316,
          "time": 173.08125,
          "velocity": 0.47244094488188976
        },
        {
          "duration": 0.10624999999998863,
          "durationTicks": 204,
          "midi": 67,
          "name": "G4",
          "ticks": 332321,
          "time": 173.08385416666667,
          "velocity": 0.5118110236220472
        },
        {
          "duration": 0.10104166666664582,
          "durationTicks": 194,
          "midi": 76,
          "name": "E5",
          "ticks": 333137,
          "time": 173.50885416666668,
          "velocity": 0.5196850393700787
        },
        {
          "duration": 0.09114583333334281,
          "durationTicks": 175,
          "midi": 65,
          "name": "F4",
          "ticks": 333915,
          "time": 173.9140625,
          "velocity": 0.48031496062992124
        },
        {
          "duration": 0.09895833333331439,
          "durationTicks": 190,
          "midi": 53,
          "name": "F3",
          "ticks": 333959,
          "time": 173.93697916666667,
          "velocity": 0.44881889763779526
        },
        {
          "duration": 0.07916666666667993,
          "durationTicks": 152,
          "midi": 60,
          "name": "C4",
          "ticks": 333961,
          "time": 173.93802083333333,
          "velocity": 0.44881889763779526
        },
        {
          "duration": 0.11041666666667993,
          "durationTicks": 212,
          "midi": 65,
          "name": "F4",
          "ticks": 334287,
          "time": 174.1078125,
          "velocity": 0.4409448818897638
        },
        {
          "duration": 0.06302083333332575,
          "durationTicks": 121,
          "midi": 65,
          "name": "F4",
          "ticks": 334758,
          "time": 174.353125,
          "velocity": 0.3858267716535433
        },
        {
          "duration": 0.12552083333335418,
          "durationTicks": 241,
          "midi": 65,
          "name": "F4",
          "ticks": 335146,
          "time": 174.55520833333333,
          "velocity": 0.4015748031496063
        },
        {
          "duration": 0.35000000000002274,
          "durationTicks": 672,
          "midi": 65,
          "name": "F4",
          "ticks": 335570,
          "time": 174.77604166666666,
          "velocity": 0.47244094488188976
        },
        {
          "duration": 0.09479166666667993,
          "durationTicks": 182,
          "midi": 60,
          "name": "C4",
          "ticks": 335580,
          "time": 174.78125,
          "velocity": 0.47244094488188976
        },
        {
          "duration": 0.09583333333333144,
          "durationTicks": 184,
          "midi": 53,
          "name": "F3",
          "ticks": 335587,
          "time": 174.78489583333334,
          "velocity": 0.4094488188976378
        },
        {
          "duration": 0.43177083333333144,
          "durationTicks": 829,
          "midi": 65,
          "name": "F4",
          "ticks": 336386,
          "time": 175.20104166666667,
          "velocity": 0.4566929133858268
        },
        {
          "duration": 0.12187500000001705,
          "durationTicks": 234,
          "midi": 60,
          "name": "C4",
          "ticks": 337179,
          "time": 175.6140625,
          "velocity": 0.47244094488188976
        },
        {
          "duration": 0.09739583333333712,
          "durationTicks": 187,
          "midi": 53,
          "name": "F3",
          "ticks": 337190,
          "time": 175.61979166666666,
          "velocity": 0.4330708661417323
        },
        {
          "duration": 0.15989583333333712,
          "durationTicks": 307,
          "midi": 77,
          "name": "F5",
          "ticks": 337204,
          "time": 175.62708333333333,
          "velocity": 0.5118110236220472
        },
        {
          "duration": 0.18958333333335986,
          "durationTicks": 364,
          "midi": 65,
          "name": "F4",
          "ticks": 337573,
          "time": 175.81927083333332,
          "velocity": 0.41732283464566927
        },
        {
          "duration": 0.1640625,
          "durationTicks": 315,
          "midi": 77,
          "name": "F5",
          "ticks": 338054,
          "time": 176.06979166666667,
          "velocity": 0.4251968503937008
        },
        {
          "duration": 0.15104166666668561,
          "durationTicks": 290,
          "midi": 65,
          "name": "F4",
          "ticks": 338337,
          "time": 176.2171875,
          "velocity": 0.3543307086614173
        },
        {
          "duration": 0.3578124999999943,
          "durationTicks": 687,
          "midi": 77,
          "name": "F5",
          "ticks": 338821,
          "time": 176.46927083333333,
          "velocity": 0.5118110236220472
        },
        {
          "duration": 0.15000000000000568,
          "durationTicks": 288,
          "midi": 53,
          "name": "F3",
          "ticks": 338824,
          "time": 176.47083333333333,
          "velocity": 0.44881889763779526
        },
        {
          "duration": 0.14114583333332575,
          "durationTicks": 271,
          "midi": 60,
          "name": "C4",
          "ticks": 338830,
          "time": 176.47395833333334,
          "velocity": 0.48031496062992124
        },
        {
          "duration": 0.19947916666666288,
          "durationTicks": 383,
          "midi": 76,
          "name": "E5",
          "ticks": 339591,
          "time": 176.8703125,
          "velocity": 0.48031496062992124
        },
        {
          "duration": 0.13333333333332575,
          "durationTicks": 256,
          "midi": 53,
          "name": "F3",
          "ticks": 339617,
          "time": 176.88385416666668,
          "velocity": 0.4566929133858268
        },
        {
          "duration": 0.13124999999999432,
          "durationTicks": 252,
          "midi": 60,
          "name": "C4",
          "ticks": 339625,
          "time": 176.88802083333334,
          "velocity": 0.49606299212598426
        },
        {
          "duration": 0.1510416666666572,
          "durationTicks": 290,
          "midi": 67,
          "name": "G4",
          "ticks": 340424,
          "time": 177.30416666666667,
          "velocity": 0.48031496062992124
        },
        {
          "duration": 0.12760416666668561,
          "durationTicks": 245,
          "midi": 55,
          "name": "G3",
          "ticks": 340449,
          "time": 177.3171875,
          "velocity": 0.44881889763779526
        },
        {
          "duration": 0.12031249999998295,
          "durationTicks": 231,
          "midi": 62,
          "name": "D4",
          "ticks": 340454,
          "time": 177.31979166666667,
          "velocity": 0.47244094488188976
        },
        {
          "duration": 0.09999999999999432,
          "durationTicks": 192,
          "midi": 79,
          "name": "G5",
          "ticks": 340827,
          "time": 177.5140625,
          "velocity": 0.4566929133858268
        },
        {
          "duration": 0.13124999999999432,
          "durationTicks": 252,
          "midi": 67,
          "name": "G4",
          "ticks": 341299,
          "time": 177.75989583333333,
          "velocity": 0.44881889763779526
        },
        {
          "duration": 0.11145833333333144,
          "durationTicks": 214,
          "midi": 79,
          "name": "G5",
          "ticks": 341702,
          "time": 177.96979166666668,
          "velocity": 0.44881889763779526
        },
        {
          "duration": 0.4359374999999943,
          "durationTicks": 837,
          "midi": 67,
          "name": "G4",
          "ticks": 342044,
          "time": 178.14791666666667,
          "velocity": 0.4094488188976378
        },
        {
          "duration": 0.10885416666664582,
          "durationTicks": 209,
          "midi": 79,
          "name": "G5",
          "ticks": 342895,
          "time": 178.59114583333334,
          "velocity": 0.5196850393700787
        },
        {
          "duration": 0.12916666666666288,
          "durationTicks": 248,
          "midi": 55,
          "name": "G3",
          "ticks": 343680,
          "time": 179,
          "velocity": 0.4566929133858268
        },
        {
          "duration": 0.13906249999999432,
          "durationTicks": 267,
          "midi": 67,
          "name": "G4",
          "ticks": 343682,
          "time": 179.00104166666668,
          "velocity": 0.5118110236220472
        },
        {
          "duration": 0.09427083333332575,
          "durationTicks": 181,
          "midi": 62,
          "name": "D4",
          "ticks": 343697,
          "time": 179.00885416666668,
          "velocity": 0.47244094488188976
        },
        {
          "duration": 0.21302083333333144,
          "durationTicks": 409,
          "midi": 69,
          "name": "A4",
          "ticks": 344031,
          "time": 179.1828125,
          "velocity": 0.44881889763779526
        },
        {
          "duration": 0.1432291666666572,
          "durationTicks": 275,
          "midi": 71,
          "name": "B4",
          "ticks": 344511,
          "time": 179.4328125,
          "velocity": 0.48031496062992124
        },
        {
          "duration": 0.27812499999998863,
          "durationTicks": 534,
          "midi": 72,
          "name": "C5",
          "ticks": 344774,
          "time": 179.56979166666667,
          "velocity": 0.47244094488188976
        },
        {
          "duration": 0.4958333333333087,
          "durationTicks": 952,
          "midi": 71,
          "name": "B4",
          "ticks": 345272,
          "time": 179.82916666666668,
          "velocity": 0.44881889763779526
        },
        {
          "duration": 0.13437500000000568,
          "durationTicks": 258,
          "midi": 62,
          "name": "D4",
          "ticks": 345281,
          "time": 179.83385416666667,
          "velocity": 0.44881889763779526
        },
        {
          "duration": 0.1380208333333428,
          "durationTicks": 265,
          "midi": 55,
          "name": "G3",
          "ticks": 345293,
          "time": 179.84010416666666,
          "velocity": 0.44881889763779526
        },
        {
          "duration": 0.06354166666665151,
          "durationTicks": 122,
          "midi": 69,
          "name": "A4",
          "ticks": 346113,
          "time": 180.2671875,
          "velocity": 0.49606299212598426
        },
        {
          "duration": 0.31979166666667425,
          "durationTicks": 614,
          "midi": 72,
          "name": "C5",
          "ticks": 346923,
          "time": 180.6890625,
          "velocity": 0.5118110236220472
        },
        {
          "duration": 0.11614583333332007,
          "durationTicks": 223,
          "midi": 60,
          "name": "C4",
          "ticks": 346971,
          "time": 180.7140625,
          "velocity": 0.47244094488188976
        },
        {
          "duration": 0.10104166666667425,
          "durationTicks": 194,
          "midi": 67,
          "name": "G4",
          "ticks": 346973,
          "time": 180.71510416666666,
          "velocity": 0.48031496062992124
        },
        {
          "duration": 0.16093749999998863,
          "durationTicks": 309,
          "midi": 84,
          "name": "C6",
          "ticks": 347706,
          "time": 181.096875,
          "velocity": 0.5433070866141733
        },
        {
          "duration": 0.09114583333334281,
          "durationTicks": 175,
          "midi": 72,
          "name": "C5",
          "ticks": 348136,
          "time": 181.32083333333333,
          "velocity": 0.36220472440944884
        },
        {
          "duration": 0.08906249999998295,
          "durationTicks": 171,
          "midi": 71,
          "name": "B4",
          "ticks": 348138,
          "time": 181.321875,
          "velocity": 0.3779527559055118
        },
        {
          "duration": 0.12395833333332007,
          "durationTicks": 238,
          "midi": 84,
          "name": "C6",
          "ticks": 348572,
          "time": 181.54791666666668,
          "velocity": 0.49606299212598426
        },
        {
          "duration": 0.18177083333333144,
          "durationTicks": 349,
          "midi": 72,
          "name": "C5",
          "ticks": 348872,
          "time": 181.70416666666668,
          "velocity": 0.44881889763779526
        },
        {
          "duration": 0.1328125,
          "durationTicks": 255,
          "midi": 84,
          "name": "C6",
          "ticks": 349369,
          "time": 181.96302083333333,
          "velocity": 0.49606299212598426
        },
        {
          "duration": 0.18333333333333712,
          "durationTicks": 352,
          "midi": 72,
          "name": "C5",
          "ticks": 349668,
          "time": 182.11875,
          "velocity": 0.47244094488188976
        },
        {
          "duration": 0.3645833333333428,
          "durationTicks": 700,
          "midi": 84,
          "name": "C6",
          "ticks": 350124,
          "time": 182.35625,
          "velocity": 0.5196850393700787
        },
        {
          "duration": 0.1484375,
          "durationTicks": 285,
          "midi": 60,
          "name": "C4",
          "ticks": 350150,
          "time": 182.36979166666666,
          "velocity": 0.4566929133858268
        },
        {
          "duration": 0.12708333333333144,
          "durationTicks": 244,
          "midi": 67,
          "name": "G4",
          "ticks": 350162,
          "time": 182.37604166666668,
          "velocity": 0.48031496062992124
        },
        {
          "duration": 0.18125000000000568,
          "durationTicks": 348,
          "midi": 83,
          "name": "B5",
          "ticks": 350924,
          "time": 182.77291666666667,
          "velocity": 0.49606299212598426
        },
        {
          "duration": 0.1552083333333485,
          "durationTicks": 298,
          "midi": 60,
          "name": "C4",
          "ticks": 350926,
          "time": 182.77395833333333,
          "velocity": 0.47244094488188976
        },
        {
          "duration": 0.12395833333334849,
          "durationTicks": 238,
          "midi": 67,
          "name": "G4",
          "ticks": 350938,
          "time": 182.78020833333332,
          "velocity": 0.47244094488188976
        },
        {
          "duration": 0.28593750000001705,
          "durationTicks": 549,
          "midi": 81,
          "name": "A5",
          "ticks": 351308,
          "time": 182.97291666666666,
          "velocity": 0.4566929133858268
        },
        {
          "duration": 0.10624999999998863,
          "durationTicks": 204,
          "midi": 67,
          "name": "G4",
          "ticks": 351761,
          "time": 183.20885416666667,
          "velocity": 0.48031496062992124
        },
        {
          "duration": 0.11822916666667993,
          "durationTicks": 227,
          "midi": 60,
          "name": "C4",
          "ticks": 351765,
          "time": 183.2109375,
          "velocity": 0.44881889763779526
        },
        {
          "duration": 0.41979166666666856,
          "durationTicks": 806,
          "midi": 79,
          "name": "G5",
          "ticks": 351798,
          "time": 183.228125,
          "velocity": 0.47244094488188976
        },
        {
          "duration": 0.12239583333334281,
          "durationTicks": 235,
          "midi": 57,
          "name": "A3",
          "ticks": 352573,
          "time": 183.63177083333332,
          "velocity": 0.44881889763779526
        },
        {
          "duration": 0.10104166666664582,
          "durationTicks": 194,
          "midi": 64,
          "name": "E4",
          "ticks": 352577,
          "time": 183.63385416666668,
          "velocity": 0.5118110236220472
        },
        {
          "duration": 0.41093749999998863,
          "durationTicks": 789,
          "midi": 81,
          "name": "A5",
          "ticks": 352581,
          "time": 183.6359375,
          "velocity": 0.49606299212598426
        },
        {
          "duration": 0.17395833333333144,
          "durationTicks": 334,
          "midi": 83,
          "name": "B5",
          "ticks": 353422,
          "time": 184.07395833333334,
          "velocity": 0.5118110236220472
        },
        {
          "duration": 0.14999999999997726,
          "durationTicks": 288,
          "midi": 60,
          "name": "C4",
          "ticks": 353432,
          "time": 184.07916666666668,
          "velocity": 0.49606299212598426
        },
        {
          "duration": 0.13958333333332007,
          "durationTicks": 268,
          "midi": 53,
          "name": "F3",
          "ticks": 353463,
          "time": 184.0953125,
          "velocity": 0.3779527559055118
        },
        {
          "duration": 0.171875,
          "durationTicks": 330,
          "midi": 81,
          "name": "A5",
          "ticks": 353831,
          "time": 184.28697916666667,
          "velocity": 0.4409448818897638
        },
        {
          "duration": 0.42291666666667993,
          "durationTicks": 812,
          "midi": 79,
          "name": "G5",
          "ticks": 354230,
          "time": 184.49479166666666,
          "velocity": 0.44881889763779526
        },
        {
          "duration": 0.12291666666666856,
          "durationTicks": 236,
          "midi": 53,
          "name": "F3",
          "ticks": 354255,
          "time": 184.5078125,
          "velocity": 0.4566929133858268
        },
        {
          "duration": 0.10520833333333712,
          "durationTicks": 202,
          "midi": 60,
          "name": "C4",
          "ticks": 354265,
          "time": 184.51302083333334,
          "velocity": 0.5118110236220472
        },
        {
          "duration": 0.13697916666666288,
          "durationTicks": 263,
          "midi": 48,
          "name": "C3",
          "ticks": 355039,
          "time": 184.91614583333333,
          "velocity": 0.44881889763779526
        },
        {
          "duration": 0.1380208333333428,
          "durationTicks": 265,
          "midi": 55,
          "name": "G3",
          "ticks": 355044,
          "time": 184.91875,
          "velocity": 0.44881889763779526
        },
        {
          "duration": 0.3557291666666629,
          "durationTicks": 683,
          "midi": 77,
          "name": "F5",
          "ticks": 355062,
          "time": 184.928125,
          "velocity": 0.49606299212598426
        },
        {
          "duration": 0.10312500000000568,
          "durationTicks": 198,
          "midi": 55,
          "name": "G3",
          "ticks": 355839,
          "time": 185.3328125,
          "velocity": 0.4566929133858268
        },
        {
          "duration": 0.20208333333332007,
          "durationTicks": 388,
          "midi": 79,
          "name": "G5",
          "ticks": 355855,
          "time": 185.34114583333334,
          "velocity": 0.48031496062992124
        },
        {
          "duration": 0.08333333333334281,
          "durationTicks": 160,
          "midi": 48,
          "name": "C3",
          "ticks": 355860,
          "time": 185.34375,
          "velocity": 0.4015748031496063
        },
        {
          "duration": 0.20520833333333144,
          "durationTicks": 394,
          "midi": 81,
          "name": "A5",
          "ticks": 356210,
          "time": 185.52604166666666,
          "velocity": 0.44881889763779526
        },
        {
          "duration": 0.11406249999998863,
          "durationTicks": 219,
          "midi": 45,
          "name": "A2",
          "ticks": 356665,
          "time": 185.76302083333334,
          "velocity": 0.4409448818897638
        },
        {
          "duration": 0.11614583333334849,
          "durationTicks": 223,
          "midi": 52,
          "name": "E3",
          "ticks": 356671,
          "time": 185.76614583333333,
          "velocity": 0.44881889763779526
        },
        {
          "duration": 0.42812500000002274,
          "durationTicks": 822,
          "midi": 83,
          "name": "B5",
          "ticks": 356690,
          "time": 185.77604166666666,
          "velocity": 0.5118110236220472
        },
        {
          "duration": 0.2020833333333485,
          "durationTicks": 388,
          "midi": 81,
          "name": "A5",
          "ticks": 357508,
          "time": 186.20208333333332,
          "velocity": 0.44881889763779526
        },
        {
          "duration": 0.16510416666667993,
          "durationTicks": 317,
          "midi": 79,
          "name": "G5",
          "ticks": 357878,
          "time": 186.39479166666666,
          "velocity": 0.4251968503937008
        },
        {
          "duration": 0.4270833333333428,
          "durationTicks": 820,
          "midi": 77,
          "name": "F5",
          "ticks": 358268,
          "time": 186.59791666666666,
          "velocity": 0.47244094488188976
        },
        {
          "duration": 0.1510416666666572,
          "durationTicks": 290,
          "midi": 53,
          "name": "F3",
          "ticks": 358278,
          "time": 186.603125,
          "velocity": 0.3858267716535433
        },
        {
          "duration": 0.13437499999997726,
          "durationTicks": 258,
          "midi": 60,
          "name": "C4",
          "ticks": 358285,
          "time": 186.60677083333334,
          "velocity": 0.4566929133858268
        },
        {
          "duration": 0.18437500000001705,
          "durationTicks": 354,
          "midi": 79,
          "name": "G5",
          "ticks": 359128,
          "time": 187.04583333333332,
          "velocity": 0.48031496062992124
        },
        {
          "duration": 0.19583333333335418,
          "durationTicks": 376,
          "midi": 81,
          "name": "A5",
          "ticks": 359461,
          "time": 187.21927083333333,
          "velocity": 0.4409448818897638
        },
        {
          "duration": 0.1260416666666515,
          "durationTicks": 242,
          "midi": 55,
          "name": "G3",
          "ticks": 359931,
          "time": 187.4640625,
          "velocity": 0.4566929133858268
        },
        {
          "duration": 0.11510416666666856,
          "durationTicks": 221,
          "midi": 83,
          "name": "B5",
          "ticks": 359937,
          "time": 187.4671875,
          "velocity": 0.5196850393700787
        },
        {
          "duration": 0.11406249999998863,
          "durationTicks": 219,
          "midi": 62,
          "name": "D4",
          "ticks": 359944,
          "time": 187.47083333333333,
          "velocity": 0.47244094488188976
        },
        {
          "duration": 0.10416666666668561,
          "durationTicks": 200,
          "midi": 57,
          "name": "A3",
          "ticks": 360762,
          "time": 187.896875,
          "velocity": 0.4330708661417323
        },
        {
          "duration": 0.1260416666666515,
          "durationTicks": 242,
          "midi": 64,
          "name": "E4",
          "ticks": 360764,
          "time": 187.89791666666667,
          "velocity": 0.4566929133858268
        },
        {
          "duration": 0.19010416666668561,
          "durationTicks": 365,
          "midi": 72,
          "name": "C5",
          "ticks": 360774,
          "time": 187.903125,
          "velocity": 0.47244094488188976
        },
        {
          "duration": 0.22604166666667425,
          "durationTicks": 434,
          "midi": 74,
          "name": "D5",
          "ticks": 361096,
          "time": 188.07083333333333,
          "velocity": 0.4409448818897638
        },
        {
          "duration": 0.41979166666666856,
          "durationTicks": 806,
          "midi": 76,
          "name": "E5",
          "ticks": 361561,
          "time": 188.31302083333333,
          "velocity": 0.5196850393700787
        },
        {
          "duration": 0.13906249999999432,
          "durationTicks": 267,
          "midi": 65,
          "name": "F4",
          "ticks": 361576,
          "time": 188.32083333333333,
          "velocity": 0.47244094488188976
        },
        {
          "duration": 0.10833333333332007,
          "durationTicks": 208,
          "midi": 59,
          "name": "B3",
          "ticks": 361582,
          "time": 188.32395833333334,
          "velocity": 0.4094488188976378
        },
        {
          "duration": 0.18697916666667425,
          "durationTicks": 359,
          "midi": 74,
          "name": "D5",
          "ticks": 362362,
          "time": 188.73020833333334,
          "velocity": 0.47244094488188976
        },
        {
          "duration": 0.08229166666666288,
          "durationTicks": 158,
          "midi": 72,
          "name": "C5",
          "ticks": 362730,
          "time": 188.921875,
          "velocity": 0.44881889763779526
        },
        {
          "duration": 0.1708333333333485,
          "durationTicks": 328,
          "midi": 72,
          "name": "C5",
          "ticks": 363155,
          "time": 189.14322916666666,
          "velocity": 0.5118110236220472
        },
        {
          "duration": 0.11510416666666856,
          "durationTicks": 221,
          "midi": 67,
          "name": "G4",
          "ticks": 363185,
          "time": 189.15885416666666,
          "velocity": 0.5118110236220472
        },
        {
          "duration": 0.078125,
          "durationTicks": 150,
          "midi": 60,
          "name": "C4",
          "ticks": 363197,
          "time": 189.16510416666668,
          "velocity": 0.44881889763779526
        },
        {
          "duration": 0.12291666666664014,
          "durationTicks": 236,
          "midi": 72,
          "name": "C5",
          "ticks": 363992,
          "time": 189.57916666666668,
          "velocity": 0.5196850393700787
        },
        {
          "duration": 0.13072916666666856,
          "durationTicks": 251,
          "midi": 67,
          "name": "G4",
          "ticks": 364783,
          "time": 189.99114583333332,
          "velocity": 0.5118110236220472
        },
        {
          "duration": 0.12395833333332007,
          "durationTicks": 238,
          "midi": 60,
          "name": "C4",
          "ticks": 364787,
          "time": 189.99322916666668,
          "velocity": 0.48031496062992124
        },
        {
          "duration": 0.09791666666666288,
          "durationTicks": 188,
          "midi": 72,
          "name": "C5",
          "ticks": 365624,
          "time": 190.42916666666667,
          "velocity": 0.5118110236220472
        },
        {
          "duration": 0.1328125,
          "durationTicks": 255,
          "midi": 60,
          "name": "C4",
          "ticks": 366440,
          "time": 190.85416666666666,
          "velocity": 0.47244094488188976
        },
        {
          "duration": 0.1473958333333485,
          "durationTicks": 283,
          "midi": 67,
          "name": "G4",
          "ticks": 366447,
          "time": 190.8578125,
          "velocity": 0.49606299212598426
        },
        {
          "duration": 0.12708333333333144,
          "durationTicks": 244,
          "midi": 72,
          "name": "C5",
          "ticks": 366789,
          "time": 191.0359375,
          "velocity": 0.4566929133858268
        },
        {
          "duration": 0.09218749999999432,
          "durationTicks": 177,
          "midi": 60,
          "name": "C4",
          "ticks": 367263,
          "time": 191.2828125,
          "velocity": 0.4330708661417323
        },
        {
          "duration": 0.09218749999999432,
          "durationTicks": 177,
          "midi": 67,
          "name": "G4",
          "ticks": 367267,
          "time": 191.28489583333334,
          "velocity": 0.44881889763779526
        },
        {
          "duration": 0.11302083333333712,
          "durationTicks": 217,
          "midi": 72,
          "name": "C5",
          "ticks": 367594,
          "time": 191.45520833333333,
          "velocity": 0.4409448818897638
        },
        {
          "duration": 0.12187500000001705,
          "durationTicks": 234,
          "midi": 60,
          "name": "C4",
          "ticks": 368041,
          "time": 191.68802083333333,
          "velocity": 0.44881889763779526
        },
        {
          "duration": 0.07708333333332007,
          "durationTicks": 148,
          "midi": 67,
          "name": "G4",
          "ticks": 368058,
          "time": 191.696875,
          "velocity": 0.4566929133858268
        },
        {
          "duration": 0.10468749999998295,
          "durationTicks": 201,
          "midi": 64,
          "name": "E4",
          "ticks": 368842,
          "time": 192.10520833333334,
          "velocity": 0.48031496062992124
        },
        {
          "duration": 0.09843749999998863,
          "durationTicks": 189,
          "midi": 57,
          "name": "A3",
          "ticks": 368845,
          "time": 192.10677083333334,
          "velocity": 0.4409448818897638
        },
        {
          "duration": 0.09114583333334281,
          "durationTicks": 175,
          "midi": 72,
          "name": "C5",
          "ticks": 368857,
          "time": 192.11302083333334,
          "velocity": 0.49606299212598426
        },
        {
          "duration": 0.11562499999999432,
          "durationTicks": 222,
          "midi": 57,
          "name": "A3",
          "ticks": 369637,
          "time": 192.51927083333334,
          "velocity": 0.4330708661417323
        },
        {
          "duration": 0.12291666666666856,
          "durationTicks": 236,
          "midi": 64,
          "name": "E4",
          "ticks": 369652,
          "time": 192.52708333333334,
          "velocity": 0.4566929133858268
        },
        {
          "duration": 0.1822916666666572,
          "durationTicks": 350,
          "midi": 69,
          "name": "A4",
          "ticks": 370508,
          "time": 192.97291666666666,
          "velocity": 0.49606299212598426
        },
        {
          "duration": 0.13697916666666288,
          "durationTicks": 263,
          "midi": 57,
          "name": "A3",
          "ticks": 371305,
          "time": 193.38802083333334,
          "velocity": 0.44881889763779526
        },
        {
          "duration": 0.12708333333333144,
          "durationTicks": 244,
          "midi": 64,
          "name": "E4",
          "ticks": 371316,
          "time": 193.39375,
          "velocity": 0.49606299212598426
        },
        {
          "duration": 0.1317708333333485,
          "durationTicks": 253,
          "midi": 69,
          "name": "A4",
          "ticks": 372083,
          "time": 193.79322916666666,
          "velocity": 0.48031496062992124
        },
        {
          "duration": 0.13125000000002274,
          "durationTicks": 252,
          "midi": 57,
          "name": "A3",
          "ticks": 372860,
          "time": 194.19791666666666,
          "velocity": 0.44881889763779526
        },
        {
          "duration": 0.10468750000001137,
          "durationTicks": 201,
          "midi": 64,
          "name": "E4",
          "ticks": 372878,
          "time": 194.20729166666666,
          "velocity": 0.49606299212598426
        },
        {
          "duration": 0.1432291666666572,
          "durationTicks": 275,
          "midi": 69,
          "name": "A4",
          "ticks": 373221,
          "time": 194.3859375,
          "velocity": 0.49606299212598426
        },
        {
          "duration": 0.13906249999999432,
          "durationTicks": 267,
          "midi": 57,
          "name": "A3",
          "ticks": 373642,
          "time": 194.60520833333334,
          "velocity": 0.4330708661417323
        },
        {
          "duration": 0.10729166666666856,
          "durationTicks": 206,
          "midi": 64,
          "name": "E4",
          "ticks": 373680,
          "time": 194.625,
          "velocity": 0.4566929133858268
        },
        {
          "duration": 0.1588541666666572,
          "durationTicks": 305,
          "midi": 69,
          "name": "A4",
          "ticks": 373953,
          "time": 194.7671875,
          "velocity": 0.47244094488188976
        },
        {
          "duration": 0.15208333333333712,
          "durationTicks": 292,
          "midi": 57,
          "name": "A3",
          "ticks": 374375,
          "time": 194.98697916666666,
          "velocity": 0.44881889763779526
        },
        {
          "duration": 0.12239583333334281,
          "durationTicks": 235,
          "midi": 64,
          "name": "E4",
          "ticks": 374396,
          "time": 194.99791666666667,
          "velocity": 0.48031496062992124
        },
        {
          "duration": 0.07760416666667425,
          "durationTicks": 149,
          "midi": 69,
          "name": "A4",
          "ticks": 375157,
          "time": 195.39427083333334,
          "velocity": 0.5196850393700787
        },
        {
          "duration": 0.13906249999999432,
          "durationTicks": 267,
          "midi": 53,
          "name": "F3",
          "ticks": 375963,
          "time": 195.8140625,
          "velocity": 0.44881889763779526
        },
        {
          "duration": 0.12760416666668561,
          "durationTicks": 245,
          "midi": 60,
          "name": "C4",
          "ticks": 375973,
          "time": 195.81927083333332,
          "velocity": 0.5118110236220472
        },
        {
          "duration": 0.34427083333332575,
          "durationTicks": 661,
          "midi": 65,
          "name": "F4",
          "ticks": 375986,
          "time": 195.82604166666667,
          "velocity": 0.5196850393700787
        },
        {
          "duration": 0.08802083333333144,
          "durationTicks": 169,
          "midi": 60,
          "name": "C4",
          "ticks": 376781,
          "time": 196.24010416666667,
          "velocity": 0.4330708661417323
        },
        {
          "duration": 0.11979166666668561,
          "durationTicks": 230,
          "midi": 53,
          "name": "F3",
          "ticks": 376783,
          "time": 196.24114583333332,
          "velocity": 0.4330708661417323
        },
        {
          "duration": 0.44583333333332575,
          "durationTicks": 856,
          "midi": 65,
          "name": "F4",
          "ticks": 377599,
          "time": 196.66614583333333,
          "velocity": 0.5118110236220472
        },
        {
          "duration": 0.14270833333333144,
          "durationTicks": 274,
          "midi": 53,
          "name": "F3",
          "ticks": 378371,
          "time": 197.06822916666667,
          "velocity": 0.4330708661417323
        },
        {
          "duration": 0.12916666666666288,
          "durationTicks": 248,
          "midi": 60,
          "name": "C4",
          "ticks": 378378,
          "time": 197.071875,
          "velocity": 0.47244094488188976
        },
        {
          "duration": 0.14218750000000568,
          "durationTicks": 273,
          "midi": 65,
          "name": "F4",
          "ticks": 379219,
          "time": 197.50989583333333,
          "velocity": 0.48031496062992124
        },
        {
          "duration": 0.10781249999999432,
          "durationTicks": 207,
          "midi": 53,
          "name": "F3",
          "ticks": 379607,
          "time": 197.71197916666668,
          "velocity": 0.4409448818897638
        },
        {
          "duration": 0.09583333333333144,
          "durationTicks": 184,
          "midi": 60,
          "name": "C4",
          "ticks": 379622,
          "time": 197.71979166666668,
          "velocity": 0.44881889763779526
        },
        {
          "duration": 0.1510416666666572,
          "durationTicks": 290,
          "midi": 65,
          "name": "F4",
          "ticks": 379999,
          "time": 197.91614583333333,
          "velocity": 0.48031496062992124
        },
        {
          "duration": 0.09062500000001705,
          "durationTicks": 174,
          "midi": 53,
          "name": "F3",
          "ticks": 380364,
          "time": 198.10625,
          "velocity": 0.4094488188976378
        },
        {
          "duration": 0.078125,
          "durationTicks": 150,
          "midi": 60,
          "name": "C4",
          "ticks": 380375,
          "time": 198.11197916666666,
          "velocity": 0.44881889763779526
        },
        {
          "duration": 0.4359374999999943,
          "durationTicks": 837,
          "midi": 65,
          "name": "F4",
          "ticks": 380757,
          "time": 198.3109375,
          "velocity": 0.5118110236220472
        },
        {
          "duration": 0.1302083333333428,
          "durationTicks": 250,
          "midi": 60,
          "name": "C4",
          "ticks": 381473,
          "time": 198.68385416666666,
          "velocity": 0.48031496062992124
        },
        {
          "duration": 0.10624999999998863,
          "durationTicks": 204,
          "midi": 53,
          "name": "F3",
          "ticks": 381479,
          "time": 198.68697916666667,
          "velocity": 0.4409448818897638
        },
        {
          "duration": 0.4713541666666856,
          "durationTicks": 905,
          "midi": 69,
          "name": "A4",
          "ticks": 382216,
          "time": 199.07083333333333,
          "velocity": 0.5196850393700787
        },
        {
          "duration": 0.15520833333332007,
          "durationTicks": 298,
          "midi": 60,
          "name": "C4",
          "ticks": 382247,
          "time": 199.08697916666668,
          "velocity": 0.5118110236220472
        },
        {
          "duration": 0.16197916666666856,
          "durationTicks": 311,
          "midi": 53,
          "name": "F3",
          "ticks": 382257,
          "time": 199.0921875,
          "velocity": 0.4566929133858268
        },
        {
          "duration": 0.5041666666666913,
          "durationTicks": 968,
          "midi": 71,
          "name": "B4",
          "ticks": 383019,
          "time": 199.4890625,
          "velocity": 0.5118110236220472
        },
        {
          "duration": 0.14374999999998295,
          "durationTicks": 276,
          "midi": 53,
          "name": "F3",
          "ticks": 383031,
          "time": 199.4953125,
          "velocity": 0.44881889763779526
        },
        {
          "duration": 0.13229166666667425,
          "durationTicks": 254,
          "midi": 60,
          "name": "C4",
          "ticks": 383040,
          "time": 199.5,
          "velocity": 0.48031496062992124
        },
        {
          "duration": 0.12968749999998863,
          "durationTicks": 249,
          "midi": 60,
          "name": "C4",
          "ticks": 383816,
          "time": 199.90416666666667,
          "velocity": 0.47244094488188976
        },
        {
          "duration": 0.08697916666667993,
          "durationTicks": 167,
          "midi": 53,
          "name": "F3",
          "ticks": 383825,
          "time": 199.90885416666666,
          "velocity": 0.4094488188976378
        },
        {
          "duration": 0.42760416666666856,
          "durationTicks": 821,
          "midi": 69,
          "name": "A4",
          "ticks": 383841,
          "time": 199.9171875,
          "velocity": 0.47244094488188976
        },
        {
          "duration": 0.11927083333333144,
          "durationTicks": 229,
          "midi": 60,
          "name": "C4",
          "ticks": 384622,
          "time": 200.32395833333334,
          "velocity": 0.48031496062992124
        },
        {
          "duration": 0.20416666666667993,
          "durationTicks": 392,
          "midi": 67,
          "name": "G4",
          "ticks": 384624,
          "time": 200.325,
          "velocity": 0.5118110236220472
        },
        {
          "duration": 0.07187499999997726,
          "durationTicks": 138,
          "midi": 53,
          "name": "F3",
          "ticks": 384636,
          "time": 200.33125,
          "velocity": 0.41732283464566927
        },
        {
          "duration": 0.12812500000001137,
          "durationTicks": 246,
          "midi": 55,
          "name": "G3",
          "ticks": 385348,
          "time": 200.70208333333332,
          "velocity": 0.44881889763779526
        },
        {
          "duration": 0.1328125,
          "durationTicks": 255,
          "midi": 67,
          "name": "G4",
          "ticks": 385354,
          "time": 200.70520833333333,
          "velocity": 0.44881889763779526
        },
        {
          "duration": 0.12604166666667993,
          "durationTicks": 242,
          "midi": 62,
          "name": "D4",
          "ticks": 385363,
          "time": 200.70989583333332,
          "velocity": 0.47244094488188976
        },
        {
          "duration": 0.27031250000001705,
          "durationTicks": 519,
          "midi": 69,
          "name": "A4",
          "ticks": 385674,
          "time": 200.871875,
          "velocity": 0.41732283464566927
        },
        {
          "duration": 0.20416666666667993,
          "durationTicks": 392,
          "midi": 71,
          "name": "B4",
          "ticks": 386139,
          "time": 201.1140625,
          "velocity": 0.44881889763779526
        },
        {
          "duration": 0.11197916666665719,
          "durationTicks": 215,
          "midi": 72,
          "name": "C5",
          "ticks": 386554,
          "time": 201.33020833333333,
          "velocity": 0.5118110236220472
        },
        {
          "duration": 0.3479166666666629,
          "durationTicks": 668,
          "midi": 77,
          "name": "F5",
          "ticks": 386976,
          "time": 201.55,
          "velocity": 0.49606299212598426
        },
        {
          "duration": 0.08489583333332007,
          "durationTicks": 163,
          "midi": 79,
          "name": "G5",
          "ticks": 387727,
          "time": 201.94114583333334,
          "velocity": 0.4566929133858268
        },
        {
          "duration": 0.07864583333332575,
          "durationTicks": 151,
          "midi": 76,
          "name": "E5",
          "ticks": 388518,
          "time": 202.353125,
          "velocity": 0.47244094488188976
        },
        {
          "duration": 0.13906250000002274,
          "durationTicks": 267,
          "midi": 72,
          "name": "C5",
          "ticks": 388520,
          "time": 202.35416666666666,
          "velocity": 0.48031496062992124
        },
        {
          "duration": 0.17916666666667425,
          "durationTicks": 344,
          "midi": 79,
          "name": "G5",
          "ticks": 388533,
          "time": 202.3609375,
          "velocity": 0.4409448818897638
        },
        {
          "duration": 0.16718750000001137,
          "durationTicks": 321,
          "midi": 60,
          "name": "C4",
          "ticks": 388539,
          "time": 202.3640625,
          "velocity": 0.49606299212598426
        },
        {
          "duration": 0.1630208333333485,
          "durationTicks": 313,
          "midi": 67,
          "name": "G4",
          "ticks": 388550,
          "time": 202.36979166666666,
          "velocity": 0.47244094488188976
        },
        {
          "duration": 0.29479166666666856,
          "durationTicks": 566,
          "midi": 76,
          "name": "E5",
          "ticks": 388900,
          "time": 202.55208333333334,
          "velocity": 0.44881889763779526
        },
        {
          "duration": 0.19687500000000568,
          "durationTicks": 378,
          "midi": 77,
          "name": "F5",
          "ticks": 389386,
          "time": 202.80520833333333,
          "velocity": 0.47244094488188976
        },
        {
          "duration": 0.13124999999999432,
          "durationTicks": 252,
          "midi": 79,
          "name": "G5",
          "ticks": 389783,
          "time": 203.01197916666666,
          "velocity": 0.5118110236220472
        },
        {
          "duration": 0.5,
          "durationTicks": 960,
          "midi": 77,
          "name": "F5",
          "ticks": 390194,
          "time": 203.22604166666667,
          "velocity": 0.49606299212598426
        },
        {
          "duration": 0.12447916666664582,
          "durationTicks": 239,
          "midi": 60,
          "name": "C4",
          "ticks": 390205,
          "time": 203.23177083333334,
          "velocity": 0.47244094488188976
        },
        {
          "duration": 0.10572916666666288,
          "durationTicks": 203,
          "midi": 67,
          "name": "G4",
          "ticks": 390221,
          "time": 203.24010416666667,
          "velocity": 0.47244094488188976
        },
        {
          "duration": 0.36510416666666856,
          "durationTicks": 701,
          "midi": 76,
          "name": "E5",
          "ticks": 391054,
          "time": 203.67395833333333,
          "velocity": 0.49606299212598426
        },
        {
          "duration": 0.16197916666666856,
          "durationTicks": 311,
          "midi": 72,
          "name": "C5",
          "ticks": 391855,
          "time": 204.09114583333334,
          "velocity": 0.5196850393700787
        },
        {
          "duration": 0.07395833333333712,
          "durationTicks": 142,
          "midi": 76,
          "name": "E5",
          "ticks": 391872,
          "time": 204.1,
          "velocity": 0.3464566929133858
        },
        {
          "duration": 0.11197916666668561,
          "durationTicks": 215,
          "midi": 60,
          "name": "C4",
          "ticks": 391876,
          "time": 204.10208333333333,
          "velocity": 0.47244094488188976
        },
        {
          "duration": 0.11562499999999432,
          "durationTicks": 222,
          "midi": 67,
          "name": "G4",
          "ticks": 391886,
          "time": 204.10729166666667,
          "velocity": 0.48031496062992124
        },
        {
          "duration": 0.22499999999999432,
          "durationTicks": 432,
          "midi": 76,
          "name": "E5",
          "ticks": 392237,
          "time": 204.29010416666668,
          "velocity": 0.44881889763779526
        },
        {
          "duration": 0.1708333333333485,
          "durationTicks": 328,
          "midi": 77,
          "name": "F5",
          "ticks": 392667,
          "time": 204.5140625,
          "velocity": 0.4409448818897638
        },
        {
          "duration": 0.1666666666666572,
          "durationTicks": 320,
          "midi": 79,
          "name": "G5",
          "ticks": 393053,
          "time": 204.71510416666666,
          "velocity": 0.48031496062992124
        },
        {
          "duration": 0.46666666666666856,
          "durationTicks": 896,
          "midi": 77,
          "name": "F5",
          "ticks": 393491,
          "time": 204.94322916666667,
          "velocity": 0.48031496062992124
        },
        {
          "duration": 0.13177083333332007,
          "durationTicks": 253,
          "midi": 60,
          "name": "C4",
          "ticks": 393506,
          "time": 204.95104166666667,
          "velocity": 0.47244094488188976
        },
        {
          "duration": 0.11510416666666856,
          "durationTicks": 221,
          "midi": 67,
          "name": "G4",
          "ticks": 393521,
          "time": 204.95885416666667,
          "velocity": 0.49606299212598426
        },
        {
          "duration": 0.3619791666666572,
          "durationTicks": 695,
          "midi": 76,
          "name": "E5",
          "ticks": 394358,
          "time": 205.39479166666666,
          "velocity": 0.5118110236220472
        },
        {
          "duration": 0.1770833333333428,
          "durationTicks": 340,
          "midi": 79,
          "name": "G5",
          "ticks": 395134,
          "time": 205.79895833333333,
          "velocity": 0.49606299212598426
        },
        {
          "duration": 0.15260416666666288,
          "durationTicks": 293,
          "midi": 72,
          "name": "C5",
          "ticks": 395146,
          "time": 205.80520833333333,
          "velocity": 0.48031496062992124
        },
        {
          "duration": 0.12916666666666288,
          "durationTicks": 248,
          "midi": 60,
          "name": "C4",
          "ticks": 395151,
          "time": 205.8078125,
          "velocity": 0.47244094488188976
        },
        {
          "duration": 0.10729166666666856,
          "durationTicks": 206,
          "midi": 67,
          "name": "G4",
          "ticks": 395176,
          "time": 205.82083333333333,
          "velocity": 0.4566929133858268
        },
        {
          "duration": 0.2708333333333144,
          "durationTicks": 520,
          "midi": 76,
          "name": "E5",
          "ticks": 395526,
          "time": 206.003125,
          "velocity": 0.41732283464566927
        },
        {
          "duration": 0.1708333333333485,
          "durationTicks": 328,
          "midi": 77,
          "name": "F5",
          "ticks": 395983,
          "time": 206.24114583333332,
          "velocity": 0.44881889763779526
        },
        {
          "duration": 0.11875000000000568,
          "durationTicks": 228,
          "midi": 79,
          "name": "G5",
          "ticks": 396371,
          "time": 206.44322916666667,
          "velocity": 0.5118110236220472
        },
        {
          "duration": 0.32604166666666856,
          "durationTicks": 626,
          "midi": 79,
          "name": "G5",
          "ticks": 396820,
          "time": 206.67708333333334,
          "velocity": 0.49606299212598426
        },
        {
          "duration": 0.3510416666666458,
          "durationTicks": 674,
          "midi": 71,
          "name": "B4",
          "ticks": 396831,
          "time": 206.6828125,
          "velocity": 0.49606299212598426
        },
        {
          "duration": 0.3760416666666515,
          "durationTicks": 722,
          "midi": 67,
          "name": "G4",
          "ticks": 396843,
          "time": 206.6890625,
          "velocity": 0.4566929133858268
        },
        {
          "duration": 0.14114583333332575,
          "durationTicks": 271,
          "midi": 72,
          "name": "C5",
          "ticks": 398438,
          "time": 207.51979166666666,
          "velocity": 0.5118110236220472
        },
        {
          "duration": 0.15625,
          "durationTicks": 300,
          "midi": 79,
          "name": "G5",
          "ticks": 398442,
          "time": 207.521875,
          "velocity": 0.47244094488188976
        },
        {
          "duration": 0.16562500000000568,
          "durationTicks": 318,
          "midi": 60,
          "name": "C4",
          "ticks": 398456,
          "time": 207.52916666666667,
          "velocity": 0.47244094488188976
        },
        {
          "duration": 0.140625,
          "durationTicks": 270,
          "midi": 67,
          "name": "G4",
          "ticks": 398458,
          "time": 207.53020833333332,
          "velocity": 0.47244094488188976
        },
        {
          "duration": 0.0510416666666913,
          "durationTicks": 98,
          "midi": 76,
          "name": "E5",
          "ticks": 398473,
          "time": 207.53802083333332,
          "velocity": 0.4015748031496063
        },
        {
          "duration": 0.2953124999999943,
          "durationTicks": 567,
          "midi": 76,
          "name": "E5",
          "ticks": 398776,
          "time": 207.69583333333333,
          "velocity": 0.3779527559055118
        },
        {
          "duration": 0.2369791666666572,
          "durationTicks": 455,
          "midi": 77,
          "name": "F5",
          "ticks": 399281,
          "time": 207.95885416666667,
          "velocity": 0.4409448818897638
        },
        {
          "duration": 0.14895833333332575,
          "durationTicks": 286,
          "midi": 79,
          "name": "G5",
          "ticks": 399648,
          "time": 208.15,
          "velocity": 0.5196850393700787
        },
        {
          "duration": 0.43802083333332575,
          "durationTicks": 841,
          "midi": 57,
          "name": "A3",
          "ticks": 400105,
          "time": 208.38802083333334,
          "velocity": 0.4409448818897638
        },
        {
          "duration": 0.43177083333333144,
          "durationTicks": 829,
          "midi": 64,
          "name": "E4",
          "ticks": 400109,
          "time": 208.39010416666667,
          "velocity": 0.48031496062992124
        },
        {
          "duration": 0.18541666666666856,
          "durationTicks": 356,
          "midi": 72,
          "name": "C5",
          "ticks": 400122,
          "time": 208.396875,
          "velocity": 0.49606299212598426
        },
        {
          "duration": 0.16510416666667993,
          "durationTicks": 317,
          "midi": 69,
          "name": "A4",
          "ticks": 400134,
          "time": 208.403125,
          "velocity": 0.49606299212598426
        },
        {
          "duration": 0.43281249999998295,
          "durationTicks": 831,
          "midi": 72,
          "name": "C5",
          "ticks": 400919,
          "time": 208.81197916666667,
          "velocity": 0.48031496062992124
        },
        {
          "duration": 0.17291666666667993,
          "durationTicks": 332,
          "midi": 74,
          "name": "D5",
          "ticks": 401745,
          "time": 209.2421875,
          "velocity": 0.49606299212598426
        },
        {
          "duration": 0.22395833333331439,
          "durationTicks": 430,
          "midi": 65,
          "name": "F4",
          "ticks": 401762,
          "time": 209.25104166666668,
          "velocity": 0.47244094488188976
        },
        {
          "duration": 0.2489583333333485,
          "durationTicks": 478,
          "midi": 62,
          "name": "D4",
          "ticks": 401764,
          "time": 209.25208333333333,
          "velocity": 0.44881889763779526
        },
        {
          "duration": 0.3109374999999943,
          "durationTicks": 597,
          "midi": 76,
          "name": "E5",
          "ticks": 402096,
          "time": 209.425,
          "velocity": 0.4566929133858268
        },
        {
          "duration": 0.21510416666666288,
          "durationTicks": 413,
          "midi": 74,
          "name": "D5",
          "ticks": 402566,
          "time": 209.66979166666667,
          "velocity": 0.44881889763779526
        },
        {
          "duration": 0.12031250000001137,
          "durationTicks": 231,
          "midi": 72,
          "name": "C5",
          "ticks": 402973,
          "time": 209.88177083333332,
          "velocity": 0.47244094488188976
        },
        {
          "duration": 3.08489583333332,
          "durationTicks": 5923,
          "midi": 55,
          "name": "G3",
          "ticks": 403398,
          "time": 210.103125,
          "velocity": 0.47244094488188976
        },
        {
          "duration": 3.096874999999983,
          "durationTicks": 5946,
          "midi": 62,
          "name": "D4",
          "ticks": 403398,
          "time": 210.103125,
          "velocity": 0.4566929133858268
        },
        {
          "duration": 0.6973958333333314,
          "durationTicks": 1339,
          "midi": 67,
          "name": "G4",
          "ticks": 403403,
          "time": 210.10572916666666,
          "velocity": 0.5433070866141733
        },
        {
          "duration": 0.18906250000000568,
          "durationTicks": 363,
          "midi": 71,
          "name": "B4",
          "ticks": 404682,
          "time": 210.771875,
          "velocity": 0.4566929133858268
        },
        {
          "duration": 0.4661458333333428,
          "durationTicks": 895,
          "midi": 67,
          "name": "G4",
          "ticks": 405097,
          "time": 210.98802083333334,
          "velocity": 0.44881889763779526
        },
        {
          "duration": 0.19218749999998863,
          "durationTicks": 369,
          "midi": 67,
          "name": "G4",
          "ticks": 406293,
          "time": 211.6109375,
          "velocity": 0.5118110236220472
        },
        {
          "duration": 0.1364583333333087,
          "durationTicks": 262,
          "midi": 71,
          "name": "B4",
          "ticks": 406671,
          "time": 211.8078125,
          "velocity": 0.4251968503937008
        },
        {
          "duration": 0.2057291666666572,
          "durationTicks": 395,
          "midi": 67,
          "name": "G4",
          "ticks": 407002,
          "time": 211.98020833333334,
          "velocity": 0.44881889763779526
        },
        {
          "duration": 0.15781250000000568,
          "durationTicks": 303,
          "midi": 71,
          "name": "B4",
          "ticks": 407407,
          "time": 212.19114583333334,
          "velocity": 0.4409448818897638
        },
        {
          "duration": 0.25312500000001137,
          "durationTicks": 486,
          "midi": 67,
          "name": "G4",
          "ticks": 407758,
          "time": 212.37395833333332,
          "velocity": 0.44881889763779526
        },
        {
          "duration": 0.6281250000000114,
          "durationTicks": 1206,
          "midi": 71,
          "name": "B4",
          "ticks": 408207,
          "time": 212.6078125,
          "velocity": 0.48031496062992124
        },
        {
          "duration": 0.20104166666664014,
          "durationTicks": 386,
          "midi": 67,
          "name": "G4",
          "ticks": 409277,
          "time": 213.16510416666668,
          "velocity": 0.47244094488188976
        },
        {
          "duration": 0.13697916666666288,
          "durationTicks": 263,
          "midi": 62,
          "name": "D4",
          "ticks": 409705,
          "time": 213.38802083333334,
          "velocity": 0.48031496062992124
        },
        {
          "duration": 0.13437499999997726,
          "durationTicks": 258,
          "midi": 55,
          "name": "G3",
          "ticks": 409716,
          "time": 213.39375,
          "velocity": 0.4330708661417323
        },
        {
          "duration": 0.5890625000000114,
          "durationTicks": 1131,
          "midi": 79,
          "name": "G5",
          "ticks": 409730,
          "time": 213.40104166666666,
          "velocity": 0.5905511811023622
        },
        {
          "duration": 0.21145833333332575,
          "durationTicks": 406,
          "midi": 67,
          "name": "G4",
          "ticks": 410895,
          "time": 214.0078125,
          "velocity": 0.47244094488188976
        },
        {
          "duration": 0.47708333333332575,
          "durationTicks": 916,
          "midi": 79,
          "name": "G5",
          "ticks": 411352,
          "time": 214.24583333333334,
          "velocity": 0.5433070866141733
        },
        {
          "duration": 0.17812499999999432,
          "durationTicks": 342,
          "midi": 67,
          "name": "G4",
          "ticks": 412424,
          "time": 214.80416666666667,
          "velocity": 0.47244094488188976
        },
        {
          "duration": 0.12291666666666856,
          "durationTicks": 236,
          "midi": 79,
          "name": "G5",
          "ticks": 412871,
          "time": 215.03697916666667,
          "velocity": 0.49606299212598426
        },
        {
          "duration": 0.16718750000001137,
          "durationTicks": 321,
          "midi": 67,
          "name": "G4",
          "ticks": 413176,
          "time": 215.19583333333333,
          "velocity": 0.44881889763779526
        },
        {
          "duration": 0.17135416666667425,
          "durationTicks": 329,
          "midi": 79,
          "name": "G5",
          "ticks": 413587,
          "time": 215.40989583333334,
          "velocity": 0.49606299212598426
        },
        {
          "duration": 0.1510416666666572,
          "durationTicks": 290,
          "midi": 67,
          "name": "G4",
          "ticks": 413973,
          "time": 215.6109375,
          "velocity": 0.4566929133858268
        },
        {
          "duration": 0.38385416666667993,
          "durationTicks": 737,
          "midi": 79,
          "name": "G5",
          "ticks": 414361,
          "time": 215.81302083333333,
          "velocity": 0.49606299212598426
        },
        {
          "duration": 0.14999999999997726,
          "durationTicks": 288,
          "midi": 67,
          "name": "G4",
          "ticks": 415540,
          "time": 216.42708333333334,
          "velocity": 0.5196850393700787
        },
        {
          "duration": 0.5932291666666742,
          "durationTicks": 1139,
          "midi": 71,
          "name": "B4",
          "ticks": 415987,
          "time": 216.65989583333334,
          "velocity": 0.44881889763779526
        },
        {
          "duration": 0.07500000000001705,
          "durationTicks": 144,
          "midi": 62,
          "name": "D4",
          "ticks": 416022,
          "time": 216.678125,
          "velocity": 0.4330708661417323
        },
        {
          "duration": 0.07708333333334849,
          "durationTicks": 148,
          "midi": 55,
          "name": "G3",
          "ticks": 416033,
          "time": 216.68385416666666,
          "velocity": 0.4015748031496063
        },
        {
          "duration": 0.17499999999998295,
          "durationTicks": 336,
          "midi": 67,
          "name": "G4",
          "ticks": 417187,
          "time": 217.28489583333334,
          "velocity": 0.41732283464566927
        },
        {
          "duration": 0.10781249999999432,
          "durationTicks": 207,
          "midi": 62,
          "name": "D4",
          "ticks": 417602,
          "time": 217.50104166666668,
          "velocity": 0.44881889763779526
        },
        {
          "duration": 0.078125,
          "durationTicks": 150,
          "midi": 55,
          "name": "G3",
          "ticks": 417604,
          "time": 217.50208333333333,
          "velocity": 0.4094488188976378
        },
        {
          "duration": 0.12864583333333712,
          "durationTicks": 247,
          "midi": 71,
          "name": "B4",
          "ticks": 417608,
          "time": 217.50416666666666,
          "velocity": 0.4566929133858268
        },
        {
          "duration": 0.13177083333332007,
          "durationTicks": 253,
          "midi": 71,
          "name": "B4",
          "ticks": 418777,
          "time": 218.11302083333334,
          "velocity": 0.4566929133858268
        },
        {
          "duration": 0.1171875,
          "durationTicks": 225,
          "midi": 62,
          "name": "D4",
          "ticks": 419172,
          "time": 218.31875,
          "velocity": 0.4330708661417323
        },
        {
          "duration": 0.08125000000001137,
          "durationTicks": 156,
          "midi": 55,
          "name": "G3",
          "ticks": 419176,
          "time": 218.32083333333333,
          "velocity": 0.4094488188976378
        },
        {
          "duration": 0.16718750000001137,
          "durationTicks": 321,
          "midi": 67,
          "name": "G4",
          "ticks": 419247,
          "time": 218.3578125,
          "velocity": 0.4094488188976378
        },
        {
          "duration": 0.18333333333333712,
          "durationTicks": 352,
          "midi": 71,
          "name": "B4",
          "ticks": 419581,
          "time": 218.53177083333333,
          "velocity": 0.4409448818897638
        },
        {
          "duration": 0.15989583333333712,
          "durationTicks": 307,
          "midi": 72,
          "name": "C5",
          "ticks": 419956,
          "time": 218.72708333333333,
          "velocity": 0.47244094488188976
        },
        {
          "duration": 0.17604166666666288,
          "durationTicks": 338,
          "midi": 74,
          "name": "D5",
          "ticks": 420276,
          "time": 218.89375,
          "velocity": 0.4566929133858268
        },
        {
          "duration": 0.4572916666666629,
          "durationTicks": 878,
          "midi": 72,
          "name": "C5",
          "ticks": 420741,
          "time": 219.1359375,
          "velocity": 0.49606299212598426
        },
        {
          "duration": 0.1338541666666515,
          "durationTicks": 257,
          "midi": 62,
          "name": "D4",
          "ticks": 420749,
          "time": 219.14010416666667,
          "velocity": 0.4566929133858268
        },
        {
          "duration": 0.10833333333334849,
          "durationTicks": 208,
          "midi": 55,
          "name": "G3",
          "ticks": 420758,
          "time": 219.14479166666666,
          "velocity": 0.41732283464566927
        },
        {
          "duration": 0.12135416666666288,
          "durationTicks": 233,
          "midi": 57,
          "name": "A3",
          "ticks": 421503,
          "time": 219.5328125,
          "velocity": 0.4330708661417323
        },
        {
          "duration": 0.27395833333332575,
          "durationTicks": 526,
          "midi": 71,
          "name": "B4",
          "ticks": 421519,
          "time": 219.54114583333333,
          "velocity": 0.49606299212598426
        },
        {
          "duration": 0.11979166666665719,
          "durationTicks": 230,
          "midi": 64,
          "name": "E4",
          "ticks": 421521,
          "time": 219.5421875,
          "velocity": 0.48031496062992124
        },
        {
          "duration": 0.13906249999999432,
          "durationTicks": 267,
          "midi": 69,
          "name": "A4",
          "ticks": 422264,
          "time": 219.92916666666667,
          "velocity": 0.44881889763779526
        },
        {
          "duration": 0.15000000000000568,
          "durationTicks": 288,
          "midi": 57,
          "name": "A3",
          "ticks": 422291,
          "time": 219.94322916666667,
          "velocity": 0.4330708661417323
        },
        {
          "duration": 0.11093750000000568,
          "durationTicks": 213,
          "midi": 64,
          "name": "E4",
          "ticks": 422304,
          "time": 219.95,
          "velocity": 0.47244094488188976
        },
        {
          "duration": 0.16822916666666288,
          "durationTicks": 323,
          "midi": 71,
          "name": "B4",
          "ticks": 422613,
          "time": 220.1109375,
          "velocity": 0.44881889763779526
        },
        {
          "duration": 0.13333333333335418,
          "durationTicks": 256,
          "midi": 57,
          "name": "A3",
          "ticks": 423035,
          "time": 220.33072916666666,
          "velocity": 0.4409448818897638
        },
        {
          "duration": 0.13593750000001137,
          "durationTicks": 261,
          "midi": 72,
          "name": "C5",
          "ticks": 423041,
          "time": 220.33385416666667,
          "velocity": 0.41732283464566927
        },
        {
          "duration": 0.09062499999998863,
          "durationTicks": 174,
          "midi": 64,
          "name": "E4",
          "ticks": 423055,
          "time": 220.34114583333334,
          "velocity": 0.44881889763779526
        },
        {
          "duration": 0.20520833333333144,
          "durationTicks": 394,
          "midi": 74,
          "name": "D5",
          "ticks": 423312,
          "time": 220.475,
          "velocity": 0.4409448818897638
        },
        {
          "duration": 0.796875,
          "durationTicks": 1530,
          "midi": 72,
          "name": "C5",
          "ticks": 423821,
          "time": 220.74010416666667,
          "velocity": 0.47244094488188976
        },
        {
          "duration": 0.11250000000001137,
          "durationTicks": 216,
          "midi": 57,
          "name": "A3",
          "ticks": 423826,
          "time": 220.74270833333333,
          "velocity": 0.4330708661417323
        },
        {
          "duration": 0.11927083333335986,
          "durationTicks": 229,
          "midi": 64,
          "name": "E4",
          "ticks": 423838,
          "time": 220.74895833333332,
          "velocity": 0.48031496062992124
        },
        {
          "duration": 0.11822916666667993,
          "durationTicks": 227,
          "midi": 71,
          "name": "B4",
          "ticks": 425295,
          "time": 221.5078125,
          "velocity": 0.4566929133858268
        },
        {
          "duration": 0.10833333333334849,
          "durationTicks": 208,
          "midi": 57,
          "name": "A3",
          "ticks": 425299,
          "time": 221.50989583333333,
          "velocity": 0.44881889763779526
        },
        {
          "duration": 0.07187500000000568,
          "durationTicks": 138,
          "midi": 64,
          "name": "E4",
          "ticks": 425324,
          "time": 221.52291666666667,
          "velocity": 0.48031496062992124
        },
        {
          "duration": 0.1822916666666572,
          "durationTicks": 350,
          "midi": 69,
          "name": "A4",
          "ticks": 425606,
          "time": 221.66979166666667,
          "velocity": 0.41732283464566927
        },
        {
          "duration": 0.19687500000000568,
          "durationTicks": 378,
          "midi": 71,
          "name": "B4",
          "ticks": 426029,
          "time": 221.89010416666667,
          "velocity": 0.47244094488188976
        },
        {
          "duration": 0.15520833333332007,
          "durationTicks": 298,
          "midi": 72,
          "name": "C5",
          "ticks": 426330,
          "time": 222.046875,
          "velocity": 0.47244094488188976
        },
        {
          "duration": 0.1317708333333485,
          "durationTicks": 253,
          "midi": 60,
          "name": "C4",
          "ticks": 426799,
          "time": 222.29114583333333,
          "velocity": 0.4566929133858268
        },
        {
          "duration": 0.1171875,
          "durationTicks": 225,
          "midi": 67,
          "name": "G4",
          "ticks": 426804,
          "time": 222.29375,
          "velocity": 0.48031496062992124
        },
        {
          "duration": 0.4359374999999943,
          "durationTicks": 837,
          "midi": 74,
          "name": "D5",
          "ticks": 426812,
          "time": 222.29791666666668,
          "velocity": 0.48031496062992124
        },
        {
          "duration": 0.3921875000000057,
          "durationTicks": 753,
          "midi": 72,
          "name": "C5",
          "ticks": 427599,
          "time": 222.7078125,
          "velocity": 0.49606299212598426
        },
        {
          "duration": 0.15989583333333712,
          "durationTicks": 307,
          "midi": 69,
          "name": "A4",
          "ticks": 428373,
          "time": 223.1109375,
          "velocity": 0.49606299212598426
        },
        {
          "duration": 0.11770833333332575,
          "durationTicks": 226,
          "midi": 57,
          "name": "A3",
          "ticks": 428402,
          "time": 223.12604166666668,
          "velocity": 0.4015748031496063
        },
        {
          "duration": 0.12343749999999432,
          "durationTicks": 237,
          "midi": 64,
          "name": "E4",
          "ticks": 428411,
          "time": 223.13072916666667,
          "velocity": 0.4566929133858268
        },
        {
          "duration": 0.23489583333332575,
          "durationTicks": 451,
          "midi": 72,
          "name": "C5",
          "ticks": 428755,
          "time": 223.30989583333334,
          "velocity": 0.3464566929133858
        },
        {
          "duration": 0.21875,
          "durationTicks": 420,
          "midi": 74,
          "name": "D5",
          "ticks": 429134,
          "time": 223.50729166666667,
          "velocity": 0.47244094488188976
        },
        {
          "duration": 0.14114583333335418,
          "durationTicks": 271,
          "midi": 76,
          "name": "E5",
          "ticks": 429519,
          "time": 223.7078125,
          "velocity": 0.4566929133858268
        },
        {
          "duration": 0.4749999999999943,
          "durationTicks": 912,
          "midi": 74,
          "name": "D5",
          "ticks": 429907,
          "time": 223.90989583333334,
          "velocity": 0.44881889763779526
        },
        {
          "duration": 0.42395833333335986,
          "durationTicks": 814,
          "midi": 65,
          "name": "F4",
          "ticks": 429928,
          "time": 223.92083333333332,
          "velocity": 0.4566929133858268
        },
        {
          "duration": 0.4515624999999943,
          "durationTicks": 867,
          "midi": 62,
          "name": "D4",
          "ticks": 429944,
          "time": 223.92916666666667,
          "velocity": 0.41732283464566927
        },
        {
          "duration": 0.09375,
          "durationTicks": 180,
          "midi": 72,
          "name": "C5",
          "ticks": 430704,
          "time": 224.325,
          "velocity": 0.5118110236220472
        },
        {
          "duration": 0.47604166666667425,
          "durationTicks": 914,
          "midi": 67,
          "name": "G4",
          "ticks": 431497,
          "time": 224.73802083333334,
          "velocity": 0.5118110236220472
        },
        {
          "duration": 1.1177083333333258,
          "durationTicks": 2146,
          "midi": 62,
          "name": "D4",
          "ticks": 431505,
          "time": 224.7421875,
          "velocity": 0.47244094488188976
        },
        {
          "duration": 1.1005208333333485,
          "durationTicks": 2113,
          "midi": 55,
          "name": "G3",
          "ticks": 431509,
          "time": 224.74427083333333,
          "velocity": 0.4566929133858268
        },
        {
          "duration": 0.09322916666664582,
          "durationTicks": 179,
          "midi": 67,
          "name": "G4",
          "ticks": 432651,
          "time": 225.3390625,
          "velocity": 0.3779527559055118
        },
        {
          "duration": 0.07708333333332007,
          "durationTicks": 148,
          "midi": 67,
          "name": "G4",
          "ticks": 433083,
          "time": 225.5640625,
          "velocity": 0.44881889763779526
        },
        {
          "duration": 0.14791666666664582,
          "durationTicks": 284,
          "midi": 67,
          "name": "G4",
          "ticks": 433431,
          "time": 225.7453125,
          "velocity": 0.44881889763779526
        },
        {
          "duration": 0.15208333333333712,
          "durationTicks": 292,
          "midi": 62,
          "name": "D4",
          "ticks": 433841,
          "time": 225.95885416666667,
          "velocity": 0.44881889763779526
        },
        {
          "duration": 0.12760416666668561,
          "durationTicks": 245,
          "midi": 55,
          "name": "G3",
          "ticks": 433857,
          "time": 225.9671875,
          "velocity": 0.4015748031496063
        },
        {
          "duration": 0.3583333333333485,
          "durationTicks": 688,
          "midi": 79,
          "name": "G5",
          "ticks": 433864,
          "time": 225.97083333333333,
          "velocity": 0.5433070866141733
        },
        {
          "duration": 0.1458333333333428,
          "durationTicks": 280,
          "midi": 55,
          "name": "G3",
          "ticks": 434621,
          "time": 226.36510416666667,
          "velocity": 0.44881889763779526
        },
        {
          "duration": 0.14635416666666856,
          "durationTicks": 281,
          "midi": 62,
          "name": "D4",
          "ticks": 434632,
          "time": 226.37083333333334,
          "velocity": 0.47244094488188976
        },
        {
          "duration": 0.3921875000000057,
          "durationTicks": 753,
          "midi": 77,
          "name": "F5",
          "ticks": 434634,
          "time": 226.371875,
          "velocity": 0.4566929133858268
        },
        {
          "duration": 0.47447916666664014,
          "durationTicks": 911,
          "midi": 76,
          "name": "E5",
          "ticks": 435422,
          "time": 226.78229166666668,
          "velocity": 0.49606299212598426
        },
        {
          "duration": 0.17395833333333144,
          "durationTicks": 334,
          "midi": 55,
          "name": "G3",
          "ticks": 435441,
          "time": 226.7921875,
          "velocity": 0.4330708661417323
        },
        {
          "duration": 0.1692708333333428,
          "durationTicks": 325,
          "midi": 62,
          "name": "D4",
          "ticks": 435450,
          "time": 226.796875,
          "velocity": 0.47244094488188976
        },
        {
          "duration": 0.11406249999998863,
          "durationTicks": 219,
          "midi": 55,
          "name": "G3",
          "ticks": 436214,
          "time": 227.19479166666667,
          "velocity": 0.44881889763779526
        },
        {
          "duration": 0.12291666666666856,
          "durationTicks": 236,
          "midi": 74,
          "name": "D5",
          "ticks": 436222,
          "time": 227.19895833333334,
          "velocity": 0.5118110236220472
        },
        {
          "duration": 0.12083333333333712,
          "durationTicks": 232,
          "midi": 62,
          "name": "D4",
          "ticks": 436230,
          "time": 227.203125,
          "velocity": 0.48031496062992124
        },
        {
          "duration": 0.1328125,
          "durationTicks": 255,
          "midi": 60,
          "name": "C4",
          "ticks": 436973,
          "time": 227.59010416666666,
          "velocity": 0.47244094488188976
        },
        {
          "duration": 0.13854166666666856,
          "durationTicks": 266,
          "midi": 67,
          "name": "G4",
          "ticks": 436979,
          "time": 227.59322916666667,
          "velocity": 0.48031496062992124
        },
        {
          "duration": 0.1770833333333428,
          "durationTicks": 340,
          "midi": 72,
          "name": "C5",
          "ticks": 436980,
          "time": 227.59375,
          "velocity": 0.5433070866141733
        },
        {
          "duration": 0.08124999999998295,
          "durationTicks": 156,
          "midi": 72,
          "name": "C5",
          "ticks": 437785,
          "time": 228.01302083333334,
          "velocity": 0.44881889763779526
        },
        {
          "duration": 0.1171875,
          "durationTicks": 225,
          "midi": 72,
          "name": "C5",
          "ticks": 438094,
          "time": 228.17395833333333,
          "velocity": 0.44881889763779526
        },
        {
          "duration": 0.14427083333333712,
          "durationTicks": 277,
          "midi": 67,
          "name": "G4",
          "ticks": 438518,
          "time": 228.39479166666666,
          "velocity": 0.5118110236220472
        },
        {
          "duration": 0.4541666666666515,
          "durationTicks": 872,
          "midi": 72,
          "name": "C5",
          "ticks": 438520,
          "time": 228.39583333333334,
          "velocity": 0.49606299212598426
        },
        {
          "duration": 0.13697916666666288,
          "durationTicks": 263,
          "midi": 60,
          "name": "C4",
          "ticks": 438522,
          "time": 228.396875,
          "velocity": 0.47244094488188976
        },
        {
          "duration": 0.12395833333334849,
          "durationTicks": 238,
          "midi": 72,
          "name": "C5",
          "ticks": 439726,
          "time": 229.02395833333333,
          "velocity": 0.48031496062992124
        },
        {
          "duration": 0.05572916666667993,
          "durationTicks": 107,
          "midi": 72,
          "name": "C5",
          "ticks": 440479,
          "time": 229.41614583333333,
          "velocity": 0.3858267716535433
        },
        {
          "duration": 0.10677083333334281,
          "durationTicks": 205,
          "midi": 72,
          "name": "C5",
          "ticks": 440859,
          "time": 229.6140625,
          "velocity": 0.4251968503937008
        },
        {
          "duration": 0.140625,
          "durationTicks": 270,
          "midi": 60,
          "name": "C4",
          "ticks": 441637,
          "time": 230.01927083333334,
          "velocity": 0.4566929133858268
        },
        {
          "duration": 0.13489583333333144,
          "durationTicks": 259,
          "midi": 72,
          "name": "C5",
          "ticks": 441637,
          "time": 230.01927083333334,
          "velocity": 0.48031496062992124
        },
        {
          "duration": 0.10624999999998863,
          "durationTicks": 204,
          "midi": 67,
          "name": "G4",
          "ticks": 441667,
          "time": 230.03489583333334,
          "velocity": 0.47244094488188976
        },
        {
          "duration": 0.14375000000001137,
          "durationTicks": 276,
          "midi": 57,
          "name": "A3",
          "ticks": 443161,
          "time": 230.81302083333333,
          "velocity": 0.47244094488188976
        },
        {
          "duration": 0.12864583333333712,
          "durationTicks": 247,
          "midi": 64,
          "name": "E4",
          "ticks": 443173,
          "time": 230.81927083333332,
          "velocity": 0.5118110236220472
        },
        {
          "duration": 0.15104166666668561,
          "durationTicks": 290,
          "midi": 69,
          "name": "A4",
          "ticks": 443176,
          "time": 230.82083333333333,
          "velocity": 0.5118110236220472
        },
        {
          "duration": 0.061979166666674246,
          "durationTicks": 119,
          "midi": 69,
          "name": "A4",
          "ticks": 443973,
          "time": 231.2359375,
          "velocity": 0.44881889763779526
        },
        {
          "duration": 0.12083333333333712,
          "durationTicks": 232,
          "midi": 69,
          "name": "A4",
          "ticks": 444346,
          "time": 231.43020833333333,
          "velocity": 0.4409448818897638
        },
        {
          "duration": 0.17604166666666288,
          "durationTicks": 338,
          "midi": 69,
          "name": "A4",
          "ticks": 444760,
          "time": 231.64583333333334,
          "velocity": 0.47244094488188976
        },
        {
          "duration": 0.10885416666667425,
          "durationTicks": 209,
          "midi": 64,
          "name": "E4",
          "ticks": 444803,
          "time": 231.66822916666666,
          "velocity": 0.49606299212598426
        },
        {
          "duration": 0.11614583333334849,
          "durationTicks": 223,
          "midi": 57,
          "name": "A3",
          "ticks": 444808,
          "time": 231.67083333333332,
          "velocity": 0.48031496062992124
        },
        {
          "duration": 0.13437500000000568,
          "durationTicks": 258,
          "midi": 69,
          "name": "A4",
          "ticks": 445935,
          "time": 232.2578125,
          "velocity": 0.5118110236220472
        },
        {
          "duration": 0.09479166666667993,
          "durationTicks": 182,
          "midi": 69,
          "name": "A4",
          "ticks": 446640,
          "time": 232.625,
          "velocity": 0.44881889763779526
        },
        {
          "duration": 0.10000000000002274,
          "durationTicks": 192,
          "midi": 69,
          "name": "A4",
          "ticks": 447024,
          "time": 232.825,
          "velocity": 0.4566929133858268
        },
        {
          "duration": 0.13697916666666288,
          "durationTicks": 263,
          "midi": 69,
          "name": "A4",
          "ticks": 447771,
          "time": 233.2140625,
          "velocity": 0.5433070866141733
        },
        {
          "duration": 0.13229166666667425,
          "durationTicks": 254,
          "midi": 57,
          "name": "A3",
          "ticks": 447792,
          "time": 233.225,
          "velocity": 0.48031496062992124
        },
        {
          "duration": 0.11302083333333712,
          "durationTicks": 217,
          "midi": 64,
          "name": "E4",
          "ticks": 447802,
          "time": 233.23020833333334,
          "velocity": 0.48031496062992124
        },
        {
          "duration": 0.11822916666665151,
          "durationTicks": 227,
          "midi": 60,
          "name": "C4",
          "ticks": 449332,
          "time": 234.02708333333334,
          "velocity": 0.48031496062992124
        },
        {
          "duration": 0.13489583333333144,
          "durationTicks": 259,
          "midi": 53,
          "name": "F3",
          "ticks": 449343,
          "time": 234.0328125,
          "velocity": 0.48031496062992124
        },
        {
          "duration": 0.12343749999999432,
          "durationTicks": 237,
          "midi": 65,
          "name": "F4",
          "ticks": 449363,
          "time": 234.04322916666666,
          "velocity": 0.5669291338582677
        },
        {
          "duration": 0.06927083333334849,
          "durationTicks": 133,
          "midi": 65,
          "name": "F4",
          "ticks": 450094,
          "time": 234.42395833333333,
          "velocity": 0.4409448818897638
        },
        {
          "duration": 0.10989583333335418,
          "durationTicks": 211,
          "midi": 65,
          "name": "F4",
          "ticks": 450459,
          "time": 234.6140625,
          "velocity": 0.44881889763779526
        },
        {
          "duration": 0.14687499999999432,
          "durationTicks": 282,
          "midi": 65,
          "name": "F4",
          "ticks": 450895,
          "time": 234.84114583333334,
          "velocity": 0.4566929133858268
        },
        {
          "duration": 0.11510416666666856,
          "durationTicks": 221,
          "midi": 53,
          "name": "F3",
          "ticks": 450912,
          "time": 234.85,
          "velocity": 0.47244094488188976
        },
        {
          "duration": 0.07916666666665151,
          "durationTicks": 152,
          "midi": 60,
          "name": "C4",
          "ticks": 450918,
          "time": 234.853125,
          "velocity": 0.49606299212598426
        },
        {
          "duration": 0.07864583333332575,
          "durationTicks": 151,
          "midi": 65,
          "name": "F4",
          "ticks": 451642,
          "time": 235.23020833333334,
          "velocity": 0.44881889763779526
        },
        {
          "duration": 0.16822916666666288,
          "durationTicks": 323,
          "midi": 65,
          "name": "F4",
          "ticks": 452054,
          "time": 235.44479166666667,
          "velocity": 0.49606299212598426
        },
        {
          "duration": 0.11979166666665719,
          "durationTicks": 230,
          "midi": 60,
          "name": "C4",
          "ticks": 452066,
          "time": 235.45104166666667,
          "velocity": 0.5118110236220472
        },
        {
          "duration": 0.14270833333333144,
          "durationTicks": 274,
          "midi": 53,
          "name": "F3",
          "ticks": 452072,
          "time": 235.45416666666668,
          "velocity": 0.47244094488188976
        },
        {
          "duration": 0.09218749999999432,
          "durationTicks": 177,
          "midi": 65,
          "name": "F4",
          "ticks": 452763,
          "time": 235.8140625,
          "velocity": 0.4566929133858268
        },
        {
          "duration": 0.08645833333332575,
          "durationTicks": 166,
          "midi": 65,
          "name": "F4",
          "ticks": 453183,
          "time": 236.0328125,
          "velocity": 0.4251968503937008
        },
        {
          "duration": 0.09843749999998863,
          "durationTicks": 189,
          "midi": 65,
          "name": "F4",
          "ticks": 453540,
          "time": 236.21875,
          "velocity": 0.3779527559055118
        },
        {
          "duration": 0.10781250000002274,
          "durationTicks": 207,
          "midi": 60,
          "name": "C4",
          "ticks": 453913,
          "time": 236.41302083333332,
          "velocity": 0.5118110236220472
        },
        {
          "duration": 0.19374999999999432,
          "durationTicks": 372,
          "midi": 65,
          "name": "F4",
          "ticks": 453921,
          "time": 236.4171875,
          "velocity": 0.49606299212598426
        },
        {
          "duration": 0.11354166666666288,
          "durationTicks": 218,
          "midi": 53,
          "name": "F3",
          "ticks": 453923,
          "time": 236.41822916666666,
          "velocity": 0.47244094488188976
        },
        {
          "duration": 0.11041666666665151,
          "durationTicks": 212,
          "midi": 65,
          "name": "F4",
          "ticks": 454646,
          "time": 236.79479166666667,
          "velocity": 0.5118110236220472
        },
        {
          "duration": 0.19218750000001705,
          "durationTicks": 369,
          "midi": 67,
          "name": "G4",
          "ticks": 455401,
          "time": 237.18802083333333,
          "velocity": 0.5433070866141733
        },
        {
          "duration": 0.1317708333333485,
          "durationTicks": 253,
          "midi": 62,
          "name": "D4",
          "ticks": 455405,
          "time": 237.19010416666666,
          "velocity": 0.5196850393700787
        },
        {
          "duration": 0.15000000000000568,
          "durationTicks": 288,
          "midi": 55,
          "name": "G3",
          "ticks": 455418,
          "time": 237.196875,
          "velocity": 0.48031496062992124
        },
        {
          "duration": 0.09427083333332575,
          "durationTicks": 181,
          "midi": 67,
          "name": "G4",
          "ticks": 456167,
          "time": 237.58697916666668,
          "velocity": 0.48031496062992124
        },
        {
          "duration": 0.13124999999999432,
          "durationTicks": 252,
          "midi": 55,
          "name": "G3",
          "ticks": 456180,
          "time": 237.59375,
          "velocity": 0.47244094488188976
        },
        {
          "duration": 0.10885416666667425,
          "durationTicks": 209,
          "midi": 62,
          "name": "D4",
          "ticks": 456192,
          "time": 237.6,
          "velocity": 0.4566929133858268
        },
        {
          "duration": 0.11822916666665151,
          "durationTicks": 227,
          "midi": 67,
          "name": "G4",
          "ticks": 456505,
          "time": 237.76302083333334,
          "velocity": 0.4566929133858268
        },
        {
          "duration": 0.15885416666668561,
          "durationTicks": 305,
          "midi": 67,
          "name": "G4",
          "ticks": 456939,
          "time": 237.9890625,
          "velocity": 0.4409448818897638
        },
        {
          "duration": 0.05572916666667993,
          "durationTicks": 107,
          "midi": 67,
          "name": "G4",
          "ticks": 457636,
          "time": 238.35208333333333,
          "velocity": 0.4251968503937008
        },
        {
          "duration": 0.09427083333332575,
          "durationTicks": 181,
          "midi": 67,
          "name": "G4",
          "ticks": 458012,
          "time": 238.54791666666668,
          "velocity": 0.48031496062992124
        },
        {
          "duration": 0.054166666666674246,
          "durationTicks": 104,
          "midi": 67,
          "name": "G4",
          "ticks": 458653,
          "time": 238.88177083333332,
          "velocity": 0.4015748031496063
        },
        {
          "duration": 0.12864583333333712,
          "durationTicks": 247,
          "midi": 67,
          "name": "G4",
          "ticks": 459320,
          "time": 239.22916666666666,
          "velocity": 0.48031496062992124
        },
        {
          "duration": 0.4255208333333087,
          "durationTicks": 817,
          "midi": 69,
          "name": "A4",
          "ticks": 459756,
          "time": 239.45625,
          "velocity": 0.48031496062992124
        },
        {
          "duration": 0.10781250000002274,
          "durationTicks": 207,
          "midi": 62,
          "name": "D4",
          "ticks": 459763,
          "time": 239.45989583333332,
          "velocity": 0.49606299212598426
        },
        {
          "duration": 0.06927083333334849,
          "durationTicks": 133,
          "midi": 55,
          "name": "G3",
          "ticks": 459788,
          "time": 239.47291666666666,
          "velocity": 0.44881889763779526
        },
        {
          "duration": 0.07604166666666856,
          "durationTicks": 146,
          "midi": 71,
          "name": "B4",
          "ticks": 460489,
          "time": 239.83802083333333,
          "velocity": 0.5669291338582677
        },
        {
          "duration": 0.13072916666666856,
          "durationTicks": 251,
          "midi": 55,
          "name": "G3",
          "ticks": 461242,
          "time": 240.23020833333334,
          "velocity": 0.4566929133858268
        },
        {
          "duration": 0.11302083333333712,
          "durationTicks": 217,
          "midi": 62,
          "name": "D4",
          "ticks": 461242,
          "time": 240.23020833333334,
          "velocity": 0.48031496062992124
        },
        {
          "duration": 0.15104166666668561,
          "durationTicks": 290,
          "midi": 72,
          "name": "C5",
          "ticks": 461975,
          "time": 240.61197916666666,
          "velocity": 0.5196850393700787
        },
        {
          "duration": 0.11614583333332007,
          "durationTicks": 223,
          "midi": 84,
          "name": "C6",
          "ticks": 462359,
          "time": 240.81197916666667,
          "velocity": 0.5196850393700787
        },
        {
          "duration": 0.08177083333333712,
          "durationTicks": 157,
          "midi": 62,
          "name": "D4",
          "ticks": 462743,
          "time": 241.01197916666666,
          "velocity": 0.44881889763779526
        },
        {
          "duration": 0.061979166666674246,
          "durationTicks": 119,
          "midi": 55,
          "name": "G3",
          "ticks": 462768,
          "time": 241.025,
          "velocity": 0.3858267716535433
        },
        {
          "duration": 0.15625,
          "durationTicks": 300,
          "midi": 72,
          "name": "C5",
          "ticks": 463551,
          "time": 241.4328125,
          "velocity": 0.5196850393700787
        },
        {
          "duration": 0.11302083333333712,
          "durationTicks": 217,
          "midi": 84,
          "name": "C6",
          "ticks": 463891,
          "time": 241.60989583333333,
          "velocity": 0.5433070866141733
        },
        {
          "duration": 0.12031250000001137,
          "durationTicks": 231,
          "midi": 62,
          "name": "D4",
          "ticks": 464300,
          "time": 241.82291666666666,
          "velocity": 0.48031496062992124
        },
        {
          "duration": 0.12291666666666856,
          "durationTicks": 236,
          "midi": 55,
          "name": "G3",
          "ticks": 464306,
          "time": 241.82604166666667,
          "velocity": 0.47244094488188976
        },
        {
          "duration": 0.15781250000000568,
          "durationTicks": 303,
          "midi": 72,
          "name": "C5",
          "ticks": 465024,
          "time": 242.2,
          "velocity": 0.48031496062992124
        },
        {
          "duration": 0.12083333333333712,
          "durationTicks": 232,
          "midi": 62,
          "name": "D4",
          "ticks": 465299,
          "time": 242.34322916666667,
          "velocity": 0.5118110236220472
        },
        {
          "duration": 0.12187499999998863,
          "durationTicks": 234,
          "midi": 55,
          "name": "G3",
          "ticks": 465303,
          "time": 242.3453125,
          "velocity": 0.48031496062992124
        },
        {
          "duration": 0.15937500000001137,
          "durationTicks": 306,
          "midi": 84,
          "name": "C6",
          "ticks": 465713,
          "time": 242.55885416666666,
          "velocity": 0.5196850393700787
        },
        {
          "duration": 0.3869791666666913,
          "durationTicks": 743,
          "midi": 83,
          "name": "B5",
          "ticks": 466449,
          "time": 242.9421875,
          "velocity": 0.49606299212598426
        },
        {
          "duration": 0.13385416666667993,
          "durationTicks": 257,
          "midi": 55,
          "name": "G3",
          "ticks": 466453,
          "time": 242.94427083333332,
          "velocity": 0.47244094488188976
        },
        {
          "duration": 0.12916666666666288,
          "durationTicks": 248,
          "midi": 62,
          "name": "D4",
          "ticks": 466462,
          "time": 242.94895833333334,
          "velocity": 0.49606299212598426
        },
        {
          "duration": 0.4609375,
          "durationTicks": 885,
          "midi": 81,
          "name": "A5",
          "ticks": 467180,
          "time": 243.32291666666666,
          "velocity": 0.5118110236220472
        },
        {
          "duration": 0.19687500000000568,
          "durationTicks": 378,
          "midi": 55,
          "name": "G3",
          "ticks": 467184,
          "time": 243.325,
          "velocity": 0.4566929133858268
        },
        {
          "duration": 0.16979166666666856,
          "durationTicks": 326,
          "midi": 62,
          "name": "D4",
          "ticks": 467196,
          "time": 243.33125,
          "velocity": 0.49606299212598426
        },
        {
          "duration": 0.48385416666667425,
          "durationTicks": 929,
          "midi": 79,
          "name": "G5",
          "ticks": 467933,
          "time": 243.71510416666666,
          "velocity": 0.5118110236220472
        },
        {
          "duration": 0.10729166666666856,
          "durationTicks": 206,
          "midi": 62,
          "name": "D4",
          "ticks": 467940,
          "time": 243.71875,
          "velocity": 0.48031496062992124
        },
        {
          "duration": 0.11562499999999432,
          "durationTicks": 222,
          "midi": 55,
          "name": "G3",
          "ticks": 467962,
          "time": 243.73020833333334,
          "velocity": 0.4566929133858268
        },
        {
          "duration": 0.11770833333332575,
          "durationTicks": 226,
          "midi": 53,
          "name": "F3",
          "ticks": 468653,
          "time": 244.09010416666666,
          "velocity": 0.44881889763779526
        },
        {
          "duration": 0.12083333333333712,
          "durationTicks": 232,
          "midi": 60,
          "name": "C4",
          "ticks": 468655,
          "time": 244.09114583333334,
          "velocity": 0.49606299212598426
        },
        {
          "duration": 0.16041666666666288,
          "durationTicks": 308,
          "midi": 72,
          "name": "C5",
          "ticks": 469457,
          "time": 244.50885416666668,
          "velocity": 0.4566929133858268
        },
        {
          "duration": 0.23229166666664014,
          "durationTicks": 446,
          "midi": 76,
          "name": "E5",
          "ticks": 469772,
          "time": 244.67291666666668,
          "velocity": 0.4015748031496063
        },
        {
          "duration": 0.4130208333333485,
          "durationTicks": 793,
          "midi": 77,
          "name": "F5",
          "ticks": 470221,
          "time": 244.90677083333333,
          "velocity": 0.48031496062992124
        },
        {
          "duration": 0.10989583333332575,
          "durationTicks": 211,
          "midi": 60,
          "name": "C4",
          "ticks": 470231,
          "time": 244.91197916666667,
          "velocity": 0.49606299212598426
        },
        {
          "duration": 0.12395833333332007,
          "durationTicks": 238,
          "midi": 53,
          "name": "F3",
          "ticks": 470237,
          "time": 244.91510416666668,
          "velocity": 0.4409448818897638
        },
        {
          "duration": 0.12656250000000568,
          "durationTicks": 243,
          "midi": 48,
          "name": "C3",
          "ticks": 470984,
          "time": 245.30416666666667,
          "velocity": 0.44881889763779526
        },
        {
          "duration": 0.3812499999999943,
          "durationTicks": 732,
          "midi": 79,
          "name": "G5",
          "ticks": 470989,
          "time": 245.30677083333333,
          "velocity": 0.48031496062992124
        },
        {
          "duration": 0.11927083333333144,
          "durationTicks": 229,
          "midi": 55,
          "name": "G3",
          "ticks": 470991,
          "time": 245.3078125,
          "velocity": 0.44881889763779526
        },
        {
          "duration": 0.4859375000000057,
          "durationTicks": 933,
          "midi": 77,
          "name": "F5",
          "ticks": 471750,
          "time": 245.703125,
          "velocity": 0.49606299212598426
        },
        {
          "duration": 0.1520833333333087,
          "durationTicks": 292,
          "midi": 41,
          "name": "F2",
          "ticks": 472502,
          "time": 246.09479166666668,
          "velocity": 0.4015748031496063
        },
        {
          "duration": 0.1130208333333087,
          "durationTicks": 217,
          "midi": 48,
          "name": "C3",
          "ticks": 472502,
          "time": 246.09479166666668,
          "velocity": 0.48031496062992124
        },
        {
          "duration": 0.43437499999998863,
          "durationTicks": 834,
          "midi": 76,
          "name": "E5",
          "ticks": 472506,
          "time": 246.096875,
          "velocity": 0.5118110236220472
        },
        {
          "duration": 0.4416666666666629,
          "durationTicks": 848,
          "midi": 77,
          "name": "F5",
          "ticks": 473240,
          "time": 246.47916666666666,
          "velocity": 0.5196850393700787
        },
        {
          "duration": 0.11197916666665719,
          "durationTicks": 215,
          "midi": 41,
          "name": "F2",
          "ticks": 473253,
          "time": 246.4859375,
          "velocity": 0.41732283464566927
        },
        {
          "duration": 0.1276041666666572,
          "durationTicks": 245,
          "midi": 48,
          "name": "C3",
          "ticks": 473267,
          "time": 246.49322916666668,
          "velocity": 0.44881889763779526
        },
        {
          "duration": 0.1328125,
          "durationTicks": 255,
          "midi": 53,
          "name": "F3",
          "ticks": 473960,
          "time": 246.85416666666666,
          "velocity": 0.48031496062992124
        },
        {
          "duration": 0.3812499999999943,
          "durationTicks": 732,
          "midi": 79,
          "name": "G5",
          "ticks": 473969,
          "time": 246.85885416666667,
          "velocity": 0.5196850393700787
        },
        {
          "duration": 0.1291666666666913,
          "durationTicks": 248,
          "midi": 57,
          "name": "A3",
          "ticks": 474699,
          "time": 247.2390625,
          "velocity": 0.5118110236220472
        },
        {
          "duration": 0.4270833333333428,
          "durationTicks": 820,
          "midi": 77,
          "name": "F5",
          "ticks": 474710,
          "time": 247.24479166666666,
          "velocity": 0.5196850393700787
        },
        {
          "duration": 0.06770833333334281,
          "durationTicks": 130,
          "midi": 76,
          "name": "E5",
          "ticks": 475448,
          "time": 247.62916666666666,
          "velocity": 0.5196850393700787
        },
        {
          "duration": 0.14270833333333144,
          "durationTicks": 274,
          "midi": 60,
          "name": "C4",
          "ticks": 476168,
          "time": 248.00416666666666,
          "velocity": 0.47244094488188976
        },
        {
          "duration": 0.1640625,
          "durationTicks": 315,
          "midi": 69,
          "name": "A4",
          "ticks": 476279,
          "time": 248.06197916666667,
          "velocity": 0.5118110236220472
        },
        {
          "duration": 0.23385416666667425,
          "durationTicks": 449,
          "midi": 71,
          "name": "B4",
          "ticks": 476619,
          "time": 248.2390625,
          "velocity": 0.44881889763779526
        },
        {
          "duration": 0.18697916666667425,
          "durationTicks": 359,
          "midi": 72,
          "name": "C5",
          "ticks": 476959,
          "time": 248.41614583333333,
          "velocity": 0.3779527559055118
        },
        {
          "duration": 0.1171875,
          "durationTicks": 225,
          "midi": 74,
          "name": "D5",
          "ticks": 477339,
          "time": 248.6140625,
          "velocity": 0.47244094488188976
        },
        {
          "duration": 0.1807291666666515,
          "durationTicks": 347,
          "midi": 79,
          "name": "G5",
          "ticks": 477696,
          "time": 248.8,
          "velocity": 0.47244094488188976
        },
        {
          "duration": 0.2640624999999943,
          "durationTicks": 507,
          "midi": 81,
          "name": "A5",
          "ticks": 478022,
          "time": 248.96979166666668,
          "velocity": 0.3937007874015748
        },
        {
          "duration": 0.27916666666666856,
          "durationTicks": 536,
          "midi": 83,
          "name": "B5",
          "ticks": 478441,
          "time": 249.18802083333333,
          "velocity": 0.48031496062992124
        },
        {
          "duration": 0.1291666666666913,
          "durationTicks": 248,
          "midi": 84,
          "name": "C6",
          "ticks": 478869,
          "time": 249.4109375,
          "velocity": 0.48031496062992124
        },
        {
          "duration": 0.4151041666666515,
          "durationTicks": 797,
          "midi": 84,
          "name": "C6",
          "ticks": 479230,
          "time": 249.59895833333334,
          "velocity": 0.6141732283464567
        },
        {
          "duration": 0.11614583333334849,
          "durationTicks": 223,
          "midi": 64,
          "name": "E4",
          "ticks": 479270,
          "time": 249.61979166666666,
          "velocity": 0.5433070866141733
        },
        {
          "duration": 0.12395833333332007,
          "durationTicks": 238,
          "midi": 60,
          "name": "C4",
          "ticks": 479286,
          "time": 249.628125,
          "velocity": 0.4566929133858268
        },
        {
          "duration": 0.08281249999998863,
          "durationTicks": 159,
          "midi": 83,
          "name": "B5",
          "ticks": 479987,
          "time": 249.99322916666668,
          "velocity": 0.6141732283464567
        },
        {
          "duration": 0.5531249999999943,
          "durationTicks": 1062,
          "midi": 72,
          "name": "C5",
          "ticks": 480818,
          "time": 250.42604166666666,
          "velocity": 0.4409448818897638
        },
        {
          "duration": 0.19739583333333144,
          "durationTicks": 379,
          "midi": 74,
          "name": "D5",
          "ticks": 480829,
          "time": 250.43177083333333,
          "velocity": 0.44881889763779526
        },
        {
          "duration": 0.12395833333334849,
          "durationTicks": 238,
          "midi": 72,
          "name": "C5",
          "ticks": 482233,
          "time": 251.16302083333332,
          "velocity": 0.5669291338582677
        },
        {
          "duration": 0.14791666666664582,
          "durationTicks": 284,
          "midi": 79,
          "name": "G5",
          "ticks": 482237,
          "time": 251.16510416666668,
          "velocity": 0.5118110236220472
        },
        {
          "duration": 0.05104166666666288,
          "durationTicks": 98,
          "midi": 76,
          "name": "E5",
          "ticks": 482252,
          "time": 251.17291666666668,
          "velocity": 0.4566929133858268
        },
        {
          "duration": 0.07343750000001137,
          "durationTicks": 141,
          "midi": 60,
          "name": "C4",
          "ticks": 482269,
          "time": 251.18177083333333,
          "velocity": 0.48031496062992124
        },
        {
          "duration": 0.05208333333334281,
          "durationTicks": 100,
          "midi": 67,
          "name": "G4",
          "ticks": 482273,
          "time": 251.18385416666666,
          "velocity": 0.48031496062992124
        },
        {
          "duration": 0.23593750000000568,
          "durationTicks": 453,
          "midi": 76,
          "name": "E5",
          "ticks": 482548,
          "time": 251.32708333333332,
          "velocity": 0.44881889763779526
        },
        {
          "duration": 0.14999999999997726,
          "durationTicks": 288,
          "midi": 77,
          "name": "F5",
          "ticks": 482972,
          "time": 251.54791666666668,
          "velocity": 0.47244094488188976
        },
        {
          "duration": 0.14010416666667425,
          "durationTicks": 269,
          "midi": 79,
          "name": "G5",
          "ticks": 483289,
          "time": 251.71302083333333,
          "velocity": 0.5118110236220472
        },
        {
          "duration": 0.42395833333333144,
          "durationTicks": 814,
          "midi": 77,
          "name": "F5",
          "ticks": 483729,
          "time": 251.9421875,
          "velocity": 0.5905511811023622
        },
        {
          "duration": 0.13489583333333144,
          "durationTicks": 259,
          "midi": 69,
          "name": "A4",
          "ticks": 483744,
          "time": 251.95,
          "velocity": 0.5196850393700787
        },
        {
          "duration": 0.13489583333335986,
          "durationTicks": 259,
          "midi": 65,
          "name": "F4",
          "ticks": 483748,
          "time": 251.95208333333332,
          "velocity": 0.49606299212598426
        },
        {
          "duration": 0.08697916666667993,
          "durationTicks": 167,
          "midi": 76,
          "name": "E5",
          "ticks": 484501,
          "time": 252.34427083333333,
          "velocity": 0.5433070866141733
        },
        {
          "duration": 0.13229166666667425,
          "durationTicks": 254,
          "midi": 72,
          "name": "C5",
          "ticks": 485257,
          "time": 252.73802083333334,
          "velocity": 0.5118110236220472
        },
        {
          "duration": 0.06510416666665719,
          "durationTicks": 125,
          "midi": 76,
          "name": "E5",
          "ticks": 485261,
          "time": 252.74010416666667,
          "velocity": 0.48031496062992124
        },
        {
          "duration": 0.10989583333335418,
          "durationTicks": 211,
          "midi": 60,
          "name": "C4",
          "ticks": 485263,
          "time": 252.74114583333332,
          "velocity": 0.4566929133858268
        },
        {
          "duration": 0.09322916666667425,
          "durationTicks": 179,
          "midi": 67,
          "name": "G4",
          "ticks": 485272,
          "time": 252.74583333333334,
          "velocity": 0.48031496062992124
        },
        {
          "duration": 0.23802083333333712,
          "durationTicks": 457,
          "midi": 76,
          "name": "E5",
          "ticks": 485587,
          "time": 252.90989583333334,
          "velocity": 0.44881889763779526
        },
        {
          "duration": 0.1630208333333485,
          "durationTicks": 313,
          "midi": 77,
          "name": "F5",
          "ticks": 486012,
          "time": 253.13125,
          "velocity": 0.44881889763779526
        },
        {
          "duration": 0.11510416666666856,
          "durationTicks": 221,
          "midi": 79,
          "name": "G5",
          "ticks": 486326,
          "time": 253.29479166666667,
          "velocity": 0.5669291338582677
        },
        {
          "duration": 0.2854166666666913,
          "durationTicks": 548,
          "midi": 71,
          "name": "B4",
          "ticks": 486808,
          "time": 253.54583333333332,
          "velocity": 0.5118110236220472
        },
        {
          "duration": 0.2572916666666458,
          "durationTicks": 494,
          "midi": 79,
          "name": "G5",
          "ticks": 486816,
          "time": 253.55,
          "velocity": 0.5669291338582677
        },
        {
          "duration": 0.29218750000001137,
          "durationTicks": 561,
          "midi": 67,
          "name": "G4",
          "ticks": 486833,
          "time": 253.55885416666666,
          "velocity": 0.44881889763779526
        },
        {
          "duration": 0.13854166666666856,
          "durationTicks": 266,
          "midi": 72,
          "name": "C5",
          "ticks": 488314,
          "time": 254.33020833333333,
          "velocity": 0.48031496062992124
        },
        {
          "duration": 0.16197916666666856,
          "durationTicks": 311,
          "midi": 79,
          "name": "G5",
          "ticks": 488323,
          "time": 254.33489583333332,
          "velocity": 0.47244094488188976
        },
        {
          "duration": 0.056250000000005684,
          "durationTicks": 108,
          "midi": 76,
          "name": "E5",
          "ticks": 488325,
          "time": 254.3359375,
          "velocity": 0.41732283464566927
        },
        {
          "duration": 0.11822916666665151,
          "durationTicks": 227,
          "midi": 60,
          "name": "C4",
          "ticks": 488327,
          "time": 254.33697916666668,
          "velocity": 0.49606299212598426
        },
        {
          "duration": 0.08281249999998863,
          "durationTicks": 159,
          "midi": 67,
          "name": "G4",
          "ticks": 488335,
          "time": 254.34114583333334,
          "velocity": 0.48031496062992124
        },
        {
          "duration": 0.2604166666666856,
          "durationTicks": 500,
          "midi": 76,
          "name": "E5",
          "ticks": 488653,
          "time": 254.50677083333332,
          "velocity": 0.4094488188976378
        },
        {
          "duration": 0.23385416666667425,
          "durationTicks": 449,
          "midi": 77,
          "name": "F5",
          "ticks": 489128,
          "time": 254.75416666666666,
          "velocity": 0.4566929133858268
        },
        {
          "duration": 0.1302083333333428,
          "durationTicks": 250,
          "midi": 79,
          "name": "G5",
          "ticks": 489444,
          "time": 254.91875,
          "velocity": 0.5118110236220472
        },
        {
          "duration": 0.41979166666666856,
          "durationTicks": 806,
          "midi": 57,
          "name": "A3",
          "ticks": 489888,
          "time": 255.15,
          "velocity": 0.44881889763779526
        },
        {
          "duration": 0.40572916666667425,
          "durationTicks": 779,
          "midi": 64,
          "name": "E4",
          "ticks": 489898,
          "time": 255.15520833333332,
          "velocity": 0.48031496062992124
        },
        {
          "duration": 0.28020833333332007,
          "durationTicks": 538,
          "midi": 69,
          "name": "A4",
          "ticks": 489903,
          "time": 255.1578125,
          "velocity": 0.5433070866141733
        },
        {
          "duration": 0.17083333333332007,
          "durationTicks": 328,
          "midi": 72,
          "name": "C5",
          "ticks": 489948,
          "time": 255.18125,
          "velocity": 0.48031496062992124
        },
        {
          "duration": 0.3932291666666572,
          "durationTicks": 755,
          "midi": 72,
          "name": "C5",
          "ticks": 490675,
          "time": 255.55989583333334,
          "velocity": 0.5433070866141733
        },
        {
          "duration": 0.15208333333336554,
          "durationTicks": 292,
          "midi": 74,
          "name": "D5",
          "ticks": 491420,
          "time": 255.94791666666666,
          "velocity": 0.5196850393700787
        },
        {
          "duration": 0.13229166666667425,
          "durationTicks": 254,
          "midi": 65,
          "name": "F4",
          "ticks": 491437,
          "time": 255.95677083333334,
          "velocity": 0.5196850393700787
        },
        {
          "duration": 0.13072916666666856,
          "durationTicks": 251,
          "midi": 62,
          "name": "D4",
          "ticks": 491455,
          "time": 255.96614583333334,
          "velocity": 0.47244094488188976
        },
        {
          "duration": 0.20624999999995453,
          "durationTicks": 396,
          "midi": 76,
          "name": "E5",
          "ticks": 491750,
          "time": 256.1197916666667,
          "velocity": 0.48031496062992124
        },
        {
          "duration": 0.26614583333332575,
          "durationTicks": 511,
          "midi": 74,
          "name": "D5",
          "ticks": 492209,
          "time": 256.3588541666667,
          "velocity": 0.4094488188976378
        },
        {
          "duration": 0.3140625000000341,
          "durationTicks": 603,
          "midi": 72,
          "name": "C5",
          "ticks": 492572,
          "time": 256.54791666666665,
          "velocity": 0.4251968503937008
        },
        {
          "duration": 0.5859375,
          "durationTicks": 1125,
          "midi": 55,
          "name": "G3",
          "ticks": 493016,
          "time": 256.77916666666664,
          "velocity": 0.44881889763779526
        },
        {
          "duration": 0.6000000000000227,
          "durationTicks": 1152,
          "midi": 62,
          "name": "D4",
          "ticks": 493027,
          "time": 256.78489583333334,
          "velocity": 0.48031496062992124
        },
        {
          "duration": 0.6489583333333258,
          "durationTicks": 1246,
          "midi": 67,
          "name": "G4",
          "ticks": 493029,
          "time": 256.7859375,
          "velocity": 0.5118110236220472
        },
        {
          "duration": 0.2197916666666515,
          "durationTicks": 422,
          "midi": 72,
          "name": "C5",
          "ticks": 494220,
          "time": 257.40625,
          "velocity": 0.47244094488188976
        },
        {
          "duration": 0.6140624999999886,
          "durationTicks": 1179,
          "midi": 67,
          "name": "G4",
          "ticks": 494669,
          "time": 257.6401041666667,
          "velocity": 0.47244094488188976
        },
        {
          "duration": 0.21875,
          "durationTicks": 420,
          "midi": 72,
          "name": "C5",
          "ticks": 495779,
          "time": 258.2182291666667,
          "velocity": 0.47244094488188976
        },
        {
          "duration": 0.20104166666664014,
          "durationTicks": 386,
          "midi": 67,
          "name": "G4",
          "ticks": 496197,
          "time": 258.4359375,
          "velocity": 0.3779527559055118
        },
        {
          "duration": 0.21510416666666288,
          "durationTicks": 413,
          "midi": 72,
          "name": "C5",
          "ticks": 496577,
          "time": 258.63385416666665,
          "velocity": 0.4094488188976378
        },
        {
          "duration": 0.2432291666666515,
          "durationTicks": 467,
          "midi": 67,
          "name": "G4",
          "ticks": 497030,
          "time": 258.8697916666667,
          "velocity": 0.41732283464566927
        },
        {
          "duration": 0.24791666666669698,
          "durationTicks": 476,
          "midi": 72,
          "name": "C5",
          "ticks": 497470,
          "time": 259.0989583333333,
          "velocity": 0.4251968503937008
        },
        {
          "duration": 0.5609375000000227,
          "durationTicks": 1077,
          "midi": 67,
          "name": "G4",
          "ticks": 497996,
          "time": 259.37291666666664,
          "velocity": 0.3779527559055118
        },
        {
          "duration": 1.931770833333303,
          "durationTicks": 3709,
          "midi": 71,
          "name": "B4",
          "ticks": 498966,
          "time": 259.878125,
          "velocity": 0.44881889763779526
        },
        {
          "duration": 1.9109374999999886,
          "durationTicks": 3669,
          "midi": 55,
          "name": "G3",
          "ticks": 498966,
          "time": 259.878125,
          "velocity": 0.41732283464566927
        },
        {
          "duration": 1.9067708333333258,
          "durationTicks": 3661,
          "midi": 62,
          "name": "D4",
          "ticks": 498987,
          "time": 259.8890625,
          "velocity": 0.3779527559055118
        },
        {
          "duration": 1.0447916666666401,
          "durationTicks": 2006,
          "midi": 67,
          "name": "G4",
          "ticks": 502537,
          "time": 261.73802083333334,
          "velocity": 0.44881889763779526
        },
        {
          "duration": 0.3760416666666515,
          "durationTicks": 722,
          "midi": 55,
          "name": "G3",
          "ticks": 504428,
          "time": 262.72291666666666,
          "velocity": 0.3779527559055118
        },
        {
          "duration": 0.4869791666666856,
          "durationTicks": 935,
          "midi": 69,
          "name": "A4",
          "ticks": 504436,
          "time": 262.7270833333333,
          "velocity": 0.44881889763779526
        },
        {
          "duration": 0.3828125,
          "durationTicks": 735,
          "midi": 62,
          "name": "D4",
          "ticks": 504442,
          "time": 262.73020833333334,
          "velocity": 0.4094488188976378
        },
        {
          "duration": 3.661979166666697,
          "durationTicks": 7031,
          "midi": 72,
          "name": "C5",
          "ticks": 506433,
          "time": 263.7671875,
          "velocity": 0.5118110236220472
        },
        {
          "duration": 1.5364583333333144,
          "durationTicks": 2950,
          "midi": 64,
          "name": "E4",
          "ticks": 506438,
          "time": 263.76979166666666,
          "velocity": 0.5118110236220472
        },
        {
          "duration": 1.5249999999999773,
          "durationTicks": 2928,
          "midi": 60,
          "name": "C4",
          "ticks": 506458,
          "time": 263.78020833333335,
          "velocity": 0.48031496062992124
        }
      ]
    }
  ]
}